<svg width="24" height="24" viewBox="0 0 24 24" fill="currentColor" xmlns="http://www.w3.org/2000/svg">
    <path fill-rule="evenodd" clip-rule="evenodd" d="M3.5 2C2.67157 2 2 2.67157 2 3.5V20.5C2 21.3284 2.67157 22 3.5 22C4.32843 22 5 21.3284 5 20.5V3.5C5 2.67157 4.32843 2 3.5 2ZM6.12276 4.79964C6.4688 4.29286 7.58797 3 10 3C11.5 3 12.75 3.75 14 4.5C15.25 5.25 16.5 6 18 6C19.536 6 20.5477 5.73787 21.1693 5.48202C21.4989 5.34639 22 5.60932 22 5.96569V15.5858C22 15.851 21.8923 16.1051 21.6637 16.2395C21.1606 16.5354 20.045 17 18 17C16.5 17 15.25 16.25 14 15.5C12.75 14.75 11.5 14 10 14C8.45779 14 7.44411 14.5285 6.82312 15.0422C6.57919 15.244 6 15.0457 6 14.7292V5.23607C6 5.08082 6.03522 4.92785 6.12276 4.79964Z" fill="currentColor"/>
</svg>
