<svg width="14" height="15" viewBox="0 0 14 15" fill="currentColor" xmlns="http://www.w3.org/2000/svg">
    <path fill-rule="evenodd" clip-rule="evenodd" d="M2.1 0.5C0.940202 0.5 0 1.4402 0 2.6V12.4C0 13.5598 0.940202 14.5 2.1 14.5H11.9C13.0598 14.5 14 13.5598 14 12.4V2.6C14 1.4402 13.0598 0.5 11.9 0.5H2.1ZM2.1 4.35C2.1 3.7701 2.5701 3.3 3.15 3.3C3.7299 3.3 4.2 3.7701 4.2 4.35V10.65C4.2 11.2299 3.7299 11.7 3.15 11.7C2.5701 11.7 2.1 11.2299 2.1 10.65V4.35ZM5.6 4C5.6 3.6134 5.9134 3.3 6.3 3.3H7.7C10.15 3.3 11.9 5.1804 11.9 7.5C11.9 9.8196 10.15 11.7 7.7 11.7H6.3C5.9134 11.7 5.6 11.3866 5.6 11V4ZM7.7 9.6C8.75 9.6 9.8 9.03456 9.8 7.5C9.8 5.96544 8.75 5.4 7.7 5.4V9.6Z" fill="currentColor"/>
</svg>
