<svg width="24" height="24" viewBox="0 0 24 24" fill="none" xmlns="http://www.w3.org/2000/svg">
<path d="M19 1C20.1046 1 21 1.89543 21 3V13C21 13.5523 20.5523 14 20 14C19.4477 14 19 13.5523 19 13V3H5V21H12C12.5523 21 13 21.4477 13 22C13 22.5523 12.5523 23 12 23H5C3.89543 23 3 22.1046 3 21V3C3 1.89543 3.89543 1 5 1H19ZM17.9326 16.4092C18.1145 15.8637 18.8855 15.8637 19.0674 16.4092C19.1173 16.5589 19.1759 16.7046 19.2422 16.8457C19.2534 16.8696 19.2656 16.8934 19.2773 16.917L19.2783 16.9189C19.6657 17.7006 20.2994 18.3343 21.0811 18.7217L21.083 18.7227C21.1066 18.7344 21.1304 18.7466 21.1543 18.7578C21.2954 18.8241 21.4411 18.8827 21.5908 18.9326C22.1363 19.1145 22.1363 19.8855 21.5908 20.0674C21.4411 20.1173 21.2954 20.1759 21.1543 20.2422C21.1304 20.2534 21.1066 20.2656 21.083 20.2773L21.0811 20.2783C20.2994 20.6657 19.6657 21.2994 19.2783 22.0811L19.2773 22.083C19.2656 22.1066 19.2534 22.1304 19.2422 22.1543C19.1759 22.2954 19.1173 22.4411 19.0674 22.5908C18.8855 23.1363 18.1145 23.1363 17.9326 22.5908C17.8827 22.4411 17.8241 22.2954 17.7578 22.1543C17.7466 22.1304 17.7344 22.1066 17.7227 22.083L17.7217 22.0811C17.3343 21.2994 16.7006 20.6657 15.9189 20.2783L15.917 20.2773C15.8934 20.2656 15.8696 20.2534 15.8457 20.2422C15.7046 20.1759 15.5589 20.1173 15.4092 20.0674C14.8637 19.8855 14.8637 19.1145 15.4092 18.9326C15.5589 18.8827 15.7046 18.8241 15.8457 18.7578C15.8696 18.7466 15.8934 18.7344 15.917 18.7227L15.9189 18.7217C16.7006 18.3343 17.3343 17.7006 17.7217 16.9189L17.7227 16.917C17.7344 16.8934 17.7466 16.8696 17.7578 16.8457C17.8241 16.7046 17.8827 16.5589 17.9326 16.4092ZM18.5 18.3906C18.1859 18.8121 17.8121 19.1859 17.3906 19.5C17.8121 19.8141 18.1859 20.1879 18.5 20.6094C18.8141 20.1879 19.1879 19.8141 19.6094 19.5C19.1879 19.1859 18.8141 18.8121 18.5 18.3906ZM14.0947 10.292C14.2248 9.90272 14.7752 9.90272 14.9053 10.292C14.9409 10.399 14.9829 10.5037 15.0303 10.6045C15.1456 10.8496 15.295 11.075 15.4717 11.2754C15.4878 11.2937 15.5039 11.3122 15.5205 11.3301C15.5684 11.3817 15.6183 11.4316 15.6699 11.4795C15.6878 11.4961 15.7063 11.5122 15.7246 11.5283C15.925 11.705 16.1504 11.8544 16.3955 11.9697C16.4963 12.0171 16.601 12.0591 16.708 12.0947C17.0973 12.2248 17.0973 12.7752 16.708 12.9053C16.601 12.9409 16.4963 12.9829 16.3955 13.0303C16.1504 13.1456 15.925 13.295 15.7246 13.4717C15.7063 13.4878 15.6878 13.5039 15.6699 13.5205C15.6183 13.5684 15.5684 13.6183 15.5205 13.6699C15.5039 13.6878 15.4878 13.7063 15.4717 13.7246C15.295 13.925 15.1456 14.1504 15.0303 14.3955C14.9829 14.4963 14.9409 14.601 14.9053 14.708C14.7752 15.0973 14.2248 15.0973 14.0947 14.708C14.0591 14.601 14.0171 14.4963 13.9697 14.3955C13.8544 14.1504 13.705 13.925 13.5283 13.7246C13.5122 13.7063 13.4961 13.6878 13.4795 13.6699C13.4316 13.6183 13.3817 13.5684 13.3301 13.5205C13.3122 13.5039 13.2937 13.4878 13.2754 13.4717C13.075 13.295 12.8496 13.1456 12.6045 13.0303C12.5037 12.9829 12.399 12.9409 12.292 12.9053C11.9027 12.7752 11.9027 12.2248 12.292 12.0947C12.399 12.0591 12.5037 12.0171 12.6045 11.9697C12.8496 11.8544 13.075 11.705 13.2754 11.5283C13.2937 11.5122 13.3122 11.4961 13.3301 11.4795C13.3817 11.4316 13.4316 11.3817 13.4795 11.3301C13.4961 11.3122 13.5122 11.2937 13.5283 11.2754C13.705 11.075 13.8544 10.8496 13.9697 10.6045C14.0171 10.5037 14.0591 10.399 14.0947 10.292ZM9.5 11.5C10.0523 11.5 10.5 11.9477 10.5 12.5C10.5 13.0523 10.0523 13.5 9.5 13.5H8C7.44772 13.5 7 13.0523 7 12.5C7 11.9477 7.44772 11.5 8 11.5H9.5ZM16 6C16.5523 6 17 6.44772 17 7C17 7.55228 16.5523 8 16 8H8C7.44772 8 7 7.55228 7 7C7 6.44772 7.44772 6 8 6H16Z" fill="#1C1F23"/>
</svg>
