<svg width="24" height="24" viewBox="0 0 24 24" fill="none" xmlns="http://www.w3.org/2000/svg">
<path d="M19.9998 19.9998C20.5518 20 20.9998 20.4477 20.9998 20.9998C20.9995 21.5517 20.5517 21.9995 19.9998 21.9998H3.99978C3.44766 21.9998 3.00005 21.5518 2.99978 20.9998C2.99978 20.4475 3.44749 19.9998 3.99978 19.9998H19.9998ZM11.9998 3.49977C12.5518 3.50004 12.9998 3.94765 12.9998 4.49977C12.9995 5.05166 12.5517 5.49951 11.9998 5.49977C9.23836 5.49977 6.99978 7.73836 6.99978 10.4998V16.4998H16.9998V13.9998C16.9998 13.4475 17.4475 12.9998 17.9998 12.9998C18.5518 13 18.9998 13.4476 18.9998 13.9998V17.4998C18.9995 18.0517 18.5517 18.4995 17.9998 18.4998H5.99978C5.44766 18.4998 5.00005 18.0518 4.99978 17.4998V10.4998C4.99978 6.63379 8.13379 3.49977 11.9998 3.49977ZM17.3504 3.46755C17.5582 2.84404 18.4404 2.84404 18.6482 3.46755C18.7053 3.63868 18.7726 3.80534 18.8484 3.96657C18.8613 3.99388 18.8741 4.02159 18.8875 4.0486L18.8884 4.05055C19.3312 4.94376 20.0558 5.66743 20.949 6.11012L20.9509 6.1111C20.9781 6.12452 21.0056 6.13824 21.033 6.15114C21.1942 6.22697 21.3609 6.29331 21.532 6.35036C22.1555 6.55818 22.1554 7.44032 21.532 7.64821C21.3608 7.70528 21.1943 7.77253 21.033 7.84841C21.0056 7.8613 20.9781 7.87405 20.9509 7.88747L20.949 7.88844C20.0556 8.33117 19.3312 9.05562 18.8884 9.94899L18.8875 9.95094C18.8741 9.97805 18.8613 10.0056 18.8484 10.033C18.7725 10.1943 18.7053 10.3608 18.6482 10.532C18.4403 11.1554 17.5582 11.1555 17.3504 10.532C17.2933 10.3609 17.227 10.1942 17.1511 10.033C17.1382 10.0056 17.1245 9.97805 17.1111 9.95094L17.1101 9.94899C16.6674 9.05577 15.9438 8.33115 15.0506 7.88844L15.0486 7.88747C15.0216 7.8741 14.9939 7.86126 14.9666 7.84841C14.8053 7.77257 14.6387 7.70527 14.4676 7.64821C13.844 7.44037 13.844 6.55819 14.4676 6.35036C14.6386 6.29332 14.8054 6.22695 14.9666 6.15114C14.9939 6.13827 15.0215 6.12449 15.0486 6.1111L15.0506 6.11012C15.9436 5.66745 16.6675 4.94355 17.1101 4.05055L17.1111 4.0486C17.1245 4.02155 17.1383 3.99393 17.1511 3.96657C17.227 3.8054 17.2933 3.63862 17.3504 3.46755ZM17.9998 5.73122C17.6408 6.21302 17.213 6.64075 16.7312 6.99977C17.213 7.35877 17.6408 7.7856 17.9998 8.26735C18.3587 7.78577 18.7858 7.35868 19.2674 6.99977C18.7856 6.64077 18.3588 6.21298 17.9998 5.73122ZM1.05153 6.18337C1.21538 5.69233 1.72305 5.41231 2.21755 5.52321L2.31618 5.55153L3.81618 6.05153L3.91091 6.08864C4.37287 6.29679 4.61171 6.8251 4.44802 7.31618C4.28414 7.80685 3.77622 8.08686 3.282 7.97634L3.18337 7.94801L1.68337 7.44801L1.58864 7.41091C1.12637 7.20298 0.887954 6.67458 1.05153 6.18337ZM2.79275 2.79274C3.15886 2.42663 3.73786 2.40403 4.13064 2.72438L4.20681 2.79274L5.70681 4.29274L5.77517 4.36891C6.09503 4.76168 6.07275 5.34086 5.70681 5.7068C5.34086 6.07271 4.76167 6.09503 4.36892 5.77516L4.29275 5.7068L2.79275 4.2068L2.72439 4.13063C2.40405 3.73787 2.42667 3.15886 2.79275 2.79274ZM6.18337 1.05153C6.67458 0.88796 7.20299 1.12637 7.41091 1.58864L7.44802 1.68337L7.94802 3.18337L7.97634 3.282C8.08681 3.77619 7.80682 4.28414 7.31618 4.44801C6.82513 4.6117 6.29682 4.37282 6.08864 3.91091L6.05153 3.81618L5.55153 2.31618L5.52321 2.21755C5.41232 1.72305 5.69233 1.21538 6.18337 1.05153Z" fill="url(#paint0_linear_11011_2477)"/>
<defs>
<linearGradient id="paint0_linear_11011_2477" x1="21.9997" y1="21.9998" x2="-1.48859" y2="18.6968" gradientUnits="userSpaceOnUse">
<stop stop-color="#E945FF"/>
<stop offset="0.3" stop-color="#A647FF"/>
<stop offset="0.6" stop-color="#6B61FF"/>
<stop offset="1" stop-color="#2E8CFF"/>
</linearGradient>
</defs>
</svg>
