<svg width="24" height="24" viewBox="0 0 24 24" fill="none" xmlns="http://www.w3.org/2000/svg">
<path d="M19.9998 19.9998C20.5521 19.9999 20.9998 20.4476 20.9998 20.9998C20.9998 21.552 20.552 21.9998 19.9998 21.9998H3.99984C3.44761 21.9998 2.99992 21.5521 2.99984 20.9998C2.99984 20.4475 3.44756 19.9998 3.99984 19.9998H19.9998ZM11.9998 3.49983C12.5521 3.49991 12.9998 3.94759 12.9998 4.49983C12.9998 5.052 12.552 5.49976 11.9998 5.49983C9.23843 5.49983 6.99984 7.73842 6.99984 10.4998V16.4998H16.9998V13.9998C16.9998 13.4475 17.4476 12.9998 17.9998 12.9998C18.5521 12.9999 18.9998 13.4476 18.9998 13.9998V17.4998C18.9998 18.052 18.552 18.4998 17.9998 18.4998H5.99984C5.44761 18.4998 4.99992 18.0521 4.99984 17.4998V10.4998C4.99984 6.63385 8.13386 3.49983 11.9998 3.49983ZM1.0516 6.18343C1.21544 5.69239 1.72312 5.41237 2.21762 5.52327L2.31625 5.55159L3.81625 6.05159L3.91098 6.0887C4.37322 6.29671 4.61183 6.82501 4.44808 7.31624C4.28424 7.80718 3.77649 8.08718 3.28207 7.97639L3.18344 7.94807L1.68344 7.44807L1.58871 7.41096C1.12637 7.20301 0.887874 6.6747 1.0516 6.18343ZM2.79281 2.7928C3.15893 2.42669 3.73793 2.40409 4.1307 2.72444L4.20687 2.7928L5.70687 4.2928L5.77523 4.36897C6.09543 4.76174 6.07293 5.3408 5.70687 5.70686C5.34081 6.07289 4.76174 6.09542 4.36898 5.77522L4.29281 5.70686L2.79281 4.20686L2.72445 4.13069C2.40411 3.73793 2.42673 3.15892 2.79281 2.7928ZM6.18344 1.05159C6.6747 0.887886 7.20303 1.12637 7.41097 1.5887L7.44808 1.68343L7.94808 3.18343L7.9764 3.28206C8.08715 3.77645 7.80715 4.28423 7.31625 4.44807C6.82505 4.61181 6.29675 4.37316 6.08871 3.91096L6.0516 3.81624L5.5516 2.31624L5.52328 2.21761C5.41238 1.72311 5.6924 1.21543 6.18344 1.05159Z" fill="#1C1F23"/>
<path fill-rule="evenodd" clip-rule="evenodd" d="M17.112 4.04854C17.1116 4.04922 17.1113 4.04991 17.111 4.0506C16.6682 4.94397 15.944 5.66824 15.0506 6.11096C15.0499 6.1113 15.0492 6.11164 15.0485 6.11198C15.0214 6.1254 14.9942 6.13856 14.9667 6.15146C14.8054 6.22733 14.6389 6.29412 14.4676 6.3512C13.8441 6.55903 13.8441 7.44097 14.4676 7.6488C14.6389 7.70588 14.8054 7.77267 14.9667 7.84854C14.9942 7.86144 15.0214 7.8746 15.0485 7.88802C15.0492 7.88836 15.0499 7.8887 15.0506 7.88904C15.944 8.33177 16.6682 9.05603 17.111 9.9494C17.1113 9.95009 17.1116 9.95078 17.112 9.95147C17.1254 9.97857 17.1386 10.0058 17.1515 10.0333C17.2273 10.1946 17.2941 10.3611 17.3512 10.5324C17.559 11.1559 18.441 11.1559 18.6488 10.5324C18.7059 10.3611 18.7727 10.1946 18.8485 10.0333C18.8614 10.0058 18.8746 9.97857 18.888 9.95147C18.8884 9.95078 18.8887 9.95009 18.889 9.9494C19.3318 9.05603 20.056 8.33177 20.9494 7.88904C20.9501 7.8887 20.9508 7.88836 20.9515 7.88802C20.9786 7.8746 21.0058 7.86144 21.0333 7.84854C21.1946 7.77267 21.3611 7.70588 21.5324 7.6488C22.1559 7.44097 22.1559 6.55903 21.5324 6.3512C21.3611 6.29412 21.1946 6.22733 21.0333 6.15146C21.0058 6.13856 20.9786 6.1254 20.9515 6.11198C20.9508 6.11164 20.9501 6.1113 20.9494 6.11096C20.056 5.66824 19.3318 4.94397 18.889 4.0506C18.8887 4.04991 18.8884 4.04922 18.888 4.04853C18.8746 4.02143 18.8614 3.99416 18.8485 3.96675C18.7727 3.80544 18.7059 3.63885 18.6488 3.46763C18.441 2.84412 17.559 2.84412 17.3512 3.46763C17.2941 3.63885 17.2273 3.80544 17.1515 3.96675C17.1386 3.99416 17.1254 4.02143 17.112 4.04854ZM18 5.73191C17.641 6.21371 17.2137 6.64098 16.7319 7C17.2137 7.35902 17.641 7.78629 18 8.26809C18.359 7.78629 18.7863 7.35902 19.2681 7C18.7863 6.64098 18.359 6.21371 18 5.73191Z" fill="#A647FF"/>
</svg>
