<svg width="24" height="24" viewBox="0 0 24 24" fill="none" xmlns="http://www.w3.org/2000/svg">
<path d="M16.2759 5.03711C17.0591 4.25393 18.3286 4.25393 19.1118 5.03711L21.2593 7.18359C22.0422 7.96664 22.042 9.23635 21.2593 10.0195L11.2397 20.0391C10.5398 20.739 9.64784 21.216 8.67725 21.4102L5.70654 22.0049C4.86484 22.173 4.12239 21.4306 4.29053 20.5889L4.88525 17.6182C5.07937 16.6476 5.55644 15.7556 6.25635 15.0557L16.2759 5.03711ZM7.67432 16.4736C7.2545 16.8935 6.96859 17.4286 6.85205 18.0107L6.49365 19.8018L8.28467 19.4443C8.86693 19.3278 9.40189 19.041 9.82178 18.6211L17.1099 11.3311L14.9634 9.18457L7.67432 16.4736ZM16.3813 7.76562L18.5288 9.91309L19.8403 8.60156L17.6938 6.45508L16.3813 7.76562Z" fill="#1C1F23"/>
<path fill-rule="evenodd" clip-rule="evenodd" d="M5.3275 3.07874C5.32716 3.07943 5.32682 3.08012 5.32647 3.08081C4.88254 3.97661 4.1563 4.70285 3.2605 5.14679C3.2598 5.14713 3.25912 5.14747 3.25842 5.14781C3.23124 5.16127 3.2039 5.17446 3.17641 5.18739C3.01466 5.26347 2.84762 5.33045 2.67594 5.38768C2.05073 5.59608 2.05073 6.48042 2.67594 6.68882C2.84762 6.74605 3.01466 6.81303 3.17641 6.88911C3.2039 6.90204 3.23124 6.91523 3.25843 6.92869C3.25912 6.92903 3.2598 6.92937 3.2605 6.92971C4.1563 7.37365 4.88254 8.09989 5.32647 8.99569C5.32682 8.99638 5.32716 8.99707 5.3275 8.99776C5.34095 9.02494 5.35415 9.05228 5.36708 9.07977C5.44316 9.24152 5.51014 9.40856 5.56737 9.58025C5.77577 10.2055 6.66011 10.2055 6.86851 9.58025C6.92574 9.40856 6.99271 9.24152 7.06879 9.07977C7.08172 9.05228 7.09492 9.02494 7.10837 8.99776C7.10872 8.99707 7.10906 8.99638 7.1094 8.99569C7.55333 8.09989 8.27957 7.37365 9.17538 6.92971C9.17607 6.92937 9.17676 6.92903 9.17745 6.92869C9.20463 6.91523 9.23197 6.90204 9.25946 6.88911C9.42121 6.81303 9.58825 6.74605 9.75994 6.68882C10.3851 6.48042 10.3851 5.59608 9.75994 5.38768C9.58825 5.33045 9.42121 5.26347 9.25946 5.18739C9.23197 5.17446 9.20463 5.16127 9.17745 5.14781C9.17676 5.14747 9.17607 5.14713 9.17538 5.14679C8.27957 4.70285 7.55333 3.97661 7.1094 3.08081C7.10906 3.08012 7.10872 3.07943 7.10837 3.07874C7.09492 3.05156 7.08172 3.02422 7.06879 2.99672C6.99271 2.83498 6.92574 2.66794 6.86851 2.49625C6.66011 1.87104 5.77577 1.87104 5.56737 2.49625C5.51014 2.66794 5.44316 2.83498 5.36708 2.99673C5.35415 3.02422 5.34095 3.05156 5.3275 3.07874ZM6.21794 4.7667C5.85793 5.24982 5.4295 5.67825 4.94639 6.03825C5.4295 6.39825 5.85793 6.82668 6.21794 7.3098C6.57794 6.82668 7.00637 6.39825 7.48949 6.03825C7.00637 5.67825 6.57794 5.24982 6.21794 4.7667Z" fill="#A647FF"/>
</svg>
