<svg width="24" height="24" viewBox="0 0 24 24" fill="none" xmlns="http://www.w3.org/2000/svg">
<path d="M16.2754 5.03707C17.0585 4.25406 18.3281 4.25414 19.1113 5.03707L21.2588 7.18453C22.0418 7.96769 22.0418 9.23732 21.2588 10.0205L11.2392 20.04C10.5395 20.7395 9.64792 21.217 8.6777 21.4111L5.70699 22.0048C4.86546 22.1728 4.12308 21.4304 4.29098 20.5888L4.88473 17.6181C5.07883 16.6479 5.55633 15.7563 6.25582 15.0566L16.2754 5.03707ZM7.67379 16.4746C7.25421 16.8944 6.96795 17.4297 6.85152 18.0117L6.49313 19.8027L8.28414 19.4443C8.86621 19.3279 9.4014 19.0416 9.82125 18.622L17.1103 11.332L14.9629 9.18453L7.67379 16.4746ZM5.56734 2.49606C5.77581 1.87108 6.65959 1.87114 6.86813 2.49606C6.92535 2.66774 6.99224 2.83528 7.06832 2.99703C7.08123 3.02448 7.09493 3.05192 7.10836 3.07906L7.10934 3.08102C7.55328 3.97673 8.28 4.70255 9.17574 5.14645L9.1777 5.14742C9.20484 5.16086 9.23227 5.17455 9.25973 5.18746C9.42134 5.26346 9.58819 5.33047 9.75973 5.38766C10.3849 5.59606 10.3849 6.48004 9.75973 6.68844C9.5882 6.74561 9.42133 6.81264 9.25973 6.88863C9.23231 6.90153 9.2048 6.91526 9.1777 6.92867L9.17574 6.92965C8.27994 7.37358 7.55327 8.10025 7.10934 8.99606L7.10836 8.99801C7.09494 9.02512 7.08122 9.05262 7.06832 9.08004C6.99233 9.24164 6.9253 9.40852 6.86813 9.58004C6.65972 10.2052 5.77575 10.2052 5.56734 9.58004C5.51016 9.40851 5.44315 9.24165 5.36715 9.08004C5.35423 9.05258 5.34055 9.02516 5.32711 8.99801L5.32613 8.99606C4.88223 8.10032 4.15642 7.37359 3.2607 6.92965L3.25875 6.92867C3.23161 6.91524 3.20417 6.90155 3.17672 6.88863C3.01497 6.81255 2.84743 6.74567 2.67574 6.68844C2.05083 6.47991 2.05076 5.59612 2.67574 5.38766C2.84743 5.33043 3.01497 5.26354 3.17672 5.18746C3.20413 5.17457 3.23165 5.16084 3.25875 5.14742L3.2607 5.14645C4.15625 4.70255 4.88224 3.97657 5.32613 3.08102L5.32711 3.07906C5.34052 3.05196 5.35425 3.02444 5.36715 2.99703C5.44323 2.83528 5.51011 2.66774 5.56734 2.49606ZM16.3808 7.76656L18.5283 9.91402L19.8408 8.6025L17.6933 6.45504L16.3808 7.76656ZM6.21773 4.76656C5.85774 5.24967 5.42936 5.67805 4.94625 6.03805C5.42929 6.398 5.85777 6.82651 6.21773 7.30953C6.57771 6.82647 7.00615 6.39802 7.48922 6.03805C7.00619 5.67808 6.57768 5.24961 6.21773 4.76656Z" fill="#1C1F23"/>
</svg>
