<svg width="24" height="24" viewBox="0 0 24 24" fill="none" xmlns="http://www.w3.org/2000/svg">
<path d="M16.2763 5.03707C17.0594 4.25405 18.3291 4.25416 19.1123 5.03707L21.2597 7.18453C22.0426 7.96771 22.0427 9.23738 21.2597 10.0205L11.2402 20.04C10.5404 20.7396 9.64895 21.217 8.67867 21.4111L5.70797 22.0048C4.86629 22.173 4.12395 21.4305 4.29195 20.5888L4.8857 17.6181C5.07983 16.6478 5.55717 15.7564 6.2568 15.0566L16.2763 5.03707ZM7.67477 16.4746C7.25506 16.8944 6.96896 17.4296 6.8525 18.0117L6.4941 19.8027L8.28512 19.4443C8.86723 19.3278 9.40238 19.0417 9.82223 18.622L17.1113 11.332L14.9638 9.18453L7.67477 16.4746ZM5.56734 2.49605C5.77581 1.87107 6.65959 1.87114 6.86812 2.49605C6.92535 2.66774 6.99224 2.83528 7.06832 2.99703C7.08123 3.02449 7.09492 3.05192 7.10836 3.07906L7.10934 3.08102C7.55328 3.97674 8.28 4.70254 9.17574 5.14645L9.1777 5.14742C9.20485 5.16086 9.23226 5.17454 9.25973 5.18746C9.42134 5.26346 9.58819 5.33047 9.75973 5.38766C10.3849 5.59606 10.3849 6.48003 9.75973 6.68844C9.5882 6.74561 9.42133 6.81264 9.25973 6.88863C9.23231 6.90153 9.20481 6.91525 9.1777 6.92867L9.17574 6.92965C8.27994 7.37358 7.55327 8.10025 7.10934 8.99605L7.10836 8.99801C7.09494 9.02512 7.08122 9.05262 7.06832 9.08004C6.99233 9.24164 6.9253 9.40852 6.86812 9.58004C6.65972 10.2052 5.77575 10.2052 5.56734 9.58004C5.51016 9.40851 5.44315 9.24165 5.36715 9.08004C5.35423 9.05257 5.34055 9.02517 5.32711 8.99801L5.32613 8.99605C4.88223 8.10031 4.15643 7.37359 3.2607 6.92965L3.25875 6.92867C3.2316 6.91524 3.20417 6.90155 3.17672 6.88863C3.01497 6.81255 2.84743 6.74567 2.67574 6.68844C2.05083 6.4799 2.05076 5.59612 2.67574 5.38766C2.84743 5.33043 3.01497 5.26354 3.17672 5.18746C3.20413 5.17457 3.23165 5.16084 3.25875 5.14742L3.2607 5.14645C4.15626 4.70255 4.88224 3.97657 5.32613 3.08102L5.32711 3.07906C5.34052 3.05196 5.35425 3.02444 5.36715 2.99703C5.44323 2.83528 5.51011 2.66774 5.56734 2.49605ZM16.3818 7.76656L18.5293 9.91402L19.8418 8.6025L17.6943 6.45504L16.3818 7.76656ZM6.21773 4.76656C5.85774 5.24967 5.42936 5.67805 4.94625 6.03805C5.42929 6.39799 5.85777 6.82651 6.21773 7.30953C6.57771 6.82647 7.00616 6.39802 7.48922 6.03805C7.0062 5.67808 6.57768 5.2496 6.21773 4.76656Z" fill="url(#paint0_linear_11011_2360)"/>
<defs>
<linearGradient id="paint0_linear_11011_2360" x1="21.8469" y1="22.0288" x2="-0.135689" y2="18.9934" gradientUnits="userSpaceOnUse">
<stop stop-color="#E945FF"/>
<stop offset="0.3" stop-color="#A647FF"/>
<stop offset="0.6" stop-color="#6B61FF"/>
<stop offset="1" stop-color="#2E8CFF"/>
</linearGradient>
</defs>
</svg>
