<svg width="24" height="24" viewBox="0 0 24 24" fill="none" xmlns="http://www.w3.org/2000/svg">
<path fill-rule="evenodd" clip-rule="evenodd" d="M9.67594 5.44853C9.90145 4.34527 11.4779 4.34529 11.7034 5.44853C12.4082 8.89694 15.1033 11.5918 18.5518 12.2967C19.6551 12.5222 19.6551 14.0985 18.5518 14.324C15.1033 15.0288 12.4082 17.7237 11.7034 21.1721C11.4779 22.2754 9.90144 22.2754 9.67594 21.1721C8.97108 17.7237 6.27605 15.0288 2.82748 14.324C1.72416 14.0985 1.72419 12.5222 2.82748 12.2967C6.27605 11.5918 8.97108 8.89694 9.67594 5.44853Z" fill="#1C1F23"/>
<path d="M18.1575 1.6033C18.3219 0.79889 19.4716 0.798912 19.636 1.6033C19.9203 2.99342 21.0066 4.07989 22.3968 4.36404C23.2012 4.52845 23.2012 5.67814 22.3968 5.84256C21.0065 6.12676 19.9202 7.21309 19.636 8.6033C19.4715 9.40735 18.3221 9.40733 18.1575 8.6033C17.8734 7.21313 16.787 6.1268 15.3968 5.84256C14.5923 5.67814 14.5924 4.52845 15.3968 4.36404C16.7869 4.07985 17.8733 2.99339 18.1575 1.6033Z" fill="#A647FF"/>
</svg>
