<svg width="24" height="24" viewBox="0 0 24 24" fill="none" xmlns="http://www.w3.org/2000/svg">
<path d="M9.67579 5.44901C9.9013 4.34573 11.4776 4.34575 11.7031 5.44901C12.4081 8.89732 15.1033 11.5918 18.5518 12.2967C19.6551 12.5222 19.6551 14.0985 18.5518 14.324C15.1032 15.0288 12.408 17.7242 11.7031 21.1726C11.4775 22.2757 9.90134 22.2758 9.67579 21.1726C8.97093 17.7242 6.27573 15.0288 2.82716 14.324C1.72431 14.0982 1.72425 12.5223 2.82716 12.2967C6.27563 11.5918 8.97084 8.89732 9.67579 5.44901ZM18.1572 1.6033C18.3217 0.798888 19.4713 0.798909 19.6358 1.6033C19.9201 2.99337 21.0063 4.07992 22.3965 4.36405C23.2009 4.52851 23.2009 5.67815 22.3965 5.84256C21.0062 6.12675 19.9199 7.21306 19.6358 8.6033C19.4711 9.40727 18.3219 9.40723 18.1572 8.6033C17.8731 7.21316 16.7866 6.12684 15.3965 5.84256C14.5921 5.67815 14.5921 4.52847 15.3965 4.36405C16.7866 4.07984 17.873 2.99332 18.1572 1.6033Z" fill="url(#paint0_linear_11011_2334)"/>
<defs>
<linearGradient id="paint0_linear_11011_2334" x1="23" y1="22" x2="-0.488628" y2="18.6969" gradientUnits="userSpaceOnUse">
<stop stop-color="#E945FF"/>
<stop offset="0.3" stop-color="#A647FF"/>
<stop offset="0.6" stop-color="#6B61FF"/>
<stop offset="1" stop-color="#2E8CFF"/>
</linearGradient>
</defs>
</svg>
