<svg width="24" height="24" viewBox="0 0 24 24" fill="none" xmlns="http://www.w3.org/2000/svg">
<path d="M9.6758 5.449C9.9013 4.34573 11.4776 4.34576 11.7031 5.449C12.4081 8.89727 15.1033 11.5918 18.5518 12.2967C19.6551 12.5222 19.6551 14.0985 18.5518 14.324C15.1032 15.0288 12.408 17.7242 11.7031 21.1726C11.4774 22.2755 9.90147 22.2755 9.6758 21.1726C8.97093 17.7242 6.27573 15.0288 2.82716 14.324C1.72429 14.0983 1.72427 12.5223 2.82716 12.2967C6.27564 11.5918 8.97084 8.89727 9.6758 5.449ZM18.1572 1.6033C18.3217 0.79889 19.4713 0.798912 19.6358 1.6033C19.92 2.99334 21.0064 4.07979 22.3965 4.36404C23.2009 4.52845 23.2009 5.67814 22.3965 5.84256C21.0064 6.12685 19.9199 7.21319 19.6358 8.6033C19.4711 9.40731 18.3218 9.40738 18.1572 8.6033C17.8731 7.21304 16.7868 6.12671 15.3965 5.84256C14.5921 5.67812 14.5922 4.52855 15.3965 4.36404C16.7867 4.0799 17.873 2.99341 18.1572 1.6033Z" fill="black"/>
</svg>
