<svg width="24" height="24" viewBox="0 0 24 24" fill="none" xmlns="http://www.w3.org/2000/svg">
<path d="M12 2C12.5523 2 13 2.44772 13 3C13 3.55228 12.5523 4 12 4H4V15.2256L7.6709 11.8613L7.81543 11.7412C8.55791 11.1784 9.60409 11.2001 10.3242 11.8174L13.5244 14.5605L15.6797 12.4062C16.3835 11.7025 17.4977 11.6236 18.2939 12.2207L20 13.5V12C20 11.4477 20.4477 11 21 11C21.5523 11 22 11.4477 22 12V20C22 21.1046 21.1046 22 20 22H4C2.89543 22 2 21.1046 2 20V4C2 2.89543 2.89543 2 4 2H12ZM4 17.9395V20H20V15.999L17.0938 13.8203L15.0469 15.8662L16.6504 17.2402C17.0697 17.5997 17.1182 18.2311 16.7588 18.6504C16.3994 19.0696 15.7689 19.1181 15.3496 18.7588L9.02246 13.3359L4 17.9395ZM17.9326 2.40918C18.1145 1.86373 18.8855 1.86374 19.0674 2.40918C19.1173 2.5589 19.1759 2.70464 19.2422 2.8457C19.2534 2.86961 19.2656 2.89336 19.2773 2.91699L19.2783 2.91895C19.6657 3.70064 20.2994 4.33429 21.0811 4.72168L21.083 4.72266C21.1066 4.73435 21.1304 4.74657 21.1543 4.75781C21.2954 4.82415 21.4411 4.88271 21.5908 4.93262C22.1363 5.11452 22.1363 5.88548 21.5908 6.06738C21.4411 6.11729 21.2954 6.17585 21.1543 6.24219C21.1304 6.25343 21.1066 6.26565 21.083 6.27734L21.0811 6.27832C20.2994 6.66571 19.6657 7.29936 19.2783 8.08105L19.2773 8.08301C19.2656 8.10665 19.2534 8.13039 19.2422 8.1543C19.1759 8.29536 19.1173 8.4411 19.0674 8.59082C18.8855 9.13626 18.1145 9.13627 17.9326 8.59082C17.8827 8.4411 17.8241 8.29536 17.7578 8.1543C17.7466 8.13039 17.7344 8.10665 17.7227 8.08301L17.7217 8.08105C17.3343 7.29936 16.7006 6.66571 15.9189 6.27832L15.917 6.27734C15.8934 6.26565 15.8696 6.25343 15.8457 6.24219C15.7046 6.17585 15.5589 6.11729 15.4092 6.06738C14.8637 5.88548 14.8637 5.11452 15.4092 4.93262C15.5589 4.88271 15.7046 4.82415 15.8457 4.75781C15.8696 4.74657 15.8934 4.73435 15.917 4.72266L15.9189 4.72168C16.7006 4.33429 17.3343 3.70064 17.7217 2.91895L17.7227 2.91699C17.7344 2.89336 17.7466 2.86961 17.7578 2.8457C17.8241 2.70464 17.8827 2.5589 17.9326 2.40918ZM18.5 4.39062C18.1859 4.8121 17.8121 5.18591 17.3906 5.5C17.8121 5.81409 18.1859 6.1879 18.5 6.60938C18.8141 6.1879 19.1879 5.81409 19.6094 5.5C19.1879 5.18591 18.8141 4.8121 18.5 4.39062Z" fill="url(#paint0_linear_11011_2407)"/>
<defs>
<linearGradient id="paint0_linear_11011_2407" x1="22" y1="22" x2="-0.370122" y2="18.8542" gradientUnits="userSpaceOnUse">
<stop stop-color="#E945FF"/>
<stop offset="0.3" stop-color="#A647FF"/>
<stop offset="0.6" stop-color="#6B61FF"/>
<stop offset="1" stop-color="#2E8CFF"/>
</linearGradient>
</defs>
</svg>
