<svg width="24" height="24" viewBox="0 0 24 24" fill="none" xmlns="http://www.w3.org/2000/svg">
<path d="M12 2C12.5523 2 13 2.44772 13 3C13 3.55228 12.5523 4 12 4H4V15.2256L7.6709 11.8613L7.81543 11.7412C8.55791 11.1784 9.60409 11.2001 10.3242 11.8174L13.5244 14.5605L15.6797 12.4062C16.3835 11.7025 17.4977 11.6236 18.2939 12.2207L20 13.5V12C20 11.4477 20.4477 11 21 11C21.5523 11 22 11.4477 22 12V20C22 21.1046 21.1046 22 20 22H4C2.89543 22 2 21.1046 2 20V4C2 2.89543 2.89543 2 4 2H12ZM4 17.9395V20H20V15.999L17.0938 13.8203L15.0469 15.8662L16.6504 17.2402C17.0697 17.5997 17.1182 18.2311 16.7588 18.6504C16.3994 19.0696 15.7689 19.1181 15.3496 18.7588L9.02246 13.3359L4 17.9395Z" fill="#1C1F23"/>
<path fill-rule="evenodd" clip-rule="evenodd" d="M17.723 2.91747C17.7227 2.91807 17.7224 2.91867 17.7221 2.91927C17.3347 3.70097 16.701 4.33471 15.9193 4.72209C15.9187 4.72239 15.9181 4.72269 15.9175 4.72299C15.8937 4.73473 15.8699 4.74624 15.8459 4.75753C15.7048 4.82391 15.559 4.88236 15.4092 4.9323C14.8636 5.11415 14.8636 5.88585 15.4092 6.0677C15.559 6.11764 15.7048 6.17609 15.8459 6.24248C15.8699 6.25376 15.8937 6.26527 15.9175 6.27701C15.9181 6.27731 15.9187 6.27761 15.9193 6.27791C16.701 6.66529 17.3347 7.29903 17.7221 8.08073C17.7224 8.08133 17.7227 8.08193 17.723 8.08253C17.7347 8.10625 17.7462 8.13011 17.7575 8.1541C17.8239 8.29524 17.8824 8.44101 17.9323 8.59082C18.1142 9.13639 18.8858 9.13639 19.0677 8.59082C19.1176 8.44101 19.1761 8.29524 19.2425 8.1541C19.2538 8.13011 19.2653 8.10625 19.277 8.08253C19.2773 8.08193 19.2776 8.08133 19.2779 8.08073C19.6653 7.29903 20.299 6.66529 21.0807 6.27791C21.0813 6.27761 21.0819 6.27731 21.0825 6.27701C21.1063 6.26527 21.1301 6.25376 21.1541 6.24248C21.2952 6.17609 21.441 6.11764 21.5908 6.0677C22.1364 5.88585 22.1364 5.11415 21.5908 4.9323C21.441 4.88236 21.2952 4.82391 21.1541 4.75752C21.1301 4.74624 21.1063 4.73473 21.0825 4.72299C21.0819 4.72269 21.0813 4.72239 21.0807 4.72209C20.299 4.33471 19.6653 3.70097 19.2779 2.91927C19.2776 2.91867 19.2773 2.91807 19.277 2.91747C19.2653 2.89375 19.2538 2.86989 19.2425 2.8459C19.1761 2.70476 19.1176 2.559 19.0677 2.40918C18.8858 1.86361 18.1142 1.86361 17.9323 2.40918C17.8824 2.559 17.8239 2.70476 17.7575 2.8459C17.7462 2.86989 17.7347 2.89375 17.723 2.91747ZM18.5 4.39042C18.1859 4.812 17.812 5.18585 17.3904 5.5C17.812 5.81414 18.1859 6.188 18.5 6.60958C18.8141 6.188 19.188 5.81415 19.6096 5.5C19.188 5.18586 18.8141 4.812 18.5 4.39042Z" fill="#A647FF"/>
</svg>
