<svg width="24" height="24" viewBox="0 0 24 24" fill="none" xmlns="http://www.w3.org/2000/svg">
<path d="M9.67615 5.44904C9.90167 4.3457 11.478 4.34573 11.7035 5.44904C12.4084 8.89759 15.1035 11.5927 18.5521 12.2977C19.6555 12.5232 19.6555 14.0995 18.5521 14.325C15.1036 15.03 12.4084 17.7251 11.7035 21.1737C11.478 22.277 9.90167 22.277 9.67615 21.1737C8.97125 17.7251 6.27617 15.0299 2.82752 14.325C1.72415 14.0995 1.72417 12.5232 2.82752 12.2977C6.27618 11.5928 8.97125 8.89763 9.67615 5.44904ZM10.6898 8.41096C9.64494 10.5402 7.91874 12.2665 5.78943 13.3113C7.91874 14.3562 9.64494 16.0825 10.6898 18.2117C11.7348 16.0823 13.4617 14.3562 15.5912 13.3113C13.4617 12.2665 11.7348 10.5404 10.6898 8.41096ZM18.1576 1.60334C18.322 0.798876 19.4717 0.798897 19.6361 1.60334C19.9204 2.99338 21.0068 4.07979 22.3969 4.36408C23.2012 4.52858 23.2013 5.67816 22.3969 5.8426C21.0067 6.12689 19.9203 7.21323 19.6361 8.60334C19.4716 9.40758 18.3221 9.40756 18.1576 8.60334C17.8733 7.21321 16.787 6.12684 15.3969 5.8426C14.5924 5.67817 14.5924 4.5285 15.3969 4.36408C16.787 4.07986 17.8733 2.99344 18.1576 1.60334Z" fill="url(#paint0_linear_11011_2312)"/>
<defs>
<linearGradient id="paint0_linear_11011_2312" x1="23.0001" y1="22.0012" x2="-0.488689" y2="18.6982" gradientUnits="userSpaceOnUse">
<stop stop-color="#E945FF"/>
<stop offset="0.3" stop-color="#A647FF"/>
<stop offset="0.6" stop-color="#6B61FF"/>
<stop offset="1" stop-color="#2E8CFF"/>
</linearGradient>
</defs>
</svg>
