<svg width="24" height="24" viewBox="0 0 24 24" fill="none" xmlns="http://www.w3.org/2000/svg">
<path d="M10.0001 1.99997C10.5524 1.99997 11.0001 2.44769 11.0001 2.99997C11.0001 3.55221 10.5524 3.99997 10.0001 3.99997C8.81375 4.00003 7.65363 4.35169 6.66713 5.01071C5.68055 5.66999 4.91125 6.60781 4.45717 7.70407C4.00313 8.80036 3.88388 10.0071 4.11537 11.1709C4.34692 12.3346 4.91898 13.4031 5.75795 14.2422C6.59692 15.0811 7.66559 15.6531 8.82924 15.8847C9.993 16.1162 11.1998 15.9969 12.296 15.5429C13.3923 15.0888 14.3301 14.3196 14.9894 13.333C15.6485 12.3464 16.0001 11.1864 16.0001 9.99997C16.0001 9.44779 16.448 9.00014 17.0001 8.99997C17.5524 8.99997 18.0001 9.44769 18.0001 9.99997C18.0001 11.5822 17.5305 13.1287 16.6515 14.4443C16.5461 14.6021 16.4343 14.7551 16.3185 14.9043L21.7072 20.2929C22.0977 20.6835 22.0977 21.3165 21.7072 21.707C21.3166 22.0973 20.6836 22.0975 20.2931 21.707L14.9044 16.3183C14.3435 16.7537 13.7247 17.1159 13.0617 17.3906C11.6 17.996 9.99126 18.1552 8.43959 17.8467C6.88785 17.5379 5.46166 16.776 4.34291 15.6572C3.22415 14.5384 2.46213 13.1123 2.15346 11.5605C1.84485 10.0088 2.00411 8.40013 2.60951 6.93845C3.21498 5.47683 4.2404 4.22761 5.5558 3.3486C6.87131 2.46961 8.41799 2.00003 10.0001 1.99997ZM14.9328 1.40915C15.1146 0.863599 15.8856 0.863633 16.0675 1.40915C16.1174 1.55888 16.176 1.70461 16.2423 1.84567C16.2536 1.86959 16.2658 1.89332 16.2775 1.91696L16.2785 1.91892C16.6658 2.70062 17.2995 3.33427 18.0812 3.72165L18.0831 3.72263C18.1068 3.73434 18.1305 3.74653 18.1544 3.75778C18.2955 3.82413 18.4412 3.88267 18.591 3.93259C19.1365 4.11445 19.1365 4.8855 18.591 5.06735C18.4412 5.11728 18.2955 5.1758 18.1544 5.24216C18.1305 5.25343 18.1068 5.26559 18.0831 5.27732H18.0812C17.2995 5.6647 16.6658 6.29933 16.2785 7.08103L16.2775 7.082C16.2657 7.10572 16.2536 7.13028 16.2423 7.15427C16.176 7.29529 16.1174 7.44112 16.0675 7.59079C15.8855 8.13609 15.1147 8.13615 14.9328 7.59079C14.8828 7.44108 14.8243 7.29532 14.7579 7.15427C14.7467 7.13028 14.7345 7.10572 14.7228 7.082V7.08103C14.3354 6.29933 13.7008 5.6647 12.9191 5.27732H12.9181C12.8944 5.26558 12.8698 5.25344 12.8458 5.24216C12.7048 5.17584 12.559 5.11725 12.4093 5.06735C11.864 4.88541 11.8641 4.11458 12.4093 3.93259C12.559 3.8827 12.7048 3.82409 12.8458 3.75778C12.8698 3.7465 12.8944 3.73437 12.9181 3.72263L12.9191 3.72165C13.7008 3.33427 14.3354 2.70062 14.7228 1.91892V1.91696C14.7345 1.89328 14.7467 1.86963 14.7579 1.84567C14.8243 1.70458 14.8828 1.55891 14.9328 1.40915ZM15.5001 3.3906C15.186 3.81207 14.8123 4.18589 14.3908 4.49997C14.8123 4.81407 15.186 5.18786 15.5001 5.60935C15.8142 5.18786 16.188 4.81408 16.6095 4.49997C16.188 4.18588 15.8142 3.81206 15.5001 3.3906Z" fill="url(#paint0_linear_11011_2425)"/>
<defs>
<linearGradient id="paint0_linear_11011_2425" x1="22.0001" y1="21.9998" x2="-0.410523" y2="18.9983" gradientUnits="userSpaceOnUse">
<stop stop-color="#E945FF"/>
<stop offset="0.3" stop-color="#A647FF"/>
<stop offset="0.6" stop-color="#6B61FF"/>
<stop offset="1" stop-color="#2E8CFF"/>
</linearGradient>
</defs>
</svg>
