<svg width="24" height="24" viewBox="0 0 24 24" fill="none" xmlns="http://www.w3.org/2000/svg">
<path fill-rule="evenodd" clip-rule="evenodd" d="M14.723 1.91747C14.7227 1.91807 14.7224 1.91867 14.7221 1.91927C14.3347 2.70097 13.701 3.33471 12.9193 3.72209C12.9187 3.72239 12.9181 3.72269 12.9175 3.72299C12.8937 3.73473 12.8699 3.74624 12.8459 3.75753C12.7048 3.82391 12.559 3.88236 12.4092 3.9323C11.8636 4.11415 11.8636 4.88585 12.4092 5.0677C12.559 5.11764 12.7048 5.17609 12.8459 5.24248C12.8699 5.25376 12.8937 5.26527 12.9175 5.27701C12.9181 5.27731 12.9187 5.27761 12.9193 5.27791C13.701 5.66529 14.3347 6.29903 14.7221 7.08073C14.7224 7.08133 14.7227 7.08193 14.723 7.08253C14.7347 7.10625 14.7462 7.13011 14.7575 7.1541C14.8239 7.29524 14.8824 7.44101 14.9323 7.59082C15.1142 8.13639 15.8858 8.13639 16.0677 7.59082C16.1176 7.44101 16.1761 7.29524 16.2425 7.1541C16.2538 7.13011 16.2653 7.10625 16.277 7.08253C16.2773 7.08193 16.2776 7.08133 16.2779 7.08073C16.6653 6.29903 17.299 5.66529 18.0807 5.27791C18.0813 5.27761 18.0819 5.27731 18.0825 5.27701C18.1063 5.26527 18.1301 5.25376 18.1541 5.24248C18.2952 5.17609 18.441 5.11764 18.5908 5.0677C19.1364 4.88585 19.1364 4.11415 18.5908 3.9323C18.441 3.88236 18.2952 3.82391 18.1541 3.75752C18.1301 3.74624 18.1063 3.73473 18.0825 3.72299C18.0819 3.72269 18.0813 3.72239 18.0807 3.72209C17.299 3.33471 16.6653 2.70097 16.2779 1.91927C16.2776 1.91867 16.2773 1.91807 16.277 1.91747C16.2653 1.89375 16.2538 1.86989 16.2425 1.8459C16.1761 1.70476 16.1176 1.559 16.0677 1.40918C15.8858 0.863608 15.1142 0.863608 14.9323 1.40918C14.8824 1.559 14.8239 1.70476 14.7575 1.8459C14.7462 1.86989 14.7347 1.89375 14.723 1.91747ZM15.5 3.39042C15.1859 3.812 14.812 4.18585 14.3904 4.5C14.812 4.81414 15.1859 5.188 15.5 5.60958C15.8141 5.188 16.188 4.81415 16.6096 4.5C16.188 4.18586 15.8141 3.812 15.5 3.39042Z" fill="#A647FF"/>
<path d="M10.0002 2C10.5524 2 11.0002 2.44772 11.0002 3C11.0002 3.55228 10.5524 4 10.0002 4C8.81366 4 7.65374 4.35166 6.66715 5.01074C5.68045 5.67003 4.91131 6.60775 4.45719 7.7041C4.00308 8.80044 3.88388 10.007 4.11539 11.1709C4.34694 12.3347 4.91893 13.4032 5.75797 14.2422C6.597 15.0812 7.6655 15.6532 8.82926 15.8848C9.99312 16.1163 11.1997 15.9971 12.2961 15.543C13.3924 15.0888 14.3301 14.3197 14.9894 13.333C15.6485 12.3464 16.0002 11.1865 16.0002 10C16.0002 9.44772 16.4479 9 17.0002 9C17.5524 9 18.0002 9.44772 18.0002 10C18.0002 11.5823 17.5306 13.1287 16.6515 14.4443C16.5461 14.6022 16.4344 14.755 16.3185 14.9043L21.7072 20.293C22.0977 20.6835 22.0977 21.3165 21.7072 21.707C21.3167 22.0976 20.6836 22.0976 20.2931 21.707L14.9045 16.3184C14.3435 16.7538 13.7249 17.1159 13.0617 17.3906C11.5999 17.9961 9.99138 18.1553 8.43961 17.8467C6.88776 17.538 5.46175 16.776 4.34293 15.6572C3.22411 14.5384 2.46216 13.1124 2.15348 11.5605C1.84486 10.0088 2.00406 8.40021 2.60953 6.93848C3.21504 5.47676 4.2403 4.22764 5.55582 3.34863C6.87141 2.46958 8.41791 2 10.0002 2Z" fill="#1C1F23"/>
</svg>
