<svg width="24" height="24" viewBox="0 0 24 24" fill="none" xmlns="http://www.w3.org/2000/svg">
<path d="M10 2C10.5523 2 11 2.44772 11 3C10.9999 3.55224 10.5523 4 10 4C8.81361 4.00006 7.6535 4.35172 6.66699 5.01074C5.68042 5.67002 4.91112 6.60784 4.45703 7.7041C4.00299 8.80039 3.88374 10.0071 4.11523 11.1709C4.34678 12.3346 4.91884 13.4032 5.75781 14.2422C6.59678 15.0812 7.66545 15.6532 8.8291 15.8848C9.99286 16.1163 11.1996 15.997 12.2959 15.543C13.3922 15.0889 14.33 14.3196 14.9893 13.333C15.6483 12.3464 16 11.1865 16 10C16 9.44782 16.4479 9.00016 17 9C17.5523 9 18 9.44772 18 10C18 11.5822 17.5304 13.1288 16.6514 14.4443C16.546 14.6021 16.4342 14.7551 16.3184 14.9043L21.707 20.293C22.0976 20.6835 22.0976 21.3165 21.707 21.707C21.3165 22.0974 20.6834 22.0975 20.293 21.707L14.9043 16.3184C14.3434 16.7537 13.7246 17.1159 13.0615 17.3906C11.5999 17.996 9.99112 18.1553 8.43945 17.8467C6.88771 17.538 5.46153 16.776 4.34277 15.6572C3.22402 14.5384 2.462 13.1123 2.15332 11.5605C1.84472 10.0088 2.00397 8.40016 2.60938 6.93848C3.21484 5.47685 4.24026 4.22764 5.55566 3.34863C6.87117 2.46964 8.41786 2.00006 10 2ZM14.9326 1.40918C15.1145 0.863628 15.8855 0.863661 16.0674 1.40918C16.1173 1.55891 16.1758 1.70464 16.2422 1.8457C16.2534 1.86961 16.2656 1.89335 16.2773 1.91699L16.2783 1.91895C16.6657 2.70064 17.2994 3.33429 18.0811 3.72168L18.083 3.72266C18.1067 3.73437 18.1304 3.74656 18.1543 3.75781C18.2954 3.82416 18.4411 3.8827 18.5908 3.93262C19.1364 4.11447 19.1364 4.88553 18.5908 5.06738C18.4411 5.1173 18.2954 5.17583 18.1543 5.24219C18.1303 5.25346 18.1067 5.26562 18.083 5.27734H18.0811C17.2994 5.66473 16.6657 6.29936 16.2783 7.08105L16.2773 7.08203C16.2656 7.10575 16.2535 7.13031 16.2422 7.1543C16.1759 7.29532 16.1173 7.44115 16.0674 7.59082C15.8854 8.13612 15.1145 8.13618 14.9326 7.59082C14.8827 7.44111 14.8241 7.29535 14.7578 7.1543C14.7465 7.13031 14.7344 7.10575 14.7227 7.08203V7.08105C14.3353 6.29936 13.7006 5.66473 12.9189 5.27734H12.918C12.8942 5.2656 12.8697 5.25347 12.8457 5.24219C12.7047 5.17587 12.5589 5.11728 12.4092 5.06738C11.8639 4.88544 11.8639 4.11461 12.4092 3.93262C12.5588 3.88273 12.7047 3.82412 12.8457 3.75781C12.8697 3.74653 12.8942 3.7344 12.918 3.72266L12.9189 3.72168C13.7006 3.33429 14.3353 2.70064 14.7227 1.91895V1.91699C14.7344 1.89331 14.7465 1.86965 14.7578 1.8457C14.8242 1.70461 14.8827 1.55894 14.9326 1.40918ZM15.5 3.39062C15.1859 3.81209 14.8121 4.18592 14.3906 4.5C14.8121 4.8141 15.1859 5.18788 15.5 5.60938C15.8141 5.18789 16.1879 4.8141 16.6094 4.5C16.1879 4.18591 15.8141 3.81209 15.5 3.39062Z" fill="#1C1F23"/>
</svg>
