<svg width="24" height="24" viewBox="0 0 24 24" fill="none" xmlns="http://www.w3.org/2000/svg">
<path d="M9.67661 5.44904C9.90214 4.34572 11.4784 4.34573 11.704 5.44904C12.4088 8.89767 15.104 11.5928 18.5526 12.2977C19.6555 12.5234 19.6555 14.0993 18.5526 14.325C15.104 15.0299 12.4089 17.7251 11.704 21.1737C11.4784 22.277 9.90212 22.277 9.67661 21.1737C8.97173 17.7251 6.27649 15.0299 2.82797 14.325C1.72465 14.0995 1.72467 12.5232 2.82797 12.2977C6.2765 11.5928 8.97175 8.89766 9.67661 5.44904ZM10.6903 8.41096C9.64539 10.5404 7.91834 12.2665 5.78891 13.3113C7.91831 14.3562 9.64538 16.0823 10.6903 18.2117C11.7352 16.0824 13.4614 14.3562 15.5907 13.3113C13.4613 12.2665 11.7352 10.5403 10.6903 8.41096ZM18.1581 1.60334C18.3225 0.798876 19.4712 0.798897 19.6356 1.60334C19.9198 2.99365 21.007 4.07991 22.3973 4.36408C23.2014 4.52866 23.2014 5.67801 22.3973 5.8426C21.007 6.12677 19.9198 7.21306 19.6356 8.60334C19.4712 9.4078 18.3225 9.4078 18.1581 8.60334C17.8738 7.21308 16.7866 6.12676 15.3963 5.8426C14.5924 5.67791 14.5924 4.52875 15.3963 4.36408C16.7866 4.07991 17.8738 2.99364 18.1581 1.60334Z" fill="#1C1F23"/>
</svg>
