<svg width="24" height="24" viewBox="0 0 24 24" fill="none" xmlns="http://www.w3.org/2000/svg">
<path fill-rule="evenodd" clip-rule="evenodd" d="M17.112 15.0485C17.1116 15.0492 17.1113 15.0499 17.111 15.0506C16.6682 15.944 15.944 16.6682 15.0506 17.111C15.0499 17.1113 15.0492 17.1116 15.0485 17.112C15.0214 17.1254 14.9942 17.1386 14.9667 17.1515C14.8054 17.2273 14.6389 17.2941 14.4676 17.3512C13.8441 17.559 13.8441 18.441 14.4676 18.6488C14.6389 18.7059 14.8054 18.7727 14.9667 18.8485C14.9942 18.8614 15.0214 18.8746 15.0485 18.888C15.0492 18.8884 15.0499 18.8887 15.0506 18.889C15.944 19.3318 16.6682 20.056 17.111 20.9494C17.1113 20.9501 17.1116 20.9508 17.112 20.9515C17.1254 20.9786 17.1386 21.0058 17.1515 21.0333C17.2273 21.1946 17.2941 21.3611 17.3512 21.5324C17.559 22.1559 18.441 22.1559 18.6488 21.5324C18.7059 21.3611 18.7727 21.1946 18.8485 21.0333C18.8614 21.0058 18.8746 20.9786 18.888 20.9515C18.8884 20.9508 18.8887 20.9501 18.889 20.9494C19.3318 20.056 20.056 19.3318 20.9494 18.889C20.9501 18.8887 20.9508 18.8884 20.9515 18.888C20.9786 18.8746 21.0058 18.8614 21.0333 18.8485C21.1946 18.7727 21.3611 18.7059 21.5324 18.6488C22.1559 18.441 22.1559 17.559 21.5324 17.3512C21.3611 17.2941 21.1946 17.2273 21.0333 17.1515C21.0058 17.1386 20.9786 17.1254 20.9515 17.112C20.9508 17.1116 20.9501 17.1113 20.9494 17.111C20.056 16.6682 19.3318 15.944 18.889 15.0506C18.8887 15.0499 18.8884 15.0492 18.888 15.0485C18.8746 15.0214 18.8614 14.9942 18.8485 14.9667C18.7727 14.8054 18.7059 14.6389 18.6488 14.4676C18.441 13.8441 17.559 13.8441 17.3512 14.4676C17.2941 14.6389 17.2273 14.8054 17.1515 14.9667C17.1386 14.9942 17.1254 15.0214 17.112 15.0485ZM18 16.7319C17.641 17.2137 17.2137 17.641 16.7319 18C17.2137 18.359 17.641 18.7863 18 19.2681C18.359 18.7863 18.7863 18.359 19.2681 18C18.7863 17.641 18.359 17.2137 18 16.7319Z" fill="#A647FF"/>
<path fill-rule="evenodd" clip-rule="evenodd" d="M4.83436 3.53077C5.04646 3.29021 5.22518 3.01934 5.36359 2.72506C5.4205 2.60408 5.47059 2.47914 5.5134 2.35072C5.66927 1.88309 6.33072 1.88309 6.4866 2.35072C6.52941 2.47914 6.5795 2.60408 6.63641 2.72506C6.77483 3.01934 6.95354 3.29021 7.16564 3.53077C7.18499 3.55271 7.20461 3.5744 7.2245 3.59583C7.28215 3.65792 7.34208 3.71785 7.40417 3.7755C7.4256 3.79539 7.44729 3.81501 7.46923 3.83436C7.70979 4.04646 7.98066 4.22517 8.27494 4.36359C8.39592 4.4205 8.52086 4.47059 8.64928 4.5134C9.11691 4.66928 9.11691 5.33072 8.64928 5.4866C8.52086 5.52941 8.39592 5.5795 8.27494 5.63641C7.98066 5.77483 7.70979 5.95354 7.46923 6.16564C7.44729 6.18499 7.4256 6.20461 7.40417 6.2245C7.34208 6.28215 7.28215 6.34208 7.2245 6.40417C7.20461 6.4256 7.18499 6.44729 7.16564 6.46923C6.95354 6.70979 6.77483 6.98066 6.63641 7.27494C6.5795 7.39592 6.52941 7.52086 6.4866 7.64928C6.33072 8.11691 5.66927 8.11691 5.5134 7.64928C5.47059 7.52086 5.4205 7.39592 5.36359 7.27494C5.22517 6.98066 5.04646 6.70979 4.83436 6.46923C4.81501 6.44729 4.79539 6.4256 4.7755 6.40417C4.71785 6.34208 4.65792 6.28215 4.59583 6.2245C4.5744 6.20461 4.55271 6.18499 4.53077 6.16564C4.29021 5.95354 4.01934 5.77483 3.72506 5.63641C3.60408 5.5795 3.47914 5.52941 3.35072 5.4866C2.88309 5.33072 2.88309 4.66927 3.35072 4.5134C3.47914 4.47059 3.60408 4.4205 3.72506 4.36359C4.01934 4.22517 4.29021 4.04646 4.53077 3.83436C4.55271 3.81501 4.5744 3.79539 4.59583 3.7755C4.65792 3.71785 4.71785 3.65792 4.7755 3.59583C4.79539 3.5744 4.81501 3.55271 4.83436 3.53077Z" fill="#A647FF"/>
<path d="M16.5665 2.93217C17.8094 1.68925 19.8245 1.6893 21.0674 2.93217C22.3104 4.17511 22.3104 6.19021 21.0674 7.43315L7.43364 21.0669C6.1907 22.3099 4.1756 22.3099 2.93266 21.0669C1.68979 19.824 1.68974 17.8089 2.93266 16.566L16.5665 2.93217ZM4.33501 17.9683C3.86657 18.4367 3.86662 19.1961 4.33501 19.6646C4.80346 20.133 5.56284 20.133 6.03129 19.6646L16.6084 9.08647L14.9122 7.39018L4.33501 17.9683ZM19.6651 4.33452C19.1966 3.86613 18.4372 3.86609 17.9688 4.33452L16.3145 5.98784L18.0108 7.68413L19.6651 6.03081C20.1335 5.56235 20.1335 4.80297 19.6651 4.33452Z" fill="#1C1F23"/>
</svg>
