<svg width="24" height="24" viewBox="0 0 24 24" fill="none" xmlns="http://www.w3.org/2000/svg">
<path d="M16.5668 2.93199C17.8096 1.68922 19.8248 1.68946 21.0677 2.93199C22.3107 4.17494 22.3107 6.19099 21.0677 7.43394L7.43394 21.0677C6.19099 22.3107 4.17494 22.3107 2.93199 21.0677C1.68946 19.8248 1.68922 17.8096 2.93199 16.5668L16.5668 2.93199ZM17.307 14.4466C17.5132 13.8286 18.387 13.8285 18.5931 14.4466C18.6497 14.6164 18.7161 14.7818 18.7914 14.9418C18.8041 14.9689 18.8171 14.996 18.8304 15.0228L18.8314 15.0248C19.2704 15.9106 19.9886 16.6287 20.8744 17.0677L20.8763 17.0687C20.9031 17.082 20.9303 17.095 20.9574 17.1078C21.1173 17.183 21.2828 17.2494 21.4525 17.306C22.0708 17.5121 22.0708 18.387 21.4525 18.5931C21.2828 18.6497 21.1173 18.7152 20.9574 18.7904C20.9302 18.8032 20.9032 18.8171 20.8763 18.8304L20.8744 18.8314C19.9886 19.2704 19.2704 19.9886 18.8314 20.8744L18.8304 20.8763C18.8172 20.9031 18.8041 20.9303 18.7914 20.9574C18.7161 21.1173 18.6497 21.2827 18.5931 21.4525C18.3869 22.0703 17.5133 22.0702 17.307 21.4525C17.2504 21.2828 17.1839 21.1173 17.1087 20.9574C17.096 20.9303 17.0829 20.9031 17.0697 20.8763L17.0687 20.8744C16.6297 19.9885 15.9106 19.2704 15.0248 18.8314L15.0228 18.8304C14.996 18.8171 14.9689 18.8032 14.9418 18.7904C14.7821 18.7153 14.6171 18.6496 14.4476 18.5931C13.8293 18.387 13.8293 17.5121 14.4476 17.306C14.6172 17.2495 14.782 17.1829 14.9418 17.1078C14.9689 17.095 14.996 17.082 15.0228 17.0687L15.0248 17.0677C15.9106 16.6287 16.6297 15.9106 17.0687 15.0248L17.0697 15.0228C17.083 14.996 17.096 14.9689 17.1087 14.9418C17.184 14.7818 17.2504 14.6164 17.307 14.4466ZM4.33433 17.9691C3.86606 18.4374 3.8663 19.1969 4.33433 19.6654C4.80279 20.1338 5.56314 20.1338 6.0316 19.6654L16.6097 9.08726L14.9125 7.39L4.33433 17.9691ZM17.9496 16.6918C17.5936 17.1695 17.1704 17.5936 16.6927 17.9496C17.1702 18.3054 17.5937 18.7289 17.9496 19.2064C18.3055 18.7287 18.7297 18.3055 19.2074 17.9496C18.7296 17.5936 18.3056 17.1695 17.9496 16.6918ZM5.56773 2.43101C5.72244 1.96764 6.37888 1.96761 6.53355 2.43101C6.576 2.55835 6.62556 2.68311 6.68199 2.80308C6.81921 3.09469 6.9962 3.36351 7.2064 3.60191C7.22553 3.6236 7.24532 3.64517 7.265 3.66636C7.32202 3.72778 7.38131 3.78707 7.44273 3.8441C7.46394 3.86379 7.48547 3.88354 7.50718 3.90269C7.7456 4.11291 8.01437 4.28988 8.30601 4.4271C8.42598 4.48353 8.55074 4.5331 8.67808 4.57554C9.14139 4.73026 9.14138 5.38664 8.67808 5.54136C8.55074 5.58381 8.42598 5.63337 8.30601 5.6898C8.01437 5.82703 7.74561 6.00399 7.50718 6.21421C7.48546 6.23337 7.46395 6.25311 7.44273 6.27281C7.38131 6.32983 7.32202 6.38913 7.265 6.45054C7.24533 6.47173 7.22553 6.49331 7.2064 6.515C6.99608 6.75354 6.81924 7.02299 6.68199 7.3148C6.62561 7.43469 6.57597 7.55864 6.53355 7.68589C6.37889 8.14932 5.72243 8.14929 5.56773 7.68589C5.52532 7.55867 5.47566 7.43467 5.41929 7.3148C5.28204 7.02299 5.1052 6.75354 4.89488 6.515C4.87573 6.49328 4.85598 6.47175 4.83628 6.45054C4.77926 6.38913 4.71996 6.32983 4.65855 6.27281C4.63736 6.25314 4.61579 6.23334 4.5941 6.21421C4.35555 6.00389 4.0861 5.82706 3.79429 5.6898C3.6744 5.63342 3.55046 5.58378 3.4232 5.54136C2.9597 5.38671 2.9597 4.73019 3.4232 4.57554C3.55046 4.53312 3.67439 4.48349 3.79429 4.4271C4.0861 4.28985 4.35556 4.11302 4.5941 3.90269C4.61578 3.88357 4.63737 3.86376 4.65855 3.8441C4.71996 3.78707 4.77926 3.72778 4.83628 3.66636C4.85598 3.64515 4.87573 3.62363 4.89488 3.60191C5.10509 3.3635 5.28207 3.09471 5.41929 2.80308C5.47572 2.68311 5.52528 2.55835 5.56773 2.43101ZM19.6654 4.33433C19.1969 3.8663 18.4374 3.86606 17.9691 4.33433L16.3148 5.98765L18.0121 7.68492L19.6654 6.0316C20.1338 5.56314 20.1338 4.80279 19.6654 4.33433Z" fill="url(#paint0_linear_11011_2386)"/>
<defs>
<linearGradient id="paint0_linear_11011_2386" x1="22" y1="22" x2="-0.370122" y2="18.8542" gradientUnits="userSpaceOnUse">
<stop stop-color="#E945FF"/>
<stop offset="0.3" stop-color="#A647FF"/>
<stop offset="0.6" stop-color="#6B61FF"/>
<stop offset="1" stop-color="#2E8CFF"/>
</linearGradient>
</defs>
</svg>
