<svg width="24" height="24" viewBox="0 0 24 24" fill="none" xmlns="http://www.w3.org/2000/svg">
<g clip-path="url(#clip0_2342_325)">
<path d="M11.9999 7.63672C12.502 7.6368 12.9091 8.04387 12.9091 8.5459V13.623L16.8759 17.5908C17.2309 17.9458 17.2309 18.521 16.8759 18.876C16.5209 19.231 15.9458 19.231 15.5908 18.876L11.4121 14.6982C11.4014 14.6876 11.3918 14.6761 11.3818 14.665C11.2032 14.499 11.0908 14.263 11.0908 14V8.5459C11.0908 8.04382 11.4979 7.63672 11.9999 7.63672Z" fill="black"/>
<path fill-rule="evenodd" clip-rule="evenodd" d="M11.9999 4C17.5228 4 21.9999 8.47716 21.9999 14C21.9999 19.5229 17.5228 24 11.9999 24C6.47709 24 1.99994 19.5229 1.99994 14C1.99994 8.47716 6.47709 4 11.9999 4ZM11.9999 6C7.58166 6 3.99994 9.58172 3.99994 14C3.99994 18.4183 7.58166 22 11.9999 22C16.4182 22 19.9999 18.4183 19.9999 14C19.9999 9.58172 16.4182 6 11.9999 6Z" fill="black"/>
<path d="M3.53548 1.41422C4.31652 0.633168 5.58285 0.633168 6.3639 1.41422C7.14495 2.19527 7.14495 3.4616 6.3639 4.24264L4.24258 6.36396C3.46153 7.14501 2.1952 7.14501 1.41416 6.36396C0.633107 5.58292 0.633107 4.31659 1.41416 3.53554L3.53548 1.41422Z" fill="black"/>
<path d="M20.4644 1.41422C19.6834 0.633168 18.417 0.633168 17.636 1.41422C16.8549 2.19527 16.8549 3.4616 17.636 4.24264L19.7573 6.36396C20.5383 7.14501 21.8047 7.14501 22.5857 6.36396C23.3668 5.58292 23.3668 4.31659 22.5857 3.53554L20.4644 1.41422Z" fill="black"/>
</g>
<defs>
<clipPath id="clip0_2342_325">
<rect width="24" height="24" fill="white"/>
</clipPath>
</defs>
</svg>
