<svg width="24" height="24" viewBox="0 0 24 24" fill="none" xmlns="http://www.w3.org/2000/svg"><path fill-rule="evenodd" clip-rule="evenodd" d="M3.5 3C2.67157 3 2 3.67157 2 4.5C2 5.32843 2.67157 6 3.5 6H20.5C21.3284 6 22 5.32843 22 4.5C22 3.67157 21.3284 3 20.5 3H3.5ZM3.5 8C2.67157 8 2 8.67157 2 9.5C2 10.3284 2.67157 11 3.5 11H13.5C14.3284 11 15 10.3284 15 9.5C15 8.67157 14.3284 8 13.5 8H3.5ZM2 14.5C2 13.6716 2.67157 13 3.5 13H20.5C21.3284 13 22 13.6716 22 14.5C22 15.3284 21.3284 16 20.5 16H3.5C2.67157 16 2 15.3284 2 14.5ZM3.5 18C2.67157 18 2 18.6716 2 19.5C2 20.3284 2.67157 21 3.5 21H13.5C14.3284 21 15 20.3284 15 19.5C15 18.6716 14.3284 18 13.5 18H3.5Z" fill="black"/></svg>