<svg width="24" height="24" viewBox="0 0 24 24" fill="none" xmlns="http://www.w3.org/2000/svg"><path fill-rule="evenodd" clip-rule="evenodd" d="M3.5 3C2.67157 3 2 3.67157 2 4.5C2 5.32843 2.67157 6 3.5 6H20.5C21.3284 6 22 5.32843 22 4.5C22 3.67157 21.3284 3 20.5 3H3.5ZM6.5 8C5.67157 8 5 8.67157 5 9.5C5 10.3284 5.67157 11 6.5 11H17.5C18.3284 11 19 10.3284 19 9.5C19 8.67157 18.3284 8 17.5 8H6.5ZM2 14.5C2 13.6716 2.67157 13 3.5 13H20.5C21.3284 13 22 13.6716 22 14.5C22 15.3284 21.3284 16 20.5 16H3.5C2.67157 16 2 15.3284 2 14.5ZM6.5 18C5.67157 18 5 18.6716 5 19.5C5 20.3284 5.67157 21 6.5 21H17.5C18.3284 21 19 20.3284 19 19.5C19 18.6716 18.3284 18 17.5 18H6.5Z" fill="black"/></svg>