<svg width="24" height="24" viewBox="0 0 24 24" fill="none" xmlns="http://www.w3.org/2000/svg"><path fill-rule="evenodd" clip-rule="evenodd" d="M10 5C10 3.34315 11.3431 2 13 2H19C20.6569 2 22 3.34315 22 5V21.5C22 21.7761 21.7761 22 21.5 22H13H12H2.5C2.22386 22 2 21.7761 2 21.5V12C2 10.3431 3.34315 9 5 9H10V5ZM10 11H5C4.44772 11 4 11.4477 4 12V20H11V12C11 11.4477 10.5523 11 10 11ZM12.5 5C12.2239 5 12 5.22386 12 5.5V7.5C12 7.77614 12.2239 8 12.5 8H14.5C14.7761 8 15 7.77614 15 7.5V5.5C15 5.22386 14.7761 5 14.5 5H12.5ZM17 5.5C17 5.22386 17.2239 5 17.5 5H19.5C19.7761 5 20 5.22386 20 5.5V7.5C20 7.77614 19.7761 8 19.5 8H17.5C17.2239 8 17 7.77614 17 7.5V5.5ZM17.5 11C17.2239 11 17 11.2239 17 11.5V13.5C17 13.7761 17.2239 14 17.5 14H19.5C19.7761 14 20 13.7761 20 13.5V11.5C20 11.2239 19.7761 11 19.5 11H17.5ZM17 17.5C17 17.2239 17.2239 17 17.5 17H19.5C19.7761 17 20 17.2239 20 17.5V19.5C20 19.7761 19.7761 20 19.5 20H17.5C17.2239 20 17 19.7761 17 19.5V17.5ZM6 14.5C6 14.2239 6.22386 14 6.5 14H8.5C8.77614 14 9 14.2239 9 14.5V16.5C9 16.7761 8.77614 17 8.5 17H6.5C6.22386 17 6 16.7761 6 16.5V14.5Z" fill="black"/></svg>