<svg width="24" height="24" viewBox="0 0 24 24" fill="none" xmlns="http://www.w3.org/2000/svg"><path fill-rule="evenodd" clip-rule="evenodd" d="M5 2C3.34315 2 2 3.34315 2 5V19C2 20.6569 3.34315 22 5 22H19C20.6569 22 22 20.6569 22 19V5C22 3.34315 20.6569 2 19 2H5ZM7 6C6.44772 6 6 6.44772 6 7C6 7.55228 6.44771 8 7 8H17C17.5523 8 18 7.55228 18 7C18 6.44772 17.5523 6 17 6H7ZM6 12C6 11.4477 6.44772 11 7 11H17C17.5523 11 18 11.4477 18 12C18 12.5523 17.5523 13 17 13H7C6.44771 13 6 12.5523 6 12ZM7 16C6.44772 16 6 16.4477 6 17C6 17.5523 6.44772 18 7 18H13C13.5523 18 14 17.5523 14 17C14 16.4477 13.5523 16 13 16H7Z" fill="black"/></svg>