<svg width="24" height="24" viewBox="0 0 24 24" fill="none" xmlns="http://www.w3.org/2000/svg"><path fill-rule="evenodd" clip-rule="evenodd" d="M16.5 2C17.0523 2 17.5 2.44772 17.5 3V7C17.5 7.55229 17.0523 8 16.5 8L3.5 8C2.94771 8 2.5 7.55229 2.5 7V3C2.5 2.44772 2.94771 2 3.5 2H16.5ZM15.5 4L4.5 4V6L15.5 6V4ZM13.5 16C14.0523 16 14.5 16.4477 14.5 17V21C14.5 21.5523 14.0523 22 13.5 22L3.5 22C2.94771 22 2.5 21.5523 2.5 21V17C2.5 16.4477 2.94771 16 3.5 16L13.5 16ZM12.5 18H4.5V20H12.5V18ZM22.5 10C22.5 9.44772 22.0523 9 21.5 9L3.5 9C2.94772 9 2.5 9.44771 2.5 10V14C2.5 14.5523 2.94772 15 3.5 15H21.5C22.0523 15 22.5 14.5523 22.5 14V10ZM4.5 11H20.5V13H4.5V11Z" fill="black"/></svg>