<svg width="24" height="24" viewBox="0 0 24 24" fill="none" xmlns="http://www.w3.org/2000/svg">
<path d="M15 1C16.1046 1 17 1.89543 17 3V6H21C22.1046 6 23 6.89543 23 8V20C23 21.0357 22.2128 21.887 21.2041 21.9893L21 22H3L2.7959 21.9893C1.78722 21.887 1 21.0357 1 20V8C1 6.89543 1.89543 6 3 6H7V3C7 1.89543 7.89543 1 9 1H15ZM3 20H21V13H15V15C15 15.5523 14.5523 16 14 16H10C9.44772 16 9 15.5523 9 15V13H3V20ZM3 11H21V8H3V11ZM9.5 3C9.22386 3 9 3.22386 9 3.5V6H15V3.5C15 3.22386 14.7761 3 14.5 3H9.5Z" fill="black"/>
</svg>
