<svg width="24" height="24" viewBox="0 0 24 24" fill="none" xmlns="http://www.w3.org/2000/svg"><path fill-rule="evenodd" clip-rule="evenodd" d="M20 9C20 4.58172 16.4183 1 12 1C7.58172 1 4 4.58172 4 9C4 12.5785 6.33257 14.7736 7.43524 15.6114L7.86073 18.1644C7.9411 18.6466 8.35829 19 8.84713 19H15.1529C15.6417 19 16.0589 18.6466 16.1393 18.1644L16.582 15.508C17.6915 14.5003 20 12.0387 20 9ZM8.29289 7.29289C8.68342 6.90237 9.31658 6.90237 9.70711 7.29289L12 9.58579L14.2929 7.29289C14.6834 6.90237 15.3166 6.90237 15.7071 7.29289C16.0976 7.68342 16.0976 8.31658 15.7071 8.70711L13 11.4142V14.5C13 15.0523 12.5523 15.5 12 15.5C11.4477 15.5 11 15.0523 11 14.5V11.4142L8.29289 8.70711C7.90237 8.31658 7.90237 7.68342 8.29289 7.29289Z" fill="black"/><path fill-rule="evenodd" clip-rule="evenodd" d="M15 20V21C15 22.1046 14.1046 23 13 23H11C9.89543 23 9 22.1046 9 21V20H15Z" fill="black"/></svg>