<svg width="24" height="24" viewBox="0 0 24 24" fill="none" xmlns="http://www.w3.org/2000/svg">
<path fill-rule="evenodd" clip-rule="evenodd" d="M20 2C21.1046 2 22 2.89543 22 4V12.5283C21.4229 12.0117 20.7453 11.6052 20 11.3418V8C20 7.44772 19.5523 7 19 7H5C4.44772 7 4 7.44772 4 8V19C4 19.5523 4.44772 20 5 20H12.8047C13.2692 20.8027 13.9133 21.4881 14.6836 22H4C2.89543 22 2 21.1046 2 20V4C2 2.89543 2.89543 2 4 2H20ZM4.5 4C4.22386 4 4 4.22386 4 4.5C4 4.77614 4.22386 5 4.5 5H19.5C19.7761 5 20 4.77614 20 4.5C20 4.22386 19.7761 4 19.5 4H4.5Z" fill="black"/>
<path d="M8 15C8.55228 15 9 15.4477 9 16V17C9 17.5523 8.55228 18 8 18H7C6.44772 18 6 17.5523 6 17V16C6 15.4477 6.44772 15 7 15H8Z" fill="black"/>
<path d="M12.3428 15C12.1216 15.6257 12 16.2986 12 17C12 17.3408 12.0304 17.6747 12.085 18H11.5C10.9477 18 10.5 17.5523 10.5 17V16C10.5 15.4477 10.9477 15 11.5 15H12.3428Z" fill="black"/>
<path d="M8 10C8.55228 10 9 10.4477 9 11V12C9 12.5523 8.55228 13 8 13H7C6.44772 13 6 12.5523 6 12V11C6 10.4477 6.44772 10 7 10H8Z" fill="black"/>
<path d="M12.5 10C13.0523 10 13.5 10.4477 13.5 11V12C13.5 12.5523 13.0523 13 12.5 13H11.5C10.9477 13 10.5 12.5523 10.5 12V11C10.5 10.4477 10.9477 10 11.5 10H12.5Z" fill="black"/>
<path d="M17.5 10C18.0523 10 18.5 10.4477 18.5 11V11.0225C18.3351 11.0089 18.1684 11 18 11C17.1077 11 16.2611 11.1955 15.5 11.5449V11C15.5 10.4477 15.9477 10 16.5 10H17.5Z" fill="black"/>
<path d="M18 12C20.7614 12 23 14.2386 23 17C23 19.7614 20.7614 22 18 22C15.2386 22 13 19.7614 13 17C13 14.2386 15.2386 12 18 12ZM18 14C16.3431 14 15 15.3431 15 17C15 18.6569 16.3431 20 18 20C19.6569 20 21 18.6569 21 17C21 15.3431 19.6569 14 18 14ZM18 14.2705C18.4141 14.2705 18.7498 14.6065 18.75 15.0205V16.2715L20.0498 17.5723C20.3427 17.8652 20.3427 18.3399 20.0498 18.6328C19.7569 18.9255 19.2821 18.9257 18.9893 18.6328L17.4941 17.1367C17.4538 17.0964 17.4199 17.0522 17.3906 17.0059C17.303 16.8831 17.25 16.7336 17.25 16.5713V15.0205C17.2502 14.6065 17.5859 14.2705 18 14.2705Z" fill="black"/>
</svg>
