<svg width="24" height="24" viewBox="0 0 24 24" fill="none" xmlns="http://www.w3.org/2000/svg"><path d="M2 5V19C2 20.6569 3.34315 22 5 22H12.101C11.5151 21.4259 11.0297 20.7496 10.6736 20H6C4.89543 20 4 19.1046 4 18V8C4 7.44772 4.44772 7 5 7H19C19.5523 7 20 7.44772 20 8V10.6736C20.7496 11.0297 21.4259 11.5151 22 12.101V5C22 3.34315 20.6569 2 19 2H5C3.34315 2 2 3.34315 2 5Z" fill="black"/><path d="M16 10H17C16.4614 10 15.9369 10.0608 15.4332 10.176C15.5943 10.065 15.7896 10 16 10Z" fill="black"/><path d="M13.4981 10.9376C13.4659 10.4144 13.0313 10 12.5 10H11.5C10.9477 10 10.5 10.4477 10.5 11V12C10.5 12.4742 10.83 12.8712 11.2729 12.9741C11.857 12.1446 12.6168 11.4478 13.4981 10.9376Z" fill="black"/><path d="M7 10C6.44772 10 6 10.4477 6 11V12C6 12.5523 6.44772 13 7 13H8C8.55228 13 9 12.5523 9 12V11C9 10.4477 8.55228 10 8 10H7Z" fill="black"/><path d="M6 16C6 15.4477 6.44772 15 7 15H8C8.55228 15 9 15.4477 9 16V17C9 17.5523 8.55228 18 8 18H7C6.44772 18 6 17.5523 6 17V16Z" fill="black"/><path fill-rule="evenodd" clip-rule="evenodd" d="M22 17C22 19.7614 19.7614 22 17 22C14.2386 22 12 19.7614 12 17C12 14.2386 14.2386 12 17 12C19.7614 12 22 14.2386 22 17ZM18 15C18 14.4477 17.5523 14 17 14C16.4477 14 16 14.4477 16 15V17C16 17.2652 16.1054 17.5196 16.2929 17.7071L17.7929 19.2071C18.1834 19.5976 18.8166 19.5976 19.2071 19.2071C19.5976 18.8166 19.5976 18.1834 19.2071 17.7929L18 16.5858V15Z" fill="black"/></svg>