<svg width="24" height="24" viewBox="0 0 24 24" fill="none" xmlns="http://www.w3.org/2000/svg">
<path fill-rule="evenodd" clip-rule="evenodd" d="M12 7C14.7614 7 17 9.23858 17 12C17 14.7614 14.7614 17 12 17C9.23858 17 7 14.7614 7 12C7 9.23858 9.23858 7 12 7ZM12 9C10.3431 9 9 10.3431 9 12C9 13.6569 10.3431 15 12 15C13.6569 15 15 13.6569 15 12C15 10.3431 13.6569 9 12 9Z" fill="black"/>
<path fill-rule="evenodd" clip-rule="evenodd" d="M14.7637 2C15.5212 2 16.2139 2.42796 16.5527 3.10547L17.5 5H20C21.6569 5 23 6.34315 23 8V18C23 19.6569 21.6569 21 20 21H4C2.34315 21 1 19.6569 1 18V8C1 6.34315 2.34315 5 4 5H6.5L7.44727 3.10547C7.78607 2.42796 8.47882 2 9.23633 2H14.7637ZM8.28906 5.89453C7.95026 6.57204 7.25751 7 6.5 7H4C3.44772 7 3 7.44772 3 8V18C3 18.5523 3.44772 19 4 19H20C20.5523 19 21 18.5523 21 18V8C21 7.44772 20.5523 7 20 7H17.5C16.7425 7 16.0497 6.57204 15.7109 5.89453L14.7637 4H9.23633L8.28906 5.89453Z" fill="black"/>
</svg>
