<svg width="24" height="24" viewBox="0 0 24 24" fill="none" xmlns="http://www.w3.org/2000/svg">
<path d="M9.65405 18C10.7584 18.0003 11.6541 18.8956 11.6541 20C11.6541 21.1044 10.7584 21.9997 9.65405 22C8.54948 22 7.65405 21.1046 7.65405 20C7.65405 18.8954 8.54948 18 9.65405 18Z" fill="black"/>
<path d="M18.6541 18C19.7584 18.0003 20.6541 18.8956 20.6541 20C20.6541 21.1044 19.7584 21.9997 18.6541 22C17.5495 22 16.6541 21.1046 16.6541 20C16.6541 18.8954 17.5495 18 18.6541 18Z" fill="black"/>
<path fill-rule="evenodd" clip-rule="evenodd" d="M5.49194 2C6.17536 2.00017 6.76598 2.46096 6.94019 3.11035L6.96948 3.24219L7.1062 4.02637H21.823C22.4627 4.02637 22.9382 4.61873 22.7996 5.24316L21.2439 12.2432C21.1549 12.6435 20.8333 12.9432 20.4402 13.0117L20.2683 13.0264H8.67358L9.01733 15H20.1619C20.7141 15 21.1619 15.4477 21.1619 16C21.1619 16.5523 20.7141 17 20.1619 17H8.59741C7.86841 17 7.24415 16.4759 7.1189 15.7578L5.27612 5.19922C5.27189 5.17508 5.2698 5.1509 5.26733 5.12695L5.07104 4H2.17651C1.62423 4 1.17651 3.55228 1.17651 3C1.17651 2.44772 1.62423 2 2.17651 2H5.49194ZM7.8103 8.07031L8.32886 11.0264H19.4656L20.5769 6.02637H7.45483L7.8103 8.07031Z" fill="black"/>
</svg>
