<svg width="24" height="24" viewBox="0 0 24 24" fill="none" xmlns="http://www.w3.org/2000/svg"><path fill-rule="evenodd" clip-rule="evenodd" d="M20 11V11.3C21.7 11.9 23 13.5 23 15.5C23 18 21 20 18.5 20H17C17 20 16 20 16 19C16 18 17 18 17 18H18.5C19.9 18 21 16.9 21 15.5C21 14.5 20.4 13.7 19.6 13.3C19.3 13.1 18.9 13 18.5 13H17.8775C17.741 13 17.6447 12.8663 17.6854 12.7361C17.8532 12.1993 18 11.5996 18 11C18 8.2 15.8 6 13 6C11.2 6 9.7 6.9 8.8 8.3C8.53971 8.82058 8.27942 9.34116 8.14976 9.92705C8.12026 10.0603 7.97365 10.1362 7.844 10.0935C7.56058 10 7.3104 10 7 10C6.7 10 6.4 10 6.1 10.1C4.3 10.5 3 12.1 3 14C3 16.2 4.8 18 7 18C7 18 8 18 8 19C8 20 7 20 7 20C3.7 20 1 17.3 1 14C1 10.8 3.5 8.2 6.7 8C7.8 5.7 10.2 4 13 4C16.9 4 20 7.1 20 11ZM15.7071 14.7071C15.3166 15.0976 14.6834 15.0976 14.2929 14.7071L13 13.4142V19C13 19.5523 12.5523 20 12 20C11.4477 20 11 19.5523 11 19V13.4142L9.70711 14.7071C9.31658 15.0976 8.68342 15.0976 8.29289 14.7071C7.90237 14.3166 7.90237 13.6834 8.29289 13.2929L11.2929 10.2929C11.6834 9.90237 12.3166 9.90237 12.7071 10.2929L15.7071 13.2929C16.0976 13.6834 16.0976 14.3166 15.7071 14.7071Z" fill="black"/></svg>