<svg width="24" height="24" viewBox="0 0 24 24" fill="none" xmlns="http://www.w3.org/2000/svg">
<path d="M12 1C18.0751 1 23 5.92487 23 12C23 18.0751 18.0751 23 12 23C5.92487 23 1 18.0751 1 12C1 5.92487 5.92487 1 12 1ZM15.207 7.29297C14.8165 6.90244 14.1835 6.90244 13.793 7.29297L12 9.08594L10.207 7.29297C9.81651 6.90244 9.18349 6.90244 8.79297 7.29297C8.40252 7.6835 8.40247 8.31653 8.79297 8.70703L10.0859 10H9C8.44772 10 8 10.4477 8 11C8.00008 11.5522 8.44777 12 9 12H11V13H9C8.44772 13 8 13.4477 8 14C8.00008 14.5522 8.44777 15 9 15H11V16C11.0001 16.5522 11.4478 17 12 17C12.5522 17 12.9999 16.5522 13 16V15H15C15.5522 15 15.9999 14.5522 16 14C16 13.4477 15.5523 13 15 13H13V12H15C15.5522 12 15.9999 11.5522 16 11C16 10.4477 15.5523 10 15 10H13.9141L15.207 8.70703C15.5975 8.31653 15.5975 7.6835 15.207 7.29297Z" fill="black"/>
</svg>
