<svg width="24" height="24" viewBox="0 0 24 24" fill="none" xmlns="http://www.w3.org/2000/svg"><path d="M9 2C7.89543 2 7 2.89543 7 4V5H16C18 5 19 6 19 8V17H20C21.1046 17 22 16.1046 22 15V4C22 2.89543 21.1046 2 20 2H9Z" fill="black"/><path fill-rule="evenodd" clip-rule="evenodd" d="M3 9C3 7.89543 3.89543 7 5 7H15C16.1046 7 17 7.89543 17 9V19C17 20.1046 16.1046 21 15 21H5C3.89543 21 3 20.1046 3 19V9ZM9 11C9 10.4477 9.44772 10 10 10C10.5523 10 11 10.4477 11 11V13H13C13.5523 13 14 13.4477 14 14C14 14.5523 13.5523 15 13 15H11V17C11 17.5523 10.5523 18 10 18C9.44772 18 9 17.5523 9 17V15H7C6.44772 15 6 14.5523 6 14C6 13.4477 6.44772 13 7 13H9V11Z" fill="black"/></svg>