<svg width="24" height="24" viewBox="0 0 24 24" fill="none" xmlns="http://www.w3.org/2000/svg">
<path d="M20 3C21.6569 3 23 4.34315 23 6V17C23 18.6051 21.7394 19.9158 20.1543 19.9961L20 20H4L3.8457 19.9961C2.31166 19.9184 1.08163 18.6883 1.00391 17.1543L1 17V6C1 4.34315 2.34315 3 4 3H20ZM3 17C3 17.5523 3.44772 18 4 18H20C20.5523 18 21 17.5523 21 17V10H3V17ZM4 5C3.44772 5 3 5.44772 3 6V8H21V6C21 5.44772 20.5523 5 20 5H4Z" fill="black"/>
<path d="M5 14C5 13.4477 5.44772 13 6 13H8C8.55228 13 9 13.4477 9 14V15C9 15.5523 8.55228 16 8 16H6C5.44772 16 5 15.5523 5 15V14Z" fill="black"/>
</svg>
