<svg width="24" height="24" viewBox="0 0 24 24" fill="none" xmlns="http://www.w3.org/2000/svg"><path fill-rule="evenodd" clip-rule="evenodd" d="M23 12C23 18.0751 18.0751 23 12 23C5.92487 23 1 18.0751 1 12C1 5.92487 5.92487 1 12 1C18.0751 1 23 5.92487 23 12ZM12 21C16.9706 21 21 16.9706 21 12C21 7.02944 16.9706 3 12 3C7.02944 3 3 7.02944 3 12C3 16.9706 7.02944 21 12 21ZM8.11101 8.11091C8.50153 7.72039 9.1347 7.72039 9.52522 8.11091L12 10.5857L14.4749 8.11091C14.8654 7.72039 15.4986 7.72039 15.8891 8.11091C16.2796 8.50144 16.2796 9.1346 15.8891 9.52513L13.4143 12L15.8892 14.4749C16.2797 14.8654 16.2797 15.4986 15.8892 15.8891C15.4987 16.2796 14.8655 16.2796 14.475 15.8891L12 13.4142L9.52513 15.8891C9.1346 16.2796 8.50144 16.2796 8.11092 15.8891C7.72039 15.4986 7.72039 14.8654 8.11092 14.4749L10.5858 12L8.11101 9.52513C7.72048 9.1346 7.72048 8.50144 8.11101 8.11091Z" fill="black"/></svg>