<svg width="24" height="24" viewBox="0 0 24 24" fill="none" xmlns="http://www.w3.org/2000/svg">
<path d="M11.0896 2.0025C11.445 1.22124 12.5545 1.22135 12.9099 2.0025L15.3474 7.3648C16.1483 9.1266 18.3695 9.66789 19.8865 8.51812L20.031 8.40191L21.8846 6.81305C22.4946 6.29018 23.4083 6.89191 23.1687 7.65875L19.4383 20.5962C19.1936 21.3791 18.499 21.9283 17.6922 21.9937L17.5301 21.9996H6.47049L6.3074 21.9937C5.5008 21.9281 4.8059 21.3789 4.56131 20.5962L0.830842 7.65875C0.591448 6.89198 1.50505 6.29026 2.11502 6.81305L3.96854 8.40191C5.43797 9.66135 7.67988 9.21443 8.5701 7.5318L8.65213 7.3648L11.0896 2.0025ZM10.4724 8.19293C9.28288 10.8097 6.2147 11.8089 3.77127 10.6392L6.47049 19.9996H17.5291L20.2283 10.6382C17.7848 11.808 14.7167 10.8098 13.5271 8.19293L11.9998 4.83258L10.4724 8.19293Z" fill="black"/>
</svg>
