<svg width="24" height="24" viewBox="0 0 24 24" fill="none" xmlns="http://www.w3.org/2000/svg"><path fill-rule="evenodd" clip-rule="evenodd" d="M17.8395 8.05827C17.1837 5.16226 14.5944 3 11.5 3C7.91015 3 5 5.91015 5 9.5C5 10.0204 5.06115 10.5264 5.17665 11.0114C2.84229 11.1772 1 13.1234 1 15.5C1 17.9853 3.01469 20 5.49995 20H17C20.3137 20 23 17.3137 23 14C23 10.9712 20.7558 8.46659 17.8395 8.05827ZM11.6799 17.7333C11.8653 17.8878 12.1347 17.8878 12.3201 17.7333L17.4695 13.4421C17.6492 13.2924 17.5433 13 17.3095 13H14V9.5C14 9.22386 13.7761 9 13.5 9H10.5C10.2239 9 10 9.22386 10 9.5V13H6.69051C6.45669 13 6.35084 13.2924 6.53047 13.4421L11.6799 17.7333Z" fill="black"/></svg>