<svg width="24" height="24" viewBox="0 0 24 24" fill="none" xmlns="http://www.w3.org/2000/svg"><path fill-rule="evenodd" clip-rule="evenodd" d="M21.1422 4.41421L19.728 3C18.9469 2.21895 17.6806 2.21895 16.8995 3L15.4853 4.41423L14.7782 5.12132L8.31076 11.5888C8.16555 11.734 8.06856 11.9204 8.03299 12.1227L7.42936 15.5547C7.37287 15.8759 7.47654 16.2045 7.70714 16.435C7.93773 16.6656 8.26628 16.7693 8.58746 16.7128L12.0195 16.1092C12.2218 16.0736 12.4082 15.9766 12.5534 15.8314L19.0209 9.36396L19.728 8.65687L21.1422 7.24264C21.9232 6.46159 21.9232 5.19526 21.1422 4.41421ZM19.0209 6.53554L19.728 5.82843L18.3138 4.41421L17.6066 5.12132L19.0209 6.53554ZM17.6066 7.94977L16.1924 6.53555L9.9481 12.7799L9.64628 14.4959L11.3623 14.1941L17.6066 7.94977ZM2 5C2 4.44771 2.44772 4 3 4H10C10.5523 4 11 4.44771 11 5C11 5.55228 10.5523 6 10 6H4V20H18V14C18 13.4477 18.4477 13 19 13C19.5523 13 20 13.4477 20 14V21C20 21.5523 19.5523 22 19 22H3C2.44772 22 2 21.5523 2 21V5Z" fill="black"/></svg>