<svg width="24" height="24" viewBox="0 0 24 24" fill="none" xmlns="http://www.w3.org/2000/svg"><path fill-rule="evenodd" clip-rule="evenodd" d="M18.5808 2.58665C17.7986 1.80445 16.5304 1.80445 15.7482 2.58665L13.6247 4.71011C13.6244 4.71044 13.624 4.71077 13.6237 4.7111L12.9156 5.41924L3.12239 15.2124C2.97399 15.3608 2.87597 15.5521 2.84215 15.7592L2.0131 20.8371C1.96117 21.1552 2.06547 21.4788 2.29334 21.7067C2.52121 21.9345 2.84481 22.0388 3.16285 21.9869L8.2408 21.1579C8.44792 21.124 8.63918 21.026 8.78758 20.8776L18.5808 11.0844L19.2889 10.3763L21.4134 8.25184C22.1956 7.46964 22.1956 6.20144 21.4134 5.41924L18.5808 2.58665ZM18.5808 8.25184L19.9971 6.83554L17.1645 4.00295L15.7482 5.41924L18.5808 8.25184ZM17.1645 9.66814L14.3319 6.83554L4.76692 16.4005L4.21421 19.7858L7.59951 19.2331L17.1645 9.66814Z" fill="black"/></svg>