<svg width="24" height="24" viewBox="0 0 24 24" fill="none" xmlns="http://www.w3.org/2000/svg">
<path d="M16.4329 4.09889L19.9727 7.6387L21.4494 6.16204C22.0023 5.60909 22.0023 4.71258 21.4494 4.15962L19.912 2.62223C19.359 2.06928 18.4625 2.06928 17.9096 2.62223L16.4329 4.09889Z" fill="black"/>
<path d="M7.75844 15.8756L8.94892 11.7089C8.98197 11.5932 9.04396 11.4878 9.12904 11.4028L15.371 5.16083L18.9108 8.70064L12.6688 14.9426C12.5838 15.0277 12.4784 15.0896 12.3627 15.1227L8.19605 16.3132C7.92902 16.3895 7.68215 16.1426 7.75844 15.8756Z" fill="black"/>
<path d="M7.9707 9.78125C7.68594 10.066 7.46851 10.41 7.33398 10.7881L7.28125 10.9521L6.09082 15.1182C5.58347 16.8939 7.22525 18.5357 9.00098 18.0283L13.168 16.8379C13.6103 16.7114 14.0135 16.4747 14.3389 16.1494L19.1464 11.3418C19.4614 11.0269 20 11.2499 20 11.6954V21C20 21.5523 19.5523 22 19 22H3C2.44772 22 2 21.5523 2 21V5C2 4.44772 2.44772 4 3 4H12.544C12.9894 4 13.2125 4.53853 12.8976 4.85352L7.9707 9.78125Z" fill="black"/>
</svg>
