<svg width="20" height="20" viewBox="0 0 20 20" fill="none" xmlns="http://www.w3.org/2000/svg">
<path d="M12.5986 0.670898C12.8275 0.693652 13.043 0.794918 13.207 0.958984L17.373 5.12598C17.5606 5.31351 17.666 5.56779 17.666 5.83301V17.499C17.666 18.5116 16.8455 19.333 15.833 19.333H4.16602C3.15365 19.3328 2.33301 18.5115 2.33301 17.499V2.49902C2.33318 1.48676 3.15375 0.666191 4.16602 0.666016H12.5L12.5986 0.670898ZM7.91699 6.5C7.36471 6.5 6.91699 6.94772 6.91699 7.5V14.167C6.91717 14.7191 7.36482 15.167 7.91699 15.167H12.084C12.636 15.1668 13.0838 14.719 13.084 14.167C13.084 13.6148 12.6361 13.1672 12.084 13.167H8.91699V11.834H12.084C12.6361 11.8338 13.084 11.3862 13.084 10.834C13.084 10.2818 12.6361 9.83416 12.084 9.83398H8.91699V8.5H12.084C12.6361 8.49982 13.084 8.05218 13.084 7.5C13.084 6.94782 12.6361 6.50018 12.084 6.5H7.91699Z" fill="black"/>
</svg>
