<svg width="24" height="24" viewBox="0 0 24 24" fill="none" xmlns="http://www.w3.org/2000/svg">
<path fill-rule="evenodd" clip-rule="evenodd" d="M12 8C14.2091 8 16 9.79086 16 12C16 14.2091 14.2091 16 12 16C9.79086 16 8 14.2091 8 12C8 9.79086 9.79086 8 12 8ZM12 10C10.8954 10 10 10.8954 10 12C10 13.1046 10.8954 14 12 14C13.1046 14 14 13.1046 14 12C14 10.8954 13.1046 10 12 10Z" fill="black"/>
<path fill-rule="evenodd" clip-rule="evenodd" d="M12 4C18.5 4 23 9.5 23 12C23 14.5 18.5 20 12 20C5.5 20 1 14.5 1 12C1 9.5 5.5 4 12 4ZM12 6C9.32863 6 7.02864 7.13094 5.37598 8.57031C4.55125 9.28862 3.9242 10.0533 3.5166 10.7285C3.07995 11.4519 3 11.8953 3 12C3 12.1047 3.07995 12.5481 3.5166 13.2715C3.9242 13.9467 4.55125 14.7114 5.37598 15.4297C7.02864 16.8691 9.32863 18 12 18C14.6714 18 16.9714 16.8691 18.624 15.4297C19.4488 14.7114 20.0758 13.9467 20.4834 13.2715C20.92 12.5481 21 12.1047 21 12C21 11.8953 20.92 11.4519 20.4834 10.7285C20.0758 10.0533 19.4488 9.28862 18.624 8.57031C16.9714 7.13094 14.6714 6 12 6Z" fill="black"/>
</svg>
