<svg width="24" height="24" viewBox="0 0 24 24" fill="none" xmlns="http://www.w3.org/2000/svg">
<path fill-rule="evenodd" clip-rule="evenodd" d="M20.0918 2.29298C20.4823 1.90248 21.1153 1.90253 21.5059 2.29298C21.8964 2.6835 21.8964 3.31651 21.5059 3.70704L3.12109 22.0918C2.73056 22.4823 2.09753 22.4823 1.70703 22.0918C1.31661 21.7013 1.31661 21.0682 1.70703 20.6777L5.07031 17.3125C2.52137 15.5021 1.00011 13.0388 1 11.5859C1 9.08594 5.5 3.58594 12 3.58594C14.0348 3.58594 15.8725 4.12691 17.4385 4.94434L20.0918 2.29298ZM12 5.58594C9.32863 5.58594 7.02864 6.71689 5.37598 8.15626C4.55129 8.87455 3.92419 9.63923 3.5166 10.3145C3.08001 11.0378 3 11.4813 3 11.5859C3.00008 11.6909 3.08016 12.1344 3.5166 12.8574C3.9242 13.5327 4.55129 14.2974 5.37598 15.0156C5.72479 15.3194 6.10266 15.609 6.50684 15.877L8.63574 13.7481C8.23413 13.1245 8.00003 12.3828 8 11.5859C8 9.37681 9.79086 7.58594 12 7.58594C12.7969 7.58594 13.5385 7.82006 14.1621 8.22169L15.9434 6.44044C14.7647 5.91424 13.4364 5.58594 12 5.58594ZM12 9.58594C10.8954 9.58594 10 10.4814 10 11.5859C10 11.8245 10.0415 12.0535 10.1182 12.2656L12.6797 9.70411C12.4675 9.62744 12.2386 9.58594 12 9.58594Z" fill="black"/>
<path d="M20.2666 6.94532C22.0017 8.56564 23 10.4085 23 11.5859C22.9998 14.086 18.4999 19.5859 12 19.5859C10.6595 19.5859 9.40528 19.3484 8.25684 18.9551L9.87207 17.3399C10.5492 17.4959 11.26 17.5859 12 17.5859C14.6713 17.5859 16.9714 16.455 18.624 15.0156C19.4487 14.2974 20.0758 13.5327 20.4834 12.8574C20.9198 12.1344 20.9999 11.6909 21 11.5859C21 11.4813 20.92 11.0378 20.4834 10.3145C20.1142 9.70278 19.5638 9.01883 18.8506 8.36133L20.2666 6.94532Z" fill="black"/>
<path d="M15.9834 11.2285C15.9938 11.3462 16 11.4655 16 11.5859C15.9999 13.795 14.2091 15.5859 12 15.5859C11.8795 15.5859 11.7603 15.5798 11.6426 15.5693L15.9834 11.2285Z" fill="black"/>
</svg>
