<svg width="24" height="24" viewBox="0 0 24 24" fill="none" xmlns="http://www.w3.org/2000/svg">
<path d="M2.7054 5.03846C3.23641 4.88714 3.78698 5.19705 3.99056 5.71033C4.5285 7.0665 5.41617 8.51713 6.60872 9.68689C8.074 11.124 9.94988 12.096 12.179 12.0394C16.2895 11.935 19.3004 9.38626 20.4661 5.78748C20.6363 5.26205 21.1653 4.91889 21.7044 5.03846C22.2438 5.1582 22.5885 5.69495 22.4261 6.22303C21.8155 8.20706 20.727 9.9579 19.2513 11.2982L21.9134 14.8304C22.2457 15.2715 22.157 15.8984 21.7161 16.2308C21.2751 16.5632 20.6482 16.4755 20.3158 16.0345L17.6488 12.4955C16.8837 12.959 16.0478 13.3281 15.1488 13.5902L16.6361 17.6771C16.825 18.1961 16.5574 18.7695 16.0384 18.9584C15.5194 19.1472 14.946 18.8797 14.7572 18.3607L13.1615 13.9779C12.8565 14.0094 12.5457 14.0314 12.2298 14.0394C11.877 14.0484 11.5319 14.0358 11.1947 14.0062L9.6097 18.3607C9.42081 18.8797 8.84743 19.1473 8.32845 18.9584C7.80959 18.7694 7.54193 18.196 7.73079 17.6771L9.21322 13.6029C8.34715 13.322 7.54979 12.9173 6.82259 12.4301L4.10775 16.0345C3.77537 16.4756 3.14843 16.5632 2.70736 16.2308C2.26632 15.8985 2.17773 15.2715 2.51009 14.8304L5.26693 11.1713C5.24723 11.1522 5.22691 11.1338 5.20736 11.1146C3.74833 9.68341 2.68553 7.91586 2.05892 6.26209C1.86331 5.74539 2.17408 5.19003 2.7054 5.03846Z" fill="black"/>
</svg>
