<svg width="24" height="24" viewBox="0 0 24 24" fill="none" xmlns="http://www.w3.org/2000/svg">
<path d="M12.5655 12.0635L19.7657 4H4.24615L11.5001 12.0586V18.4502L12.5655 19.1455V12.0635ZM14.5655 21L14.5567 21.1289C14.5182 21.425 14.3488 21.6911 14.0909 21.8506C13.833 22.0099 13.5194 22.0424 13.2374 21.9443L13.1182 21.8945L10.0528 19.8945C9.71401 19.7251 9.50006 19.3788 9.50006 19V12.8262L1.23639 3.64551C0.985135 3.34825 0.929023 2.93219 1.09283 2.5791C1.25668 2.22594 1.61074 2 2.00006 2H22.0001C22.3894 2 22.7435 2.22594 22.9073 2.5791C23.0711 2.9322 23.015 3.34825 22.7637 3.64551L14.5655 12.8262V21Z" fill="black"/>
</svg>
