<svg width="24" height="24" viewBox="0 0 24 24" fill="none" xmlns="http://www.w3.org/2000/svg">
<path d="M8 1C10.4996 1 11.1904 1.30929 12.1475 1.68457C12.4072 1.78643 12.6798 1.89328 13 2C14.5 2.5 16 3 18 3C18.8893 3 19.7787 2.80261 20.4922 2.58301C21.2027 2.3643 22 2.87478 22 3.61816V14.3818C22 14.7605 21.7866 15.1064 21.4355 15.248L21.1318 15.3652C20.3627 15.6509 19.1814 16 18 16C16 16 14.5 15.5 13 15C12.6869 14.8956 12.4169 14.7912 12.1592 14.6914C11.1821 14.3131 10.3735 14 8 14C6.73207 14 4.73205 14.2937 4 14.5V21C4 21.4622 3.68585 21.8493 3.25977 21.9639C3.24783 21.9673 3.23588 21.9707 3.22363 21.9736C3.20143 21.9787 3.17899 21.9828 3.15625 21.9863C3.14335 21.9884 3.13042 21.9907 3.11719 21.9922C3.07871 21.9967 3.03968 22 3 22C2.95998 22 2.92062 21.9968 2.88184 21.9922C2.86861 21.9907 2.85567 21.9884 2.84277 21.9863C2.82004 21.9827 2.79758 21.9787 2.77539 21.9736C2.76315 21.9707 2.75119 21.9673 2.73926 21.9639C2.31364 21.849 2 21.4619 2 21V3.58008C2.00009 3.22132 2.1909 2.89101 2.50977 2.72656C3.57145 2.17902 6.08049 1 8 1ZM8 3C7.38962 3 6.54314 3.2014 5.61621 3.53809C5.01598 3.75611 4.45301 4.0058 4 4.22168V12.5879L4.45801 12.46C5.35962 12.206 6.54182 12 8 12C9.27077 12 10.2077 12.083 11 12.2432C11.8037 12.4057 12.3897 12.6356 12.8818 12.8262C13.142 12.9269 13.3707 13.0152 13.6328 13.1025C15.1319 13.6022 16.3569 14 18 14C18.6757 14 19.4002 13.8302 20 13.6387V4.77539C19.3893 4.9054 18.7063 5 18 5C15.6432 5 13.868 4.39773 12.3672 3.89746C11.9919 3.77236 11.6754 3.64782 11.418 3.54688C10.9143 3.34937 10.6595 3.24527 10.25 3.16113C9.93224 3.09585 9.48688 3.03749 8.78809 3.0127L8 3Z" fill="black"/>
</svg>
