<svg width="24" height="24" viewBox="0 0 24 24" fill="none" xmlns="http://www.w3.org/2000/svg"><path fill-rule="evenodd" clip-rule="evenodd" d="M7.5 3C7.5 2.44772 7.94772 2 8.5 2H15.5C16.0523 2 16.5 2.44772 16.5 3V7.5C16.5 8.05228 16.0523 8.5 15.5 8.5H13V11H17.5C18.0523 11 18.5 11.4477 18.5 12V15.5H21C21.5523 15.5 22 15.9477 22 16.5V21C22 21.5523 21.5523 22 21 22H14C13.4477 22 13 21.5523 13 21V16.5C13 15.9477 13.4477 15.5 14 15.5H16.5V13H12H7.5V15.5H10C10.5523 15.5 11 15.9477 11 16.5V21C11 21.5523 10.5523 22 10 22H3C2.44772 22 2 21.5523 2 21V16.5C2 15.9477 2.44772 15.5 3 15.5H5.5V12C5.5 11.4477 5.94772 11 6.5 11H11V8.5H8.5C7.94772 8.5 7.5 8.05228 7.5 7.5V3ZM6.5 17.5H4V20H9V17.5H6.5ZM17.5 17.5H15V20H20V17.5H17.5ZM9.5 4V6.5H14.5V4H9.5Z" fill="black"/></svg>