<svg width="24" height="24" viewBox="0 0 24 24" fill="none" xmlns="http://www.w3.org/2000/svg">
<path d="M6.89453 2C7.48672 2.00002 8.06585 2.17545 8.55859 2.50391L10.5508 3.83203C10.715 3.94151 10.9081 3.99996 11.1055 4H16.8594C18.5159 4.00019 19.8592 5.34345 19.8594 7V7.83105L20.6045 7.82227C21.9669 7.80556 22.9474 9.12663 22.5361 10.4258L19.376 20.4082C19.1128 21.2394 18.3406 21.8045 17.4688 21.8047H2C1.44772 21.8047 1 21.357 1 20.8047V6.80469C1 6.79783 1.00084 6.791 1.00098 6.78418V5C1.0012 3.3435 2.34351 2.00026 4 2H6.89453ZM13.0068 9.91797L12.1807 9.92871L8.66113 9.97266L7.20898 9.99121L6.14258 12.9434L3.67285 19.8047H17.4688L20.6289 9.82227L13.0068 9.91797ZM4 4C3.44808 4.00026 3.0012 4.44807 3.00098 5V15.7559L4.25977 12.2676L5.32422 9.31348C5.60688 8.52904 6.34689 8.00182 7.18066 7.99121L12.1562 7.92871L17.8594 7.85547V7C17.8592 6.44802 17.4114 6.00019 16.8594 6H11.1055C10.5133 5.99996 9.93415 5.82459 9.44141 5.49609L7.44922 4.16797C7.28501 4.05853 7.09187 4.00002 6.89453 4H4Z" fill="black"/>
</svg>
