<svg width="24" height="24" viewBox="0 0 24 24" fill="none" xmlns="http://www.w3.org/2000/svg">
<path d="M12.0527 1C13.1872 1 14.2859 1.1707 15.3213 1.48926C15.4561 1.53076 15.5831 1.58115 15.7021 1.63965C19.9558 3.15979 23 7.22393 23 12C23 17.3476 19.1835 21.8014 14.126 22.792C13.4613 22.9271 12.7691 23 12.0527 23H11.9805L11.9678 22.999C11.4412 22.9975 10.9237 22.9578 10.417 22.8848C10.1287 22.8644 9.81959 22.8073 9.50879 22.7129C4.63408 21.5838 1 17.218 1 12C1 5.92487 5.92487 1 12 1H12.0527ZM12.0254 3C7.50685 3.01331 3.76733 6.3178 3.10449 10.6289C3.08168 10.7781 3.06226 10.9285 3.04688 11.0801C3.01599 11.3825 3 11.6894 3 12H8.33496C11.0132 12.0002 13.1845 14.1586 13.1846 16.8213L13.1807 16.9033C13.1394 17.3087 12.7946 17.625 12.376 17.625H9.79004L9.68457 17.6318C9.16739 17.6979 8.75879 18.258 8.75879 19.3125C8.75879 20.1171 9.43403 20.5807 10.0254 20.7803C10.2297 20.826 10.4362 20.8668 10.6455 20.8984L12.0381 20.998C16.4958 20.9796 20.1868 17.7219 20.8809 13.4561C20.1185 13.9587 19.2287 14.25 18.2764 14.25C16.1884 14.2499 14.3942 12.8615 13.6084 10.875H9.79004C9.16508 10.875 8.64709 10.3672 8.75879 9.75586C9.33723 6.59082 11.4769 5.2561 14.1465 5.30469L14.165 5.30566C14.3263 5.06232 14.5054 4.8335 14.6992 4.62207L14.8984 4.41602C15.1773 4.14276 15.1701 3.67587 14.8799 3.47266C13.9831 3.16991 13.0237 3.00276 12.0254 3ZM3.22559 14C3.71978 16.1772 5.00267 18.0527 6.75879 19.3135V19.3125C6.75879 18.5059 6.92106 17.6546 7.39648 16.9395C7.90834 16.1696 8.75878 15.625 9.79004 15.625H10.9121C10.4587 14.6693 9.48222 14.0001 8.33496 14H3.22559ZM17.0312 4.53613C16.9195 5.01649 16.6755 5.4746 16.2979 5.84473C16.1281 6.01119 15.9711 6.20038 15.832 6.41016L15.2246 7.32715L14.124 7.30469C13.1203 7.28401 12.391 7.52512 11.8906 7.9082C11.6131 8.12072 11.3416 8.42667 11.1191 8.875H14.9678L15.4678 10.1396C15.9981 11.4803 17.1283 12.2499 18.2764 12.25C18.8421 12.25 19.3798 12.0714 19.8525 11.7402C19.8525 11.7402 20.4495 11.3531 20.9014 10.6699C20.5236 8.11994 19.0775 5.91816 17.0312 4.53613Z" fill="black"/>
</svg>
