<svg width="24" height="24" viewBox="0 0 24 24" fill="none" xmlns="http://www.w3.org/2000/svg">
<path d="M12 1C18.0751 1 23 5.92487 23 12C23 18.0751 18.0751 23 12 23C5.92487 23 1 18.0751 1 12C1 5.92487 5.92487 1 12 1ZM9.50586 17C10.044 19.4119 10.9599 21 12 21C13.0401 21 13.956 19.4119 14.4941 17H9.50586ZM4.5166 17C5.48975 18.4536 6.87451 19.6082 8.50488 20.2959C8.30389 19.8819 8.13041 19.443 7.98145 18.9961C7.77866 18.3877 7.60485 17.7175 7.46191 17H4.5166ZM16.5381 17C16.3951 17.7175 16.2213 18.3877 16.0186 18.9961C15.8695 19.4431 15.6952 19.8818 15.4941 20.2959C17.1249 19.6082 18.5101 18.4538 19.4834 17H16.5381ZM16.9297 10C16.9753 10.6508 17 11.3198 17 12C17 13.0342 16.9446 14.0426 16.8408 15H20.4863C20.8181 14.0615 21 13.0521 21 12C21 11.3124 20.9205 10.6434 20.7744 10H16.9297ZM9.0752 10C9.02654 10.6432 9 11.3126 9 12C9 13.0519 9.06035 14.0617 9.1709 15H14.8291C14.9397 14.0617 15 13.0519 15 12C15 11.3126 14.9735 10.6432 14.9248 10H9.0752ZM3.22559 10C3.07955 10.6434 3 11.3124 3 12C3 13.0521 3.18191 14.0615 3.51367 15H7.15918C7.05541 14.0426 7 13.0342 7 12C7 11.3198 7.0247 10.6508 7.07031 10H3.22559ZM15.4941 3.70312C15.6954 4.1175 15.8695 4.5566 16.0186 5.00391C16.3129 5.8871 16.5462 6.90048 16.7119 8H20.0625C19.1062 6.07607 17.4833 4.54184 15.4941 3.70312ZM12 3C10.8221 3 9.80341 5.03662 9.3125 8H14.6875C14.1966 5.03662 13.1779 3 12 3ZM8.50488 3.70312C6.51614 4.54192 4.89371 6.07634 3.9375 8H7.28809C7.45376 6.90048 7.68707 5.8871 7.98145 5.00391C8.1305 4.55674 8.30372 4.11738 8.50488 3.70312Z" fill="black"/>
</svg>
