<svg width="24" height="24" viewBox="0 0 24 24" fill="none" xmlns="http://www.w3.org/2000/svg"><path fill-rule="evenodd" clip-rule="evenodd" d="M3.5 2.5C4.32843 2.5 5 3.17157 5 4V10.5H11V4C11 3.17157 11.6716 2.5 12.5 2.5C13.3284 2.5 14 3.17157 14 4V20C14 20.8284 13.3284 21.5 12.5 21.5C11.6716 21.5 11 20.8284 11 20V13.5H5V20C5 20.8284 4.32843 21.5 3.5 21.5C2.67157 21.5 2 20.8284 2 20V4C2 3.17157 2.67157 2.5 3.5 2.5Z" fill="black"/><path d="M15.4668 19.8721C15.4668 20.542 15.9795 21 16.7314 21H21.4961C22.3027 21 22.7812 20.5898 22.7812 19.8994C22.7812 19.209 22.2891 18.7852 21.4961 18.7852H19.2061V18.6758L20.8193 17.2402C21.9062 16.2764 22.4395 15.3193 22.4395 14.3145C22.4395 12.708 20.9561 11.5117 18.9668 11.5117C17.0596 11.5117 15.4531 12.6875 15.4531 14.0205C15.4531 14.6289 15.918 15.0664 16.5742 15.0664C17.0322 15.0664 17.333 14.8887 17.75 14.3691C18.1123 13.918 18.4062 13.7539 18.8164 13.7539C19.3496 13.7539 19.7188 14.0957 19.7188 14.6016C19.7188 15.0527 19.4043 15.4902 18.6934 16.1602L16.6016 18.1289C15.7607 18.915 15.4668 19.3662 15.4668 19.8721Z" fill="black"/></svg>