<svg width="24" height="24" viewBox="0 0 24 24" fill="none" xmlns="http://www.w3.org/2000/svg">
<path d="M16.4246 1.36655C16.8732 1.31543 17.2351 2.01108 17.2351 2.01108C17.252 2.03604 18.2493 3.52909 18.8035 8.95346C19.3578 14.3794 18.8462 16.0445 18.8377 16.0716C18.8377 16.0716 18.6486 16.83 18.1931 16.8822L18.0437 16.8949C17.4163 16.9331 17.0347 16.7239 16.4441 16.2249L16.1551 15.974C15.3356 15.249 12.9138 13.5547 9.3201 13.9642C8.86415 13.9966 8.4073 14.0552 7.95194 14.1136C7.72484 14.1428 7.49778 14.1718 7.27127 14.1976C6.00206 14.3422 4.83012 13.652 4.3035 12.5638C4.25022 12.5744 4.19536 12.5829 4.14041 12.5892C3.13618 12.7035 2.22303 12.0345 2.01248 11.0677L1.98026 10.8714C1.85819 9.80029 2.62787 8.83236 3.69901 8.71029C3.75386 8.70405 3.80886 8.70022 3.86307 8.69858C4.11462 7.59366 4.99713 6.70229 6.15213 6.47592L6.38651 6.43979L7.06912 6.35776C7.29686 6.32957 7.52473 6.30073 7.75272 6.27475L8.43631 6.20639C11.7426 5.82962 13.5409 4.01608 14.3689 3.01987L14.6658 2.64877L14.6687 2.64487C15.3079 1.82954 15.8322 1.43413 16.4246 1.36655ZM15.9588 4.2308C15.0155 5.38097 12.7873 7.72271 8.66287 8.19272L8.63358 8.19662L8.60526 8.19858C8.19417 8.23335 7.77682 8.285 7.31522 8.34213C7.08938 8.37008 6.85159 8.39991 6.61307 8.42709C6.21407 8.47272 5.81326 9.14291 5.81326 9.14291C5.81326 9.14291 5.4507 9.94064 5.51053 10.4681C5.57042 10.996 6.1033 11.6927 6.1033 11.6927C6.1033 11.6927 6.64553 12.2558 7.04471 12.2103C7.25499 12.1863 7.46837 12.1587 7.69803 12.1292C8.13732 12.0729 8.64178 12.0074 9.15604 11.9701C12.9894 11.5532 15.7353 13.1087 17.0476 14.1204C17.0832 13.1188 17.0558 11.5314 16.8133 9.15756C16.5641 6.71812 16.2262 5.16323 15.9588 4.2308ZM20.614 5.96127C21.7981 6.22584 22.7395 7.21538 22.8846 8.48862C23.0296 9.76178 22.3351 10.9371 21.241 11.4613L21.1502 11.4974C20.6947 11.6437 20.2543 11.2613 20.1971 10.7591C20.1964 10.7409 20.161 9.76712 20.0418 8.80307C19.9214 7.82998 19.7547 6.88022 19.7547 6.88022C19.7605 6.86215 20.0929 5.84541 20.614 5.96127Z" fill="black"/>
<path d="M11.1562 16.7529C11.19 16.7563 11.2084 16.7615 11.2217 16.7686C11.229 16.78 11.2402 16.7971 11.2539 16.8213C11.2965 16.8965 11.3505 17.0033 11.4131 17.1396C11.5378 17.4112 11.6805 17.7615 11.8223 18.1309C12.1063 18.8707 12.3695 19.6426 12.457 19.9277C12.5857 20.3473 12.5381 20.5939 12.4678 20.7363C12.3957 20.8823 12.2417 21.0341 11.9404 21.1543L11.8623 21.1816C11.5139 21.2873 11.1484 21.1808 10.9229 20.9199L10.8652 20.8467C10.208 19.927 9.23498 18.5103 8.35352 17.0352C8.46555 17.0309 8.57849 17.027 8.69141 17.0186C9.33044 16.9705 9.77622 16.9108 10.2559 16.8467C10.3977 16.8277 10.5419 16.8078 10.6963 16.7881C10.6963 16.7881 10.697 16.7882 10.6982 16.7881C10.7005 16.7878 10.7034 16.7876 10.708 16.7871C10.7155 16.7863 10.732 16.7844 10.749 16.7822L10.748 16.7812C10.9606 16.7538 11.0697 16.7444 11.1562 16.7529Z" stroke="black" stroke-width="1.5"/>
</svg>
