<svg width="24" height="24" viewBox="0 0 24 24" fill="none" xmlns="http://www.w3.org/2000/svg">
<path d="M20 1C20.5523 1 21 1.44772 21 2C21 2.55228 20.5523 3 20 3H19V8C19 8.26522 18.8946 8.5195 18.707 8.70703L15.4141 12L18.707 15.293C18.8946 15.4805 19 15.7348 19 16V21H20C20.5523 21 21 21.4477 21 22C21 22.5523 20.5523 23 20 23H4C3.44772 23 3 22.5523 3 22C3 21.4477 3.44772 21 4 21H5V16C5 15.7348 5.10543 15.4805 5.29297 15.293L8.58594 12L5.29297 8.70703C5.10543 8.5195 5 8.26522 5 8V3H4C3.44772 3 3 2.55228 3 2C3 1.44772 3.44772 1 4 1H20ZM9 18C8.44772 18 8 18.4477 8 19C8 19.5523 8.44772 20 9 20H15C15.5523 20 16 19.5523 16 19C16 18.4477 15.5523 18 15 18H9ZM10 6C9.44772 6 9 6.44772 9 7C9 7.55228 9.44772 8 10 8H14C14.5523 8 15 7.55228 15 7C15 6.44772 14.5523 6 14 6H10Z" fill="black"/>
</svg>
