<svg width="24" height="24" viewBox="0 0 24 24" fill="none" xmlns="http://www.w3.org/2000/svg">
<path d="M20 3C21.6569 3 23 4.34315 23 6V17C23 18.6051 21.7394 19.9158 20.1543 19.9961L20 20H4L3.8457 19.9961C2.31166 19.9184 1.08163 18.6883 1.00391 17.1543L1 17V6C1 4.34315 2.34315 3 4 3H20ZM4 5C3.44772 5 3 5.44772 3 6V17C3 17.5523 3.44772 18 4 18H20C20.5523 18 21 17.5523 21 17V6C21 5.44772 20.5523 5 20 5H4ZM8 13.8574C9.67437 13.8574 11.1278 14.3714 11.8535 15.124C12.2223 15.5071 11.8406 16 11.3047 16H4.69531C4.15936 16 3.77763 15.5071 4.14648 15.124C4.87218 14.3714 6.3256 13.8574 8 13.8574ZM17 13C17.5523 13 18 13.4477 18 14C18 14.5523 17.5523 15 17 15H14C13.4477 15 13 14.5523 13 14C13 13.4477 13.4477 13 14 13H17ZM8 7C9.59109 7.00003 10.3485 7.73329 10.3877 9.62793C10.7906 9.77909 10.8207 10.2656 10.6729 10.8096C10.5591 11.2277 10.3104 11.5486 10.0488 11.6543C9.62777 12.7171 8.86107 13.4287 8 13.4287C7.13902 13.4287 6.37227 12.7169 5.95117 11.6543C5.68925 11.549 5.44002 11.2282 5.32617 10.8096C5.17827 10.2652 5.2078 9.7788 5.61133 9.62793C5.65051 7.73327 6.40887 7.00001 8 7ZM19 9C19.5523 9 20 9.44772 20 10C20 10.5523 19.5523 11 19 11H14C13.4477 11 13 10.5523 13 10C13 9.44772 13.4477 9 14 9H19Z" fill="black"/>
</svg>
