<svg width="24" height="24" viewBox="0 0 24 24" fill="none" xmlns="http://www.w3.org/2000/svg"><path fill-rule="evenodd" clip-rule="evenodd" d="M2 4C2 2.89543 2.89543 2 4 2H20C21.1046 2 22 2.89543 22 4V20C22 21.1046 21.1046 22 20 22H4C2.89543 22 2 21.1046 2 20V4ZM20 4L4 4V20H20V4ZM9 8C8.44772 8 8 8.44772 8 9C8 9.55228 8.44772 10 9 10C9.55228 10 10 9.55228 10 9C10 8.44772 9.55228 8 9 8ZM6 9C6 7.34315 7.34315 6 9 6C10.6569 6 12 7.34315 12 9C12 10.6569 10.6569 12 9 12C7.34315 12 6 10.6569 6 9ZM17.7071 10.7929C17.3166 10.4024 16.6834 10.4024 16.2929 10.7929L12.4258 14.66L10.6247 13.2191C10.2268 12.9008 9.6532 12.9326 9.29289 13.2929L5.79289 16.7929C5.40237 17.1834 5.40237 17.8166 5.79289 18.2071C6.18342 18.5976 6.81658 18.5976 7.20711 18.2071L10.0742 15.34L11.8753 16.7809C12.2732 17.0992 12.8468 17.0674 13.2071 16.7071L17 12.9142L17.7929 13.7071C18.1834 14.0976 18.8166 14.0976 19.2071 13.7071C19.5976 13.3166 19.5976 12.6834 19.2071 12.2929L17.7071 10.7929Z" fill="black"/></svg>