<svg width="24" height="24" viewBox="0 0 24 24" fill="none" xmlns="http://www.w3.org/2000/svg"><path fill-rule="evenodd" clip-rule="evenodd" d="M15 2C14.4477 2 14 2.44772 14 3C14 3.55229 14.4477 4 15 4H20V9C20 9.55229 20.4477 10 21 10C21.5523 10 22 9.55229 22 9V3C22 2.44772 21.5523 2 21 2H15ZM9 22C9.55229 22 10 21.5523 10 21C10 20.4477 9.55229 20 9 20H4L4 15C4 14.4477 3.55228 14 3 14C2.44772 14 2 14.4477 2 15V21C2 21.5523 2.44772 22 3 22H9ZM3 10C2.44772 10 2 9.55228 2 9V3C2 2.44772 2.44772 2 3 2H9C9.55229 2 10 2.44771 10 3C10 3.55228 9.55229 4 9 4L4 4L4 9C4 9.55228 3.55229 10 3 10ZM22 15C22 14.4477 21.5523 14 21 14C20.4477 14 20 14.4477 20 15V20H15C14.4477 20 14 20.4477 14 21C14 21.5523 14.4477 22 15 22H21C21.5523 22 22 21.5523 22 21V15Z" fill="black"/></svg>