<svg width="24" height="24" viewBox="0 0 24 24" fill="none" xmlns="http://www.w3.org/2000/svg"><path fill-rule="evenodd" clip-rule="evenodd" d="M9 4.5C9 3.67157 9.67157 3 10.5 3H21.5C22.3284 3 23 3.67157 23 4.5C23 5.32843 22.3284 6 21.5 6H10.5C9.67157 6 9 5.32843 9 4.5ZM9 9.5C9 8.67157 9.67157 8 10.5 8H21.5C22.3284 8 23 8.67157 23 9.5C23 10.3284 22.3284 11 21.5 11H10.5C9.67157 11 9 10.3284 9 9.5ZM10.5 13C9.67157 13 9 13.6716 9 14.5C9 15.3284 9.67157 16 10.5 16H21.5C22.3284 16 23 15.3284 23 14.5C23 13.6716 22.3284 13 21.5 13H10.5ZM9 19.5C9 18.6716 9.67157 18 10.5 18H21.5C22.3284 18 23 18.6716 23 19.5C23 20.3284 22.3284 21 21.5 21H10.5C9.67157 21 9 20.3284 9 19.5ZM7.06066 9.56066C7.64645 8.97487 7.64645 8.02513 7.06066 7.43934C6.47487 6.85355 5.52513 6.85355 4.93934 7.43934L1.43934 10.9393C1.15804 11.2206 1 11.6022 1 12C1 12.3978 1.15804 12.7794 1.43934 13.0607L4.93934 16.5607C5.52513 17.1464 6.47487 17.1464 7.06066 16.5607C7.64645 15.9749 7.64645 15.0251 7.06066 14.4393L4.62132 12L7.06066 9.56066Z" fill="black"/></svg>