<svg width="24" height="24" viewBox="0 0 24 24" fill="none" xmlns="http://www.w3.org/2000/svg"><path fill-rule="evenodd" clip-rule="evenodd" d="M15.3333 4C12.7277 4 10.6667 6.04265 10.6667 8.5C10.6667 9.11949 10.7959 9.70779 11.0295 10.2431L11.2965 10.855L5 17.4028V20H7.12121V17.5H9.69697V15H12.2727V12.6251H13.2727C13.3732 12.6251 13.4595 12.6407 13.4805 12.6445L13.4829 12.6449C13.519 12.6514 13.5545 12.6591 13.5832 12.6655C13.6412 12.6786 13.7115 12.6958 13.781 12.7131L13.8406 12.7279C13.9737 12.761 14.1275 12.7993 14.2956 12.8377C14.7073 12.9318 15.0949 13 15.3333 13C17.939 13 20 10.9574 20 8.5C20 6.04265 17.939 4 15.3333 4ZM8.66667 8.5C8.66667 4.88222 11.6798 2 15.3333 2C18.9869 2 22 4.88222 22 8.5C22 12.1178 18.9869 15 15.3333 15C14.9962 15 14.6124 14.9432 14.2727 14.8773V17H11.697V19.5H9.12121V22H3V16.5972L8.957 10.4024C8.76819 9.80013 8.66667 9.16107 8.66667 8.5ZM17 8.5C17 9.32843 16.3284 10 15.5 10C14.6716 10 14 9.32843 14 8.5C14 7.67157 14.6716 7 15.5 7C16.3284 7 17 7.67157 17 8.5Z" fill="black"/></svg>