<svg width="24" height="24" viewBox="0 0 24 24" fill="none" xmlns="http://www.w3.org/2000/svg">
<path d="M12 1C18.0751 1 23 5.92487 23 12C23 18.0751 18.0751 23 12 23C5.92487 23 1 18.0751 1 12C1 5.92487 5.92487 1 12 1ZM14.0967 7.29297C13.7062 6.90244 13.0722 6.90244 12.6816 7.29297L8.79297 11.1816C8.40244 11.5722 8.40244 12.2062 8.79297 12.5967L12.6816 16.4854C13.0722 16.8759 13.7062 16.8759 14.0967 16.4854C14.4869 16.0949 14.4868 15.4618 14.0967 15.0713L10.9141 11.8887L14.0967 8.70703C14.4868 8.31658 14.4868 7.68342 14.0967 7.29297Z" fill="black"/>
</svg>
