<svg width="24" height="24" viewBox="0 0 24 24" fill="none" xmlns="http://www.w3.org/2000/svg"><g opacity="0.99"><path fill-rule="evenodd" clip-rule="evenodd" d="M4 6.5C5.10457 6.5 6 5.60457 6 4.5C6 3.39543 5.10457 2.5 4 2.5C2.89543 2.5 2 3.39543 2 4.5C2 5.60457 2.89543 6.5 4 6.5ZM9.5 3C8.67157 3 8 3.67157 8 4.5C8 5.32843 8.67157 6 9.5 6H20.5C21.3284 6 22 5.32843 22 4.5C22 3.67157 21.3284 3 20.5 3H9.5ZM8 11.5C8 10.6716 8.67157 10 9.5 10H20.5C21.3284 10 22 10.6716 22 11.5C22 12.3284 21.3284 13 20.5 13H9.5C8.67157 13 8 12.3284 8 11.5ZM8 18.5C8 17.6716 8.67157 17 9.5 17H20.5C21.3284 17 22 17.6716 22 18.5C22 19.3284 21.3284 20 20.5 20H9.5C8.67157 20 8 19.3284 8 18.5ZM6 11.5C6 12.6046 5.10457 13.5 4 13.5C2.89543 13.5 2 12.6046 2 11.5C2 10.3954 2.89543 9.5 4 9.5C5.10457 9.5 6 10.3954 6 11.5ZM4 20.5C5.10457 20.5 6 19.6046 6 18.5C6 17.3954 5.10457 16.5 4 16.5C2.89543 16.5 2 17.3954 2 18.5C2 19.6046 2.89543 20.5 4 20.5Z" fill="black"/></g></svg>