<svg width="24" height="24" viewBox="0 0 24 24" fill="none" xmlns="http://www.w3.org/2000/svg"><path fill-rule="evenodd" clip-rule="evenodd" d="M19 10C19 10.953 18.6831 12.1422 18.0627 13.4711C17.4515 14.7804 16.6003 16.1089 15.671 17.3044C14.7404 18.5015 13.7713 19.514 12.9561 20.2057C12.5619 20.5401 12.2381 20.7702 12 20.9091C11.7619 20.7702 11.4381 20.5401 11.0439 20.2057C10.2287 19.514 9.25963 18.5015 8.329 17.3044C7.39966 16.1089 6.54845 14.7804 5.93726 13.4711C5.3169 12.1422 5 10.953 5 10C5 7.74108 5.73787 6.02685 6.88236 4.88236C8.02685 3.73787 9.74108 3 12 3C14.2589 3 15.9732 3.73787 17.1176 4.88236C18.2621 6.02685 19 7.74108 19 10ZM21 10C21 15.4183 14 23 12 23C10 23 3 15.4183 3 10C3 4.58172 6.58172 1 12 1C17.4183 1 21 4.58172 21 10ZM12 13C14.2091 13 16 11.2091 16 9C16 6.79086 14.2091 5 12 5C9.79086 5 8 6.79086 8 9C8 11.2091 9.79086 13 12 13ZM14 9C14 10.1046 13.1046 11 12 11C10.8954 11 10 10.1046 10 9C10 7.89543 10.8954 7 12 7C13.1046 7 14 7.89543 14 9Z" fill="black"/></svg>