<svg width="24" height="24" viewBox="0 0 24 24" fill="none" xmlns="http://www.w3.org/2000/svg"><path fill-rule="evenodd" clip-rule="evenodd" d="M16 2C14.8954 2 14 2.89543 14 4V20C14 21.1046 14.8954 22 16 22H20C21.1046 22 22 21.1046 22 20V4C22 2.89543 21.1046 2 20 2H16ZM16 4L20 4V20H16V4ZM10.4142 15.2929C10.0237 15.6834 9.3905 15.6834 8.99997 15.2929C8.60945 14.9024 8.60945 14.2692 8.99997 13.8787L9.58574 13.2929H4.4142L5 13.8787C5.39052 14.2692 5.39052 14.9024 5 15.2929C4.60948 15.6834 3.97631 15.6834 3.58579 15.2929L1.29289 13C0.902369 12.6095 0.902369 11.9763 1.29289 11.5858L3.58579 9.29292C3.97631 8.9024 4.60948 8.9024 5 9.29292C5.39052 9.68345 5.39052 10.3166 5 10.7071L4.41423 11.2929H9.58577L8.99997 10.7071C8.60945 10.3166 8.60945 9.68342 8.99997 9.29289C9.3905 8.90237 10.0237 8.90237 10.4142 9.29289L12.7071 11.5858C13.0976 11.9763 13.0976 12.6095 12.7071 13L10.4142 15.2929Z" fill="black"/></svg>