<svg width="24" height="24" viewBox="0 0 24 24" fill="none" xmlns="http://www.w3.org/2000/svg">
<path d="M16.0002 21C16.5524 21.0001 17.0002 21.4478 17.0002 22C17.0002 22.5522 16.5524 22.9999 16.0002 23H8.00016C7.44787 23 7.00016 22.5523 7.00016 22C7.00016 21.4477 7.44787 21 8.00016 21H16.0002Z" fill="black"/>
<path fill-rule="evenodd" clip-rule="evenodd" d="M12.0002 1C14.4196 1.00006 16.3915 2.90957 16.4943 5.30371L20.092 1.70703C20.4825 1.31664 21.1155 1.31657 21.506 1.70703C21.8965 2.09751 21.8964 2.73056 21.506 3.12109L3.12125 21.5059C2.73073 21.8964 2.09771 21.8964 1.70719 21.5059C1.31669 21.1153 1.31667 20.4823 1.70719 20.0918L5.55875 16.2393C4.58048 14.9127 4.00016 13.2748 4.00016 11.5C4.00016 10.9477 4.44787 10.5 5.00016 10.5C5.55239 10.5001 6.00016 10.9478 6.00016 11.5C6.00016 12.7215 6.36702 13.8562 6.9943 14.8037L8.08317 13.7148C7.74818 13.1239 7.54243 12.4502 7.50602 11.7314L7.50016 11.5V5.5C7.50016 3.01472 9.51488 1 12.0002 1ZM12.0002 3C10.6194 3 9.50016 4.11929 9.50016 5.5V11.5C9.50016 11.7428 9.5341 11.9775 9.59879 12.1992L14.5002 7.29883V5.5C14.5002 4.11933 13.3808 3.00006 12.0002 3Z" fill="black"/>
<path d="M19.0002 10.5C19.5524 10.5001 20.0002 10.9478 20.0002 11.5C20.0002 15.9182 16.4184 19.4999 12.0002 19.5C10.5947 19.5 9.27491 19.1355 8.12711 18.499L9.61832 17.0078C10.3485 17.324 11.1538 17.5 12.0002 17.5C15.3138 17.4999 18.0002 14.8137 18.0002 11.5C18.0002 10.9477 18.4479 10.5 19.0002 10.5Z" fill="black"/>
<path d="M16.5002 11.5L16.4943 11.7314C16.3738 14.1091 14.4078 15.9999 12.0002 16C11.5815 16 11.1767 15.9409 10.7922 15.834L12.7375 13.8887C13.525 13.6458 14.146 13.0248 14.3888 12.2373L16.5002 10.127V11.5Z" fill="black"/>
</svg>
