<svg width="24" height="24" viewBox="0 0 24 24" fill="none" xmlns="http://www.w3.org/2000/svg">
<path d="M16 21C16.5523 21 17 21.4477 17 22C17 22.5523 16.5523 23 16 23H8C7.44772 23 7 22.5523 7 22C7 21.4477 7.44772 21 8 21H16ZM19 10.5C19.5523 10.5 20 10.9477 20 11.5C20 15.9183 16.4183 19.5 12 19.5C7.58172 19.5 4 15.9183 4 11.5C4 10.9477 4.44772 10.5 5 10.5C5.55228 10.5 6 10.9477 6 11.5C6 14.8137 8.68629 17.5 12 17.5C15.3137 17.5 18 14.8137 18 11.5C18 10.9477 18.4477 10.5 19 10.5ZM12 1C14.4853 1 16.5 3.01472 16.5 5.5V11.5C16.5 13.9853 14.4853 16 12 16C9.51472 16 7.5 13.9853 7.5 11.5V5.5C7.5 3.01472 9.51472 1 12 1ZM12 3C10.6193 3 9.5 4.11929 9.5 5.5V11.5C9.5 12.8807 10.6193 14 12 14C13.3807 14 14.5 12.8807 14.5 11.5V5.5C14.5 4.11929 13.3807 3 12 3Z" fill="black"/>
</svg>
