<svg width="24" height="24" viewBox="0 0 24 24" fill="none" xmlns="http://www.w3.org/2000/svg"><path d="M15.501 22.0005C14.6725 22.0005 14.001 21.3289 14.001 20.5005V15.5005C14.001 14.6721 14.6725 14.0005 15.501 14.0005H20.501C21.3294 14.0005 22.001 14.6721 22.001 15.5005V20.5005C22.001 21.3289 21.3294 22.0005 20.501 22.0005L15.501 22.0005Z" fill="black"/><path d="M5.50098 22.0005C3.56798 22.0005 2.00098 20.4335 2.00098 18.5005V15.5005V5.50049C2.00098 3.56749 3.56798 2.00049 5.50098 2.00049H15.501H18.501C20.434 2.00049 22.001 3.56749 22.001 5.50049V9.75038C22.001 10.5788 21.3294 11.2504 20.501 11.2504C19.6726 11.2504 19.001 10.5788 19.001 9.75038V5.50049C19.001 5.22435 18.7771 5.00049 18.501 5.00049H15.501H5.50098C5.22483 5.00049 5.00098 5.22435 5.00098 5.50049V15.5005V18.5005C5.00098 18.7766 5.22483 19.0005 5.50098 19.0005H9.74999C10.5784 19.0005 11.25 19.6721 11.25 20.5005C11.25 21.3289 10.5784 22.0005 9.74999 22.0005H5.50098Z" fill="black"/><path fill-rule="evenodd" clip-rule="evenodd" d="M7.52045 7.18658C7.12993 7.57711 7.12994 8.21026 7.52046 8.60078L10.4702 11.5505L9.64175 11.5505C9.08946 11.5505 8.64175 11.9982 8.64175 12.5505C8.64175 13.1028 9.08946 13.5505 9.64175 13.5505L12.8844 13.5505C13.4367 13.5505 13.8844 13.1028 13.8844 12.5505L13.8844 9.30788C13.8844 8.75559 13.4367 8.30788 12.8844 8.30788C12.3321 8.30788 11.8844 8.7556 11.8844 9.30788L11.8844 10.1363L8.93467 7.18657C8.54414 6.79604 7.91097 6.79605 7.52045 7.18658V7.18658Z" fill="black"/></svg>
