<svg width="24" height="24" viewBox="0 0 24 24" fill="none" xmlns="http://www.w3.org/2000/svg">
<path d="M8.27246 8.36328C8.27256 6.31674 9.10996 4.46737 10.4561 3.13379C6.22128 3.86606 3 7.55597 3 12C3 16.9706 7.02943 21 12 21C16.4443 21 20.1333 17.7781 20.8652 13.543C19.5317 14.8891 17.6833 15.7274 15.6367 15.7275C11.5699 15.7275 8.27246 12.4301 8.27246 8.36328ZM10.2725 8.36328C10.2725 11.3255 12.6745 13.7275 15.6367 13.7275C17.5195 13.7274 19.1764 12.7577 20.1348 11.2861L20.2109 11.1787C20.6082 10.6657 21.2346 10.5079 21.7314 10.5791C22.2845 10.6584 23 11.1033 23 12C23 18.0751 18.0751 23 12 23C5.92487 23 1 18.0751 1 12C1 5.92487 5.92487 1 12 1C12.8967 1 13.3416 1.71553 13.4209 2.26855C13.4969 2.79843 13.312 3.47574 12.7139 3.86523C11.2423 4.82361 10.2726 6.4805 10.2725 8.36328Z" fill="black"/>
</svg>
