<svg width="24" height="24" viewBox="0 0 24 24" fill="none" xmlns="http://www.w3.org/2000/svg">
<path d="M10.375 2.21871C10.6751 1.97871 11.0872 1.93218 11.4336 2.0986C11.7798 2.26513 11.9999 2.61579 12 2.99997V21C12 21.3842 11.7799 21.7348 11.4336 21.9014C11.0871 22.0679 10.6752 22.0213 10.375 21.7812L4.64941 17H2C1.44772 17 1 16.5523 1 16V7.99997C1.00018 7.44783 1.44783 6.99997 2 6.99997H4.64941L10.375 2.21871ZM5.93066 8.53513C5.57099 8.8355 5.11704 8.99998 4.64844 8.99998H3V15H4.64844C5.1169 15 5.57104 15.1646 5.93066 15.4648L10 18.8623V5.13669L5.93066 8.53513ZM20.0713 7.707C20.4618 7.3167 21.0949 7.3166 21.4853 7.707C21.8758 8.09746 21.8757 8.73053 21.4853 9.12107L19.0098 11.5957L21.4853 14.0713C21.8758 14.4618 21.8758 15.0948 21.4853 15.4853C21.0949 15.8758 20.4618 15.8758 20.0713 15.4853L17.5957 13.0097L15.1211 15.4853C14.7306 15.8758 14.0975 15.8758 13.707 15.4853C13.3166 15.0948 13.3166 14.4618 13.707 14.0713L16.1816 11.5957L13.707 9.12107C13.3167 8.73053 13.3166 8.09746 13.707 7.707C14.0975 7.3166 14.7306 7.3167 15.1211 7.707L17.5957 10.1816L20.0713 7.707Z" fill="black"/>
</svg>
