<svg width="24" height="24" viewBox="0 0 24 24" fill="none" xmlns="http://www.w3.org/2000/svg">
<path d="M2.66389 15.6199C2.61186 17.2331 3.13582 19.0145 4.59065 20.4695C6.04563 21.9244 7.82698 22.4492 9.44026 22.3972C11.0196 22.3463 12.5135 21.7389 13.4295 20.823C14.1367 20.1159 15.7282 18.5253 17.1424 17.1111C17.8494 16.4041 18.5118 15.7407 18.9979 15.2546L19.578 14.6745C19.647 14.6055 19.7015 14.552 19.7381 14.5154C19.7564 14.4971 19.7707 14.4828 19.7801 14.4734C19.7846 14.4689 19.7875 14.465 19.7899 14.4626L19.7928 14.4597L19.7938 14.4587C20.1841 14.0682 20.1842 13.4351 19.7938 13.0447C19.4032 12.6543 18.7702 12.6552 18.3797 13.0456L18.3651 13.0593C18.3557 13.0687 18.3422 13.0831 18.3241 13.1013C18.2875 13.1379 18.2329 13.1914 18.1639 13.2605L17.5838 13.8406C17.0977 14.3267 16.4354 14.99 15.7283 15.697C14.3141 17.1112 12.7226 18.7018 12.0155 19.4089C11.5172 19.9071 10.5364 20.3607 9.37581 20.3982C8.24922 20.4345 7.02542 20.075 6.00569 19.0554C4.98585 18.0356 4.62657 16.811 4.66292 15.6843C4.70044 14.5238 5.15401 13.5428 5.65218 13.0447C7.06719 11.6296 13.784 4.91284 14.491 4.20579C14.6684 4.02881 15.2401 3.67978 15.9949 3.61107C16.6916 3.54774 17.5427 3.72241 18.3797 4.55931C19.2167 5.39633 19.3913 6.24739 19.328 6.94407C19.2592 7.6997 18.9101 8.27209 18.7332 8.44896L11.6619 15.5202C11.5135 15.6685 11.1412 15.8607 10.6678 15.8923C10.2192 15.9222 9.82037 15.7996 9.54085 15.5202C9.26139 15.2408 9.1389 14.842 9.16878 14.3933C9.20037 13.9194 9.39252 13.5465 9.54085 13.3982C9.89478 13.0443 11.2207 11.7193 12.4578 10.4822C13.0765 9.86352 13.6731 9.26686 14.1151 8.82493C14.336 8.60396 14.5183 8.42074 14.6453 8.29368C14.7087 8.23028 14.759 8.18099 14.7928 8.1472C14.8096 8.13036 14.8222 8.11683 14.8309 8.10814C14.8352 8.10385 14.8385 8.10056 14.8407 8.09837C14.8417 8.09729 14.843 8.09697 14.8436 8.09642L14.8446 8.09544C15.2348 7.70504 15.2346 7.07189 14.8446 6.68138C14.454 6.29085 13.82 6.29085 13.4295 6.68138C13.429 6.68193 13.4277 6.68323 13.4266 6.68431L8.12679 11.9841C7.56801 12.5429 7.22948 13.4085 7.17268 14.2605C7.11432 15.1374 7.34575 16.1533 8.12679 16.9343C8.90792 17.7153 9.92365 17.9459 10.8006 17.8874C11.6524 17.8306 12.5172 17.4929 13.076 16.9343L20.1473 9.86302C20.6775 9.33279 21.2121 8.31363 21.3201 7.12474C21.4335 5.87696 21.0779 4.42941 19.7938 3.14525C18.5095 1.86112 17.0621 1.50547 15.8143 1.61888C14.6254 1.72696 13.6062 2.26151 13.076 2.79173C12.3685 3.49922 5.6513 10.2164 4.23714 11.6306C3.32127 12.5466 2.71491 14.0407 2.66389 15.6199Z" fill="black"/>
</svg>
