<svg width="20" height="20" viewBox="0 0 20 20" fill="none" xmlns="http://www.w3.org/2000/svg"> <path d="M12.5986 0.670898C12.8275 0.693652 13.043 0.794918 13.207 0.958984L17.373 5.12598C17.5606 5.31351 17.666 5.56779 17.666 5.83301V17.499C17.666 18.5116 16.8455 19.333 15.833 19.333H4.16602C3.15365 19.3328 2.33301 18.5115 2.33301 17.499V2.49902C2.33318 1.48676 3.15375 0.666191 4.16602 0.666016H12.5L12.5986 0.670898ZM7.5 6.5C7.44101 6.5 7.38334 6.50583 7.32715 6.51562C7.3184 6.51716 7.30948 6.51776 7.30078 6.51953C7.28463 6.5228 7.26879 6.52722 7.25293 6.53125C7.23733 6.53523 7.22143 6.53824 7.20605 6.54297C7.09282 6.57771 6.98866 6.6332 6.89648 6.70312C6.8852 6.71168 6.87325 6.71947 6.8623 6.72852C6.64065 6.91194 6.5 7.18982 6.5 7.5V14.167C6.50018 14.7191 6.94782 15.167 7.5 15.167C8.05218 15.167 8.49982 14.7191 8.5 14.167V11.832L12.501 11.8301C13.0528 11.8295 13.4999 11.3819 13.5 10.8301V7.5C13.5 6.94772 13.0523 6.5 12.5 6.5H7.5ZM11.5 9.83008L8.50195 9.83203L8.50098 8.5H11.5V9.83008Z" fill="black"/> </svg>