<svg width="24" height="24" viewBox="0 0 24 24" fill="none" xmlns="http://www.w3.org/2000/svg"><path fill-rule="evenodd" clip-rule="evenodd" d="M21.5607 2.43934C22.1464 3.02513 22.1464 3.97487 21.5607 4.56066L4.56066 21.5607C3.97487 22.1464 3.02513 22.1464 2.43934 21.5607C1.85355 20.9749 1.85355 20.0251 2.43934 19.4393L19.4393 2.43934C20.0251 1.85355 20.9749 1.85355 21.5607 2.43934ZM6.5 5C5.67157 5 5 5.67157 5 6.5C5 7.32843 5.67157 8 6.5 8C7.32843 8 8 7.32843 8 6.5C8 5.67157 7.32843 5 6.5 5ZM2 6.5C2 4.01472 4.01472 2 6.5 2C8.98528 2 11 4.01472 11 6.5C11 8.98528 8.98528 11 6.5 11C4.01472 11 2 8.98528 2 6.5ZM16 17.5C16 16.6716 16.6716 16 17.5 16C18.3284 16 19 16.6716 19 17.5C19 18.3284 18.3284 19 17.5 19C16.6716 19 16 18.3284 16 17.5ZM17.5 13C15.0147 13 13 15.0147 13 17.5C13 19.9853 15.0147 22 17.5 22C19.9853 22 22 19.9853 22 17.5C22 15.0147 19.9853 13 17.5 13Z" fill="black"/></svg>