<svg width="24" height="24" viewBox="0 0 24 24" fill="none" xmlns="http://www.w3.org/2000/svg">
<path d="M5.90648 1.5875C6.91618 1.00457 8.20732 1.35026 8.79027 2.35996L11.5676 7.17148C12.1503 8.1811 11.8048 9.47235 10.7952 10.0553L9.25023 10.9469C9.24607 10.9493 9.24363 10.9516 9.24242 10.9527C9.24123 10.9538 9.24018 10.9547 9.23949 10.9557C9.23812 10.9577 9.23715 10.9601 9.23656 10.9625C9.72225 11.5103 10.2275 12.0471 10.7522 12.5719C11.5303 13.35 12.3353 14.0857 13.1633 14.7779C13.1661 14.7774 13.1697 14.7777 13.1721 14.776C13.1731 14.7753 13.174 14.7742 13.175 14.773C13.1762 14.7718 13.1786 14.7692 13.1809 14.7652L14.2561 12.9029C14.839 11.8931 16.1302 11.5466 17.1399 12.1295L21.9504 14.9078C22.9597 15.4909 23.3067 16.7821 22.7239 17.7916L20.5012 21.6402C20.0408 22.4372 19.1408 22.8193 18.2873 22.6607L18.2619 22.6559L18.2375 22.65C14.1135 21.6625 10.1989 19.5606 6.98167 16.3434C4.24395 13.6057 2.31226 10.3638 1.18871 6.91562L1.1848 6.90586L1.18187 6.89609C1.11853 6.68742 1.06172 6.42498 1.02757 6.16855C0.996762 5.93705 0.968309 5.59837 1.0305 5.28769C1.03318 5.27442 1.03862 5.25755 1.0432 5.23886C1.1548 4.66075 1.50555 4.12804 2.05785 3.80918L5.90648 1.5875ZM6.90648 3.31894L3.05785 5.5416C3.02787 5.5589 3.0085 5.58698 3.00316 5.62168L2.99144 5.69101C2.99138 5.69773 2.99319 5.70586 2.99339 5.71543C2.99444 5.76428 2.99985 5.82872 3.00999 5.90488C3.03033 6.0576 3.0644 6.21019 3.09398 6.30918C4.12279 9.45985 5.88933 12.4229 8.39574 14.9293C11.3332 17.8667 14.9012 19.7856 18.6623 20.6939C18.7054 20.6982 18.7478 20.6781 18.7698 20.6402L20.9914 16.7916C21.0221 16.7385 21.0035 16.6699 20.9504 16.6393L16.1399 13.8619C16.0868 13.8313 16.0193 13.8492 15.9885 13.9019L14.9123 15.7652C14.2987 16.8282 12.8601 17.1307 11.884 16.315C11.0093 15.5839 10.1593 14.8081 9.33812 13.9869C8.78422 13.433 8.2514 12.8653 7.73851 12.2867C6.87846 11.3164 7.16767 9.83943 8.25023 9.21445L9.79515 8.32285C9.84816 8.29222 9.86578 8.22461 9.83519 8.17148L7.05785 3.35996C7.0272 3.30704 6.95953 3.28853 6.90648 3.31894Z" fill="black"/>
</svg>
