<svg width="24" height="24" viewBox="0 0 24 24" fill="none" xmlns="http://www.w3.org/2000/svg"><path fill-rule="evenodd" clip-rule="evenodd" d="M9.5 1C10.1595 1.01676 10.7306 1.46242 10.9072 2.09805L14.6686 16.3657L16.077 11.5252C16.2811 10.9127 16.8544 10.4995 17.5 10.4995H22C22.8284 10.4995 23.5 11.1711 23.5 11.9995C23.5 12.8279 22.8284 13.4995 22 13.4995H18.5811L15.9611 21.9748C15.7525 22.6007 15.1595 23.0168 14.5 23C13.8405 22.9832 13.2694 22.5376 13.0928 21.902L9.33144 7.63432L7.92303 12.4739C7.71885 13.0864 7.14565 13.4995 6.5 13.4995L2 13.5C1.17157 13.5 0.5 12.8284 0.5 12C0.5 11.1716 1.17157 10.5 2 10.5L5.41886 10.4995L8.03888 2.02517C8.24749 1.39933 8.84051 0.983244 9.5 1Z" fill="black"/></svg>