<svg width="24" height="24" viewBox="0 0 24 24" fill="none" xmlns="http://www.w3.org/2000/svg">
<path d="M21 4C22.1046 4 23 4.89543 23 6V18C23 19.1046 22.1046 20 21 20H3C1.89543 20 1 19.1046 1 18V6C1 4.89543 1.89543 4 3 4H21ZM6 8C5.44772 8 5 8.44772 5 9C5 9.55228 5.44772 10 6 10H7V15C7 15.5523 7.44772 16 8 16C8.55228 16 9 15.5523 9 15V9C9 8.44772 8.55228 8 8 8H6ZM16 8C15.4477 8 15 8.44772 15 9C15 9.55228 15.4477 10 16 10H17V15C17 15.5523 17.4477 16 18 16C18.5523 16 19 15.5523 19 15V9C19 8.44772 18.5523 8 18 8H16ZM12.5 13C11.9477 13 11.5 13.4477 11.5 14C11.5 14.5523 11.9477 15 12.5 15C13.0523 15 13.5 14.5523 13.5 14C13.5 13.4477 13.0523 13 12.5 13ZM12.5 9C11.9477 9 11.5 9.44772 11.5 10C11.5 10.5523 11.9477 11 12.5 11C13.0523 11 13.5 10.5523 13.5 10C13.5 9.44772 13.0523 9 12.5 9Z" fill="black"/>
</svg>
