<svg width="24" height="24" viewBox="0 0 24 24" fill="none" xmlns="http://www.w3.org/2000/svg">
<path d="M11.4395 1.08493C11.8133 0.971847 12.2122 0.97186 12.586 1.08493L21.294 3.71872C21.7063 3.84345 21.9919 4.21629 21.9961 4.65036C22.0219 7.29654 21.9631 16.4408 19.9903 19.0117C18.0202 21.5784 13.6265 22.6888 12.3604 22.9629C12.1296 23.0128 11.8955 23.0124 11.6651 22.9609C10.4205 22.6829 6.15083 21.5713 4.0352 19.0117C1.90728 16.4367 1.95881 7.26778 2.01958 4.63766C2.02971 4.20951 2.31396 3.84583 2.72075 3.72262L11.4395 1.08493ZM4.00786 5.42184C3.98943 6.89411 4.00058 9.29671 4.19927 11.6787C4.3179 13.1007 4.49883 14.4652 4.76177 15.5966C5.04053 16.796 5.3546 17.4679 5.5772 17.7373C6.33586 18.6551 7.58944 19.418 8.96001 20.0009C10.2329 20.5423 11.4292 20.8537 12.0196 20.9892C12.6233 20.8549 13.8514 20.5447 15.1358 20.0039C16.5279 19.4177 17.7356 18.6653 18.4043 17.7939C18.6178 17.5157 18.9175 16.8259 19.1885 15.6171C19.444 14.4776 19.6259 13.1076 19.751 11.6836C19.9603 9.3002 19.9971 6.89585 19.9971 5.41598L12.0118 2.99997L4.00786 5.42184ZM15.0313 8.12008C15.5542 7.48737 16.5035 7.44395 17.0811 8.02633C17.5981 8.54775 17.6251 9.3845 17.1436 9.93942L11.7207 16.1884C11.3409 16.6261 10.6735 16.6485 10.2657 16.2373L7.03032 12.9755C6.47958 12.4202 6.47958 11.5192 7.03032 10.9638C7.58097 10.4088 8.47375 10.4089 9.02446 10.9638L11.0196 12.9755L15.0313 8.12008Z" fill="black"/>
</svg>
