<svg width="24" height="24" viewBox="0 0 24 24" fill="none" xmlns="http://www.w3.org/2000/svg">
<path d="M20 18.4997C19.9998 17.6714 19.3283 16.9997 18.5 16.9997C17.6717 16.9997 17.0002 17.6714 17 18.4997C17 18.7403 17.0585 18.9671 17.1592 19.1686L17.1855 19.2165C17.1912 19.2265 17.1949 19.2376 17.2002 19.2477C17.4593 19.6971 17.944 19.9997 18.5 19.9997C19.3284 19.9997 20 19.3281 20 18.4997ZM4 18.4997C4 19.3281 4.67158 19.9997 5.5 19.9997C6.32841 19.9997 7 19.3281 7 18.4997C6.99984 17.6714 6.32832 16.9997 5.5 16.9997C4.67168 16.9997 4.00016 17.6714 4 18.4997ZM22 18.4997C22 20.4327 20.433 21.9997 18.5 21.9997C17.1431 21.9997 15.9675 21.2273 15.3867 20.0983L14.3818 18.3102L12.0264 14.2311L9.61621 18.4079L9.61133 18.4167L8.58398 20.1559C7.99331 21.2537 6.83389 21.9997 5.5 21.9997C3.567 21.9997 2 20.4327 2 18.4997C2.00016 16.5668 3.5671 14.9997 5.5 14.9997C6.7012 14.9997 7.76127 15.605 8.3916 16.527L10.8721 12.2311L5.88184 3.58758C5.60569 3.10929 5.76975 2.49751 6.24805 2.22137C6.72631 1.94541 7.33816 2.10936 7.61426 2.58758L12.0264 10.2311L16.3838 2.68524C16.66 2.20714 17.2718 2.04391 17.75 2.32C18.228 2.59611 18.392 3.20705 18.1162 3.68524L13.1816 12.2311L15.6377 16.485C16.2713 15.5867 17.3172 14.9997 18.5 14.9997C20.4329 14.9997 21.9998 16.5668 22 18.4997Z" fill="black"/>
</svg>
