<svg width="24" height="24" viewBox="0 0 24 24" fill="none" xmlns="http://www.w3.org/2000/svg"><path fill-rule="evenodd" clip-rule="evenodd" d="M10.587 1.38107C9.75856 1.38107 9.08698 2.05264 9.08698 2.88107V4.51083L6.97669 5.7292L5.58503 4.92573C4.86759 4.51151 3.95021 4.75733 3.53599 5.47476L2.11221 7.94083C1.69799 8.65827 1.94381 9.57566 2.66124 9.98987L4.05722 10.7958V13.2219L2.64185 14.039C1.92441 14.4532 1.6786 15.3706 2.09281 16.088L3.5166 18.5541C3.93081 19.2716 4.8482 19.5174 5.56564 19.1032L6.99201 18.2796L9.08698 19.4892V21.1189C9.08698 21.9474 9.75855 22.6189 10.587 22.6189H13.4346C14.263 22.6189 14.9346 21.9474 14.9346 21.1189V19.4757L17.0128 18.2758L18.4557 19.1088C19.1731 19.523 20.0905 19.2772 20.5047 18.5598L21.9285 16.0937C22.3427 15.3763 22.0969 14.4589 21.3795 14.0447L19.9409 13.2141V10.8036L21.3601 9.98423C22.0775 9.57002 22.3233 8.65263 21.9091 7.93519L20.4853 5.46912C20.0711 4.75168 19.1537 4.50587 18.4363 4.92008L17.0282 5.73307L14.9346 4.52432V2.88107C14.9346 2.05265 14.263 1.38107 13.4346 1.38107H10.587ZM11.087 4.7995V3.38107H12.9346V4.813C12.9346 5.3489 13.2205 5.84409 13.6846 6.11204L16.2782 7.60946C16.7423 7.87741 17.3141 7.87741 17.7782 7.60946L19.0033 6.90213L19.9271 8.50218L18.6909 9.21586C18.2268 9.48381 17.9409 9.979 17.9409 10.5149V13.5028C17.9409 14.0387 18.2268 14.5339 18.6909 14.8018L19.9465 15.5267L19.0227 17.1267L17.7628 16.3994C17.2987 16.1314 16.7269 16.1314 16.2628 16.3994L13.6846 17.888C13.2205 18.1559 12.9346 18.6511 12.9346 19.187V20.6189H11.087V19.2005C11.087 18.6646 10.8011 18.1694 10.337 17.9015L7.74201 16.4033C7.27791 16.1353 6.70611 16.1353 6.24201 16.4033L4.99865 17.1211L4.07486 15.5211L5.30722 14.8096C5.77132 14.5416 6.05722 14.0464 6.05722 13.5105V10.5072C6.05722 9.97126 5.77132 9.47607 5.30722 9.20812L4.09426 8.50782L5.01804 6.90778L6.22669 7.60559C6.69079 7.87354 7.26259 7.87354 7.72669 7.60559L10.337 6.09854C10.8011 5.83059 11.087 5.3354 11.087 4.7995ZM12 15.5C13.933 15.5 15.5 13.933 15.5 12C15.5 10.067 13.933 8.5 12 8.5C10.067 8.5 8.5 10.067 8.5 12C8.5 13.933 10.067 15.5 12 15.5ZM13.5 12C13.5 12.8284 12.8284 13.5 12 13.5C11.1716 13.5 10.5 12.8284 10.5 12C10.5 11.1716 11.1716 10.5 12 10.5C12.8284 10.5 13.5 11.1716 13.5 12Z" fill="black"/></svg>