<svg width="24" height="24" viewBox="0 0 24 24" fill="none" xmlns="http://www.w3.org/2000/svg">
<path d="M17.5 2C19.433 2 21 3.567 21 5.5C21 7.433 19.433 9 17.5 9C16.5228 9 15.6398 8.59888 15.0049 7.95312L9.87207 11.0625C9.95479 11.3608 10 11.6753 10 12C9.99997 12.2914 9.96265 12.5741 9.89551 12.8447L15.1211 15.9326C15.7455 15.3538 16.5815 15 17.5 15C19.4329 15 20.9999 16.5671 21 18.5C21 20.433 19.433 22 17.5 22C15.567 22 14 20.433 14 18.5C14 18.208 14.0361 17.9245 14.1035 17.6533L8.87793 14.5664C8.25357 15.1451 7.41843 15.5 6.5 15.5C4.56715 15.5 3.00023 13.9328 3 12C3 10.067 4.567 8.5 6.5 8.5C7.38433 8.5 8.19149 8.82819 8.80762 9.36914L14.0664 6.18262C14.0228 5.96184 14 5.73358 14 5.5C14 3.567 15.567 2 17.5 2Z" fill="black"/>
</svg>
