<svg width="24" height="24" viewBox="0 0 24 24" fill="none" xmlns="http://www.w3.org/2000/svg"><path fill-rule="evenodd" clip-rule="evenodd" d="M2.68218 3.79537L11.4254 1.17242C11.8002 1.05996 12.1999 1.05996 12.5747 1.17242L21.3071 3.79214C21.7206 3.91619 22.0073 4.28642 22.0115 4.71813C22.0373 7.34946 21.9785 16.4433 20.0001 19C18.0247 21.5528 13.6184 22.6574 12.3487 22.93C12.1172 22.9797 11.8824 22.9789 11.6512 22.9278C10.4032 22.6513 6.1216 21.5457 4.00009 19C1.86616 16.4394 1.91793 7.32182 1.97887 4.70618C1.9888 4.28004 2.2739 3.91786 2.68218 3.79537ZM12 4.00246V19.9983C12.0059 19.9994 12.009 20 12.009 20C12.009 20 15.9729 19.2727 17.5934 17.0909C19.2138 14.9091 18.9894 5.9091 18.9894 5.9091L12.009 4.00001L12 4.00246Z" fill="black"/></svg>