<svg width="24" height="24" viewBox="0 0 24 24" fill="none" xmlns="http://www.w3.org/2000/svg">
<path d="M18 5C18.5523 5 19 5.44772 19 6C19 9.86599 15.866 13 12 13C8.13401 13 5 9.86599 5 6C5 5.44772 5.44772 5 6 5C6.55228 5 7 5.44772 7 6C7 8.76142 9.23858 11 12 11C14.7614 11 17 8.76142 17 6C17 5.44772 17.4477 5 18 5Z" fill="black"/>
<path fill-rule="evenodd" clip-rule="evenodd" d="M19 2C20.6569 2 22 3.34315 22 5V19C22 20.6569 20.6569 22 19 22H5L4.8457 21.9961C3.26055 21.9158 2 20.6051 2 19V5C2 3.34315 3.34315 2 5 2H19ZM5 4C4.44771 4 4 4.44772 4 5V19C4 19.5523 4.44772 20 5 20H19C19.5523 20 20 19.5523 20 19V5C20 4.44771 19.5523 4 19 4H5Z" fill="black"/>
</svg>
