<svg width="24" height="24" viewBox="0 0 24 24" fill="none" xmlns="http://www.w3.org/2000/svg"><path fill-rule="evenodd" clip-rule="evenodd" d="M8 4C9.45715 4 10.8233 4.38958 12 5.07026C13.1767 4.38958 14.5429 4 16 4C20.4183 4 24 7.58172 24 12C24 16.4183 20.4183 20 16 20C14.5429 20 13.1767 19.6104 12 18.9297C10.8233 19.6104 9.45715 20 8 20C3.58172 20 0 16.4183 0 12C0 7.58172 3.58172 4 8 4ZM16 18C19.3137 18 22 15.3137 22 12C22 8.68629 19.3137 6 16 6C14.4783 6 13.089 6.56645 12.0313 7.5H14.6153C14.9336 7.96694 15.2037 8.46932 15.4185 9H10.8027C10.6198 9.31622 10.4649 9.65069 10.3414 10H15.748C15.8725 10.4838 15.9529 10.9853 15.9846 11.5H10.0205C10.0069 11.6649 10 11.8316 10 12C10 12.1684 10.0069 12.3351 10.0205 12.5H15.9846C15.9529 13.0147 15.8725 13.5162 15.748 14H10.3414C10.4649 14.3493 10.6198 14.6838 10.8027 15H15.4185C15.2037 15.5307 14.9336 16.0331 14.6153 16.5H12.0313C13.089 17.4335 14.4783 18 16 18Z" fill="black"/></svg>