<svg width="24" height="24" viewBox="0 0 24 24" fill="none" xmlns="http://www.w3.org/2000/svg"><path fill-rule="evenodd" clip-rule="evenodd" d="M12 5.02863L9.56867 9.10197C9.39633 9.39072 9.10801 9.59094 8.77762 9.65133L4.47932 10.4369L7.47279 13.9041C7.69195 14.158 7.79145 14.494 7.74589 14.8265L7.13481 19.2864L11.5403 17.3919C11.8338 17.2657 12.1662 17.2657 12.4597 17.3919L16.8652 19.2864L16.2541 14.8265C16.2086 14.494 16.308 14.158 16.5272 13.9041L19.5207 10.4369L15.2224 9.65133C14.892 9.59095 14.6037 9.39072 14.4313 9.10198L12 5.02863ZM10.9998 2.56831C11.4521 1.81056 12.5479 1.81057 13.0002 2.56831L16.028 7.64098L21.5427 8.64887C22.4298 8.81101 22.8049 9.87773 22.215 10.561L18.4119 14.9659L19.1938 20.672C19.3171 21.5718 18.4126 22.2617 17.5795 21.9035L12 19.5041L6.4205 21.9035C5.58741 22.2617 4.68294 21.5718 4.80622 20.672L5.58806 14.9659L1.78503 10.561C1.19513 9.87772 1.57018 8.81101 2.45731 8.64887L7.97197 7.64098L10.9998 2.56831Z" fill="black"/></svg>