<svg width="24" height="24" viewBox="0 0 24 24" fill="none" xmlns="http://www.w3.org/2000/svg"><path fill-rule="evenodd" clip-rule="evenodd" d="M11.5 4.5C9.71311 4.5 8.49999 5.93921 8.49999 7C8.49999 8.06895 9.2604 9.60002 12.2163 10.5H6.74635C5.9307 9.47544 5.49999 8.28481 5.49999 7C5.49999 4.06079 8.28687 1.5 11.5 1.5C14.4721 1.5 16.9167 2.72229 18.7 5.1C19.197 5.76274 19.0627 6.70294 18.4 7.2C17.7372 7.69706 16.797 7.56274 16.3 6.9C15.0833 5.27771 13.5279 4.5 11.5 4.5Z" fill="black"/><path fill-rule="evenodd" clip-rule="evenodd" d="M15.7183 15.5H19.2439C19.4081 15.9665 19.5 16.4668 19.5 17C19.5 18.8721 18.4653 20.3055 17.0451 21.2048C15.6584 22.0828 13.8591 22.5 12 22.5C8.07666 22.5 5.23007 20.105 4.54477 17.3638C4.34385 16.5601 4.83249 15.7457 5.63619 15.5448C5.74807 15.5168 5.86017 15.5022 5.97079 15.5H6.03145C6.69154 15.5134 7.28738 15.9649 7.4552 16.6362C7.76991 17.895 9.2959 19.5 12 19.5C13.4546 19.5 14.6553 19.1672 15.4402 18.6702C16.1915 18.1945 16.5 17.6279 16.5 17C16.5 16.5665 16.3036 16.0589 15.7183 15.5Z" fill="black"/><path fill-rule="evenodd" clip-rule="evenodd" d="M2.5 10.5H21.5C22.3284 10.5 23 11.1716 23 12C23 12.8284 22.3284 13.5 21.5 13.5H2.5C1.67157 13.5 1 12.8284 1 12C1 11.1716 1.67157 10.5 2.5 10.5Z" fill="black"/></svg>