<svg width="24" height="24" viewBox="0 0 24 24" fill="none" xmlns="http://www.w3.org/2000/svg">
<g clip-path="url(#clip0_2342_331)">
<path d="M12 20C12.8284 20 13.5 20.6716 13.5 21.5V22.5C13.5 23.3284 12.8284 24 12 24C11.1716 24 10.5 23.3284 10.5 22.5V21.5C10.5 20.6716 11.1716 20 12 20ZM4.22168 17.6572C4.80747 17.0714 5.75699 17.0714 6.34277 17.6572C6.92855 18.243 6.92856 19.1925 6.34277 19.7783L5.63574 20.4854C5.04994 21.071 4.10038 21.0711 3.51465 20.4854C2.92892 19.8996 2.92904 18.9501 3.51465 18.3643L4.22168 17.6572ZM17.6572 17.6572C18.243 17.0714 19.1925 17.0714 19.7783 17.6572L20.4854 18.3643C21.071 18.9501 21.0711 19.8996 20.4854 20.4854C19.8996 21.0711 18.9501 21.071 18.3643 20.4854L17.6572 19.7783C17.0714 19.1925 17.0714 18.243 17.6572 17.6572ZM12 5C15.866 5 19 8.13401 19 12C19 15.866 15.866 19 12 19C8.13401 19 5 15.866 5 12C5 8.13401 8.13401 5 12 5ZM12 7C9.23858 7 7 9.23858 7 12C7 14.7614 9.23858 17 12 17C14.7614 17 17 14.7614 17 12C17 9.23858 14.7614 7 12 7ZM2.5 10.5C3.32843 10.5 4 11.1716 4 12C4 12.8284 3.32843 13.5 2.5 13.5H1.5C0.671573 13.5 0 12.8284 0 12C0 11.1716 0.671573 10.5 1.5 10.5H2.5ZM22.5 10.5C23.3284 10.5 24 11.1716 24 12C24 12.8284 23.3284 13.5 22.5 13.5H21.5C20.6716 13.5 20 12.8284 20 12C20 11.1716 20.6716 10.5 21.5 10.5H22.5ZM3.51465 3.51465C4.10038 2.92893 5.04994 2.92904 5.63574 3.51465L6.34277 4.22168C6.92856 4.80746 6.92855 5.75699 6.34277 6.34277C5.75699 6.92856 4.80747 6.92856 4.22168 6.34277L3.51465 5.63574C2.92904 5.04994 2.92892 4.10038 3.51465 3.51465ZM18.3643 3.51465C18.9501 2.92904 19.8996 2.92892 20.4854 3.51465C21.0711 4.10037 21.071 5.04994 20.4854 5.63574L19.7783 6.34277C19.1925 6.92856 18.243 6.92856 17.6572 6.34277C17.0714 5.75699 17.0714 4.80747 17.6572 4.22168L18.3643 3.51465ZM12 0C12.8284 0 13.5 0.671573 13.5 1.5V2.5C13.5 3.32843 12.8284 4 12 4C11.1716 4 10.5 3.32843 10.5 2.5V1.5C10.5 0.671573 11.1716 0 12 0Z" fill="black"/>
</g>
<defs>
<clipPath id="clip0_2342_331">
<rect width="24" height="24" fill="white"/>
</clipPath>
</defs>
</svg>
