<svg width="24" height="24" viewBox="0 0 24 24" fill="none" xmlns="http://www.w3.org/2000/svg">
<path d="M21 4C22.1046 4 23 4.89543 23 6V9.7998C22.9998 10.2404 22.7109 10.6293 22.2891 10.7568C21.5518 10.9799 21.1816 11.5214 21.1816 12C21.1816 12.4786 21.5518 13.0201 22.2891 13.2432C22.7109 13.3707 22.9998 13.7596 23 14.2002V18C23 19.1046 22.1046 20 21 20H3C1.89543 20 1 19.1046 1 18V14.2002C1.00016 13.7596 1.28913 13.3707 1.71094 13.2432C2.44817 13.0201 2.81836 12.4786 2.81836 12C2.81836 11.5252 2.45414 10.988 1.72852 10.7617C1.30832 10.6434 1.00016 10.2578 1 9.7998V6C1 4.89543 1.89543 4 3 4H21ZM8 9C7.44772 9 7 9.44772 7 10V14C7 14.5523 7.44772 15 8 15C8.55228 15 9 14.5523 9 14V10C9 9.44772 8.55228 9 8 9ZM12 9C11.4477 9 11 9.44772 11 10V14C11 14.5523 11.4477 15 12 15C12.5523 15 13 14.5523 13 14V10C13 9.44772 12.5523 9 12 9ZM16 9C15.4477 9 15 9.44772 15 10V14C15 14.5523 15.4477 15 16 15C16.5523 15 17 14.5523 17 14V10C17 9.44772 16.5523 9 16 9Z" fill="black"/>
</svg>
