<svg width="22" height="22" viewBox="0 0 22 22" fill="none" xmlns="http://www.w3.org/2000/svg"><path d="M3.59145 15.5663L4.44038 12.9288H8.56772L9.41664 15.5663H12.0081L8.06507 4H4.94862L1 15.5663H3.59145ZM5.05473 11.02L6.46216 6.64307H6.55152L7.95895 11.02H5.05473Z" fill="black"/><path d="M16.8056 19C19.2575 19 21 17.8705 21 15.651V6.89157H18.6375V8.34864H18.5482C18.2298 7.6427 17.5317 6.77861 16.0963 6.77861C14.2142 6.77861 12.6225 8.25828 12.6225 11.212C12.6225 14.0979 14.1695 15.442 16.1019 15.442C17.4703 15.442 18.2354 14.7474 18.5482 14.0301H18.6487V15.6171C18.6487 16.8087 17.8947 17.2718 16.8615 17.2718C15.8115 17.2718 15.2809 16.8087 15.0855 16.2835L12.8849 16.5828C13.1698 17.9495 14.4934 19 16.8056 19ZM16.8559 13.6348C15.6886 13.6348 15.0519 12.6973 15.0519 11.2007C15.0519 9.72666 15.6775 8.69315 16.8559 8.69315C18.012 8.69315 18.6599 9.68148 18.6599 11.2007C18.6599 12.7312 18.0008 13.6348 16.8559 13.6348Z" fill="black"/></svg>