<svg width="24" height="24" viewBox="0 0 24 24" fill="none" xmlns="http://www.w3.org/2000/svg">
<path d="M11.3481 15C11.892 15 12.4264 15.0434 12.9467 15.127C13.1814 15.1648 13.3481 15.3716 13.3481 15.6094V21.5C13.3481 21.7761 13.1243 22 12.8481 22H2.48773C2.15011 22 1.90963 21.6718 2.03265 21.3574C3.48885 17.636 7.11068 15.0002 11.3481 15ZM15.8481 20C16.1243 20 16.3481 20.2239 16.3481 20.5V21.5C16.3481 21.7761 16.1243 22 15.8481 22H14.8481C14.5722 21.9997 14.3481 21.776 14.3481 21.5V20.5C14.3481 20.224 14.5722 20.0003 14.8481 20H15.8481ZM21.5 20C21.7761 20 22 20.2239 22 20.5V21.5C22 21.7761 21.7761 22 21.5 22H17.8481C17.5722 21.9997 17.3481 21.776 17.3481 21.5V20.5C17.3481 20.224 17.5722 20.0003 17.8481 20H21.5ZM15.8481 17C16.1243 17 16.3481 17.2239 16.3481 17.5V18.5C16.3481 18.7761 16.1243 19 15.8481 19H14.8481C14.5722 18.9997 14.3481 18.776 14.3481 18.5V17.5C14.3481 17.224 14.5722 17.0003 14.8481 17H15.8481ZM21.5 17C21.7761 17 22 17.2239 22 17.5V18.5C22 18.7761 21.7761 19 21.5 19H17.8481C17.5722 18.9997 17.3481 18.776 17.3481 18.5V17.5C17.3481 17.224 17.5722 17.0003 17.8481 17H21.5ZM12.3481 2C15.6481 2 18.3481 4.7 18.3481 8C18.3481 11.3 15.6481 14 12.3481 14C9.04832 13.9997 6.34809 11.2998 6.34809 8C6.34809 4.70016 9.04832 2.00026 12.3481 2Z" fill="black"/>
</svg>
