<svg width="24" height="24" viewBox="0 0 24 24" fill="none" xmlns="http://www.w3.org/2000/svg">
<path d="M8 11H5V8H8V11Z" fill="black"/>
<path fill-rule="evenodd" clip-rule="evenodd" d="M14 4C15.1046 4 16 4.89543 16 6V18C16 19.0357 15.2128 19.887 14.2041 19.9893L14 20H3L2.7959 19.9893C1.78722 19.887 1 19.0357 1 18V6C1 4.89543 1.89543 4 3 4H14ZM3 18H14V6H3V18Z" fill="black"/>
<path fill-rule="evenodd" clip-rule="evenodd" d="M21.5527 6.72363C22.2176 6.39118 23 6.87478 23 7.61816V16.3818C23 17.1252 22.2176 17.6088 21.5527 17.2764L17.5527 15.2764C17.214 15.107 17 14.7606 17 14.3818V9.61816C17 9.23941 17.214 8.89304 17.5527 8.72363L21.5527 6.72363ZM19 10.2363V13.7637L21 14.7637V9.23633L19 10.2363Z" fill="black"/>
</svg>
