<svg width="24" height="24" viewBox="0 0 24 24" fill="none" xmlns="http://www.w3.org/2000/svg"><path fill-rule="evenodd" clip-rule="evenodd" d="M4 2C2.89543 2 2 2.89543 2 4V20C2 21.1046 2.89543 22 4 22H20C21.1046 22 22 21.1046 22 20V4C22 2.89543 21.1046 2 20 2H4ZM4 4L20 4V20H4V4ZM9.49614 7.13176C9.18664 6.9549 8.80639 6.95617 8.49807 7.13509C8.18976 7.31401 8 7.64353 8 8V16C8 16.3565 8.18976 16.686 8.49807 16.8649C8.80639 17.0438 9.18664 17.0451 9.49614 16.8682L16.4961 12.8682C16.8077 12.6902 17 12.3589 17 12C17 11.6411 16.8077 11.3098 16.4961 11.1318L9.49614 7.13176ZM13.9844 12L10 14.2768V9.72318L13.9844 12Z" fill="black"/></svg>