<svg width="24" height="24" viewBox="0 0 24 24" fill="none" xmlns="http://www.w3.org/2000/svg"><path fill-rule="evenodd" clip-rule="evenodd" d="M10.7627 1C10.6348 3.39088 9.0784 5.40653 6.9233 6.22513C6.77492 5.70825 6.6955 5.16262 6.6955 4.59862C6.6955 4.53475 6.69651 4.47113 6.69854 4.40775C4.16867 6.74533 2.5 10.511 2.5 13.7399C2.5 18.8541 6.68614 23 11.85 23C17.0139 23 21.2 18.8541 21.2 13.7399C21.2 10.6433 19.6652 7.05292 17.3079 4.70204C17.0794 6.34874 16.1689 7.78006 14.8678 8.70748C15.0871 8.0905 15.2064 7.42683 15.2064 6.73556C15.2064 3.98804 13.3216 1.6765 10.7627 1ZM9.27763 9.45031C9.24696 9.439 9.21641 9.42743 9.18598 9.41563L9.18595 9.41561C9.21639 9.42742 9.24695 9.43899 9.27763 9.45031ZM8.97311 11.0966V17.3331C8.97311 17.9757 9.67803 18.3751 10.2374 18.0495L15.594 14.9313C16.1459 14.61 16.1459 13.8197 15.594 13.4984L10.2374 10.3802C9.67803 10.0545 8.97311 10.454 8.97311 11.0966Z" fill="black"/></svg>