<svg width="24" height="24" viewBox="0 0 24 24" fill="none" xmlns="http://www.w3.org/2000/svg">
<path d="M10.375 2.21893C10.6752 1.9788 11.0871 1.9323 11.4336 2.09882C11.7799 2.26539 12 2.61588 12 3.00018V21.0002C12 21.3845 11.7799 21.735 11.4336 21.9016C11.0871 22.0681 10.6752 22.0215 10.375 21.7814L4.64941 17.0002H2C1.44772 17.0002 1 16.5525 1 16.0002V8.00018C1 7.4479 1.44772 7.00018 2 7.00018H4.64941L10.375 2.21893ZM5.93072 8.53527C5.57105 8.83564 5.11733 9.00018 4.64873 9.00018H3V15.0002H4.64887C5.11738 15.0002 5.57103 15.1647 5.93067 15.4649L10 18.8625V5.1369L5.93072 8.53527Z" fill="black"/>
<path d="M20 12C20 9.97233 19.1358 8.44412 18.2412 7.40039C17.7937 6.87829 17.3447 6.48628 17.0107 6.22656C16.8445 6.09729 16.7083 6.00218 16.6172 5.94141C16.5716 5.91103 16.5169 5.87625 16.4961 5.86328C16.0193 5.58497 15.8577 4.97304 16.1357 4.49609C16.414 4.0191 17.0269 3.85761 17.5039 4.13574L17.5732 4.17869C17.611 4.20217 17.6629 4.23487 17.7266 4.27734C17.8541 4.36236 18.0306 4.48618 18.2393 4.64844C18.6553 4.97205 19.2065 5.45522 19.7588 6.09961C20.8642 7.38922 22 9.36099 22 12C22 14.639 20.8642 16.6108 19.7588 17.9004C19.2065 18.5448 18.6553 19.028 18.2393 19.3516C18.0306 19.5138 17.8541 19.6376 17.7266 19.7227C17.6629 19.7651 17.5732 19.8213 17.5732 19.8213L17.5059 19.8633C17.0288 20.1414 16.414 19.9809 16.1357 19.5039C15.8576 19.0269 16.0191 18.414 16.4961 18.1357C16.5169 18.1228 16.6172 18.0586 16.6172 18.0586C16.6172 18.0586 16.8445 17.9027 17.0107 17.7734C17.3447 17.5137 17.7937 17.1217 18.2412 16.5996C19.1358 15.5559 20 14.0277 20 12ZM14.4443 14.168L14.5703 14.0654C14.6706 13.9762 14.81 13.8372 14.9502 13.6504C15.2283 13.2796 15.5 12.7345 15.5 12C15.5 11.2655 15.2283 10.7204 14.9502 10.3496C14.81 10.1628 14.6706 10.0238 14.5703 9.93457C14.5205 9.89031 14.4404 9.8291 14.4404 9.8291C13.9813 9.52264 13.8617 8.90469 14.168 8.44531C14.4743 7.98578 15.0952 7.86162 15.5547 8.16797L15.6709 8.25098C15.7301 8.29606 15.8076 8.3597 15.8984 8.44043C16.0793 8.60122 16.315 8.83731 16.5498 9.15039C17.0216 9.77956 17.5 10.7346 17.5 12C17.5 13.2654 17.0216 14.2204 16.5498 14.8496C16.315 15.1627 16.0793 15.3988 15.8984 15.5596C15.8076 15.6403 15.7301 15.7039 15.6709 15.749L15.5566 15.8311C15.0971 16.1374 14.4743 16.0142 14.168 15.5547C13.8618 15.0954 13.9854 14.4745 14.4443 14.168Z" fill="black"/>
</svg>
