<svg width="24" height="24" viewBox="0 0 24 24" fill="none" xmlns="http://www.w3.org/2000/svg">
<path d="M10.375 2.21893C10.6752 1.9788 11.0871 1.9323 11.4336 2.09882C11.7799 2.26539 12 2.61588 12 3.00018V21.0002C12 21.3845 11.7799 21.735 11.4336 21.9016C11.0871 22.0681 10.6752 22.0215 10.375 21.7814L4.64941 17.0002H2C1.44772 17.0002 1 16.5525 1 16.0002V8.00018C1 7.4479 1.44772 7.00018 2 7.00018H4.64941L10.375 2.21893ZM5.93072 8.53527C5.57105 8.83564 5.11733 9.00018 4.64873 9.00018H3V15.0002H4.64887C5.11738 15.0002 5.57103 15.1647 5.93067 15.4649L10 18.8625V5.1369L5.93072 8.53527Z" fill="black"/>
</svg>
