<svg width="24" height="24" viewBox="0 0 24 24" fill="none" xmlns="http://www.w3.org/2000/svg">
<path fill-rule="evenodd" clip-rule="evenodd" d="M10.375 2.21865C10.6752 1.97865 11.0872 1.93212 11.4336 2.09854C11.7798 2.26507 11.9999 2.61573 12 2.9999V20.9999C12 21.3841 11.7798 21.7347 11.4336 21.9013C11.0871 22.0678 10.6752 22.0212 10.375 21.7812L4.64941 16.9999H2C1.44773 16.9999 1.00002 16.5522 1 15.9999V7.9999C1.00018 7.44776 1.44783 6.9999 2 6.9999H4.64941L10.375 2.21865ZM5.93066 8.53506C5.571 8.83542 5.11703 8.9999 4.64844 8.9999H3V14.9999H4.64844C5.1169 14.9999 5.57104 15.1645 5.93066 15.4647L10 18.8622V5.13662L5.93066 8.53506Z" fill="black"/>
<path d="M14.168 8.44522C14.4743 7.98578 15.0952 7.86159 15.5547 8.16787C15.585 8.18945 15.6413 8.22834 15.6709 8.25088C15.73 8.29595 15.8077 8.35964 15.8984 8.44033C16.0793 8.6011 16.315 8.83726 16.5498 9.15029C17.0216 9.77944 17.5 10.7346 17.5 11.9999C17.5 13.2652 17.0216 14.2203 16.5498 14.8495C16.315 15.1625 16.0793 15.3987 15.8984 15.5595C15.8077 15.6402 15.7301 15.7039 15.6709 15.7489C15.6413 15.7715 15.5576 15.83 15.5576 15.83C15.0981 16.1363 14.4743 16.0141 14.168 15.5546C13.8634 15.0976 13.9842 14.4808 14.4375 14.1728C14.4604 14.1553 14.5206 14.1095 14.5703 14.0653C14.6706 13.9761 14.8101 13.8371 14.9502 13.6503C15.2283 13.2795 15.5 12.7343 15.5 11.9999C15.5 11.2655 15.2283 10.7203 14.9502 10.3495C14.8101 10.1627 14.6706 10.0236 14.5703 9.93447C14.5206 9.89026 14.4672 9.84837 14.4443 9.83096C13.9852 9.52449 13.8618 8.90457 14.168 8.44522Z" fill="black"/>
</svg>
