<svg width="20" height="20" viewBox="0 0 20 20" fill="none" xmlns="http://www.w3.org/2000/svg">
<path d="M12.5986 0.670898C12.8275 0.693652 13.043 0.794919 13.207 0.958984L17.373 5.12598C17.5606 5.31351 17.666 5.56779 17.666 5.83301V17.499C17.666 18.5116 16.8455 19.333 15.833 19.333H4.16602C3.15365 19.3328 2.33301 18.5115 2.33301 17.499V2.49902C2.33318 1.48676 3.15375 0.666191 4.16602 0.666016H12.5L12.5986 0.670898ZM13.5459 7.35645C13.006 7.24085 12.4743 7.58424 12.3584 8.12402L11.7051 11.1689L10.8975 9.55371C10.7281 9.21493 10.3817 9.00098 10.0029 9.00098C9.67163 9.00108 9.36554 9.16479 9.18066 9.43262L9.1084 9.55371L8.2998 11.1699L7.64746 8.12402C7.53154 7.58427 6.99983 7.24076 6.45996 7.35645C5.9202 7.47237 5.5767 8.00408 5.69238 8.54395L6.94238 14.377C7.03142 14.7921 7.37272 15.1057 7.79395 15.1592C8.21525 15.2127 8.62453 14.9941 8.81445 14.6143L10.0029 12.2363L11.1924 14.6143C11.3823 14.9941 11.7916 15.2127 12.2129 15.1592C12.634 15.1056 12.9755 14.792 13.0645 14.377L14.3145 8.54395C14.4302 8.00392 14.0859 7.47217 13.5459 7.35645Z" fill="black"/>
</svg>