<svg width="24" height="24" viewBox="0 0 24 24" fill="none" xmlns="http://www.w3.org/2000/svg">
<path d="M13.9199 8.45996C13.9199 5.4445 11.4754 3 8.45996 3C8.06322 3.00001 7.67728 3.04312 7.30566 3.12305L9.4375 5.25488C10.1882 6.00575 10.1882 7.22273 9.4375 7.97363L7.97363 9.4375C7.22273 10.1882 6.00575 10.1882 5.25488 9.4375L3.12305 7.30566C3.04312 7.67728 3.00001 8.06322 3 8.45996C3 11.4754 5.4445 13.9199 8.45996 13.9199C9.15743 13.9199 9.82211 13.7894 10.4326 13.5527L11.04 13.3174L18.4746 20.752C18.8049 21.0822 19.3406 21.0822 19.6709 20.752L20.752 19.6709C21.0822 19.3406 21.0822 18.8049 20.752 18.4746L13.3174 11.04L13.5527 10.4326C13.7894 9.82211 13.9199 9.15743 13.9199 8.45996ZM15.9199 8.45996C15.9199 9.17508 15.8186 9.8679 15.6299 10.5244L22.166 17.0605C23.2772 18.1717 23.2779 19.9736 22.167 21.085L21.085 22.167C19.9736 23.2779 18.1717 23.2781 17.0605 22.167L10.5244 15.6299C9.8679 15.8186 9.17508 15.9199 8.45996 15.9199C4.33993 15.9199 1 12.58 1 8.45996C1.00001 7.48379 1.18755 6.54863 1.53027 5.69141L1.61719 5.50977C2.09696 4.65269 3.24398 4.59894 3.87402 5.22852L6.61426 7.96875L7.96875 6.61426L5.22852 3.87402C4.55706 3.20206 4.66278 1.94171 5.69141 1.53027L6.0166 1.40918C6.78317 1.14356 7.60576 1.00001 8.45996 1C12.58 1 15.9199 4.33993 15.9199 8.45996Z" fill="black"/>
</svg>
