<svg viewBox="0 0 24 24" fill="none" xmlns="http://www.w3.org/2000/svg"><rect x="2.75" y="2.75" width="18.5" height="18.5" rx="3" fill="white" stroke="#AAB2BF" stroke-width="1.5"/><path d="M9.39999 16.5817C9.39999 17.4915 10.5413 18.3296 12.0301 18.3296C13.6897 18.3296 14.8587 17.4088 14.8587 16.091C14.8587 15.1371 14.1694 14.3541 13.2541 14.2659V14.1722C14.015 14.0619 14.6271 13.312 14.6271 12.496C14.6271 11.3216 13.5574 10.5 12.0356 10.5C10.5965 10.5 9.5213 11.3105 9.5213 12.1927C9.5213 12.5511 9.77493 12.7992 10.1278 12.7992C10.387 12.7992 10.5799 12.6835 10.7454 12.4078C11.0376 11.9115 11.4622 11.6579 12.008 11.6579C12.7083 11.6579 13.1935 12.0714 13.1935 12.6779C13.1935 13.2845 12.6972 13.7256 12.019 13.7256H11.5063C11.1699 13.7256 10.9328 13.9737 10.9328 14.3045C10.9328 14.6464 11.1754 14.8945 11.5063 14.8945H12.0466C12.8571 14.8945 13.403 15.3576 13.403 16.0414C13.403 16.7251 12.8682 17.1717 12.0411 17.1717C11.4236 17.1717 10.9328 16.9015 10.613 16.3942C10.409 16.0965 10.2271 15.9807 9.98446 15.9807C9.64811 15.9807 9.39999 16.2343 9.39999 16.5817Z" fill="#324350"/><path d="M2 5C2 3.34314 3.34315 2 5 2L19 2C20.6569 2 22 3.34314 22 5V9H2V5Z" fill="#F82C2C"/><path d="M9.97348 7.49711C10.2501 7.49711 10.4086 7.31556 10.4086 7.00144V4.11959C10.4086 3.72766 10.204 3.50288 9.84668 3.50288C9.54985 3.50288 9.37982 3.63544 9.20691 4.0072L8.42305 5.76801H8.39135L7.60749 4.01008C7.43458 3.63832 7.26167 3.50288 6.9706 3.50288C6.61901 3.50288 6.39999 3.73631 6.39999 4.11959V7.00144C6.39999 7.3242 6.54409 7.49711 6.81786 7.49711C7.09452 7.49711 7.25302 7.31556 7.25302 7.00144V5.02161H7.29913L7.96484 6.50864C8.0974 6.79394 8.21267 6.89481 8.40864 6.89481C8.60172 6.89481 8.71123 6.79971 8.84668 6.50864L9.51239 5.02161H9.5585V7.00144C9.5585 7.3242 9.70259 7.49711 9.97348 7.49711Z" fill="white"/><path d="M11.351 7.5C11.6046 7.5 11.7401 7.37031 11.8352 7.03602L11.9879 6.56628H13.3107L13.4605 7.03602C13.5556 7.36167 13.7026 7.5 13.9562 7.5C14.23 7.5 14.4086 7.33861 14.4086 7.08789C14.4086 6.98703 14.3827 6.87175 14.3308 6.71037L13.4634 4.15994C13.3049 3.6902 13.0859 3.50576 12.6709 3.50576C12.2559 3.50576 12.0311 3.69308 11.8755 4.15994L11.0052 6.71037C10.9389 6.90345 10.913 7.01296 10.913 7.10807C10.913 7.33861 11.0916 7.5 11.351 7.5ZM12.1839 5.87752L12.6305 4.3876H12.6767L13.1176 5.87752H12.1839Z" fill="white"/><path d="M15.9418 7.49711C16.23 7.49711 16.423 7.30115 16.4144 7.01873L16.3971 5.98991L17.3971 4.33285C17.5095 4.14553 17.5556 4.02737 17.5556 3.9121C17.5556 3.67867 17.3712 3.5 17.1291 3.5C16.9389 3.5 16.7862 3.61527 16.6651 3.8487L15.9562 5.16282H15.9216L15.2328 3.84582C15.106 3.60086 14.9735 3.5 14.7689 3.5C14.5066 3.5 14.3279 3.67291 14.3279 3.92939C14.3279 4.04178 14.3683 4.15417 14.4663 4.31844L15.4807 5.98991L15.4605 7.01873C15.4519 7.30115 15.6478 7.49711 15.9418 7.49711Z" fill="white"/></svg>