<svg xmlns="http://www.w3.org/2000/svg" width="24" height="24" viewBox="0 0 24 24" fill="none">
<path d="M21.9052 11.25C22.484 11.25 22.9461 10.7587 22.8514 10.1877C22.085 5.56448 18.4355 1.91497 13.8123 1.14858C13.2414 1.05394 12.75 1.51604 12.75 2.09476V6.19505C12.75 6.68989 13.1168 7.09994 13.5861 7.25681C15.0717 7.75336 16.2467 8.92832 16.7432 10.4139C16.9001 10.8833 17.3101 11.25 17.805 11.25H21.9052Z" fill="#4CC3FA" style="fill:#4CC3FA;fill:color(display-p3 0.2980 0.7647 0.9804);fill-opacity:1;"/>
<path d="M17.8049 12.75C17.3101 12.75 16.9001 13.1168 16.7432 13.5861C16.08 15.57 14.207 17 12 17C11.1976 17 10.4393 16.811 9.76731 16.475C9.32485 16.2538 8.7759 16.2847 8.42612 16.6345L6.24097 18.8196C5.82968 19.2309 5.85285 19.9094 6.33177 20.2395C7.94275 21.3499 9.89545 22 12 22C16.902 22 20.9802 18.4728 21.8351 13.818C21.9402 13.2462 21.4768 12.75 20.8954 12.75H17.8049Z" fill="#6A6F7F" style="fill:#6A6F7F;fill:color(display-p3 0.4157 0.4353 0.4980);fill-opacity:1;"/>
<path d="M8.42616 7.36551C8.77594 7.71529 9.32488 7.74614 9.76734 7.52497C9.97507 7.42112 10.1911 7.33132 10.414 7.2568C10.8833 7.09994 11.25 6.68992 11.25 6.19508V3.10463C11.25 2.52321 10.7542 2.05982 10.1823 2.16483C8.7733 2.42357 7.46761 2.97764 6.33179 3.76049C5.85287 4.09058 5.82972 4.76906 6.24101 5.18036L8.42616 7.36551Z" fill="#DDE3E8" style="fill:#DDE3E8;fill:color(display-p3 0.8667 0.8902 0.9098);fill-opacity:1;"/>
<path d="M7.36546 15.5738C7.71524 15.2241 7.74609 14.6751 7.52492 14.2327C7.189 13.5607 7 12.8024 7 12C7 11.1976 7.18901 10.4394 7.52494 9.76737C7.74612 9.32491 7.71528 8.77597 7.36549 8.42618L5.18034 6.24103C4.76905 5.82974 4.09056 5.85291 3.76047 6.33183C2.65011 7.94281 2 9.89551 2 12C2 14.1046 2.6501 16.0572 3.76043 17.6682C4.09052 18.1471 4.76901 18.1703 5.18031 17.759L7.36546 15.5738Z" fill="#AAB2BF" style="fill:#AAB2BF;fill:color(display-p3 0.6667 0.6980 0.7490);fill-opacity:1;"/>
</svg>