<svg viewBox="0 0 24 24" fill="none" xmlns="http://www.w3.org/2000/svg"><path fill-rule="evenodd" clip-rule="evenodd" d="M19 10C20.6569 10 22 11.3431 22 13V18.5V21V23L18.6667 21H8C6.34315 21 5 19.6569 5 18V13C5 11.3431 6.34315 10 8 10H19Z" fill="#6A6F7F"/><path d="M11.7617 18.043C12.1055 18.043 12.2891 17.8672 12.418 17.4141L12.625 16.7773H14.418L14.6211 17.4141C14.75 17.8555 14.9492 18.043 15.293 18.043C15.6641 18.043 15.9062 17.8242 15.9062 17.4844C15.9062 17.3477 15.8711 17.1914 15.8008 16.9727L14.625 13.5156C14.4102 12.8789 14.1133 12.6289 13.5508 12.6289C12.9883 12.6289 12.6836 12.8828 12.4727 13.5156L11.293 16.9727C11.2031 17.2344 11.168 17.3828 11.168 17.5117C11.168 17.8242 11.4102 18.043 11.7617 18.043ZM12.8906 15.8438L13.4961 13.8242H13.5586L14.1562 15.8438H12.8906Z" fill="white"/><path fill-rule="evenodd" clip-rule="evenodd" d="M5 2C3.34315 2 2 3.34315 2 5V8.5V13V17L5.52941 13H16C17.6569 13 19 11.6569 19 10V5C19 3.34315 17.6569 2 16 2H5Z" fill="#FF7D95"/><path d="M12.1836 10.6211C12.5039 10.6211 12.7188 10.3945 12.7188 10.082C12.7188 9.94922 12.6953 9.83594 12.5586 9.62891L12.4336 9.45312C12.8281 9.04688 13.0469 8.44922 13.0469 7.67578V7.03906C13.0469 5.50391 12.1641 4.57031 10.6953 4.57031C9.21094 4.57031 8.33984 5.5 8.33984 7.03906V7.67578C8.33984 9.19531 9.19922 10.1172 10.6953 10.1172C10.957 10.1172 11.1914 10.082 11.4102 10.0195L11.5352 10.1914C11.7344 10.4883 11.9375 10.6211 12.1836 10.6211ZM9.62891 7.75391V7.03125C9.62891 6.14844 10.0273 5.625 10.6953 5.625C11.332 5.625 11.7539 6.14844 11.7539 7.03125V7.75391C11.7539 8.08203 11.6914 8.30859 11.582 8.49609L11.4922 8.36719C11.3867 8.25391 11.2695 8.20312 11.1328 8.20312C10.8555 8.20312 10.6602 8.39844 10.6602 8.67578C10.6602 8.77734 10.6992 8.89453 10.75 8.98438L10.832 9.09766C10.7695 9.12109 10.6992 9.13672 10.6289 9.13672C10 9.10156 9.62891 8.59766 9.62891 7.75391Z" fill="white"/></svg>