<svg viewBox="0 0 24 24" fill="none" xmlns="http://www.w3.org/2000/svg"><path d="M12 8.5C12 8.5 12.5 6 11 4C9.5 2 8 2 8 2" stroke="#AAB2BF" stroke-width="2" stroke-linecap="round"/><rect x="1" y="6" width="22" height="15" rx="2" fill="#DDE3E8"/><rect x="3" y="8" width="3" height="3" rx="1.5" fill="#6A6F7F"/><rect x="8" y="8" width="3" height="3" rx="1.5" fill="#6A6F7F"/><rect x="13" y="8" width="3" height="3" rx="1.5" fill="#6A6F7F"/><rect x="18" y="8" width="3" height="3" rx="1.5" fill="#6A6F7F"/><rect x="3" y="12" width="3" height="3" rx="1.5" fill="#6A6F7F"/><rect x="8" y="12" width="3" height="3" rx="1.5" fill="#6A6F7F"/><rect x="13" y="12" width="3" height="3" rx="1.5" fill="#6A6F7F"/><rect x="18" y="12" width="3" height="3" rx="1.5" fill="#6A6F7F"/><rect x="6" y="17" width="12" height="2" rx="1" fill="#6A6F7F"/></svg>