<svg width="24" height="24" viewBox="0 0 24 24" fill="none" xmlns="http://www.w3.org/2000/svg">
<path d="M2 5C2 3.34315 3.34315 2 5 2H17C18.6569 2 20 3.34315 20 5V15C20 16.6569 18.6569 18 17 18H5C3.34315 18 2 16.6569 2 15V5Z" fill="#DDE3E8"/>
<path fill-rule="evenodd" clip-rule="evenodd" d="M12.1599 4.98362C12.2199 4.50411 11.8797 4.06679 11.4002 4.00685C10.9207 3.94691 10.4834 4.28704 10.4235 4.76656L9.25679 14.0999C9.19685 14.5794 9.53698 15.0167 10.0165 15.0767C10.496 15.1366 10.9333 14.7965 10.9933 14.317L12.1599 4.98362ZM13.0063 6.00637C13.348 5.66466 13.902 5.66466 14.2437 6.00637L17.1604 8.92304C17.5021 9.26475 17.5021 9.81877 17.1604 10.1605L14.2437 13.0771C13.902 13.4189 13.348 13.4189 13.0063 13.0771C12.6646 12.7354 12.6646 12.1814 13.0063 11.8397L15.3042 9.54176L13.0063 7.24381C12.6646 6.9021 12.6646 6.34808 13.0063 6.00637Z" fill="#AAB2BF"/>
<path fill-rule="evenodd" clip-rule="evenodd" d="M13.0063 6.00628C13.348 5.66457 13.902 5.66457 14.2437 6.00628L17.1604 8.92295C17.5021 9.26466 17.5021 9.81868 17.1604 10.1604L14.2437 13.0771C13.902 13.4188 13.348 13.4188 13.0063 13.0771C12.6646 12.7353 12.6646 12.1813 13.0063 11.8396L15.3042 9.54167L13.0063 7.24372C12.6646 6.90201 12.6646 6.34799 13.0063 6.00628Z" fill="#4CC3FA"/>
<path fill-rule="evenodd" clip-rule="evenodd" d="M8.41041 6.00628C8.0687 5.66457 7.51468 5.66457 7.17297 6.00628L4.2563 8.92295C3.91459 9.26466 3.91459 9.81868 4.2563 10.1604L7.17297 13.0771C7.51468 13.4188 8.0687 13.4188 8.41041 13.0771C8.75211 12.7353 8.75211 12.1813 8.41041 11.8396L6.11246 9.54167L8.41041 7.24372C8.75211 6.90201 8.75211 6.34799 8.41041 6.00628Z" fill="#FBCD2C"/>
<path d="M18.4583 11.6248L21.375 14.5415L22.5917 13.3248C23.0473 12.8692 23.0473 12.1305 22.5917 11.6749L21.325 10.4081C20.8693 9.9525 20.1307 9.9525 19.675 10.4081L18.4583 11.6248Z" fill="#6A6F7F"/>
<path d="M11.3109 21.3284L12.2918 17.8952C12.319 17.7998 12.3701 17.713 12.4402 17.6429L17.5833 12.4998L20.5 15.4165L15.3569 20.5596C15.2868 20.6297 15.2 20.6808 15.1047 20.708L11.6715 21.6889C11.4514 21.7518 11.248 21.5484 11.3109 21.3284Z" fill="#6A6F7F"/>
</svg>
