<svg viewBox="0 0 24 24" fill="none" xmlns="http://www.w3.org/2000/svg"><path fill-rule="evenodd" clip-rule="evenodd" d="M14 2L20 8V20C20 21.1046 19.1046 22 18 22H6C4.89543 22 4 21.1046 4 20V4C4 2.89543 4.89543 2 6 2H14Z" fill="#4CC3FA"/><path fill-rule="evenodd" clip-rule="evenodd" d="M12.7071 9.29289C12.3166 8.90237 11.6834 8.90237 11.2929 9.29289L8.29289 12.2929C7.90237 12.6834 7.90237 13.3166 8.29289 13.7071C8.68342 14.0976 9.31658 14.0976 9.70711 13.7071L11 12.4142V17C11 17.5523 11.4477 18 12 18C12.5523 18 13 17.5523 13 17V12.4142L14.2929 13.7071C14.6834 14.0976 15.3166 14.0976 15.7071 13.7071C16.0976 13.3166 16.0976 12.6834 15.7071 12.2929L12.7071 9.29289Z" fill="white"/><path fill-rule="evenodd" clip-rule="evenodd" d="M20 8L14 2V6C14 7.10457 14.8954 8 16 8L20 8Z" fill="#324350"/></svg>