<svg viewBox="0 0 24 24" fill="none" xmlns="http://www.w3.org/2000/svg"><path d="M6.9425 8.65613C6.91241 8.54178 6.79002 8.47819 6.68046 8.52266C3.9356 9.63702 2 12.3298 2 15.4746C2 19.6168 5.35786 22.9746 9.5 22.9746C13.2245 22.9746 16.315 20.2597 16.9003 16.7009C16.9199 16.5815 16.8264 16.4746 16.7055 16.4746H14.0482C13.9548 16.4746 13.8743 16.5395 13.8504 16.6298C13.3404 18.5554 11.5859 19.9746 9.5 19.9746C7.01472 19.9746 5 17.9599 5 15.4746C5 13.7065 6.0197 12.1766 7.50311 11.4409C7.59068 11.3974 7.63804 11.2992 7.61316 11.2046L6.9425 8.65613Z" fill="#4CC3FA"/><path d="M13 3C13 4.10457 12.1046 5 11 5C9.89543 5 9 4.10457 9 3C9 1.89543 9.89543 1 11 1C12.1046 1 13 1.89543 13 3Z" fill="#6A6F7F"/><path d="M9.7068 13.7916C9.94218 14.712 10.781 15.3184 11.692 15.296C11.7343 15.2986 11.777 15.3 11.82 15.3H17.6037C17.6969 15.3 17.7777 15.3644 17.7986 15.4553L19.1839 21.4917C19.4001 22.4338 20.339 23.0222 21.281 22.806C22.223 22.5898 22.8114 21.6509 22.5952 20.7089L20.7662 12.7389C20.63 12.1452 20.2066 11.692 19.6764 11.4921C19.4168 11.3689 19.1264 11.3 18.82 11.3H13.3536C13.2623 11.3 13.1825 11.2381 13.1599 11.1495L12.9297 10.2496C12.8974 10.1231 12.9929 10 13.1235 10H16.75C17.4404 10 18 9.44036 18 8.75C18 8.05964 17.4404 7.5 16.75 7.5H12.25C12.2422 7.5 12.2344 7.50007 12.2266 7.50021L12.0955 6.98763C11.8219 5.9175 10.7325 5.27184 9.66236 5.54551C8.59223 5.81918 7.94657 6.90854 8.22024 7.97867L9.7068 13.7916Z" fill="#6A6F7F"/></svg>