<svg width="200" height="200" viewBox="0 0 200 200" fill="none" xmlns="http://www.w3.org/2000/svg">
<rect width="200" height="200" fill="transparent"/>
<path d="M74.6945 78.5971C95.4839 72.2791 132.255 66.3388 146.512 68.7372C150.724 69.4458 154.634 70.7175 157.866 72.1577C157.359 70.4741 156.922 68.6566 156.489 66.8527L156.448 66.6825C155.421 62.4112 154.4 58.2421 152.504 56.1349C147.707 50.8052 153.17 46.0085 153.17 46.0085L154.103 35.4824C167.122 40.3019 175.754 50.4026 181.108 60.5645C185.672 69.2258 187.855 77.9316 188.346 83.4495C189.412 95.4412 180.166 102.314 169.159 102.314C159.413 102.314 150.786 100.666 144.339 99.2005C144.98 101.392 149.781 118.389 151.866 131.867L105.716 132.446L98.1449 117.77L93.4778 105.512C74.0242 112.973 42.7127 124.531 28.5891 123.955C18.2301 123.532 12.9026 108.266 11.143 95.2553C10.6845 91.8657 10.4683 88.6291 10.4683 85.8477C10.4683 80.2052 10.7717 73.6731 12.6894 67.9647C13.4334 65.7498 14.4204 63.659 15.7269 61.7922C16.9565 60.0356 18.4689 58.4773 20.3281 57.2008C20.3281 61.198 19.3098 70.7362 23.1262 71.3244C28.1864 72.1043 33.5349 62.2411 36.9833 64.2626C40.8474 66.5277 35.3258 80.5958 35.6509 81.4508C35.9231 82.1664 36.1759 82.8601 36.4104 83.5324C37.5817 86.8911 38.2939 89.7163 38.6576 92.0756C46.5871 87.5622 60.0082 83.0603 74.6945 78.5971Z" fill="white"/>
<path d="M181.108 60.5645C185.672 69.2258 187.855 77.9316 188.346 83.4495C189.412 95.4412 180.166 102.314 169.159 102.314C159.413 102.314 150.786 100.666 144.339 99.2005M181.108 60.5645C175.754 50.4026 167.122 40.3019 154.103 35.4824L153.17 46.0085C153.17 46.0085 147.707 50.8052 152.504 56.1349C154.4 58.2421 155.421 62.4112 156.448 66.6825M181.108 60.5645C175.103 60.1928 162.792 61.3608 156.448 66.6825M156.448 66.6825C158.018 73.2144 159.604 79.9851 164.362 79.9851C171.557 79.9851 160.769 71.1355 146.512 68.7372C132.255 66.3388 95.484 72.2791 74.6945 78.5971C53.905 84.9151 35.6509 91.3107 31.9202 97.7063C28.2867 103.935 45.161 108.625 36.4104 83.5324M36.4104 83.5324C36.1759 82.8601 35.9231 82.1664 35.6509 81.4508C35.3258 80.5958 40.8474 66.5277 36.9833 64.2626C33.5349 62.2411 28.1864 72.1043 23.1262 71.3244C19.3098 70.7362 20.3281 61.198 20.3281 57.2008C18.4689 58.4773 16.9565 60.0356 15.7269 61.7922M36.4104 83.5324C29.1364 85.1114 14.492 91.6352 11.143 95.2553M11.143 95.2553C10.6845 91.8657 10.4683 88.6291 10.4683 85.8477C10.4683 80.2052 10.7717 73.6731 12.6894 67.9647M11.143 95.2553C12.9026 108.266 18.2301 123.532 28.5891 123.955C42.7127 124.531 74.0242 112.973 93.4778 105.512L98.1449 117.77L105.716 132.446L151.866 131.867C149.781 118.389 144.98 101.392 144.339 99.2005M15.7269 61.7922C14.751 64.8033 14.6477 67.2964 15.9164 69.6006M15.7269 61.7922C14.4204 63.659 13.4334 65.7498 12.6894 67.9647M12.6894 67.9647C12.4743 70.251 13.5042 71.7417 13.9379 72.1754M144.339 99.2005C143.437 96.1158 141.222 89.2459 139.579 86.4441" stroke="#515151"/>
<path fill-rule="evenodd" clip-rule="evenodd" d="M156.886 15.6635C156.889 15.6655 156.892 15.6675 156.895 15.6694L154.853 43.6243L157.424 71.7204C149.908 68.6545 144.101 67.3796 130.172 68.3571C118.232 69.195 98.4166 72.3051 83.9432 75.9798C67.2807 80.2494 46.1256 87.6177 38.7295 91.8869C37.9607 87.2425 35.8112 81.7331 35.8112 81.7331C35.7398 81.0211 38.4386 73.411 38.5392 68.6689C38.623 65.5893 37.6296 64.2205 36.2146 63.9156C35.5008 63.7618 34.6366 64.0333 34.1582 64.2721C33.5302 64.5937 33.3032 64.7492 32.7834 65.1113C31.4392 66.0896 30.3967 67.1284 28.8341 68.4514C27.6134 69.4848 26.636 70.1847 25.792 70.6207C24.2909 71.3961 23.3074 71.318 22.9033 71.2526C22.2719 71.1503 21.6892 70.7758 21.1886 69.666C21.1674 69.3713 21.1442 69.0718 21.1193 68.7801C20.6255 62.99 18.4213 48.6609 18.4214 33.8683C18.4214 26.1301 20.0343 23.8312 21.1193 22.2846C21.1622 22.2235 21.2044 22.1634 21.2455 22.1043C25.0978 16.5684 34.9239 15.3518 44.3664 15.1365C46.8631 15.0004 49.564 14.9482 52.4725 14.968L52.5842 15.1235L52.8205 15.1259L53.1466 15.1292C52.9787 15.1486 52.8069 15.1685 52.6313 15.189L70.9466 40.6766L67.3313 54.7626L77.5346 70.7448L74.6887 54.2499L84.6806 42.2632L81.1884 14.5595C81.1884 14.5595 89.9655 14.0685 100.655 12.7885C111.345 11.5086 119.134 10.882 130.077 10.9619C131.718 10.9738 133.489 11.0515 135.314 11.1843C144.953 11.8258 153.864 13.7374 156.769 15.587C156.812 15.6135 156.854 15.6401 156.895 15.6667C156.892 15.6656 156.889 15.6646 156.886 15.6635Z" fill="var(--semi-color-primary-light-default)"/>
<path d="M143.006 27.9122C143.257 27.1904 144.046 26.809 144.768 27.0602C145.27 27.2351 145.754 27.4709 146.211 27.7737C146.848 28.1957 147.023 29.0544 146.601 29.6916C146.179 30.3289 145.32 30.5033 144.683 30.0814C144.424 29.9102 144.15 29.7757 143.858 29.6741C143.136 29.4229 142.755 28.634 143.006 27.9122Z" fill="var(--semi-color-primary)"/>
<path d="M140.651 28.1246C140.861 28.8594 140.436 29.6254 139.701 29.8354C139.339 29.9389 138.968 30.0606 138.589 30.199C137.872 30.4614 137.077 30.0922 136.815 29.3743C136.552 28.6565 136.921 27.8619 137.639 27.5995C138.073 27.4408 138.508 27.2979 138.94 27.1742C139.675 26.9642 140.441 27.3897 140.651 28.1246Z" fill="var(--semi-color-primary)"/>
<path d="M134.738 30.4007C135.114 31.0662 134.879 31.9104 134.213 32.2862C133.856 32.4882 133.498 32.696 133.142 32.9079C132.485 33.2987 131.636 33.0832 131.245 32.4264C130.854 31.7696 131.07 30.9203 131.727 30.5294C132.099 30.308 132.474 30.0896 132.852 29.8761C133.518 29.5003 134.362 29.7352 134.738 30.4007Z" fill="var(--semi-color-primary)"/>
<path d="M97.857 31.4291H97.9477C98.176 31.4291 98.4008 31.4316 98.6222 31.4365C99.3863 31.4536 99.9919 32.0868 99.9748 32.8509C99.9578 33.615 99.3245 34.2206 98.5604 34.2036C98.3904 34.1998 98.2177 34.1976 98.0424 34.197C97.8692 34.2225 97.6757 34.2592 97.4693 34.3084C96.7259 34.4857 95.9795 34.0268 95.8022 33.2833C95.6249 32.5399 96.0838 31.7935 96.8272 31.6162C97.1575 31.5374 97.4748 31.4794 97.7671 31.4409L97.857 31.4291Z" fill="var(--semi-color-primary)"/>
<path d="M147.776 31.7463C148.508 31.5243 149.281 31.9371 149.503 32.6684C149.632 33.0955 149.748 33.546 149.849 34.0206C150.008 34.768 149.532 35.5032 148.784 35.6627C148.037 35.8222 147.302 35.3455 147.142 34.5981C147.056 34.1936 146.96 33.8191 146.854 33.4726C146.632 32.7413 147.045 31.9684 147.776 31.7463Z" fill="var(--semi-color-primary)"/>
<path d="M102.274 33.1257C102.459 32.3841 103.21 31.9328 103.951 32.1176C104.404 32.2304 104.838 32.3544 105.255 32.4874C105.983 32.7196 106.385 33.4982 106.153 34.2263C105.92 34.9545 105.142 35.3565 104.414 35.1242C104.052 35.0088 103.676 34.9012 103.282 34.8032C102.541 34.6183 102.089 33.8673 102.274 33.1257Z" fill="var(--semi-color-primary)"/>
<path d="M129.301 33.6799C129.722 34.3178 129.546 35.1762 128.908 35.5972L128.382 35.9446L128.382 35.9449C128.199 36.0656 128.018 36.1851 127.848 36.2977C127.21 36.7186 126.352 36.5428 125.931 35.9049C125.51 35.267 125.686 34.4086 126.323 33.9876L126.643 33.7768L126.853 33.6378L127.144 33.4455L127.383 33.2873C128.021 32.8663 128.88 33.0421 129.301 33.6799Z" fill="var(--semi-color-primary)"/>
<path d="M108.248 35.2158C108.615 34.5456 109.457 34.3002 110.127 34.6676C110.33 34.7791 110.544 34.8974 110.753 35.013C110.921 35.1063 111.086 35.1978 111.24 35.2823C111.91 35.6505 112.154 36.492 111.786 37.1617C111.418 37.8314 110.576 38.0758 109.907 37.7076C109.731 37.6109 109.565 37.5193 109.401 37.4282L109.399 37.4271L109.397 37.4259C109.201 37.3174 109.006 37.2095 108.796 37.0946C108.126 36.7271 107.881 35.886 108.248 35.2158Z" fill="var(--semi-color-primary)"/>
<path d="M92.8287 35.7734C93.5929 35.759 94.224 36.3668 94.2383 37.131C94.2414 37.293 94.2612 37.4739 94.3044 37.6755C94.4646 38.4228 93.9886 39.1585 93.2412 39.3186C92.4939 39.4788 91.7583 39.0027 91.5981 38.2554C91.52 37.8909 91.4777 37.5331 91.4711 37.183C91.4568 36.4188 92.0646 35.7877 92.8287 35.7734Z" fill="var(--semi-color-primary)"/>
<path d="M124.009 37.1963C124.314 37.8971 123.993 38.7124 123.292 39.0174C123.038 39.1278 122.78 39.2255 122.524 39.2975C122.301 39.3603 122.082 39.419 121.865 39.4735C121.124 39.6605 120.372 39.2113 120.185 38.4702C119.998 37.7292 120.447 36.9769 121.188 36.7899C121.379 36.7417 121.574 36.6896 121.774 36.6334C121.875 36.6048 122.012 36.5561 122.188 36.4795C122.889 36.1746 123.704 36.4955 124.009 37.1963Z" fill="var(--semi-color-primary)"/>
<path d="M113.893 38.1418C114.051 37.3941 114.786 36.9165 115.533 37.075C115.883 37.1493 116.247 37.2059 116.629 37.2416C117.39 37.3129 117.949 37.9876 117.878 38.7485C117.806 39.5095 117.132 40.0686 116.371 39.9973C115.881 39.9514 115.411 39.8784 114.959 39.7826C114.212 39.6241 113.734 38.8894 113.893 38.1418Z" fill="var(--semi-color-primary)"/>
<path d="M148.977 37.9502C149.741 37.9379 150.371 38.5474 150.383 39.3116C150.387 39.5359 150.388 39.7638 150.388 39.9953C150.388 40.2387 150.385 40.4832 150.379 40.7285C150.358 41.4925 149.722 42.0952 148.958 42.0747C148.194 42.0543 147.591 41.4183 147.612 40.6543C147.618 40.4334 147.621 40.2136 147.621 39.9953C147.621 39.7783 147.619 39.5653 147.616 39.3562C147.603 38.592 148.213 37.9625 148.977 37.9502Z" fill="var(--semi-color-primary)"/>
<path d="M148.6 44.8817C149.347 45.0441 149.82 45.7812 149.658 46.5281C149.555 47.0009 149.442 47.4734 149.318 47.9445C149.124 48.6838 148.368 49.126 147.629 48.9322C146.889 48.7383 146.447 47.9819 146.641 47.2426C146.755 46.8089 146.859 46.3743 146.953 45.9399C147.116 45.193 147.853 44.7193 148.6 44.8817Z" fill="var(--semi-color-primary)"/>
<path d="M146.688 51.5991C147.385 51.9125 147.696 52.7316 147.383 53.4287C147.183 53.8723 146.975 54.3114 146.757 54.7449C146.414 55.4278 145.582 55.7033 144.899 55.3602C144.216 55.0171 143.941 54.1853 144.284 53.5024C144.484 53.1048 144.675 52.7016 144.859 52.2938C145.172 51.5967 145.991 51.2857 146.688 51.5991Z" fill="var(--semi-color-primary)"/>
<path d="M41.6719 55.4542C41.74 56.2154 41.178 56.8877 40.4167 56.9557C39.9852 56.9942 39.565 57.055 39.1574 57.136C38.4078 57.2852 37.6792 56.7984 37.5301 56.0488C37.381 55.2992 37.8678 54.5706 38.6174 54.4215C39.1226 54.321 39.6408 54.2462 40.1704 54.1989C40.9317 54.1309 41.6039 54.6929 41.6719 55.4542Z" fill="var(--semi-color-primary)"/>
<path d="M44.5848 55.7846C44.8011 55.0516 45.5706 54.6326 46.3037 54.8489C46.5471 54.9208 46.7914 54.9983 47.0364 55.0816C47.76 55.3276 48.1472 56.1136 47.9012 56.8372C47.6551 57.5608 46.8691 57.948 46.1455 57.702C45.9359 57.6307 45.7275 57.5646 45.5205 57.5035C44.7874 57.2872 44.3685 56.5177 44.5848 55.7846Z" fill="var(--semi-color-primary)"/>
<path d="M91.9044 56.8937C91.9543 57.6563 91.3766 58.3151 90.6139 58.3651C90.1657 58.3944 89.7249 58.4338 89.292 58.4836C88.5327 58.5708 87.8465 58.0259 87.7593 57.2666C87.6721 56.5073 88.2169 55.8211 88.9762 55.7339C89.4559 55.6788 89.9417 55.6354 90.433 55.6033C91.1956 55.5533 91.8544 56.131 91.9044 56.8937Z" fill="var(--semi-color-primary)"/>
<path d="M94.7218 56.9508C94.7869 56.1893 95.4569 55.6247 96.2185 55.6898C96.6917 55.7302 97.1683 55.7781 97.6481 55.8332C98.4074 55.9204 98.9523 56.6066 98.8651 57.3659C98.7779 58.1252 98.0917 58.6701 97.3324 58.5829C96.8782 58.5308 96.4283 58.4855 95.9828 58.4475C95.2213 58.3824 94.6567 57.7123 94.7218 56.9508Z" fill="var(--semi-color-primary)"/>
<path d="M101.642 57.8321C101.8 57.0843 102.534 56.6058 103.282 56.7634C103.743 56.8606 104.206 56.9628 104.67 57.0699C105.415 57.2417 105.88 57.9846 105.708 58.7294C105.536 59.4741 104.793 59.9386 104.049 59.7669C103.6 59.6636 103.155 59.5651 102.711 59.4716C101.963 59.314 101.485 58.58 101.642 57.8321Z" fill="var(--semi-color-primary)"/>
<path d="M34.8456 57.2575C35.3267 57.8513 35.2354 58.7227 34.6416 59.2039C34.3175 59.4666 34.0176 59.7463 33.7434 60.0401C33.222 60.5989 32.3463 60.6292 31.7875 60.1078C31.2287 59.5864 31.1984 58.7107 31.7198 58.1519C32.0831 57.7625 32.4772 57.3954 32.8991 57.0535C33.4929 56.5724 34.3644 56.6637 34.8456 57.2575Z" fill="var(--semi-color-primary)"/>
<path d="M85.0066 57.8992C85.2859 58.6107 84.9356 59.4138 84.2241 59.6931C84.0241 59.7716 83.827 59.8536 83.6327 59.9391C83.404 60.0397 83.1784 60.1404 82.9558 60.2411C82.2595 60.5562 81.4396 60.2472 81.1245 59.5509C80.8094 58.8546 81.1184 58.0347 81.8147 57.7196C82.0461 57.6149 82.2805 57.5102 82.518 57.4058C82.747 57.305 82.9786 57.2087 83.2128 57.1168C83.9242 56.8375 84.7273 57.1878 85.0066 57.8992Z" fill="var(--semi-color-primary)"/>
<path d="M143.409 57.764C144.014 58.2313 144.125 59.1003 143.658 59.7052C143.356 60.0961 143.044 60.4773 142.724 60.8475C142.224 61.4253 141.35 61.4882 140.772 60.9879C140.194 60.4876 140.131 59.6137 140.631 59.0359C140.917 58.7057 141.196 58.3645 141.468 58.0131C141.935 57.4083 142.804 57.2968 143.409 57.764Z" fill="var(--semi-color-primary)"/>
<path d="M108.429 59.4567C108.647 58.7243 109.418 58.3078 110.151 58.5263C110.601 58.6606 111.052 58.7985 111.503 58.9398C112.233 59.1681 112.639 59.9445 112.411 60.6739C112.182 61.4033 111.406 61.8095 110.677 61.5812C110.236 61.4435 109.797 61.3092 109.359 61.1785C108.627 60.9599 108.21 60.1891 108.429 59.4567Z" fill="var(--semi-color-primary)"/>
<path d="M115.076 61.5813C115.338 60.8632 116.132 60.4933 116.85 60.755C117.291 60.9156 117.732 61.0788 118.172 61.2443C118.887 61.5132 119.249 62.3112 118.98 63.0266C118.712 63.742 117.914 64.104 117.198 63.8351C116.766 63.6728 116.334 63.5128 115.902 63.3554C115.184 63.0937 114.814 62.2994 115.076 61.5813Z" fill="var(--semi-color-primary)"/>
<path d="M138.67 62.8889C139.091 63.5267 138.916 64.3851 138.278 64.8063C137.856 65.085 137.424 65.3459 136.982 65.5872C136.311 65.9535 135.471 65.7068 135.104 65.036C134.738 64.3653 134.985 63.5245 135.655 63.1582C136.027 62.9551 136.393 62.7344 136.753 62.4967C137.391 62.0756 138.249 62.2511 138.67 62.8889Z" fill="var(--semi-color-primary)"/>
<path d="M30.5071 62.7812C31.2682 62.8508 31.8288 63.5242 31.7592 64.2854C31.7415 64.4788 31.7326 64.6735 31.7326 64.8694C31.7326 65.124 31.7358 65.3756 31.7426 65.6239L30.1312 67.0268C29.4906 66.9205 28.9942 66.3726 28.9759 65.6992C28.9684 65.4243 28.9648 65.1476 28.9648 64.8694C28.9648 64.5889 28.9777 64.3101 29.003 64.0334C29.0726 63.2723 29.746 62.7117 30.5071 62.7812Z" fill="var(--semi-color-primary)"/>
<path d="M121.597 64.067C121.891 63.3615 122.702 63.0281 123.407 63.3223C123.624 63.4125 123.84 63.5032 124.056 63.5942C124.259 63.6802 124.462 63.761 124.663 63.8368C125.378 64.1063 125.74 64.9046 125.47 65.6198C125.201 66.335 124.403 66.6963 123.687 66.4268C123.452 66.3382 123.216 66.2441 122.98 66.1445C122.768 66.0549 122.555 65.9656 122.342 65.8768C121.636 65.5827 121.303 64.7724 121.597 64.067Z" fill="var(--semi-color-primary)"/>
<path d="M72.112 64.9423C72.5949 65.5347 72.506 66.4064 71.9136 66.8893C71.5343 67.1984 71.1718 67.5055 70.8241 67.8101C70.2493 68.3138 69.375 68.2561 68.8713 67.6812C68.3676 67.1064 68.4253 66.232 69.0002 65.7284C69.3717 65.4028 69.7593 65.0745 70.165 64.7439C70.7574 64.261 71.6291 64.3498 72.112 64.9423Z" fill="var(--semi-color-primary)"/>
<path d="M132.406 65.9189C132.49 66.6786 131.942 67.3625 131.183 67.4465C130.677 67.5024 130.165 67.5328 129.647 67.5365C128.882 67.542 128.258 66.9269 128.253 66.1626C128.247 65.3983 128.863 64.7743 129.627 64.7689C130.05 64.7659 130.467 64.741 130.878 64.6956C131.638 64.6116 132.322 65.1593 132.406 65.9189Z" fill="var(--semi-color-primary)"/>
<path d="M66.6635 69.904C67.2268 70.4205 67.2648 71.2959 66.7483 71.8593C66.5005 72.1296 66.2595 72.3947 66.0206 72.6576L66.0159 72.6627L66.0147 72.6641L66.0136 72.6653L66.0026 72.6774L65.8396 72.8567L65.7555 72.9491C65.2412 73.5144 64.3659 73.5557 63.8006 73.0414C63.2353 72.527 63.194 71.6518 63.7084 71.0865L63.9623 70.8072C64.2046 70.5406 64.4537 70.2665 64.7082 69.9889C65.2247 69.4255 66.1001 69.3875 66.6635 69.904Z" fill="var(--semi-color-primary)"/>
<path d="M61.5962 75.2774C62.0467 75.8947 61.9115 76.7604 61.2942 77.211C60.8648 77.5243 60.4152 77.8207 59.9388 78.0977C59.2781 78.4819 58.4311 78.2577 58.0469 77.597C57.6627 76.9363 57.8869 76.0893 58.5476 75.7051C58.9359 75.4793 59.3055 75.2359 59.6625 74.9753C60.2799 74.5248 61.1456 74.66 61.5962 75.2774Z" fill="var(--semi-color-primary)"/>
<path d="M37.6691 75.9711C38.0867 76.1594 38.5348 76.3353 39.0157 76.4973C39.7399 76.7414 40.1292 77.5264 39.8852 78.2507C39.6411 78.9749 38.8561 79.3642 38.1318 79.1201C37.5698 78.9307 37.0365 78.722 36.5311 78.494C36.5767 78.336 37.0282 76.6697 37.2482 75.8562C37.3901 75.8715 37.532 75.9092 37.6691 75.9711Z" fill="var(--semi-color-primary)"/>
<path d="M55.0501 78.5671C55.1708 79.3217 54.6569 80.0314 53.9022 80.1521C53.4091 80.231 52.8957 80.2973 52.3599 80.3508C51.5994 80.4269 50.9213 79.872 50.8453 79.1115C50.7692 78.351 51.3241 77.6728 52.0846 77.5968C52.5696 77.5484 53.0289 77.4889 53.465 77.4191C54.2197 77.2984 54.9294 77.8124 55.0501 78.5671Z" fill="var(--semi-color-primary)"/>
<path d="M43.4007 78.8699C43.461 78.108 44.1276 77.5392 44.8895 77.5995C45.1407 77.6194 45.3966 77.6371 45.6572 77.6525C45.9083 77.6673 46.1551 77.6804 46.3977 77.6918C47.1612 77.7276 47.7511 78.3755 47.7153 79.1389C47.6795 79.9024 47.0316 80.4923 46.2681 80.4565C46.014 80.4446 45.756 80.4309 45.4941 80.4154C45.2155 80.399 44.9411 80.38 44.671 80.3586C43.9091 80.2983 43.3404 79.6318 43.4007 78.8699Z" fill="var(--semi-color-primary)"/>
<g clip-path="url(#clip_failure_96_39_65)">
<path fill-rule="evenodd" clip-rule="evenodd" d="M30.9046 46.8694C28.931 39.7229 33.1313 32.3059 40.2689 30.3361C47.4064 28.3663 54.8184 32.5787 56.792 39.7252C59.4326 49.2872 52.0251 69.0037 51.6492 69.6235C51.546 69.792 51.3871 69.9063 51.2102 69.9551C51.0332 70.0039 50.8382 69.9874 50.6632 69.8956C50.0223 69.5564 33.5453 56.4314 30.9046 46.8694ZM45.2598 48.4085C42.0245 49.3014 38.664 47.3918 37.7693 44.1521C36.8746 40.9124 38.7792 37.5498 42.0145 36.657C45.2497 35.7641 48.6103 37.6737 49.5049 40.9134C50.3996 44.153 48.4951 47.5156 45.2598 48.4085Z" fill="var(--semi-color-primary)"/>
</g>
<path d="M102.315 100.69C99.5168 102.244 96.6807 103.536 92.95 105.268L94.4346 109.189C96.5664 108.23 100.589 103.162 102.315 100.69Z" fill="#515151"/>
<path fill-rule="evenodd" clip-rule="evenodd" d="M120.997 63.0355C129.853 65.1334 133.432 56.5347 134.117 54.2696C134.801 52.0046 128.52 42.4111 126.122 43.0773C125.998 43.1118 125.855 43.15 125.696 43.1922C125.623 43.2113 125.548 43.2313 125.469 43.2521C122.367 44.0697 114.322 46.1902 113.124 51.2465C111.829 56.7149 115.529 61.7401 120.997 63.0355Z" fill="#515151"/>
<path d="M134.495 64.7278C134.066 65.1983 133.296 65.4738 132.167 65.4638C131.049 65.4538 129.661 65.1623 128.113 64.6012C125.022 63.4801 121.389 61.3167 118.175 58.3818C114.923 55.4115 112.198 52.5784 110.582 49.9647C108.965 47.3479 108.529 45.0754 109.601 43.1181C110.147 42.1205 110.88 41.5279 111.71 41.2605C112.548 40.9907 113.536 41.0361 114.61 41.4134C116.767 42.1712 119.176 44.2404 121.092 47.4254C124.482 53.0618 127.976 55.6587 130.796 57.7552C131.276 58.112 131.737 58.4544 132.174 58.7948C133.623 59.9233 134.451 61.1778 134.783 62.2687C135.12 63.372 134.939 64.2425 134.495 64.7278Z" fill="white" stroke="#515151"/>
<mask id="mask_failure_130_526" mask-type="alpha" maskUnits="userSpaceOnUse" x="98" y="44" width="36" height="27">
<path d="M130.526 62.1048C130.034 58.8 121.013 47.3537 114.448 47.0738L101.772 51.595L108.238 65.7517L125.493 68.8189C127.335 67.6825 130.92 64.7486 130.526 62.1048Z" fill="#C4C4C4"/>
</mask>
<g mask="url(#mask_failure_130_526)">
<path d="M127.206 63.618C123.49 67.5606 117.328 67.774 113.443 64.1127C109.559 60.4514 109.408 54.2878 113.124 50.3452C116.84 46.4026 123.002 46.1893 126.886 49.8505C130.771 53.5118 130.922 59.6755 127.206 63.618Z" fill="white" stroke="#515151"/>
<path fill-rule="evenodd" clip-rule="evenodd" d="M116.79 47.3522L116.774 47.7167C119.629 48.2231 125.342 50.3075 125.347 54.5935C125.353 59.951 117.907 63.9259 110.882 58.0533C110.54 57.7676 110.224 57.5214 109.933 57.3117C109.986 59.9427 111.047 62.5407 113.1 64.4764C117.19 68.331 123.668 68.1002 127.57 63.9608C131.471 59.8215 131.319 53.3411 127.229 49.4865C124.355 46.7773 120.301 46.0863 116.79 47.3522Z" fill="#515151"/>
<path d="M119.341 55.001C119.649 54.6958 119.652 54.1984 119.347 53.89C119.042 53.5816 118.544 53.5789 118.236 53.8841C117.928 54.1892 117.925 54.6865 118.23 54.995C118.535 55.3034 119.032 55.3061 119.341 55.001Z" fill="#515151"/>
<path fill-rule="evenodd" clip-rule="evenodd" d="M119.983 50.7174C120.194 50.6309 120.435 50.7319 120.522 50.9431C121.053 52.239 121.978 53.2559 122.356 53.5862C122.528 53.7364 122.546 53.9974 122.396 54.1693C122.246 54.3411 121.984 54.3587 121.813 54.2085C121.361 53.8137 120.347 52.6964 119.757 51.2565C119.67 51.0453 119.771 50.804 119.983 50.7174Z" fill="#515151"/>
<path d="M114.854 52.4077C115.162 52.1026 115.165 51.6052 114.86 51.2968C114.555 50.9883 114.058 50.9857 113.749 51.2908C113.441 51.5959 113.438 52.0933 113.743 52.4017C114.048 52.7101 114.546 52.7128 114.854 52.4077Z" fill="#515151"/>
<mask id="path-18-inside-1" fill="white">
<ellipse rx="2.97818" ry="2.97818" transform="matrix(0.727696 0.6859 -0.685903 0.727693 128.435 60.0508)"/>
</mask>
<ellipse rx="2.97818" ry="2.97818" transform="matrix(0.727696 0.6859 -0.685903 0.727693 128.435 60.0508)" fill="white"/>
<path d="M128.419 60.0358C128.417 60.0376 128.417 60.0369 128.42 60.0352C128.422 60.0336 128.425 60.0321 128.427 60.031C128.43 60.0299 128.431 60.0294 128.432 60.0292C128.433 60.029 128.434 60.029 128.434 60.029C128.434 60.0289 128.434 60.0289 128.435 60.0291C128.436 60.0292 128.438 60.0296 128.441 60.0306C128.443 60.0315 128.446 60.0329 128.448 60.0343C128.451 60.0359 128.451 60.0366 128.449 60.0349L124.334 64.401C126.737 66.6656 130.52 66.5538 132.785 64.1512L128.419 60.0358ZM128.449 60.0349C128.448 60.0332 128.448 60.0336 128.45 60.036C128.452 60.0383 128.453 60.0409 128.454 60.0435C128.455 60.0459 128.456 60.0477 128.456 60.0487C128.456 60.0496 128.456 60.05 128.456 60.0501C128.456 60.0502 128.456 60.0506 128.456 60.0515C128.456 60.0525 128.456 60.0544 128.455 60.0569C128.454 60.0595 128.452 60.0622 128.451 60.0646C128.449 60.0671 128.449 60.0675 128.45 60.0657L124.084 55.9503C121.82 58.3529 121.931 62.1364 124.334 64.401L128.449 60.0349ZM128.45 60.0657C128.452 60.064 128.452 60.0646 128.449 60.0663C128.447 60.0679 128.444 60.0694 128.442 60.0706C128.439 60.0716 128.438 60.0721 128.437 60.0723C128.436 60.0726 128.435 60.0726 128.435 60.0726C128.435 60.0726 128.435 60.0726 128.434 60.0724C128.433 60.0723 128.431 60.0719 128.428 60.0709C128.426 60.07 128.423 60.0686 128.421 60.0672C128.418 60.0656 128.418 60.065 128.42 60.0666L132.535 55.7005C130.132 53.4359 126.349 53.5477 124.084 55.9503L128.45 60.0657ZM128.42 60.0666C128.421 60.0683 128.421 60.0679 128.419 60.0655C128.417 60.0632 128.416 60.0606 128.415 60.058C128.414 60.0556 128.413 60.0538 128.413 60.0528C128.413 60.0519 128.413 60.0515 128.413 60.0514C128.413 60.0513 128.413 60.0509 128.413 60.05C128.413 60.049 128.413 60.0472 128.414 60.0447C128.415 60.042 128.417 60.0393 128.418 60.037C128.42 60.0344 128.42 60.034 128.419 60.0358L132.785 64.1512C135.049 61.7486 134.938 57.9651 132.535 55.7005L128.42 60.0666Z" fill="#515151" mask="url(#path-18-inside-1)"/>
</g>
<path d="M145.633 40.1874C147.002 37.4426 158.385 42.5434 161.769 46.9709C165.153 51.3984 163.252 57.7137 159.877 56.6476C153.182 54.5328 152.308 49.9442 151.926 47.1724C150.728 45.3202 144.263 42.9321 145.633 40.1874Z" fill="white" stroke="#515151"/>
<path d="M158.953 41.5601L165.585 44.0819L167.246 56.5472L158.953 58.5334L155.478 46.5025L158.953 41.5601Z" fill="white"/>
<path d="M167.294 151.936C172.49 153.599 190.654 187.511 186.347 187.511C172.49 187.511 151.857 188.044 114.93 188.044C99.2995 188.044 97.0306 182.885 103.144 165.959C105.182 160.317 107.367 154.779 109.281 150.198L141.777 151.462C141.352 152.994 140.87 154.528 140.405 155.866C143.074 154.942 146.051 154.393 149.128 154.393C154.397 154.393 156.169 155.783 160.898 154.393C163.03 153.766 165.695 151.424 167.294 151.936Z" fill="white" class=""></path>
<path d="M140.405 155.866C140.87 154.528 141.352 152.994 141.777 151.462L109.281 150.198C107.367 154.779 105.182 160.317 103.144 165.959C97.0306 182.885 99.2995 188.044 114.93 188.044C151.857 188.044 172.49 187.511 186.347 187.511C190.654 187.511 172.49 153.599 167.294 151.936C165.695 151.424 163.03 153.766 160.898 154.393C156.169 155.783 154.397 154.393 149.128 154.393C146.051 154.393 143.074 154.942 140.405 155.866ZM140.405 155.866C139.621 158.251 138.523 160.879 135.957 164.246C134.264 166.467 131.971 168.678 130.53 168.578C129.089 168.477 129.114 165.396 130.53 162.924C132.503 159.477 136.984 157.05 140.405 155.866Z" stroke="#1C1F23" class=""></path>
<path d="M149.247 131.699C149.247 131.699 152.61 151.162 136.915 152.735C125.377 153.892 96.1395 148.188 83.1547 144.95C87.8724 157.773 92.7606 184.812 90.1473 187.111C86.8156 190.043 42.5977 188.866 34.1851 187.111C25.7725 185.357 48.0093 175.653 49.6412 172.455C52.6261 166.606 44.1627 151.274 43.8913 127C43.62 102.726 62.0732 102.141 78.3554 105.358C91.3813 107.932 119.993 123.688 130.919 132.216L149.247 131.699Z" fill="white" stroke="#515151"/>
<path d="M141.496 153.874C138.387 156.417 113.777 158.871 105.916 157.405L108.67 150.592C128.896 153.45 136.755 153.937 142.127 151.757L141.496 153.874Z" fill="#515151" class="__web-inspector-hide-shortcut__"></path>
<path d="M141.495 153.874C138.387 156.417 113.777 158.871 105.916 157.405L108.67 150.592C128.895 153.45 136.755 153.937 142.127 151.757L141.495 153.874Z" fill="#515151"/>
<path d="M126.022 142.703C122.926 139.711 121.03 135.194 121.857 130.35" stroke="#515151"/>
<path fill-rule="evenodd" clip-rule="evenodd" d="M130.605 95.6457C121.569 84.6672 111.631 75.9144 105.098 71.0908L106.734 68.8745C113.435 73.822 123.541 82.7285 132.732 93.895C141.911 105.049 150.267 118.564 153.317 132.725L150.624 133.306C147.705 119.753 139.651 106.637 130.605 95.6457Z" fill="#515151"/>
<path d="M149.119 107.086L132.765 120.281L155.034 138.09L163.895 118.902C163.761 114.974 161.565 113.562 158.068 114.242L154.946 111.746C155.034 108.232 152.771 106.101 149.119 107.086Z" fill="#E6E8EA"/>
<path d="M148.24 128.619L157.693 114.284L154.779 111.954L143.843 125.021L148.24 128.619Z" stroke="#515151"/>
<path fill-rule="evenodd" clip-rule="evenodd" d="M143.67 127.978C141.28 130.967 136.92 131.452 133.932 129.062C130.943 126.672 130.458 122.312 132.848 119.324C135.238 116.335 139.598 115.85 142.586 118.24C145.575 120.63 146.06 124.99 143.67 127.978ZM155.949 137.798C153.559 140.786 149.199 141.272 146.211 138.882C143.222 136.492 142.737 132.132 145.127 129.143C147.517 126.155 151.877 125.67 154.865 128.06C157.854 130.449 158.339 134.809 155.949 137.798Z" fill="#515151"/>
<path fill-rule="evenodd" clip-rule="evenodd" d="M133.433 123.46L142.64 121.651L142.958 123.273L133.752 125.082L133.433 123.46Z" fill="white"/>
<path fill-rule="evenodd" clip-rule="evenodd" d="M145.504 133.113L154.711 131.304L155.029 132.926L145.823 134.735L145.504 133.113Z" fill="white"/>
<defs>
<clipPath id="clip_failure_96_39_65">
<rect width="44.4004" height="44.4627" transform="matrix(0.963965 -0.266028 0.266198 0.963918 18.4214 34.6221)" fill="white"/>
</clipPath>
</defs>
</svg>
