<svg width="200" height="200" viewBox="0 0 200 200" fill="none" xmlns="http://www.w3.org/2000/svg">
<path fill-rule="evenodd" clip-rule="evenodd" d="M93.6219 21.1536C86.081 21.1536 78.9257 22.8041 72.4973 25.7635C66.1796 21.0262 58.3307 18.2197 49.8264 18.2197C28.9355 18.2197 12 35.1552 12 56.0462C12 62.5685 13.6508 68.7054 16.5573 74.0616C8.22286 81.7264 3 92.7223 3 104.938C3 128.1 21.7763 146.876 44.938 146.876C44.9815 146.876 45.025 146.876 45.0685 146.876L45.1298 146.876C53.7697 174.196 79.3221 194 109.5 194C129.464 194 147.404 185.333 159.762 171.556C160.233 171.574 160.706 171.583 161.182 171.583C181.164 171.583 197.364 155.384 197.364 135.402C197.364 121.244 189.232 108.985 177.385 103.042C179.822 98.3438 181.198 93.0077 181.198 87.3499C181.198 68.5026 165.92 53.2239 147.072 53.2239C144.971 53.2239 142.913 53.4139 140.917 53.7776C133.676 34.7074 115.232 21.1536 93.6219 21.1536Z" fill="var(--semi-color-primary)" fill-opacity="0.2"/>
<path d="M32 33.7198C35.2 25.7198 39.8333 21.5531 42.5 19.7198C43.8169 18.7198 56.5 8.2198 83.5 6.21977C110.929 4.18794 115 16.7198 116 24.2198C117 31.7198 105.5 45.7198 102 47.7198C105.5 50.7198 125 71.7198 130 78.2198C135 84.7198 167.5 107.22 168 111.72C171 109.72 172 110.72 173 113.72C173.5 110.72 177.5 110.22 178 113.72C183 108.22 183 111.72 184 113.72C187 110.22 190.5 115.72 187 120.72C183.5 125.72 184 132.22 184 135.72C184 136.876 183.891 139.122 183.475 141.649C181.405 140.21 175.696 139.522 173 145.482C168.912 143.626 165.394 145.217 163 149.72C162 149.053 159.3 146.62 156.5 142.22C153 136.72 139.5 119.22 127 107.22C114.5 95.2198 107.5 91.2198 110 97.7198C112.5 104.22 135 131.72 137 134.22C139 133.02 140.167 134.72 140.5 135.72C141 133.386 142.8 129.32 146 131.72C149.2 134.12 147 138.72 145.5 140.72C145.333 143.553 145.1 149.72 145.5 151.72C145.658 152.509 146.164 153.746 146.642 155.196C146.278 155.763 146 156.324 145.5 158.092C143.777 157.488 140.197 157.445 136.618 159.472C135.583 156.497 132.765 153.885 128.123 153.65C123.466 153.65 120.921 156.324 119.326 159.127C118.636 157.488 116.221 156.108 114.668 155.763C117.256 146.966 113.179 142.272 111.822 140.843C111.028 140.006 106.346 135.72 101.041 135.72C96.9136 129.88 91.5207 122.542 88.5 119.22C84.5 114.82 74.5 97.3864 70 89.2198C69.5 89.8864 68.4 91.7198 68 93.7198C67.8017 94.7114 66.9739 97.1192 64.9551 99.6324C61.8845 103.455 48.4726 97.4973 37.9143 97.1956C27.6662 96.9028 29.9369 94.5157 24.4536 96.5308C21.5162 92.0506 19.8288 86.4357 19 80.2198C17 65.2198 31 53.2198 34 50.2198C33.6 48.2198 33.8333 45.0531 34 43.7198C33.3333 45.0531 31.8 47.7198 31 47.7198C30 47.7198 28 43.7198 32 33.7198Z" fill="#C6CACD"/>
<path d="M46.6248 70.3492C36.8007 59.4335 27.6739 60.0399 24.3386 61.7076C27.0675 54.8853 45.2603 41.2407 51.6278 39.4214C56.7466 37.9589 65.2725 35.328 68.0014 32.1442C70.7303 28.9605 79.8268 23.0478 87.5587 19.864C97.5648 17.1351 106.206 20.3189 114.393 30.7798C109.845 42.6051 104.387 45.7889 102.113 48.063C104.842 49.4274 113.938 58.5238 123.035 70.3492C91.6521 66.2558 75.7334 102.187 74.8237 99.003C73.9141 95.8192 69.8207 91.271 69.8207 88.9969C69.8207 86.7228 73.0044 83.0842 77.5527 77.6263C82.1009 72.1685 89.378 70.3492 91.6521 69.4396C93.9262 68.5299 95.7455 68.0751 96.2003 66.2558C96.5642 64.8004 94.6843 64.1333 93.4714 63.9817C94.5326 63.8301 96.6551 62.9811 96.6551 60.798C96.6551 58.6692 94.2046 59.2505 93.0986 59.4213C93.0675 59.4294 93.0399 59.4335 93.0166 59.4335C93.043 59.4297 93.0704 59.4256 93.0986 59.4213C93.675 59.2713 95.4908 57.7598 94.8359 55.7949C94.381 54.4305 92.4101 54.2789 91.1973 54.4305C91.9553 54.1273 92.9256 52.5202 92.5618 50.3371C92.1979 48.1539 88.62 47.7597 86.6491 48.063C88.3168 47.0017 90.3786 44.6063 87.1039 43.5148C83.0105 42.1503 72.0094 45.9344 62.0887 53.5208C54.3568 59.4335 50.8698 65.4978 50.2634 68.5299C49.6569 68.0751 48.0802 67.8022 46.6248 70.3492Z" fill="#888D92"/>
<path d="M113 15.2197H53.5L46 17.7197L42 20.7197L71.5 26.2197L88 19.7197C88 19.7197 97.5 17.2197 105 22.2197C112.5 27.2197 114.5 30.7197 114.5 30.7197L116 24.7197L113 15.2197Z" fill="#C6CACD"/>
<path d="M77.3936 24.8497C73.242 27.1769 68.98 30.2362 66.4641 34.0864C62.4821 34.7223 57.1261 36.4703 51.4079 39.2442C48.5311 44.6436 47.6441 51.1229 46.0677 50.4936C45.3737 50.2166 45.2141 48.695 45.2889 46.9557C44.2512 51.5543 42.7403 55.2107 41.7417 52.2207C41.2327 50.6968 41.5887 47.5128 42.1051 44.5437C42.049 44.5807 41.9928 44.6179 41.9367 44.6552C40.9605 50.8172 40.2314 57.7366 38.2809 52.2207C37.7962 50.8501 37.6283 49.2989 37.6588 47.7103C37.2926 47.9914 36.9283 48.2765 36.566 48.5656C35.9537 51.426 35.3375 52.959 34.3874 50.4936C34.3761 50.4643 34.365 50.4347 34.354 50.4049C30.3972 53.8346 26.7776 57.7611 23.8837 62.1514C13.0686 78.5586 21.8419 99.9136 34.3874 105.095C46.9329 110.276 64.2371 106.624 68.1305 93.6705C68.4443 92.6267 68.7889 91.6193 69.1607 90.6481C69.3677 90.1072 69.5831 89.5775 69.8063 89.0591C74.1543 78.9571 81.4359 73.1065 86.7325 71.2185C92.7889 69.0597 98.8454 66.9008 94.952 64.742C94.3806 64.4252 93.7348 64.2571 93.0445 64.2038C91.8033 64.7968 90.2666 65.4997 88.4629 66.4691C82.839 69.4914 81.1086 69.0597 82.4065 68.1961C83.5138 67.4593 89.0306 63.8934 93.0445 64.2038C95.6732 62.9477 96.9762 62.184 96.6824 60.4243C96.5207 59.4562 95.03 59.091 93.0455 59.1486C91.3546 60.3796 88.9035 61.4078 87.1651 62.1514C84.1369 63.4467 79.3782 64.742 82.8391 62.1514C85.0066 60.5288 89.7195 59.2451 93.0455 59.1486C94.3002 58.2352 95.1362 57.2101 94.952 56.1066C94.7373 54.821 93.3507 54.067 91.3737 53.8975C89.4251 55.9304 85.8054 57.6486 82.4065 58.2654C77.6478 59.129 78.9456 57.4019 84.1369 55.2431C86.7519 54.1556 89.367 53.7254 91.3737 53.8975C92.1532 53.0843 92.6653 52.2207 92.7889 51.3571C93.1124 49.0976 90.7761 47.8033 86.5033 48.196C84.3999 50.1138 81.1759 52.0949 78.9456 53.0842C75.0522 54.8113 74.187 51.3571 81.5412 49.1983C83.3975 48.6534 85.0608 48.3286 86.5033 48.196C88.0719 46.7659 89.0173 45.371 88.4629 44.4488C87.1651 42.29 83.3356 42.9201 75.5488 45.9425C68.3439 48.739 55.9542 55.062 50.3729 67.9619C49.9221 69.004 49.5156 70.089 49.1599 71.2185C44.4013 86.3304 40.0113 81.581 41.7417 76.3997C42.9654 72.7358 46.3524 69.7196 50.3729 67.9619C55.9542 55.062 68.3439 48.739 75.5488 45.9425C83.3356 42.9201 87.1651 42.29 88.4629 44.4488C89.0173 45.371 88.0719 46.7659 86.5033 48.196C90.7761 47.8033 93.1124 49.0976 92.7889 51.3571C92.6653 52.2207 92.1532 53.0843 91.3737 53.8975C93.3507 54.067 94.7373 54.821 94.952 56.1066C95.1362 57.2101 94.3002 58.2352 93.0455 59.1486C95.03 59.091 96.5207 59.4562 96.6824 60.4243C96.9762 62.184 95.6732 62.9477 93.0445 64.2038C93.7348 64.2571 94.3806 64.4252 94.952 64.742C98.8454 66.9008 92.7889 69.0597 86.7325 71.2185C81.4359 73.1065 74.1543 78.9571 69.8063 89.0591C69.5831 89.5775 69.3677 90.1072 69.1607 90.6481C68.7889 91.6193 68.4443 92.6267 68.1305 93.6705C64.2371 106.624 46.9329 110.276 34.3874 105.095C21.8419 99.9136 13.0686 78.5586 23.8837 62.1514C26.7776 57.7611 30.3972 53.8346 34.354 50.4049C35.0808 49.775 35.8189 49.1618 36.566 48.5656C37.3478 44.9137 38.1231 39.0982 39.5787 36.677C41.6896 33.1655 37.7919 40.7916 37.6588 47.7103C39.063 46.6325 40.4941 45.6137 41.9367 44.6552C42.2596 42.6174 42.6095 40.6625 43.0395 39.2676C44.0913 35.8558 42.9055 39.9417 42.1051 44.5437C43.3654 43.7109 44.6341 42.9241 45.9007 42.1842C46.147 41.0016 46.3337 40.6081 46.1599 42.0335C47.9237 41.0119 49.6823 40.0813 51.4079 39.2442C52.4786 37.2346 53.8249 35.3746 55.585 34.0864C60.6449 30.383 68.598 26.417 77.3936 24.8497Z" fill="#C6CACD"/>
<path d="M140.808 138.575C140.781 138.059 140.778 137.573 140.796 137.115C140.444 135.103 138.944 132.569 136.915 134.257C136.248 134.811 135.81 135.564 135.534 136.385C135.787 136.785 135.97 137.233 136.049 137.711C136.482 140.302 136.049 142.46 135.617 142.029C135.295 141.708 134.735 138.763 135.534 136.385C134.414 134.616 131.917 133.791 130.858 135.552C130.45 136.23 130.171 137.164 130.019 138.18C130.295 138.384 130.577 138.655 130.858 139.006C132.589 141.165 132.156 145.915 130.858 144.188C129.968 143.003 129.688 140.397 130.019 138.18C128.599 137.128 127.327 137.851 126.965 138.575C126.721 139.06 126.067 140.365 125.927 142.029C128.007 144.142 128.604 148.964 126.965 146.346C126.018 144.835 125.817 143.324 125.927 142.029C126.067 140.365 126.721 139.06 126.965 138.575C127.327 137.851 128.599 137.128 130.019 138.18C130.171 137.164 130.45 136.23 130.858 135.552C131.917 133.791 134.414 134.616 135.534 136.385C135.81 135.564 136.248 134.811 136.915 134.257C138.944 132.569 140.444 135.103 140.796 137.115C140.894 137.677 140.902 138.198 140.808 138.575Z" fill="#C6CACD"/>
<path fill-rule="evenodd" clip-rule="evenodd" d="M104.498 8.63577C112.589 11.9865 116.65 17.8634 116.65 24.1557C116.65 29.1388 114.278 34.2051 111.372 38.4801C108.601 42.5553 105.306 45.9684 102.978 47.9863C109.147 53.6578 115.524 60.1416 120.011 66.1705C125.596 73.6737 135.178 82.2747 144.645 90.2661C147.455 92.6376 150.256 94.9565 152.936 97.1753C159.258 102.409 164.908 107.087 168.415 110.587L167.709 111.295C164.236 107.829 158.647 103.202 152.347 97.9862C149.658 95.7599 146.839 93.4264 144 91.0302C134.541 83.0461 124.872 74.3764 119.209 66.7676C110.255 54.7371 93.6325 40.8113 86.4303 35.3483L87.0347 34.5515C90.5266 37.2003 96.2418 41.8432 102.236 47.3064C104.508 45.3506 107.793 41.9662 110.545 37.9178C113.407 33.7086 115.65 28.8442 115.65 24.1557C115.65 18.3584 111.924 12.7934 104.116 9.55966C96.2957 6.32087 84.4052 5.44282 68.2409 9.09965C52.1003 12.7511 43.0132 18.9653 37.7987 25.1787C32.5828 31.3939 31.1973 37.6597 30.5546 41.5088C30.2359 43.417 30.2432 44.8901 30.437 45.8697C30.5343 46.3618 30.6727 46.6981 30.8142 46.9017C30.9525 47.1007 31.0601 47.1309 31.1151 47.1338C31.1837 47.1374 31.3373 47.1071 31.5736 46.8851C31.8065 46.6661 32.0744 46.3007 32.3535 45.7532C32.9104 44.6607 33.4669 42.9332 33.8949 40.4771C34.5875 36.5021 35.0966 34.2805 35.4563 33.1182C35.5467 32.8261 35.6302 32.5926 35.7079 32.4108C35.7817 32.238 35.864 32.0786 35.9625 31.9606C36.011 31.9025 36.0912 31.8203 36.2086 31.7668C36.3458 31.7043 36.5238 31.688 36.6947 31.7725C36.8405 31.8447 36.9186 31.9605 36.9562 32.0291C36.9968 32.1033 37.0205 32.1781 37.0355 32.2378L37.0716 32.382L37.023 32.5226C36.3141 34.5746 35.3565 37.9276 34.7837 41.3232C34.4974 43.0206 34.3089 44.7187 34.2933 46.2643C34.281 47.4892 34.3775 48.5983 34.6089 49.5279C35.106 49.1065 35.608 48.6928 36.114 48.2869C36.2866 47.4657 36.4598 46.541 36.6421 45.5673L36.6704 45.4158C36.8757 44.3198 37.0925 43.1688 37.3308 42.0552C37.8022 39.8517 38.3732 37.7119 39.1501 36.4194C39.4072 35.9918 39.5985 35.6889 39.7239 35.5387C39.7528 35.5041 39.8089 35.4392 39.8846 35.3878C39.9195 35.3641 40.0084 35.3082 40.1353 35.2957C40.3004 35.2795 40.4718 35.3434 40.5854 35.4838C40.6725 35.5913 40.6923 35.7035 40.6984 35.7474C40.7059 35.8016 40.7046 35.8487 40.7027 35.879C40.6988 35.9404 40.6875 36.0017 40.6768 36.0515C40.635 36.2464 40.5344 36.5668 40.41 36.9537C40.3788 37.0506 40.3456 37.1533 40.3106 37.2615C40.2013 37.5996 40.0747 37.9915 39.9376 38.4312C39.2871 40.5174 38.4248 43.6115 38.207 46.6688C39.2858 45.8648 40.3781 45.0952 41.4774 44.3605C41.7905 42.4019 42.1354 40.503 42.5617 39.1203C42.6931 38.694 42.7906 38.3815 42.8585 38.1719C42.8922 38.0678 42.9202 37.9844 42.9421 37.9236C42.9528 37.894 42.9643 37.8633 42.976 37.8359C42.9816 37.8226 42.9902 37.8034 43.0011 37.7825C43.0048 37.7755 43.035 37.7146 43.092 37.6563C43.1122 37.6355 43.213 37.5321 43.3842 37.5088C43.488 37.4946 43.6004 37.5127 43.7013 37.5706C43.7946 37.6242 43.8498 37.6952 43.8798 37.7442C43.9336 37.8323 43.9457 37.9142 43.9488 37.9359C43.9537 37.9693 43.9543 37.9967 43.9543 38.0116C43.9544 38.0619 43.9472 38.1094 43.9444 38.1277C43.9365 38.1796 43.9227 38.2496 43.9065 38.3267C43.8733 38.4853 43.8205 38.7197 43.7545 39.0109L43.7264 39.135C43.5026 40.1228 43.1404 41.7212 42.8046 43.4922C43.6875 42.927 44.5731 42.3842 45.4579 41.8642C45.5037 41.656 45.5475 41.4752 45.5872 41.3296C45.6136 41.2331 45.64 41.1454 45.6659 41.0728C45.6788 41.0367 45.6937 40.9982 45.7108 40.9614C45.7244 40.9319 45.7533 40.8722 45.801 40.814C45.824 40.786 45.875 40.7284 45.958 40.6831C46.052 40.6318 46.207 40.5883 46.3791 40.6517C46.5325 40.7082 46.6115 40.8186 46.6439 40.8734C46.6785 40.9321 46.6949 40.9859 46.7027 41.0157C46.7131 41.055 46.7193 41.0961 46.723 41.1357C48.1747 40.3168 49.6201 39.5595 51.0439 38.8653C52.1214 36.8743 53.4888 35.001 55.2897 33.6829C60.3875 29.9517 68.3764 25.9647 77.2227 24.3724C80.5514 22.5128 83.8198 21.1127 86.0321 20.1651C86.7516 19.8569 87.3593 19.5966 87.8211 19.3838L88.2395 20.2921C87.7492 20.518 87.1189 20.788 86.381 21.1041C84.7318 21.8106 82.5452 22.7474 80.1829 23.9359C81.7725 23.754 83.3827 23.6557 85.0021 23.6557V24.6557C82.4906 24.6557 79.9967 24.8983 77.5644 25.3272C73.4586 27.6368 69.3171 30.6342 66.8827 34.3599L66.7616 34.5452L66.5429 34.5801C62.6562 35.2008 57.4056 36.9051 51.7733 39.6229C50.599 41.8623 49.7657 44.2766 49.0664 46.3028C48.9481 46.6457 48.8336 46.9774 48.7219 47.2954C48.3354 48.3956 47.9725 49.3606 47.5952 50.0114C47.4081 50.334 47.1892 50.6311 46.92 50.8209C46.6221 51.0311 46.2591 51.1084 45.8824 50.958C45.5622 50.8302 45.3463 50.5752 45.2016 50.3039C45.1362 50.1813 45.081 50.0475 45.0342 49.906C44.6881 51.0395 44.3154 52.0106 43.9356 52.6805C43.7659 52.9798 43.5802 53.2458 43.3753 53.4423C43.1751 53.6341 42.8999 53.8126 42.5615 53.806C42.2079 53.7991 41.9366 53.5947 41.7448 53.35C41.5552 53.1082 41.4004 52.7771 41.2674 52.3791C41.2368 52.2873 41.209 52.1909 41.1841 52.0904C41.1092 52.4072 41.0322 52.6994 40.9527 52.962C40.8118 53.4276 40.6515 53.841 40.4595 54.1436C40.2846 54.4192 39.9722 54.7712 39.495 54.7303C39.0613 54.6931 38.7537 54.3413 38.5365 54.001C38.2976 53.6269 38.0579 53.09 37.8095 52.3874C37.4062 51.247 37.2148 50.0005 37.1674 48.7266C37.1173 48.7662 37.0671 48.8059 37.0171 48.8456C36.875 49.496 36.7302 50.0835 36.5781 50.5695C36.4183 51.0806 36.2318 51.5445 35.9924 51.8409C35.8705 51.9919 35.6893 52.1569 35.4363 52.2104C35.1598 52.2689 34.9156 52.1712 34.7332 52.0275C34.5614 51.8922 34.4192 51.6994 34.2959 51.4862C34.2515 51.4094 34.2073 51.3262 34.1634 51.2364C30.4374 54.5327 27.0391 58.273 24.3012 62.4265C18.9876 70.4877 18.4802 79.7706 20.8543 87.6893C21.7956 90.8288 23.1859 93.7424 24.9004 96.2732C29.3693 95.2295 33.9867 95.1701 38.4889 96.9836C48.1477 100.874 57.7899 107.508 64.5737 99.2909C65.9365 97.6401 66.9927 95.7189 67.6517 93.5266C67.969 92.471 68.3176 91.452 68.6937 90.4694C68.9032 89.9221 69.1212 89.3861 69.347 88.8614C73.7437 78.6463 81.123 72.6872 86.5646 70.7475C89.6154 69.6601 92.5842 68.5991 94.3147 67.5524C94.7424 67.2937 95.0742 67.0474 95.3065 66.8162C95.5422 66.5817 95.6436 66.3946 95.6729 66.257C95.6972 66.1425 95.6831 66.0148 95.5599 65.8446C95.4251 65.6582 95.1644 65.4315 94.7095 65.1792C94.2476 64.9231 93.719 64.773 93.1363 64.7139C92.9526 64.8014 92.7632 64.8911 92.568 64.9836C91.4617 65.5075 90.1715 66.1185 88.6996 66.9095C85.8733 68.4284 83.9767 69.1074 82.9211 69.283C82.6562 69.3271 82.4173 69.3443 82.2175 69.3233C82.0574 69.3066 81.748 69.2484 81.5837 68.9695C81.3895 68.64 81.5641 68.3272 81.6623 68.1953C81.7776 68.0404 81.9463 67.9018 82.1295 67.7798C82.6915 67.4059 84.3713 66.3145 86.4236 65.3543C88.4141 64.4231 90.8351 63.576 92.9469 63.6961C94.2136 63.0884 95.0854 62.6273 95.621 62.1348C95.8864 61.8907 96.0491 61.6558 96.1371 61.4112C96.2247 61.1681 96.2514 60.8793 96.1892 60.5066C96.155 60.3014 95.9718 60.0626 95.3951 59.878C94.8618 59.7074 94.1122 59.6287 93.2116 59.6448C91.5436 60.8245 89.2393 61.8089 87.5727 62.5209C87.5012 62.5514 87.4308 62.5815 87.3617 62.6111C85.8345 63.2643 83.84 63.9324 82.6393 64.1036C82.3424 64.1459 82.0464 64.1655 81.8044 64.1242C81.6841 64.1037 81.5296 64.0606 81.3943 63.9567C81.2386 63.837 81.1359 63.6561 81.1294 63.4416C81.1237 63.2556 81.1919 63.0942 81.2599 62.9756C81.3311 62.8514 81.4286 62.7286 81.5409 62.6079C81.7657 62.366 82.097 62.0822 82.5394 61.7511C83.6944 60.8865 85.482 60.1395 87.3698 59.5971C89.2083 59.0689 91.1928 58.7203 92.8731 58.6542C93.4185 58.2441 93.8468 57.8301 94.1238 57.4193C94.4168 56.9847 94.5242 56.5806 94.4588 56.1889C94.3809 55.7224 94.0921 55.326 93.5675 55.0129C93.0778 54.7206 92.3984 54.5134 91.5622 54.4186C89.4886 56.4685 85.8714 58.1448 82.4957 58.7574C81.3022 58.974 80.4179 59.0435 79.8607 58.9549C79.6045 58.9141 79.2681 58.8186 79.0788 58.5364C78.8481 58.1925 78.9831 57.8318 79.1189 57.6188C79.2592 57.3987 79.4844 57.185 79.7462 56.9812C80.0153 56.7717 80.355 56.5484 80.7559 56.3153C81.5583 55.8487 82.6341 55.3265 83.9449 54.7814C86.5152 53.7125 89.1065 53.2547 91.171 53.3813C91.8154 52.6662 92.1983 51.9546 92.294 51.2863C92.3614 50.8157 92.2879 50.4235 92.1069 50.0974C91.9242 49.7681 91.6111 49.4695 91.1402 49.2262C90.2099 48.7454 88.7247 48.5138 86.7139 48.6795C84.5652 50.6019 81.3766 52.5528 79.1484 53.5413C78.1297 53.9931 77.2286 54.1452 76.5655 53.9972C76.2281 53.9219 75.9137 53.7585 75.7101 53.4737C75.4998 53.1796 75.4581 52.8266 75.5389 52.4837C75.6912 51.8376 76.2826 51.1659 77.2064 50.5443C78.1527 49.9075 79.5281 49.2681 81.4004 48.7185C83.2102 48.1873 84.8481 47.8597 86.2882 47.7144C86.9969 47.0548 87.5363 46.4305 87.8439 45.886C88.1765 45.2973 88.1708 44.9333 88.0344 44.7064C87.5456 43.8934 86.5422 43.4899 84.5022 43.7487C82.4754 44.0058 79.6213 44.8981 75.7297 46.4086C68.7728 49.1088 57.0606 55.0784 51.3453 67.0324C52.6994 66.5346 54.1061 66.1749 55.5145 65.9741L55.6556 66.964C53.9923 67.2012 52.3263 67.6729 50.7539 68.3421C50.3408 69.3129 49.9667 70.3213 49.6369 71.3687C48.4403 75.1687 47.2569 77.754 46.1674 79.4072C45.6226 80.2339 45.0908 80.8436 44.5783 81.2549C44.0673 81.665 43.5471 81.9 43.0357 81.9187C41.9388 81.9588 41.2807 81.0437 41.0175 80.0263C40.7464 78.9782 40.8103 77.6102 41.2674 76.2413C42.5318 72.4557 45.9692 69.3877 49.9925 67.5835C55.6929 54.6141 68.1637 48.2726 75.3679 45.4764C79.2631 43.9645 82.2171 43.0305 84.3763 42.7567C86.5221 42.4845 88.0824 42.8454 88.8914 44.1912C89.3094 44.8865 89.1082 45.6811 88.7145 46.3779C88.4843 46.7855 88.1645 47.2055 87.7826 47.6272C89.3566 47.6088 90.6531 47.8489 91.5993 48.3378C92.2061 48.6514 92.6835 49.0755 92.9813 49.6121C93.2809 50.1519 93.3783 50.7688 93.2839 51.428C93.179 52.1612 92.8389 52.8677 92.345 53.5277C93.003 53.6569 93.5925 53.8633 94.0799 54.1542C94.7965 54.5818 95.3084 55.2052 95.4451 56.0242C95.564 56.7361 95.3455 57.3962 94.9529 57.9784C94.789 58.2214 94.5921 58.4553 94.3703 58.6801C94.8622 58.7222 95.3122 58.8016 95.6999 58.9256C96.4052 59.1513 97.0482 59.579 97.1756 60.3419C97.2603 60.8491 97.2343 61.3157 97.078 61.7499C96.9223 62.1827 96.65 62.5471 96.2978 62.8709C95.8591 63.2743 95.2665 63.6395 94.5548 64.0134C94.7744 64.0937 94.9881 64.1903 95.1944 64.3047C95.7129 64.5921 96.1146 64.9051 96.3702 65.2585C96.6374 65.6279 96.7415 66.04 96.6509 66.4652C96.5653 66.8673 96.3186 67.2199 96.0118 67.5251C95.7017 67.8336 95.2967 68.1271 94.8322 68.4081C93.0043 69.5138 89.9416 70.6054 86.9524 71.6709L86.9004 71.6895C81.7873 73.5121 74.6718 79.1825 70.3622 89.0341C72.0477 92.1258 74.9233 97.3707 78.0157 102.622C81.1865 108.006 84.5656 113.364 87.1164 116.421C91.2111 121.329 96.8426 128.786 101.693 135.569L100.879 136.151C96.0363 129.378 90.4209 121.943 86.3486 117.062C83.7387 113.933 80.3223 108.51 77.154 103.129C74.2765 98.243 71.5875 93.3645 69.8673 90.215C69.7862 90.4173 69.7063 90.6213 69.6276 90.8269C69.2603 91.7866 68.9196 92.7823 68.6094 93.8144C67.934 96.0614 66.8679 98.0334 65.5032 99.7342C59.9373 106.671 48.3659 97.4238 39.7752 96.0707C32.4793 94.9216 27.0555 95.7105 24.0107 96.7419C22.2616 94.1387 20.8515 91.1619 19.8964 87.9764C17.4513 79.8205 17.9648 70.2223 23.4663 61.8762C26.3276 57.5354 29.8868 53.6497 33.7727 50.2482C33.4115 49.0979 33.2786 47.7198 33.2934 46.2542C33.2939 46.2049 33.2945 46.1554 33.2954 46.1058C33.2784 46.1401 33.2614 46.174 33.2444 46.2073C32.9354 46.8135 32.6051 47.2879 32.2584 47.6138C31.9151 47.9365 31.5077 48.1558 31.0626 48.1324C30.6039 48.1083 30.245 47.835 29.993 47.4724C29.7441 47.1143 29.5682 46.631 29.456 46.0638C29.2307 44.9251 29.238 43.3218 29.5682 41.3441C30.2233 37.4213 31.6497 30.95 37.0327 24.5359C42.4169 18.1201 51.7155 11.8129 68.0202 8.1243C84.3012 4.44106 96.4202 5.29009 104.498 8.63577ZM49.4196 68.969C46.0065 70.7308 43.2644 73.4189 42.2159 76.5581C41.8079 77.7798 41.7716 78.9485 41.9857 79.7759C42.2076 80.634 42.6201 80.9333 42.9992 80.9194C43.2258 80.9111 43.5449 80.802 43.9523 80.4751C44.3581 80.1494 44.8236 79.6291 45.3325 78.8569C46.3504 77.3122 47.5003 74.8243 48.683 71.0683C48.9089 70.3511 49.155 69.6514 49.4196 68.969ZM84.8515 48.9243C83.8762 49.096 82.8176 49.3447 81.6821 49.678C79.8773 50.2078 78.6029 50.8099 77.7647 51.3739C76.9041 51.9531 76.5762 52.4418 76.5122 52.7132C76.4849 52.8291 76.5107 52.8741 76.5236 52.8921C76.5429 52.9192 76.6071 52.9819 76.7834 53.0212C77.1477 53.1026 77.8148 53.0388 78.7429 52.6272C80.5048 51.8456 82.9077 50.427 84.8515 48.9243ZM90.1171 54.3667C88.4075 54.4213 86.3755 54.8536 84.3289 55.7047C83.044 56.239 82.0109 56.7423 81.2586 57.1797C80.8822 57.3986 80.5831 57.597 80.3605 57.7703C80.2583 57.8499 80.1778 57.9199 80.1158 57.9798C80.5153 58.0197 81.227 57.9713 82.3172 57.7735C85.1667 57.2564 88.1525 55.9484 90.1171 54.3667ZM90.9753 59.8386C89.8872 59.9962 88.7426 60.2432 87.646 60.5583C85.8039 61.0875 84.1513 61.7937 83.1387 62.5516C82.8359 62.7783 82.6079 62.967 82.442 63.1212C82.4602 63.1189 82.4789 63.1163 82.4981 63.1136C83.5685 62.961 85.4675 62.3337 86.9685 61.6916C87.0257 61.6672 87.0835 61.6424 87.1421 61.6174C88.2992 61.1228 89.7008 60.5238 90.9753 59.8386ZM82.1192 63.4886L82.1182 63.4911C82.1182 63.4911 82.1179 63.4914 82.1192 63.4886ZM90.1878 65.0189C89.0652 65.3088 87.9169 65.7597 86.8474 66.2601C85.4319 66.9224 84.1963 67.651 83.4056 68.1464C84.4076 67.8637 85.9928 67.2289 88.2262 66.0286C88.9197 65.6559 89.5745 65.3221 90.1878 65.0189ZM82.2793 68.3213C82.2793 68.3213 82.2851 68.3219 82.2938 68.325C82.2832 68.3231 82.2793 68.3213 82.2793 68.3213ZM34.9499 50.5513C35.026 50.7301 35.0966 50.8734 35.1615 50.9856C35.2006 51.0532 35.2349 51.1047 35.2637 51.1436C35.3655 50.9856 35.4888 50.7025 35.6237 50.271C35.6614 50.1507 35.6988 50.0225 35.7363 49.8868C35.4728 50.1062 35.2106 50.3276 34.9499 50.5513ZM35.177 51.2523L35.1781 51.2515L35.177 51.2523ZM38.1557 47.9597C38.1468 49.4241 38.3176 50.8249 38.7523 52.054C38.9914 52.7303 39.2012 53.1839 39.3794 53.463C39.4574 53.5852 39.5167 53.6543 39.5555 53.6927C39.5719 53.6723 39.5918 53.6446 39.6152 53.6077C39.7335 53.4214 39.8625 53.112 39.9956 52.6723C40.418 51.2771 40.7677 48.982 41.1393 46.5434C41.1813 46.2673 41.2237 45.9894 41.2665 45.7108C40.2194 46.4287 39.1804 47.1785 38.1557 47.9597ZM42.5611 44.842C42.3206 46.251 42.1218 47.6885 42.0378 48.9572C41.9482 50.3098 41.995 51.4007 42.2159 52.0623C42.3327 52.4118 42.4435 52.6204 42.5318 52.7331C42.5563 52.7644 42.5754 52.7839 42.5888 52.7957C42.6083 52.7843 42.6396 52.7622 42.6833 52.7203C42.7894 52.6187 42.9192 52.4457 43.0657 52.1873C43.6546 51.1486 44.275 49.1675 44.7913 46.889C44.8481 45.6315 45.0225 44.2728 45.2069 43.1772C44.3234 43.7094 43.4403 44.2645 42.5611 44.842ZM45.7866 47.0216C45.7525 47.8595 45.7764 48.6143 45.8817 49.1818C45.9353 49.471 46.0057 49.6866 46.0839 49.8332C46.1619 49.9794 46.2262 50.0185 46.2531 50.0292L46.2582 50.0314C46.2729 50.0381 46.2863 50.0442 46.3436 50.0038C46.4359 49.9387 46.5673 49.7906 46.73 49.5099C47.0523 48.9541 47.3865 48.0798 47.7784 46.964C47.8872 46.6541 47.9998 46.3279 48.1169 45.9884C48.6955 44.3108 49.386 42.3088 50.2971 40.3543C49.0825 40.9718 47.8551 41.6348 46.6247 42.3425C46.6066 42.4797 46.586 42.6295 46.5627 42.7926C46.3635 44.1843 46.0962 45.6435 45.7866 47.0216ZM39.5013 53.7473C39.5013 53.7473 39.5033 53.7456 39.5072 53.7436C39.5033 53.7466 39.5013 53.7473 39.5013 53.7473ZM52.6442 38.1069C57.7437 35.7606 62.4961 34.2435 66.1679 33.6282C68.2222 30.57 71.329 28.0239 74.5716 25.9534C67.03 27.7767 60.3224 31.2386 55.8803 34.4898C54.603 35.4247 53.5423 36.6857 52.6442 38.1069ZM143.518 130.857C145.272 130.209 147.091 131.199 147.771 133.235C148.34 134.937 148.055 136.681 147.505 138.136C146.992 139.494 146.232 140.644 145.634 141.352V148.073C145.634 148.723 145.821 149.703 146.109 150.962C146.208 151.396 146.319 151.862 146.436 152.352C146.65 153.252 146.884 154.233 147.101 155.252L146.123 155.461C145.908 154.451 145.68 153.495 145.468 152.604C145.35 152.11 145.237 151.636 145.134 151.184C144.851 149.945 144.634 148.855 144.634 148.073V140.975L144.761 140.833C145.301 140.226 146.067 139.112 146.57 137.782C147.073 136.452 147.293 134.958 146.823 133.552C146.287 131.946 144.99 131.379 143.864 131.795C142.704 132.223 141.439 133.795 141.297 137.083C141.393 137.661 141.408 138.238 141.293 138.696L140.309 138.601C140.282 138.092 140.278 137.608 140.294 137.15C140.122 136.217 139.695 135.217 139.13 134.652C138.85 134.371 138.567 134.227 138.291 134.207C138.021 134.187 137.67 134.279 137.234 134.641C136.712 135.075 136.339 135.662 136.084 136.333C136.304 136.728 136.465 137.164 136.543 137.629C136.766 138.968 136.769 140.205 136.653 141.069C136.597 141.49 136.507 141.87 136.371 142.131C136.311 142.248 136.192 142.438 135.977 142.532C135.853 142.586 135.71 142.601 135.567 142.562C135.433 142.526 135.333 142.452 135.264 142.383C135.142 142.262 135.068 142.092 135.021 141.971C134.966 141.828 134.915 141.655 134.869 141.462C134.777 141.074 134.698 140.575 134.656 140.016C134.578 138.971 134.625 137.673 134.984 136.465C134.486 135.781 133.757 135.293 133.061 135.132C132.326 134.962 131.68 135.155 131.287 135.81C130.96 136.352 130.712 137.108 130.56 137.972C130.792 138.172 131.022 138.412 131.248 138.694C132.217 139.902 132.55 141.767 132.493 143.076C132.479 143.411 132.438 143.726 132.37 143.998C132.304 144.261 132.201 144.528 132.034 144.73C131.85 144.95 131.553 145.122 131.187 145.036C130.882 144.964 130.643 144.734 130.458 144.488C129.936 143.793 129.629 142.744 129.485 141.635C129.352 140.613 129.351 139.485 129.482 138.422C128.984 138.13 128.551 138.11 128.22 138.196C127.814 138.301 127.526 138.571 127.412 138.798C127.184 139.253 126.614 140.394 126.447 141.853C127.484 143.008 128.128 144.728 128.333 145.874C128.387 146.179 128.415 146.468 128.405 146.71C128.399 146.831 128.384 146.957 128.348 147.075C128.314 147.187 128.247 147.342 128.104 147.459C127.938 147.596 127.734 147.631 127.547 147.589C127.385 147.553 127.252 147.464 127.155 147.382C126.957 147.216 126.754 146.952 126.541 146.612C125.585 145.086 125.339 143.555 125.412 142.228C124.863 141.732 124.265 141.508 123.612 141.653C122.764 141.841 122.306 142.244 122.065 142.725C121.812 143.229 121.762 143.893 121.888 144.645C122.141 146.159 123.064 147.792 123.857 148.583L124.004 148.73V148.937C124.004 149.284 123.997 149.678 123.989 150.106C123.964 151.449 123.932 153.138 124.099 154.839L123.104 154.936C122.93 153.171 122.964 151.392 122.989 150.044C122.995 149.714 123.001 149.409 123.003 149.137C122.108 148.165 121.175 146.444 120.902 144.81C120.757 143.943 120.788 143.041 121.171 142.277C121.565 141.49 122.297 140.921 123.396 140.677C124.213 140.496 124.94 140.692 125.555 141.083C125.81 139.764 126.311 138.764 126.516 138.355L126.518 138.351C126.766 137.855 127.295 137.402 127.97 137.228C128.481 137.096 129.06 137.126 129.655 137.389C129.825 136.605 130.08 135.876 130.43 135.295C131.094 134.188 132.227 133.913 133.286 134.158C134.053 134.335 134.807 134.784 135.4 135.406C135.689 134.832 136.078 134.303 136.595 133.872C137.174 133.391 137.771 133.166 138.364 133.21C138.951 133.253 139.446 133.552 139.838 133.945C140.118 134.226 140.361 134.568 140.566 134.942C141.068 132.716 142.19 131.347 143.518 130.857ZM127.34 146.002C126.85 145.196 126.586 144.394 126.471 143.629C126.911 144.43 127.211 145.319 127.34 146.002ZM130.409 139.247C130.361 140.012 130.384 140.791 130.477 141.506C130.612 142.551 130.89 143.397 131.258 143.887C131.284 143.922 131.308 143.951 131.329 143.974C131.351 143.92 131.376 143.848 131.4 143.754C131.448 143.563 131.482 143.318 131.494 143.032C131.545 141.859 131.23 140.269 130.468 139.319C130.448 139.295 130.429 139.271 130.409 139.247ZM135.648 138.449C135.612 138.968 135.619 139.477 135.654 139.941C135.668 140.128 135.686 140.306 135.708 140.473C135.746 139.909 135.735 139.211 135.648 138.449Z" fill="#1C1F23"/>
<path fill-rule="evenodd" clip-rule="evenodd" d="M126.951 107.076C135.241 115.112 145.151 125.801 152.994 135.993C153.867 137.127 154.776 138.428 155.717 139.776C156.415 140.775 157.131 141.801 157.863 142.802C159.605 145.184 161.484 147.498 163.594 149.284L162.948 150.047C160.746 148.183 158.811 145.792 157.056 143.392C156.291 142.346 155.568 141.31 154.87 140.311C153.948 138.989 153.071 137.732 152.202 136.603C144.394 126.458 134.519 115.805 126.255 107.794C122.123 103.788 118.401 100.45 115.547 98.1689C114.119 97.0271 112.919 96.1592 112.001 95.6054C111.54 95.3277 111.166 95.1383 110.878 95.0312C110.735 94.9777 110.625 94.9493 110.545 94.9377C110.474 94.9275 110.446 94.933 110.445 94.933C110.278 94.9849 110.193 95.0727 110.141 95.2161C110.077 95.3906 110.057 95.6755 110.134 96.1037C110.287 96.9573 110.782 98.1614 111.58 99.6545C113.167 102.625 115.858 106.568 119.007 110.808C125.298 119.279 133.356 128.856 137.877 134.037L137.123 134.695C132.594 129.504 124.517 119.905 118.204 111.404C115.05 107.157 112.321 103.165 110.698 100.126C109.89 98.6144 109.332 97.2956 109.15 96.28C109.059 95.7735 109.051 95.2872 109.2 94.8755C109.361 94.4332 109.688 94.1197 110.153 93.9766C110.493 93.8719 110.884 93.9662 111.227 94.094C111.597 94.2319 112.032 94.4564 112.517 94.7491C113.49 95.336 114.729 96.235 116.171 97.3878C119.059 99.696 122.806 103.058 126.951 107.076ZM160.326 110.992C160.935 110.23 161.773 109.764 162.804 109.764C163.854 109.764 164.709 110.302 165.357 111.053C165.721 111.474 166.03 111.971 166.285 112.504C166.864 111.786 167.631 111.147 168.628 110.686C169.641 110.218 170.513 110.109 171.241 110.351C171.976 110.594 172.456 111.159 172.759 111.804C172.855 112.009 172.936 112.228 173.004 112.455C173.518 111.479 174.377 110.64 175.733 110.64C176.501 110.64 177.093 110.975 177.516 111.496C177.878 111.941 178.11 112.513 178.259 113.109C178.826 111.912 179.767 110.835 181.272 110.644C182.107 110.538 182.768 110.787 183.226 111.315C183.656 111.811 183.858 112.498 183.942 113.19C184.271 112.752 184.699 112.384 185.246 112.264C185.911 112.117 186.594 112.369 187.266 112.954C188.681 114.188 188.754 116.035 188.384 117.681C188.014 119.324 187.176 120.922 186.509 121.909C185.67 123.632 184.084 128.249 184.419 133.016C184.576 135.241 184.49 138.464 183.799 141.7L182.821 141.491C183.489 138.361 183.573 135.232 183.422 133.086C183.069 128.066 184.738 123.244 185.627 121.437L185.642 121.405L185.662 121.376C186.285 120.462 187.07 118.964 187.408 117.461C187.749 115.945 187.607 114.578 186.609 113.708C186.074 113.242 185.704 113.187 185.461 113.24C185.194 113.299 184.906 113.524 184.62 113.965C184.301 114.457 184.05 115.118 183.866 115.793C183.781 116.385 183.663 116.942 183.542 117.402L182.563 117.21C182.626 116.732 182.73 116.167 182.884 115.592C182.99 114.825 183.035 114.014 182.95 113.315C182.876 112.705 182.712 112.248 182.471 111.97C182.257 111.724 181.942 111.567 181.398 111.636C180.281 111.778 179.527 112.635 179.039 113.818C178.776 114.455 178.607 115.15 178.507 115.798C178.493 116.37 178.444 116.905 178.382 117.345L177.387 117.275C177.387 116.836 177.422 116.294 177.509 115.712C177.523 114.994 177.479 114.226 177.334 113.545C177.205 112.944 177.007 112.456 176.74 112.126C176.487 111.816 176.171 111.64 175.733 111.64C174.806 111.64 174.188 112.237 173.775 113.153C173.522 113.715 173.37 114.354 173.289 114.939C173.281 115.327 173.252 115.695 173.212 116.022L172.216 115.961C172.216 115.644 172.238 115.268 172.29 114.863C172.305 113.94 172.192 112.949 171.854 112.229C171.625 111.742 171.319 111.43 170.926 111.3C170.526 111.167 169.93 111.186 169.047 111.594C167.997 112.079 167.244 112.801 166.724 113.602C166.745 113.663 166.764 113.725 166.783 113.786C167.093 114.789 167.25 115.84 167.243 116.738C167.24 117.187 167.195 117.612 167.1 117.979C167.008 118.339 166.856 118.688 166.608 118.94C166.365 119.188 166 119.365 165.603 119.198C165.277 119.061 165.089 118.746 164.98 118.476C164.749 117.905 164.672 117.044 164.786 116.119C164.887 115.295 165.146 114.372 165.625 113.496C165.358 112.807 165.013 112.184 164.601 111.707C164.078 111.102 163.478 110.764 162.804 110.764C162.111 110.764 161.549 111.064 161.107 111.617C160.655 112.183 160.328 113.021 160.174 114.062C159.868 116.141 160.275 118.887 161.529 121.437L161.624 121.629L161.549 121.83C160.937 123.49 160.793 125.655 160.883 127.907C160.973 130.15 161.293 132.427 161.575 134.291C162.136 138 162.716 140.385 163.288 142.565L162.32 142.819C161.743 140.617 161.154 138.195 160.586 134.441C160.303 132.573 159.976 130.249 159.884 127.947C159.796 125.737 159.921 123.499 160.539 121.687C159.279 119.031 158.853 116.164 159.185 113.916C159.355 112.765 159.728 111.741 160.326 110.992ZM166.061 114.99C165.919 115.416 165.828 115.839 165.778 116.241C165.677 117.068 165.761 117.741 165.907 118.101C165.92 118.133 165.932 118.159 165.943 118.181C166.007 118.093 166.076 117.948 166.132 117.73C166.201 117.463 166.24 117.123 166.243 116.73C166.247 116.203 166.186 115.604 166.061 114.99Z" fill="#1C1F23"/>
<path d="M68.4034 24.0677C69.0395 25.3535 69.2996 26.6465 69.2282 27.6843C69.1558 28.7363 68.7587 29.4232 68.1963 29.7015C67.6338 29.9797 66.8468 29.8785 65.9667 29.2977C65.0985 28.7247 64.2285 27.7334 63.5924 26.4476C62.9564 25.1618 62.6963 23.8688 62.7677 22.831C62.8401 21.779 63.2372 21.0921 63.7996 20.8138C64.3621 20.5356 65.1491 20.6368 66.0292 21.2176C66.8974 21.7906 67.7674 22.7819 68.4034 24.0677Z" fill="#1C1F23" stroke="#1C1F23"/>
<path d="M47.9894 30.78C46.7765 28.6575 46.352 23.5938 50.7183 20.3191C56.1761 16.2257 62.0888 18.9546 65.2726 22.5932" stroke="#1C1F23"/>
<circle cx="58.9752" cy="30.8642" r="9.4443" fill="#C6CACD" stroke="#1C1F23"/>
<path d="M53.3546 28.1132C53.6428 28.6897 54.4787 29.6697 55.5164 28.978C56.554 28.2862 55.9487 26.9603 55.5164 26.3838" stroke="#1C1F23"/>
<path d="M58.5428 24.8108C58.8311 25.3872 59.5215 26.0699 60.7047 25.6755C62.0017 25.2431 61.5694 23.946 61.137 23.5137" stroke="#1C1F23"/>
<path d="M62.8664 29.4106C63.587 26.6723 66.6712 20.6769 73.2431 18.6016" stroke="#1C1F23"/>
<path d="M73.2432 18.6016C74.3961 19.4663 79.0364 21.0214 78.4315 18.6016C77.9991 16.8722 74.5402 17.3045 73.2432 18.6016Z" stroke="#1C1F23"/>
<path d="M52.03 33.1643C52.6661 34.4501 52.9262 35.7432 52.8548 36.781C52.7824 37.8329 52.3853 38.5199 51.8229 38.7982C51.2604 39.0764 50.4734 38.9752 49.5933 38.3944C48.7251 37.8214 47.8551 36.8301 47.219 35.5443C46.583 34.2585 46.3229 32.9655 46.3943 31.9277C46.4666 30.8757 46.8637 30.1887 47.4262 29.9105C47.9886 29.6323 48.7757 29.7335 49.6557 30.3143C50.524 30.8872 51.394 31.8785 52.03 33.1643Z" fill="#1C1F23" stroke="#1C1F23"/>
<path d="M52.9924 38.9668C38.8929 45.7891 31.0094 53.2179 27.0676 58.5241L39.3477 60.7982L54.8117 43.9698C57.5406 43.515 60.9972 41.8777 52.9924 38.9668Z" fill="#888D92"/>
<path d="M113.029 113.557C114.696 114.012 118.032 116.013 118.032 120.38M143.047 94C144.411 94.4548 147.322 96.3651 148.05 100.367" stroke="#1C1F23"/>
<path d="M113.965 156.208L114.286 155.226C114.749 153.809 115 152.295 115 150.72C115 142.712 108.508 136.22 100.5 136.22C95.0318 136.22 90.2706 139.247 87.8004 143.716L86.9883 143.119C89.6464 138.404 94.7013 135.22 100.5 135.22C109.06 135.22 116 142.159 116 150.72C116 152.051 115.832 153.343 115.516 154.576C115.433 154.901 115.34 155.221 115.237 155.537C115.405 155.585 115.57 155.639 115.733 155.699C116.817 156.093 117.791 156.714 118.599 157.506C118.849 157.75 119.083 158.012 119.299 158.287C119.473 157.982 119.662 157.686 119.866 157.401C121.681 154.869 124.648 153.22 128 153.22C131.592 153.22 134.741 155.113 136.504 157.957C136.68 158.239 136.841 158.531 136.988 158.832C137.276 158.665 137.572 158.51 137.874 158.367C139.428 157.631 141.166 157.22 143 157.22C143.728 157.22 144.44 157.285 145.132 157.409C145.739 154.447 148.359 152.22 151.5 152.22C154.068 152.22 156.289 153.709 157.344 155.872L156.375 156.171C155.456 154.417 153.618 153.22 151.5 153.22C148.844 153.22 146.625 155.104 146.112 157.609L145.916 158.565L144.956 158.393C144.322 158.279 143.668 158.22 143 158.22C140.99 158.22 139.109 158.758 137.49 159.697L136.562 160.235L136.09 159.271C134.626 156.278 131.552 154.22 128 154.22C124.645 154.22 121.717 156.055 120.169 158.781L119.432 160.078L118.512 158.904C117.619 157.765 116.381 156.91 114.958 156.497L113.965 156.208Z" fill="#1C1F23"/>
<path d="M173.286 146.022L172.422 145.681C171.667 145.383 170.852 145.22 170 145.22C166.759 145.22 163.967 147.608 163.205 150.906L162.162 151.009C162.907 147.135 166.133 144.22 170 144.22C170.981 144.22 171.921 144.407 172.789 144.751C174.081 142.07 176.825 140.22 180 140.22C183.074 140.22 185.742 141.953 187.082 144.495L186.072 144.735C184.864 142.634 182.597 141.22 180 141.22C177.223 141.22 174.822 142.837 173.69 145.185L173.286 146.022Z" fill="#1C1F23"/>
<path d="M19.5002 101.253C20.7262 97.7403 24.0687 95.2197 28 95.2197C28.6935 95.2197 29.3688 95.2982 30.0173 95.4467L29.4322 96.3475C28.9675 96.2636 28.4888 96.2197 28 96.2197C24.3282 96.2197 21.2342 98.6934 20.2935 102.065L19.5002 101.253Z" fill="#1C1F23"/>
<path d="M44.8695 100.934L86.483 121.414L60.2837 138.476L18.6701 117.997L44.8695 100.934Z" fill="var(--semi-color-primary)"/>
<path d="M19.7768 117.808L33.8679 85.8504L76.5431 104.572L60.5078 137.853L19.7768 117.808Z" fill="#C6CACD" stroke="#1C1F23"/>
<circle cx="46.6718" cy="111.34" r="4.37976" fill="#888D92"/>
<circle cx="52.1318" cy="110.26" r="1.08003" fill="#888D92"/>
</svg>
