<svg width="200" height="200" viewBox="0 0 200 200" fill="none" xmlns="http://www.w3.org/2000/svg">
<path d="M109.534 54.9131C109.534 32.6038 127.619 14.5186 149.928 14.5186C172.238 14.5186 190.323 32.6038 190.323 54.9131V168.615H109.534V54.9131Z" fill="#2E3238" stroke="#1C1F23"/>
<path fill-rule="evenodd" clip-rule="evenodd" d="M135.907 60.0822C129.955 59.3988 124.596 63.501 123.936 69.2447L121.551 90.0129C120.892 95.7567 125.182 100.967 131.133 101.65L156.979 104.619C162.93 105.302 168.289 101.2 168.949 95.4561L171.334 74.6879C171.994 68.9441 167.704 63.7338 161.752 63.0504L135.907 60.0822Z" fill="var(--semi-color-primary)" fill-opacity="0.2"/>
<path fill-rule="evenodd" clip-rule="evenodd" d="M158.959 62.7296L160.461 51.3189C161.143 46.134 157.493 41.3777 152.309 40.6943C147.13 40.023 142.383 43.6713 141.702 48.8509L140.16 60.5707L135.907 60.0822C135.486 60.034 135.069 60.0096 134.656 60.0079L136.219 48.1295C137.298 39.9277 144.821 34.1533 153.023 35.2311L153.046 35.2341C161.248 36.3133 167.023 43.8377 165.944 52.0403L164.411 63.6882C163.574 63.375 162.684 63.1573 161.753 63.0504L158.959 62.7296Z" fill="var(--semi-color-primary)"/>
<path fill-rule="evenodd" clip-rule="evenodd" d="M148.616 80.9032C150.45 80.4704 151.915 78.9446 152.175 76.9651C152.512 74.4072 150.712 72.0604 148.154 71.7234C145.596 71.3864 143.249 73.1869 142.912 75.7448C142.651 77.7253 143.672 79.5792 145.333 80.4717L141.162 88.1012C140.825 88.7177 141.212 89.4805 141.909 89.5723L149.564 90.5806C150.26 90.6724 150.832 90.0362 150.666 89.3534L148.616 80.9032Z" fill="var(--semi-color-primary)"/>
<path fill-rule="evenodd" clip-rule="evenodd" d="M180.372 95.2357C183.133 95.2357 185.37 92.9979 185.37 90.2375C185.37 87.477 183.133 85.2393 180.372 85.2393C177.612 85.2393 175.374 87.477 175.374 90.2375C175.374 92.9979 177.612 95.2357 180.372 95.2357Z" fill="#6B7075"/>
<path fill-rule="evenodd" clip-rule="evenodd" d="M88.4705 52.8727L88.4268 52.8701L88.3896 52.8933C88.0207 53.123 87.5575 53.359 87.0319 53.6268C86.7073 53.7923 86.3588 53.9699 85.994 54.1656C85.0472 54.6736 84.01 55.2947 83.062 56.1168C81.1801 57.7487 79.6574 60.1665 79.8601 64.0399C77.6674 64.3909 74.4402 65.3841 71.7178 67.2557C68.9413 69.1644 66.6769 71.9973 66.5942 76.001L66.5931 76.0533L66.627 76.0931C70.8901 81.1048 84.7332 88.514 106.134 78.4345L106.212 78.3977L106.213 78.3111C106.228 76.6097 105.804 73.983 104.484 71.6184C103.177 69.2794 100.991 67.1942 97.4882 66.5242C97.8639 64.3464 97.872 61.1199 96.6914 58.3455C96.0879 56.9272 95.1725 55.6242 93.8344 54.6426C92.4958 53.6606 90.7418 53.0058 88.4705 52.8727Z" fill="#1C1F23"/>
<path d="M112.098 185.603C104.384 187.432 92.2606 187.991 83.0407 187.136C79.9151 186.901 73.3873 186.102 72.2809 184.783C70.8979 183.136 68.6028 178.016 68.3379 172.866C68.0731 167.717 70.3706 149.793 72.1038 145.358C69.6845 144.681 64.0182 142.245 59.9844 140.114C58.0395 139.086 53.7804 136.829 48.6567 133.826C48.915 140.543 48.7047 146.782 47.5831 151.969C46.2916 157.942 43.829 163.271 41.7627 168.031C40.0083 172.073 41.4133 174.516 45.034 177.62C47.6004 179.82 51.918 180.575 54.2492 182.025C54.7704 182.375 55.7617 183.25 55.7844 184.171C55.7972 184.689 54.9072 185.169 53.6601 185.572C52.1343 186.065 50.0738 186.442 48.4781 186.629C39.1072 187.732 18.9324 188.269 12.507 184.9C11.8584 184.56 10.8281 183.888 11.7327 178.399C13.4414 168.031 19.3714 151.181 20.1908 146.339C21.2151 140.286 19.0268 134.419 17.7697 129.624C16.5126 124.828 14.1775 106.949 17.7697 96.7953C18.2582 95.4147 18.8615 93.9343 19.5812 92.3831C22.9276 85.1701 28.7894 76.4272 37.3093 69.0802C26.9834 61.7063 14.1653 50.7967 13.2099 41.0836C12.2545 31.3705 21.065 20.4647 29.516 20.9159C38.1543 21.3771 58.8366 33.8045 72.7305 49.7472C77.5436 42.8535 87.3633 41.1114 93.4272 44.4682C97.0127 46.4531 94.1469 48.9634 92.9304 49.7317C91.9571 50.3463 81.1564 62.1788 76.1488 67.3783C81.6467 70.8392 93.9055 77.3717 97.6226 87.3151C98.9136 90.7683 99.0031 92.2695 99.2508 95.4284C99.7869 102.264 101.818 116.974 101.818 119.371C104.144 116.094 106.511 113.541 111.2 108.712C115.889 103.884 119.689 96.3226 121.135 91.7678C122.47 87.5617 123.137 83.6816 125.603 84.2982C127.98 84.8925 127.646 94.796 127.043 99.6395C131.292 99.3055 142.645 99.3557 149.728 101.265C156.811 103.174 157.967 105.635 157.866 106.238C157.766 106.841 156.51 108.749 147.669 108.448C147.976 109.461 147.631 111.627 143.787 112.187C145.824 113.428 145.983 114.128 145.951 114.86C145.919 115.591 145.506 116.864 141.019 117.437C141.644 118.383 142.467 119.811 138.586 121.071C134.705 122.332 128.975 121.441 128.622 121.408C126.749 127.675 121.395 140.136 112.82 146.241C107.463 150.054 100.908 150.19 98.597 150.19C99.2638 163.803 98.8518 171.042 100.823 174.661C103.576 179.714 121.168 183.453 112.098 185.603Z" fill="#C6CACD"/>
<path fill-rule="evenodd" clip-rule="evenodd" d="M78.1517 68.6103C77.4177 68.1634 76.7436 67.7529 76.1486 67.3784C69.4574 63.1664 58.5581 55.8057 48.4887 49.0055C45.3869 46.9108 42.3639 44.8692 39.5668 42.9893C32.4629 48.6333 31.137 57.7898 30.6818 64.0709C32.9126 65.865 35.1646 67.5489 37.309 69.0803C28.7892 76.4272 22.9274 85.1701 19.581 92.3831C17.3361 97.2218 16.782 99.363 16.1461 104.389C16.1461 112.188 41.4622 118.915 66.2589 105.569C66.276 105.971 72.5107 109.376 72.5107 109.376C72.5107 109.376 72.7259 114.526 72.7435 114.86C84.5851 114.86 96.8319 109.041 100.139 103.741C100.094 103.34 100.044 102.89 99.9895 102.411C99.7183 100.01 99.3635 96.869 99.2505 95.4284C99.2439 95.3444 99.2375 95.2616 99.2311 95.1799C98.9972 92.1883 98.879 90.6766 97.6224 87.3151C94.3075 78.4478 84.1997 72.293 78.1517 68.6103ZM72.3666 96.9888L66.2626 105.557L72.5107 109.376C72.3691 105.386 72.368 101.726 72.3668 97.7022C72.3667 97.4657 72.3667 97.2279 72.3666 96.9888Z" fill="#6B7075"/>
<path d="M98.597 150.19C99.2638 163.803 98.8518 171.042 100.823 174.661C103.576 179.714 121.168 183.453 112.098 185.603C104.384 187.432 92.2606 187.991 83.0407 187.136C79.9151 186.901 73.3873 186.102 72.2809 184.783C70.8979 183.136 68.6028 178.016 68.3379 172.866C68.0731 167.717 70.3706 149.793 72.1038 145.358M98.597 150.19C100.908 150.19 107.463 150.054 112.82 146.241C121.395 140.136 126.749 127.675 128.622 121.408C128.975 121.441 134.705 122.332 138.586 121.071C142.467 119.811 141.644 118.383 141.019 117.437M98.597 150.19C95.9575 150.19 86.3851 149.775 79.2445 140.114C77.4988 137.752 75.7144 134.262 74.8337 131.159C73.3751 126.019 72.7693 117.673 72.5236 109.437M72.1038 145.358C73.837 140.923 75.9769 142.02 76.7087 142.723C77.4146 143.401 78.2815 145.344 76.7087 145.783C75.0168 146.255 72.6172 145.502 72.1038 145.358ZM72.1038 145.358C69.6845 144.681 64.0182 142.245 59.9844 140.114C58.0395 139.086 53.7804 136.829 48.6567 133.826M28.3368 120.097C34.5919 125.21 42.2916 130.094 48.6567 133.826M48.6567 133.826C48.915 140.543 48.7047 146.782 47.5831 151.969C46.2916 157.942 43.829 163.271 41.7627 168.031C40.0083 172.073 41.4133 174.516 45.034 177.62C47.6004 179.82 51.918 180.575 54.2492 182.025C54.7704 182.375 55.7617 183.25 55.7844 184.171C55.7972 184.689 54.9072 185.169 53.6601 185.572M47.7594 61.7063C43.914 63.8805 40.433 66.3865 37.3093 69.0802M53.6601 185.572C52.1343 186.065 50.0738 186.442 48.4781 186.629C39.1072 187.732 18.9324 188.269 12.507 184.9C11.8584 184.56 10.8281 183.888 11.7327 178.399C13.4414 168.031 19.3714 151.181 20.1908 146.339C21.2151 140.286 19.0268 134.419 17.7697 129.624C16.5126 124.828 14.1775 106.949 17.7697 96.7953C18.2582 95.4147 18.8615 93.9343 19.5812 92.3831C22.9276 85.1701 28.7894 76.4272 37.3093 69.0802M53.6601 185.572C53.8249 183.677 52.2876 181.475 48.9292 181.762M37.3093 69.0802C26.9834 61.7063 14.1653 50.7967 13.2099 41.0836C12.2545 31.3705 21.065 20.4647 29.516 20.9159C38.1543 21.3771 58.8366 33.8045 72.7305 49.7472C77.5436 42.8535 87.3633 41.1114 93.4272 44.4682C97.0127 46.4531 94.1469 48.9634 92.9303 49.7317C91.9571 50.3463 81.1564 62.1788 76.1488 67.3783M76.1488 67.3783C65.6982 60.7998 44.9826 46.5407 33.1959 38.732M76.1488 67.3783C81.6467 70.8392 93.9055 77.3717 97.6226 87.3151C98.9136 90.7683 99.003 92.2695 99.2508 95.4284C99.7869 102.264 101.818 116.974 101.818 119.371M101.818 119.371C101.818 121.222 102.586 127.403 99.9516 127.403C97.508 127.403 99.553 122.47 101.818 119.371ZM101.818 119.371C104.144 116.094 106.511 113.541 111.2 108.712C115.889 103.884 119.689 96.3226 121.135 91.7678C122.47 87.5617 123.137 83.6816 125.603 84.2982C127.98 84.8925 127.646 94.796 127.043 99.6395M127.043 99.6395L124.385 99.901M127.043 99.6395C131.292 99.3055 142.645 99.3557 149.728 101.265C156.811 103.174 157.967 105.635 157.866 106.238C157.766 106.841 156.51 108.749 147.669 108.448M147.669 108.448C140.053 108.188 137.009 106.882 136.908 106.329C136.808 105.777 139.732 105.233 142.294 105.735C144.856 106.238 147.317 107.092 147.669 108.448ZM147.669 108.448C147.976 109.461 147.631 111.627 143.787 112.187M143.787 112.187C138.983 112.887 138.156 112.473 138.124 112.187C138.092 111.901 142.101 111.36 143.787 112.187ZM143.787 112.187C145.824 113.428 145.983 114.128 145.951 114.86C145.919 115.591 145.506 116.864 141.019 117.437M141.019 117.437C136.533 118.01 136.435 116.806 137.694 116.565C138.953 116.323 140.658 116.974 141.019 117.437ZM72.3763 89.579C72.3763 91.6318 72.362 94.1726 72.3631 97.0003M72.3631 97.0003L66.2591 105.569L72.5236 109.437M72.3631 97.0003C72.3647 100.792 72.3942 105.099 72.5236 109.437" stroke="#1C1F23"/>
<path fill-rule="evenodd" clip-rule="evenodd" d="M72.2282 97.1124V90.1133L71.9296 90.4405C70.5489 92.0486 68.171 95.6239 68.9488 100.681L69.0888 101.548L72.2282 97.1124Z" fill="#1C1F23"/>
<path d="M48.6199 148.139C47.7502 138.438 37.4659 133.323 29.9427 121.894C37.3905 127.026 43.7889 130.498 49.1526 133.62C49.1526 133.62 49.0744 143.108 48.6199 148.139Z" fill="#1C1F23"/>
<path d="M97.1005 56.0026C97.5063 60.6989 93.9734 64.8745 89.1629 65.2901C84.3524 65.7058 80.1556 62.1981 79.7498 57.5018C79.3441 52.8056 82.8769 48.63 87.6874 48.2143C92.4979 47.7987 96.6947 51.3064 97.1005 56.0026Z" fill="#C6CACD" stroke="#1C1F23" stroke-width="3"/>
<path fill-rule="evenodd" clip-rule="evenodd" d="M91.2999 54.1511C91.1591 53.9714 90.8994 53.94 90.7198 54.0807C89.5787 54.9751 88.2257 55.4162 87.7159 55.5202C87.4923 55.5658 87.348 55.784 87.3935 56.0076C87.4391 56.2313 87.6574 56.3756 87.881 56.33C88.4868 56.2065 89.9661 55.7215 91.2296 54.7312C91.4092 54.5904 91.4407 54.3307 91.2999 54.1511ZM89.5239 57.8268C89.4028 57.3952 89.6544 56.947 90.086 56.8259C90.5176 56.7047 90.9658 56.9564 91.0869 57.388C91.2081 57.8196 90.9564 58.2677 90.5248 58.3889C90.0932 58.51 89.6451 58.2584 89.5239 57.8268ZM95.753 55.6699C95.3214 55.7911 95.0698 56.2392 95.1909 56.6708C95.3121 57.1024 95.7602 57.3541 96.1918 57.2329C96.6234 57.1118 96.8751 56.6637 96.7539 56.232C96.6328 55.8004 96.1846 55.5488 95.753 55.6699Z" fill="#1C1F23"/>
<path fill-rule="evenodd" clip-rule="evenodd" d="M76.8173 48.0547C79.7313 48.4344 82.4014 46.38 82.7811 43.466C83.1608 40.552 81.1064 37.8819 78.1924 37.5022C75.2784 37.1225 72.6083 39.1769 72.2286 42.0909C71.8489 45.0049 73.9033 47.675 76.8173 48.0547ZM87.496 46.6494C84.1101 46.942 81.2437 48.8129 79.5796 51.4638C79.2599 51.4343 78.9072 51.3901 78.5248 51.3422C78.1632 51.297 77.7751 51.2484 77.3634 51.2057C76.2946 51.0948 75.0876 51.0268 73.8416 51.1752C71.3681 51.4698 68.7508 52.6166 66.7448 55.9365C62.6927 54.0777 56.212 55.0327 51.6573 61.4605L51.6114 61.5252L51.6444 61.5974C55.6836 70.4275 63.5735 80.4008 80.4169 82.5956L80.5002 82.6064L80.548 82.5373C81.5151 81.1374 82.6387 78.7256 82.8727 76.0274C83.1041 73.3584 82.4647 70.4055 79.9414 67.8852C81.4745 66.2935 83.2919 63.6275 83.8717 60.6686C84.1682 59.156 84.1417 57.5638 83.5851 56.0004C83.5721 55.9641 83.5589 55.9279 83.5454 55.8916C85.0066 55.8789 86.765 55.1412 88.2933 53.9872C89.7807 52.8642 91.0701 51.3321 91.6648 49.6504C93.5641 51.1709 95.4809 51.674 97.084 51.6826L97.3334 51.6839L97.2018 51.4721C95.2213 48.2859 91.5302 46.3008 87.496 46.6494Z" fill="#1C1F23"/>
<circle cx="80.6887" cy="61.9553" r="6.1823" transform="rotate(-4.93845 80.6887 61.9553)" stroke="#6B7075"/>
<path d="M174.024 106.001C173.519 107.8 171.317 111.728 166.554 113.051" stroke="var(--semi-color-primary)" stroke-linecap="round"/>
<path d="M181.214 110.236C180.342 113.119 176.666 119.383 168.942 121.374" stroke="var(--semi-color-primary)" stroke-linecap="round"/>
</svg>
