<svg width="200" height="200" viewBox="0 0 200 200" fill="none" xmlns="http://www.w3.org/2000/svg">
<rect width="200" height="200" fill="transparent"/>
<path d="M109.534 54.9131C109.534 32.6038 127.619 14.5186 149.928 14.5186C172.238 14.5186 190.323 32.6038 190.323 54.9131V168.615H109.534V54.9131Z" fill="white" stroke="#515151"/>
<path fill-rule="evenodd" clip-rule="evenodd" d="M145.492 92.6188C150.671 93.2902 155.418 89.6419 156.099 84.4622L160.46 51.3185C161.142 46.1335 157.493 41.3772 152.308 40.6938C147.129 40.0225 142.383 43.6708 141.701 48.8504L137.341 81.9941C136.659 87.179 140.308 91.9353 145.492 92.6188ZM153.022 35.2306C153.03 35.2316 153.037 35.2326 153.045 35.2336C161.248 36.3128 167.022 43.8372 165.943 52.0399L161.582 85.1836C160.503 93.3855 152.98 99.1599 144.778 98.0819C144.771 98.0809 144.763 98.08 144.756 98.079C136.553 96.9998 130.778 89.4754 131.858 81.2728L136.218 48.129C137.297 39.9272 144.82 34.1529 153.022 35.2306Z" fill="var(--semi-color-primary)"/>
<path fill-rule="evenodd" clip-rule="evenodd" d="M135.906 60.0818C129.955 59.3983 124.596 63.5005 123.936 69.2442L121.551 90.0125C120.891 95.7562 125.181 100.966 131.133 101.65L156.978 104.618C162.93 105.302 168.289 101.199 168.949 95.4556L171.334 74.6874C171.993 68.9436 167.704 63.7333 161.752 63.0499L135.906 60.0818Z" fill="var(--semi-color-primary-light-default)"/>
<path fill-rule="evenodd" clip-rule="evenodd" d="M148.616 80.9032C150.45 80.4704 151.914 78.9446 152.175 76.9651C152.512 74.4072 150.712 72.0604 148.154 71.7234C145.596 71.3864 143.249 73.1869 142.912 75.7448C142.651 77.7253 143.671 79.5792 145.333 80.4717L141.162 88.1012C140.825 88.7177 141.212 89.4805 141.909 89.5723L149.563 90.5806C150.26 90.6724 150.831 90.0362 150.666 89.3534L148.616 80.9032Z" fill="var(--semi-color-primary)"/>
<path fill-rule="evenodd" clip-rule="evenodd" d="M180.372 95.2357C183.132 95.2357 185.37 92.9979 185.37 90.2375C185.37 87.477 183.132 85.2393 180.372 85.2393C177.612 85.2393 175.374 87.477 175.374 90.2375C175.374 92.9979 177.612 95.2357 180.372 95.2357Z" fill="#E6E8EA"/>
<path fill-rule="evenodd" clip-rule="evenodd" d="M88.4704 52.8722L88.4267 52.8696L88.3895 52.8928C88.0205 53.1225 87.5573 53.3585 87.0318 53.6263C86.7071 53.7918 86.3587 53.9694 85.9939 54.1651C85.0471 54.6731 84.0099 55.2942 83.0619 56.1163C81.18 57.7482 79.6573 60.166 79.8599 64.0394C77.6673 64.3905 74.4401 65.3836 71.7176 67.2552C68.9412 69.1639 66.6768 71.9968 66.5941 76.0005L66.593 76.0528L66.6269 76.0926C70.8899 81.1043 84.7331 88.5135 106.134 78.4341L106.212 78.3972L106.213 78.3107C106.228 76.6092 105.804 73.9825 104.484 71.6179C103.177 69.2789 100.991 67.1937 97.4881 66.5237C97.8638 64.3459 97.8718 61.1194 96.6913 58.345C96.0878 56.9267 95.1724 55.6237 93.8343 54.6421C92.4957 53.6601 90.7416 53.0053 88.4704 52.8722Z" fill="#515151"/>
<path d="M33.2207 38.7285C46.5985 47.7468 67.2765 61.6803 75.2776 66.8092" stroke="#EE2F2F" stroke-width="3"/>
<path d="M112.098 185.603C104.384 187.432 92.2605 187.991 83.0406 187.136C79.915 186.901 73.3872 186.102 72.2808 184.783C70.8978 183.136 68.6026 178.016 68.3378 172.866C68.073 167.717 70.3705 149.793 72.1037 145.358C69.6844 144.681 64.0181 142.245 59.9843 140.114C58.0393 139.086 53.7803 136.829 48.6566 133.826C48.9148 140.543 48.7045 146.782 47.583 151.969C46.2915 157.942 43.8288 163.271 41.7626 168.031C40.0081 172.073 41.4132 174.516 45.0339 177.62C47.6002 179.82 51.9179 180.575 54.2491 182.025C54.7703 182.375 55.7616 183.25 55.7843 184.171C55.7971 184.689 54.9071 185.169 53.66 185.572C52.1342 186.065 50.0737 186.442 48.478 186.629C39.1071 187.732 18.9323 188.269 12.5069 184.9C11.8583 184.56 10.828 183.888 11.7326 178.399C13.4413 168.031 19.3713 151.181 20.1907 146.339C21.215 140.286 19.0267 134.419 17.7696 129.624C16.5125 124.828 14.1774 106.949 17.7696 96.7953C18.258 95.4147 18.8614 93.9343 19.581 92.3831C22.9275 85.1701 28.7893 76.4272 37.3091 69.0802C26.9833 61.7063 14.1652 50.7967 13.2098 41.0836C12.2544 31.3705 21.0649 20.4647 29.5159 20.9159C38.1542 21.3771 58.8365 33.8045 72.7303 49.7472C77.5435 42.8535 87.3632 41.1114 93.4271 44.4682C97.0126 46.4531 94.1467 48.9634 92.9302 49.7317C91.957 50.3463 81.1563 62.1788 76.1487 67.3783C81.6466 70.8392 93.9054 77.3717 97.6225 87.3151C98.9134 90.7683 99.0029 92.2695 99.2507 95.4284C99.7868 102.264 101.818 116.974 101.818 119.371C104.143 116.094 106.511 113.541 111.2 108.712C115.889 103.884 119.689 96.3226 121.135 91.7678C122.47 87.5617 123.136 83.6816 125.603 84.2982C127.98 84.8925 127.646 94.796 127.043 99.6395C131.292 99.3055 142.645 99.3557 149.728 101.265C156.811 103.174 157.967 105.635 157.866 106.238C157.766 106.841 156.51 108.749 147.669 108.448C147.976 109.461 147.631 111.627 143.787 112.187C145.824 113.428 145.983 114.128 145.951 114.86C145.919 115.591 145.505 116.864 141.019 117.437C141.644 118.383 142.467 119.811 138.586 121.071C134.704 122.332 128.975 121.441 128.622 121.408C126.749 127.675 121.395 140.136 112.82 146.241C107.463 150.054 100.908 150.19 98.5968 150.19C99.2637 163.803 98.8517 171.042 100.823 174.661C103.575 179.714 121.168 183.453 112.098 185.603Z" fill="white"/>
<path fill-rule="evenodd" clip-rule="evenodd" d="M78.1515 68.6103C77.4176 68.1634 76.7434 67.7529 76.1485 67.3784C69.4573 63.1664 58.558 55.8057 48.4886 49.0055C45.3868 46.9108 42.3638 44.8692 39.5667 42.9893C32.4627 48.6333 31.1369 57.7898 30.6816 64.0709C32.9125 65.865 35.1644 67.5489 37.3089 69.0803C28.789 76.4272 22.9273 85.1701 19.5809 92.3831C17.336 97.2218 16.7819 99.363 16.146 104.389C16.146 112.188 41.462 118.915 66.2588 105.569C66.2758 105.971 72.5106 109.376 72.5106 109.376C72.5106 109.376 72.7258 114.526 72.7433 114.86C84.585 114.86 96.8317 109.041 100.139 103.741C100.094 103.34 100.043 102.89 99.9894 102.411C99.7182 100.01 99.3634 96.869 99.2504 95.4284C99.2438 95.3444 99.2374 95.2616 99.231 95.1799C98.997 92.1883 98.8788 90.6766 97.6222 87.3151C94.3074 78.4478 84.1996 72.293 78.1515 68.6103ZM72.3665 96.9888L66.2625 105.557L72.5106 109.376C72.369 105.386 72.3679 101.726 72.3667 97.7022C72.3666 97.4657 72.3666 97.2279 72.3665 96.9888Z" fill="#E6E8EA"/>
<path d="M98.5968 150.19C99.2637 163.803 98.8517 171.042 100.823 174.661C103.575 179.714 121.168 183.453 112.098 185.603C104.384 187.432 92.2605 187.991 83.0406 187.136C79.915 186.901 73.3872 186.102 72.2808 184.783C70.8978 183.136 68.6026 178.016 68.3378 172.866C68.073 167.717 70.3705 149.793 72.1037 145.358M98.5968 150.19C100.908 150.19 107.463 150.054 112.82 146.241C121.395 140.136 126.749 127.675 128.622 121.408C128.975 121.441 134.704 122.332 138.586 121.071C142.467 119.811 141.644 118.383 141.019 117.437M98.5968 150.19C95.9574 150.19 86.385 149.775 79.2444 140.114C77.4987 137.752 75.7143 134.262 74.8336 131.159C73.375 126.019 72.7692 117.673 72.5235 109.437M72.1037 145.358C73.8369 140.923 75.9768 142.02 76.7085 142.723C77.4145 143.401 78.2813 145.344 76.7085 145.783C75.0167 146.255 72.6171 145.502 72.1037 145.358ZM72.1037 145.358C69.6844 144.681 64.0181 142.245 59.9843 140.114C58.0393 139.086 53.7803 136.829 48.6566 133.826M28.3367 120.097C34.5918 125.21 42.2914 130.094 48.6566 133.826M48.6566 133.826C48.9148 140.543 48.7045 146.782 47.583 151.969C46.2915 157.942 43.8288 163.271 41.7626 168.031C40.0081 172.073 41.4132 174.516 45.0339 177.62C47.6002 179.82 51.9179 180.575 54.2491 182.025C54.7703 182.375 55.7616 183.25 55.7843 184.171C55.7971 184.689 54.9071 185.169 53.66 185.572M47.7593 61.7063C43.9139 63.8805 40.4329 66.3865 37.3091 69.0802M53.66 185.572C52.1342 186.065 50.0737 186.442 48.478 186.629C39.1071 187.732 18.9323 188.269 12.5069 184.9C11.8583 184.56 10.828 183.888 11.7326 178.399C13.4413 168.031 19.3713 151.181 20.1907 146.339C21.215 140.286 19.0267 134.419 17.7696 129.624C16.5125 124.828 14.1774 106.949 17.7696 96.7953C18.258 95.4147 18.8614 93.9343 19.581 92.3831C22.9275 85.1701 28.7893 76.4272 37.3091 69.0802M53.66 185.572C53.8247 183.677 52.2875 181.475 48.9291 181.762M37.3091 69.0802C26.9833 61.7063 14.1652 50.7967 13.2098 41.0836C12.2544 31.3705 21.0649 20.4647 29.5159 20.9159C38.1542 21.3771 58.8365 33.8045 72.7303 49.7472C77.5435 42.8535 87.3632 41.1114 93.4271 44.4682C97.0126 46.4531 94.1467 48.9634 92.9302 49.7317C91.957 50.3463 81.1563 62.1788 76.1487 67.3783M76.1487 67.3783C65.698 60.7998 44.9824 46.5407 33.1958 38.732M76.1487 67.3783C81.6466 70.8392 93.9054 77.3717 97.6225 87.3151C98.9134 90.7683 99.0029 92.2695 99.2507 95.4284C99.7868 102.264 101.818 116.974 101.818 119.371M101.818 119.371C101.818 121.222 102.586 127.403 99.9515 127.403C97.5078 127.403 99.5529 122.47 101.818 119.371ZM101.818 119.371C104.143 116.094 106.511 113.541 111.2 108.712C115.889 103.884 119.689 96.3226 121.135 91.7678C122.47 87.5617 123.136 83.6816 125.603 84.2982C127.98 84.8925 127.646 94.796 127.043 99.6395M127.043 99.6395L124.385 99.901M127.043 99.6395C131.292 99.3055 142.645 99.3557 149.728 101.265C156.811 103.174 157.966 105.635 157.866 106.238C157.766 106.841 156.51 108.749 147.669 108.448M147.669 108.448C140.053 108.188 137.009 106.882 136.908 106.329C136.808 105.777 139.732 105.233 142.294 105.735C144.855 106.238 147.317 107.092 147.669 108.448ZM147.669 108.448C147.976 109.461 147.631 111.627 143.787 112.187M143.787 112.187C138.983 112.887 138.156 112.473 138.124 112.187C138.092 111.901 142.101 111.36 143.787 112.187ZM143.787 112.187C145.824 113.428 145.983 114.128 145.951 114.86C145.919 115.591 145.505 116.864 141.019 117.437M141.019 117.437C136.533 118.01 136.435 116.806 137.694 116.565C138.953 116.323 140.658 116.974 141.019 117.437ZM72.3762 89.579C72.3762 91.6318 72.3618 94.1726 72.363 97.0003M72.363 97.0003L66.259 105.569L72.5235 109.437M72.363 97.0003C72.3646 100.792 72.3941 105.099 72.5235 109.437" stroke="#515151"/>
<path fill-rule="evenodd" clip-rule="evenodd" d="M72.2279 97.1124V90.1133L71.9294 90.4405C70.5487 92.0486 68.1708 95.6239 68.9486 100.681L69.0886 101.548L72.2279 97.1124Z" fill="#515151"/>
<path d="M48.6198 148.139C47.7501 138.438 37.4658 133.323 29.9426 121.894C37.3904 127.026 43.7888 130.498 49.1525 133.62C49.1525 133.62 49.0743 143.108 48.6198 148.139Z" fill="#515151"/>
<path d="M97.1004 56.0021C97.5061 60.6984 93.9732 64.874 89.1628 65.2896C84.3523 65.7053 80.1555 62.1976 79.7497 57.5013C79.3439 52.8051 82.8768 48.6295 87.6873 48.2138C92.4978 47.7982 96.6946 51.3059 97.1004 56.0021Z" fill="white" stroke="#515151" stroke-width="3"/>
<path fill-rule="evenodd" clip-rule="evenodd" d="M91.2997 54.1506C91.1589 53.9709 90.8991 53.9395 90.7195 54.0803C89.5785 54.9746 88.2255 55.4157 87.7156 55.5197C87.492 55.5653 87.3477 55.7835 87.3933 56.0072C87.4389 56.2308 87.6571 56.3751 87.8808 56.3295C88.4865 56.206 89.9659 55.721 91.2293 54.7307C91.409 54.5899 91.4404 54.3302 91.2997 54.1506ZM89.5237 57.8263C89.4025 57.3947 89.6542 56.9465 90.0858 56.8254C90.5174 56.7042 90.9655 56.9559 91.0867 57.3875C91.2078 57.8191 90.9562 58.2672 90.5246 58.3884C90.093 58.5096 89.6449 58.2579 89.5237 57.8263ZM95.7528 55.6694C95.3212 55.7906 95.0695 56.2387 95.1907 56.6703C95.3119 57.102 95.76 57.3536 96.1916 57.2324C96.6232 57.1113 96.8748 56.6632 96.7537 56.2316C96.6325 55.7999 96.1844 55.5483 95.7528 55.6694Z" fill="#515151"/>
<path fill-rule="evenodd" clip-rule="evenodd" d="M76.8173 48.0547C79.7313 48.4344 82.4014 46.38 82.7811 43.466C83.1608 40.552 81.1064 37.8819 78.1924 37.5022C75.2784 37.1225 72.6083 39.1769 72.2286 42.0909C71.8489 45.0049 73.9033 47.675 76.8173 48.0547ZM87.496 46.6494C84.1101 46.942 81.2437 48.8129 79.5796 51.4638C79.2599 51.4343 78.9072 51.3901 78.5248 51.3422C78.1632 51.297 77.7751 51.2484 77.3634 51.2057C76.2946 51.0948 75.0876 51.0268 73.8416 51.1752C71.3681 51.4698 68.7508 52.6166 66.7448 55.9365C62.6927 54.0777 56.212 55.0327 51.6573 61.4605L51.6114 61.5252L51.6444 61.5974C55.6836 70.4275 63.5735 80.4008 80.4169 82.5956L80.5002 82.6064L80.548 82.5373C81.5151 81.1374 82.6387 78.7256 82.8727 76.0274C83.1041 73.3584 82.4647 70.4055 79.9414 67.8852C81.4745 66.2935 83.2919 63.6275 83.8717 60.6686C84.1682 59.156 84.1417 57.5638 83.5851 56.0004C83.5721 55.9641 83.5589 55.9279 83.5454 55.8916C85.0066 55.8789 86.765 55.1412 88.2933 53.9872C89.7807 52.8642 91.0701 51.3321 91.6648 49.6504C93.5641 51.1709 95.4809 51.674 97.084 51.6826L97.3334 51.6839L97.2018 51.4721C95.2213 48.2859 91.5302 46.3008 87.496 46.6494Z" fill="#515151"/>
<circle cx="80.6886" cy="61.9548" r="6.1823" transform="rotate(-4.93845 80.6886 61.9548)" stroke="#C6CACD"/>
<path d="M174.024 106.001C173.518 107.8 171.317 111.728 166.554 113.051" stroke="var(--semi-color-primary)" stroke-linecap="round"/>
<path d="M181.214 110.236C180.341 113.119 176.666 119.383 168.942 121.374" stroke="var(--semi-color-primary)" stroke-linecap="round"/>
</svg>
