<svg width="200" height="200" viewBox="0 0 200 200" fill="none" xmlns="http://www.w3.org/2000/svg">
<path d="M100.749 191.987C106.964 191.429 109.45 182.788 111.108 176.935L116.08 191.987H100.749Z" fill="#1C1F23" stroke="#1C1F23"/>
<path d="M103.973 62.9743C100.032 57.9437 102.024 49.1557 111.318 39.9402C124.298 28.058 136.847 30.6854 137.435 30.9599C138.023 31.2344 150.439 40.0194 162.26 52.2647C174.082 64.5099 186.453 74.9969 186.605 91.7998C186.758 108.603 169.346 114.685 156.573 114.761C143.8 114.837 115.296 114.479 109.821 113.567C106.386 118.074 100.923 122.945 98.9086 124.001C103.135 127.633 118.226 142.977 120.041 146.217C121.856 149.458 129.763 160.736 126.133 178.496C124.47 186.634 117.964 190.801 111.242 192.108C111.242 192.108 102.036 192.056 98.9086 192.108C91.1323 192.238 10.8888 192.108 8.55541 192.108C6.222 192.108 5.5492 190.015 8.55541 183.91C11.5616 177.805 22.6451 158.542 28.4536 155.104C30.7651 153.8 35.9866 157.174 37.084 157.956C38.1102 158.687 39.1053 159.55 40.5277 159.432C41.9502 159.313 49.3665 159.28 51.736 159.357C47.4507 156.357 31.7028 141.672 29.7784 134.527C28.2491 128.849 30.0791 125.569 30.8918 124.812C22.3632 119.824 13.6851 109.92 17.0809 95.2047C18.0334 91.077 20.6121 86.7769 22.5345 85.5382C26.1497 83.2087 38.4163 82.0313 45.8547 81.352C78.5525 78.3659 153.04 79.448 155.302 79.4695C152.184 77.0944 140.103 63.5378 139.822 63.0812C139.049 65.2938 135.994 68.1035 133.711 67.7874C131.685 67.5069 130.558 64.3341 132.902 59.3074C132.095 60.1317 131.256 60.9141 130.411 61.6007C129.167 62.6124 127.607 62.8197 127.041 61.6007C126.542 60.5285 126.708 58.4841 127.86 55.7601C126.628 56.9222 125.401 57.8872 124.299 58.4453C120.61 60.312 119.698 53.2123 124.64 47.1704C117.537 50.6427 115.523 53.479 113.759 57.6388C112.672 60.2028 112.288 62.5533 109.297 63.8825C107.003 64.9022 105.082 64.3905 103.973 62.9743Z" fill="#C6CACD"/>
<path d="M124.64 47.1704C117.537 50.6427 115.523 53.479 113.759 57.6388C112.672 60.2028 112.288 62.5533 109.297 63.8825C107.003 64.9022 105.082 64.3905 103.973 62.9743C100.032 57.9437 102.024 49.1557 111.318 39.9402C124.298 28.058 136.847 30.6854 137.435 30.9599C138.023 31.2344 150.439 40.0194 162.26 52.2647C174.082 64.5099 186.453 74.9969 186.605 91.7998C186.758 108.603 169.346 114.685 156.573 114.761C143.8 114.837 115.296 114.479 109.821 113.567M124.64 47.1704C131.639 44.5726 131.278 42.1983 130.866 41.7279C130.454 41.2574 126.228 44.4651 124.64 47.1704ZM124.64 47.1704C119.698 53.2123 120.61 60.312 124.299 58.4453C129.147 55.9917 136.386 45.6727 135.941 45.3268C135.625 45.0809 133.867 46.0738 130.62 50.8241C127.079 56.0054 126.275 59.9522 127.041 61.6007C127.607 62.8197 129.167 62.6124 130.411 61.6007C135.204 57.7034 139.821 50.7163 139.575 50.5407C139.329 50.3651 137.732 50.9884 133.966 57.3084C130.287 63.4832 131.428 67.4713 133.711 67.7874C135.994 68.1035 139.049 65.2938 139.822 63.0812C140.103 63.5378 152.184 77.0944 155.302 79.4695M109.821 113.567C106.386 118.074 100.923 122.945 98.9086 124.001M109.821 113.567C113.405 108.653 116.582 103.629 118.134 98.2721M98.9086 124.001C103.135 127.633 118.226 142.977 120.041 146.217C121.856 149.458 129.763 160.736 126.133 178.496C124.47 186.634 117.964 190.801 111.242 192.108C111.242 192.108 102.036 192.056 98.9086 192.108C91.1323 192.238 10.8888 192.108 8.55541 192.108C6.222 192.108 5.5492 190.015 8.55541 183.91C11.5616 177.805 22.6451 158.542 28.4536 155.104C30.7651 153.8 35.9866 157.174 37.084 157.956C38.1102 158.687 39.1053 159.55 40.5277 159.432C41.9502 159.313 49.3665 159.28 51.736 159.357M98.9086 124.001C96.6167 124.001 90.7456 124.001 88.0966 124.001M51.736 159.357C54.7948 159.456 61.3309 158.866 63.5832 160.9C65.6281 162.747 64.1421 165.492 61.0498 164.742C57.4124 163.859 52.9214 160.186 51.736 159.357ZM51.736 159.357C47.4507 156.357 31.7028 141.672 29.7784 134.527C28.2491 128.849 30.0791 125.569 30.8918 124.812M30.8918 124.812C34.2266 126.6 42.7697 130.887 50.2638 133.724M30.8918 124.812C22.3632 119.824 13.6851 109.92 17.0809 95.2047C18.0334 91.077 20.6121 86.7769 22.5345 85.5382C26.1497 83.2087 38.4163 82.0313 45.8547 81.352C78.5525 78.3659 153.04 79.448 155.302 79.4695M50.2638 133.724C59.6315 137.271 69.4571 139.982 72.6403 143.62C75.8235 147.258 71.8789 152.292 70.7272 156.371C70.4366 157.4 70.1048 158.961 70.4618 159.864C70.9133 161.004 72.2371 161.227 74.2054 159.694C77.7306 156.949 80.858 150.129 81.5088 148.122C82.1596 146.116 77.0743 156.386 76.5319 160.921C75.9896 165.456 80.0201 164.713 82.7289 160.921C85.9014 156.479 87.5288 151.376 87.7457 150.4C87.9627 149.424 85.0131 155.845 84.1459 159.694C83.9122 160.732 83.3028 163.166 84.1459 164.136C85.1049 165.239 87.0172 164.95 89.222 161.41C91.7388 157.368 93.603 151.702 93.8199 150.4C94.0368 149.099 90.7659 157.706 90.2726 161.898C89.9262 164.84 90.9352 166.275 94.4502 161.898C96.4375 159.423 97.8853 155.616 98.7757 151.776M50.2638 133.724C48.2903 136.441 46.0127 139.015 39.4572 140.045M65.2851 104.111C59.5802 99.9652 56.319 99.5478 53.8286 99.5478C50.1876 99.5478 49.3512 101.504 52.6691 102.748C55.9869 103.993 62.0181 104.111 65.2851 104.111ZM65.2851 104.111C67.8364 104.111 70.981 104.111 72.1996 104.111M65.2851 104.111C70.3927 107.822 80.0089 115.502 88.0966 124.001M155.302 79.4695C157.563 79.491 161.438 80.1644 161.106 82.5709C160.89 84.1323 156.389 80.4494 155.302 79.4695ZM88.0966 124.001C88.9354 124.883 89.7578 125.773 90.5569 126.669C92.5004 128.847 99.0321 136.266 99.6819 140.816C100.051 143.403 99.7417 147.609 98.7757 151.776M98.7757 151.776C101.959 154.697 106.119 160.024 107.017 165.952C107.915 171.881 107.017 179.415 97.6169 187.298" stroke="#1C1F23"/>
<path fill-rule="evenodd" clip-rule="evenodd" d="M115.942 192.126L110.767 176.459L110.643 176.896C109.814 179.826 108.782 183.434 107.185 186.38C105.586 189.328 103.443 191.576 100.406 191.848L100.418 192.126H115.942Z" fill="#1C1F23"/>
<path fill-rule="evenodd" clip-rule="evenodd" d="M122.415 137.353L127.509 146.83H120.059L114.965 137.353H122.415Z" fill="#6B7075"/>
<path d="M104.096 141.477H138.046L152.872 168.909H118.922L104.096 141.477Z" fill="#C6CACD" stroke="#1C1F23"/>
<rect x="139.522" y="155.135" width="43.5958" height="38.8611" fill="#6B7075" stroke="#1C1F23"/>
<path d="M139.868 154.692L149.154 137.853H192.608L183.322 154.692H139.868Z" fill="#6B7075" stroke="#1C1F23"/>
<rect x="111.223" y="155.135" width="28.1841" height="38.8611" fill="#6B7075" stroke="#1C1F23"/>
<path fill-rule="evenodd" clip-rule="evenodd" d="M166.555 154.913L170.458 147.944H164.325L160.735 154.356H160.423V154.913V167.735H166.555V154.913Z" fill="#1C1F23"/>
<circle cx="45.5788" cy="38.675" r="33.1711" fill="var(--semi-color-primary)" fill-opacity="0.2"/>
<path fill-rule="evenodd" clip-rule="evenodd" d="M48.8464 47.6655C50.6182 47.2155 51.7207 45.5674 51.3114 43.7858C51.0326 42.5722 51.583 41.3766 52.4502 40.483C55.4777 37.3632 57.5351 32.7054 56.1135 27.7058C55.365 24.9889 53.3437 22.61 50.6836 21.1091C47.7794 19.5095 44.2104 19.2036 40.8078 20.2431L40.6364 20.3159C34.86 22.2838 32.3355 27.3706 32.3808 32.2794C32.3998 34.3267 34.5001 35.4845 36.4694 34.9245C38.4732 34.3547 39.4422 32.118 40.1037 30.1426C40.4948 28.975 41.3606 27.9114 43.0325 27.391C44.9909 26.7621 46.3832 27.1827 47.1885 27.6501C48.0666 28.2889 48.7732 29.0005 48.9656 29.9304C49.8127 32.4031 48.1404 35.1359 46.2289 36.3518C43.5456 38.0343 43.2024 41.8301 43.7717 45.1421C44.1328 47.2427 46.3168 48.308 48.3826 47.7833L48.8464 47.6655ZM48.872 50.8192C51.0245 50.1219 53.3347 51.3017 54.032 53.4542C54.7292 55.6067 53.5495 57.9169 51.397 58.6141C49.2445 59.3114 46.9343 58.1317 46.2371 55.9792C45.5398 53.8266 46.7195 51.5164 48.872 50.8192Z" fill="var(--semi-color-primary)"/>
<path fill-rule="evenodd" clip-rule="evenodd" d="M98.6325 82.5781L98.522 82.5684L98.4877 82.6739C97.7016 85.0952 96.8311 87.906 96.9691 90.709C97.1077 93.5231 98.262 96.3226 101.502 98.7177C104.667 101.057 108.08 100.493 110.687 98.5583C113.288 96.6283 115.105 93.3235 115.105 90.1363C115.105 88.8867 114.291 87.817 113.058 86.917C111.823 86.015 110.141 85.2631 108.343 84.6517C104.746 83.4284 100.649 82.7551 98.6325 82.5781ZM115.813 104.265C114.483 107.369 111.185 111.946 109.698 113.851L109.813 113.704L115.054 114.076L115.091 113.996C115.323 113.505 115.5 112.803 115.638 111.998C115.776 111.19 115.875 110.269 115.944 109.334C116.082 107.463 116.103 105.529 116.08 104.317L115.813 104.265ZM30.8576 124.272L30.697 124.171L29.3633 129.209L29.4735 129.257C33.8679 131.153 43.5848 133.309 50.5631 133.867L50.625 133.598C42.8485 130.556 34.4308 126.532 30.8576 124.272Z" fill="#1C1F23"/>
<path d="M71.0305 48.9893C76.2793 50.2254 87.15 55.3871 88.6431 66.1447" stroke="#1C1F23"/>
<path d="M108.084 96.5775C102.358 96.5775 97.717 91.9361 97.717 86.2107C97.717 80.4852 102.358 75.8438 108.084 75.8438C113.809 75.8438 118.451 80.4852 118.451 86.2107C118.451 91.9361 113.809 96.5775 108.084 96.5775Z" fill="#C6CACD" stroke="#1C1F23" stroke-miterlimit="10"/>
<path fill-rule="evenodd" clip-rule="evenodd" d="M110.797 85.8621C110.694 85.6555 110.443 85.5718 110.236 85.6751C108.822 86.3824 107.28 86.5592 106.71 86.5592C106.48 86.5592 106.292 86.7464 106.292 86.9773C106.292 87.2082 106.48 87.3954 106.71 87.3954C107.379 87.3954 109.055 87.2008 110.61 86.4231C110.817 86.3198 110.9 86.0686 110.797 85.8621ZM108.135 89.3776C108.1 88.8916 108.465 88.469 108.951 88.4337C109.437 88.3983 109.86 88.7637 109.895 89.2497C109.93 89.7357 109.565 90.1583 109.079 90.1937C108.593 90.229 108.171 89.8637 108.135 89.3776ZM115.238 88.4333C114.752 88.4687 114.387 88.8913 114.422 89.3773C114.457 89.8633 114.88 90.2286 115.366 90.1933C115.852 90.158 116.217 89.7354 116.182 89.2494C116.147 88.7634 115.724 88.398 115.238 88.4333Z" fill="#1C1F23"/>
<path d="M100.584 87.3134C100.584 87.3134 94.8494 80.6963 99.9225 76.2848C106.54 70.3294 121.097 75.8437 121.097 75.8437C121.097 75.8437 120.877 82.902 116.245 83.7843C111.833 84.446 103.672 81.358 103.672 81.358L100.584 87.3134Z" fill="#1C1F23"/>
<path d="M98.3781 88.6366C96.9163 88.6366 95.7312 87.4515 95.7312 85.9897C95.7312 84.5278 96.9163 83.3428 98.3781 83.3428C99.8399 83.3428 101.025 84.5278 101.025 85.9897C101.025 87.4515 99.8399 88.6366 98.3781 88.6366Z" fill="#C6CACD" stroke="#1C1F23" stroke-miterlimit="10"/>
</svg>
