<svg width="200" height="200" viewBox="0 0 200 200" fill="none" xmlns="http://www.w3.org/2000/svg">
<path fill-rule="evenodd" clip-rule="evenodd" d="M64.0902 64.8647V8.56348L5.75757 78.9388H50.0161V99.2314H64.0902V78.9388H72.9072V64.8647H64.0902ZM174.268 64.8647V8.56348L124.111 69.0753C124.809 65.3379 125.181 61.3886 125.181 57.3165C125.181 46.3194 122.472 36.2184 117.934 28.7675C113.428 21.3699 106.796 16.1449 98.9252 16.1449C91.0546 16.1449 84.4223 21.3699 79.9166 28.7675C75.3785 36.2184 72.6697 46.3194 72.6697 57.3165C72.6697 68.3135 75.3785 78.4145 79.9166 85.8654C84.4223 93.2631 91.0546 98.488 98.9252 98.488C106.796 98.488 113.428 93.2631 117.934 85.8654C119.219 83.7557 120.357 81.4336 121.329 78.9388H160.194V99.2314H174.268V78.9388H183.085V64.8647H174.268ZM35.7036 64.8647L50.0161 47.5973V64.8647H35.7036ZM160.194 64.8647H145.881L160.194 47.5973V64.8647ZM111.107 57.3165C111.107 66.1634 108.9 73.6414 105.914 78.5443C102.825 83.6161 100.036 84.4139 98.9252 84.4139C97.8142 84.4139 95.0257 83.6161 91.9366 78.5443C88.9504 73.6414 86.7438 66.1634 86.7438 57.3165C86.7438 48.4696 88.9504 40.9916 91.9366 36.0886C95.0257 31.0169 97.8142 30.219 98.9252 30.219C100.036 30.219 102.825 31.0169 105.914 36.0886C108.9 40.9916 111.107 48.4696 111.107 57.3165Z" fill="var(--semi-color-primary)" fill-opacity="0.2"/>
<path fill-rule="evenodd" clip-rule="evenodd" d="M170.206 186.806C171.675 187.59 176.486 188.763 178.339 186.569C179.423 186.569 180.653 186.74 182.014 186.93C184.291 187.247 186.936 187.615 189.883 187.319C192.122 187.093 192.335 186.183 192.004 185.71C193.844 185.205 194.147 184.933 194.237 184.63C194.328 184.328 193.21 182.544 189.883 180.427C189.289 180.049 188.637 179.646 187.959 179.228C184.835 177.299 181.158 175.029 180.114 173.289C178.844 171.173 178.352 157.8 178.003 143.532C177.965 141.996 177.935 140.337 177.903 138.587C177.64 124.082 177.264 103.341 171.551 94.8215C165.149 85.2745 146.95 82.095 130.661 82.9132C114.371 83.7314 103.177 90.5725 97.6648 94.6651C92.1523 98.7577 83.6269 107.494 82.7933 108.513C82.4175 108.972 77.3554 113.416 71.6438 118.383C68.1536 107.879 60.5114 90.2522 55.7584 89.6774C51.1445 89.1194 51.9741 93.8599 52.1101 94.6367C52.1141 94.6601 52.1176 94.6799 52.1203 94.6958C52.4519 96.6783 53.4781 100.361 54.3563 103.513C55.1121 106.225 55.7584 108.544 55.7584 109.049C55.7584 109.922 57.9748 122.886 59.083 129.259C58.1019 128.788 55.6498 128.058 51.8898 127.733C49.871 127.559 47.4752 127.501 44.7274 127.663C34.8957 128.241 22.3603 131.911 19.1364 145.04C15.9125 158.169 28.5277 167.701 41.0495 173.962C51.0668 178.97 65.3454 183.369 71.2325 184.942C69.7734 185.463 66.842 186.736 66.7893 187.658C66.7235 188.811 69.3909 189.799 76.1417 190.49C82.8925 191.182 110.85 191.718 117.23 191.274C123.61 190.829 127.293 185.556 134.656 171.126C135.135 170.186 135.613 169.244 136.088 168.302L135.958 168.678C133.796 174.929 132.604 178.378 133.798 182.053C135.016 185.8 138.192 187.077 139.55 187.124C139.607 187.126 139.681 187.129 139.771 187.132C141.481 187.198 148.936 187.485 154.752 186.133C154.805 186.121 155.923 186.172 157.535 186.246C161.512 186.428 168.492 186.747 169.869 186.588C169.973 186.668 170.085 186.741 170.206 186.806ZM107.873 128.963C108.367 132.229 109.009 135.734 109.809 139.381C108.571 141.383 107.382 143.358 106.263 145.25C103.943 144.315 97.2606 141.698 94.2094 140.506C100.099 136.112 105.557 131.421 107.873 128.963Z" fill="#C6CACD"/>
<path d="M192.004 185.71C190.392 183.403 182.302 180.369 176.96 179.958C171.619 179.547 170.515 180.49 169.556 181.811C168.56 183.182 168.514 185.535 169.869 186.588M192.004 185.71C192.335 186.183 192.122 187.093 189.883 187.319C186.936 187.615 184.291 187.247 182.014 186.93C180.653 186.74 179.423 186.569 178.339 186.569C176.486 188.763 171.675 187.59 170.206 186.806C170.085 186.741 169.973 186.668 169.869 186.588M192.004 185.71C193.844 185.205 194.147 184.933 194.237 184.63C194.328 184.328 193.21 182.544 189.883 180.427C189.289 180.049 188.637 179.646 187.959 179.228C184.835 177.299 181.158 175.029 180.114 173.289C178.844 171.173 178.352 157.8 178.003 143.532C177.965 141.996 177.935 140.337 177.903 138.587C177.64 124.082 177.264 103.341 171.551 94.8215C165.149 85.2745 146.95 82.095 130.661 82.9132C114.371 83.7314 103.177 90.5725 97.6648 94.6651C92.1523 98.7577 83.6269 107.494 82.7933 108.513C82.4175 108.972 77.3554 113.416 71.6438 118.383C68.1536 107.879 60.5114 90.2522 55.7584 89.6774C51.1445 89.1194 51.9741 93.8599 52.1101 94.6367C52.1141 94.6601 52.1176 94.6799 52.1203 94.6958C52.4519 96.6783 53.4781 100.361 54.3563 103.513C55.1121 106.225 55.7584 108.544 55.7584 109.049C55.7584 109.922 57.9748 122.886 59.083 129.259C58.1019 128.788 55.6498 128.058 51.8898 127.733M71.2325 184.942C65.3454 183.369 51.0668 178.97 41.0495 173.962C28.5277 167.701 15.9125 158.169 19.1364 145.04C22.3603 131.911 34.8957 128.241 44.7274 127.663C47.4752 127.501 49.871 127.559 51.8898 127.733M71.2325 184.942C69.7734 185.463 66.842 186.736 66.7893 187.658C66.7235 188.811 69.3909 189.799 76.1417 190.49C82.8925 191.182 110.85 191.718 117.23 191.274C123.61 190.829 127.293 185.556 134.656 171.126C135.135 170.186 135.613 169.244 136.088 168.302M71.2325 184.942C77.1184 182.45 83.5844 178.618 87.7175 174.829C92.7872 170.18 97.268 161.372 97.6801 160.547C97.7628 160.382 98.047 159.839 98.5026 158.989M141.932 163.141C141.457 160.133 140.718 155.805 142.301 148.469C143.771 141.658 148.899 133.163 148.951 137.438C149.001 141.435 142.898 154.789 136.088 168.302M136.088 168.302L135.958 168.678M136.088 168.302C136.044 168.429 136.001 168.554 135.958 168.678M154.752 186.133C155.927 185.86 157.036 185.52 158.016 185.098C164.106 182.474 168.936 176.546 171.551 160.837C174.166 145.128 173.044 118.479 161.263 110.064C149.481 101.648 139.944 103.986 127.227 115.861C121.893 120.842 115.37 130.384 109.809 139.381M154.752 186.133C148.936 187.485 141.481 187.198 139.771 187.132C139.681 187.129 139.607 187.126 139.55 187.124C138.192 187.077 135.016 185.8 133.798 182.053C132.604 178.378 133.796 174.929 135.958 168.678M154.752 186.133C154.805 186.121 155.923 186.172 157.535 186.246C161.512 186.428 168.492 186.747 169.869 186.588M109.809 139.381C109.009 135.734 108.367 132.229 107.873 128.963M109.809 139.381C108.571 141.383 107.382 143.358 106.263 145.25M106.584 114.356C106.584 118.097 106.994 123.151 107.873 128.963M107.873 128.963C105.557 131.421 100.099 136.112 94.2094 140.506M51.8898 127.733C51.8898 127.733 53.1273 134.855 55.7584 139.148C57.802 142.483 60.0262 145.062 62.3717 146.947M98.5026 158.989C91.6338 155.892 80.6316 152.186 75.9891 150.719M98.5026 158.989C99.849 156.477 102.693 151.288 106.263 145.25M75.9891 150.719C76.3781 150.655 76.7673 150.577 77.1567 150.486C81.1292 149.558 87.9157 145.202 94.2094 140.506M75.9891 150.719C71.2868 151.504 66.6294 150.369 62.3717 146.947M62.3717 146.947C59.083 146.104 51.0858 144.564 49.5136 144.536M106.263 145.25C103.943 144.315 97.2606 141.698 94.2094 140.506" stroke="#1C1F23"/>
<path d="M77.7417 73.3135L101.473 116.518L99.7779 119.01L77.0354 128.559L52.4566 84.0792L74.3515 73.3135H77.7417Z" fill="#6B7075"/>
<path d="M74.3515 73.3135H77.7417L101.473 116.518L99.7779 119.01M74.3515 73.3135L52.4566 84.0792L77.0354 128.559L99.7779 119.01M74.3515 73.3135L99.7779 119.01" stroke="#1C1F23"/>
<path d="M83.8944 116.954C84.8636 118.914 78.9883 121.521 75.5754 123.13C74.2484 123.755 73.4789 124.108 72.8749 124.337C73.7833 127.624 74.124 132.466 68.3966 134.153C62.6692 135.84 53.3328 133.133 50.3907 124.542C47.4485 115.951 50.4116 104.576 59.4525 97.5135C65.1169 93.0888 74.4646 91.744 78.868 93.4637C81.0223 94.2784 80.2487 96.1702 78.3053 97.895C76.9555 99.093 75.3847 100.329 73.784 101.482C74.1786 101.467 74.5868 101.463 75.009 101.47C79.1361 101.544 82.272 102.592 82.4267 104.622C82.4981 105.558 81.625 106.746 80.479 108.066C79.8591 108.78 79.2009 109.405 78.5332 109.948C81.3287 109.725 84.4702 110.995 81.4369 114.144C81.0167 114.581 80.5819 114.979 80.1417 115.343C81.8694 115.373 83.3789 115.912 83.8944 116.954Z" fill="#C6CACD"/>
<path d="M69.7304 125.091C71.3847 124.756 71.9254 124.698 72.8749 124.337M72.8749 124.337C73.4789 124.108 74.2484 123.755 75.5754 123.13C78.9883 121.521 84.8636 118.914 83.8944 116.954C83.0282 115.203 79.355 114.872 76.5562 115.99C73.7211 117.122 72.98 118.233 73.0977 118.547C73.2154 118.861 77.8532 117.864 81.4369 114.144C84.8368 110.615 80.479 109.446 77.546 110.094C75.2848 110.594 71.1384 112.154 71.3798 112.938C71.5367 113.448 76.714 112.403 80.479 108.066C81.625 106.746 82.4981 105.558 82.4267 104.622C82.272 102.592 79.1361 101.544 75.009 101.47C66.1826 101.313 63.4529 106.254 63.8482 106.579C64.9542 107.487 73.2067 102.42 78.3053 97.895C80.2487 96.1702 81.0223 94.2784 78.868 93.4637C74.4646 91.744 65.1169 93.0888 59.4525 97.5135C50.4116 104.576 47.4485 115.951 50.3907 124.542C53.3328 133.133 62.6692 135.84 68.3966 134.153C74.124 132.466 73.7833 127.624 72.8749 124.337Z" stroke="#1C1F23"/>
<path fill-rule="evenodd" clip-rule="evenodd" d="M106.482 120.146C106.283 121.712 105.955 124.134 105.276 126.663C104.596 129.194 103.568 131.82 101.974 133.8L102.172 133.99L107.847 129.021L106.755 120.147L106.482 120.146ZM137.569 165.475L137.319 165.361L126.022 186.641H137.943L137.511 186.385C134.004 184.306 133.439 180.592 134.052 176.611C134.575 173.21 135.952 169.658 137.042 166.846L137.042 166.846L137.042 166.845C137.228 166.365 137.406 165.907 137.569 165.475ZM51.7581 127.58L51.5181 127.696C51.8162 129.161 52.5641 132.497 53.1654 134.086L53.1841 134.136L53.2311 134.16C54.8608 135.001 57.6378 136.008 60.6849 136.301C63.7318 136.595 67.0653 136.177 69.7881 134.148L69.6567 133.909C66.5225 135.103 58.5197 135.537 51.7581 127.58Z" fill="#1C1F23"/>
<path fill-rule="evenodd" clip-rule="evenodd" d="M133.545 82.8258L133.56 82.667L133.401 82.6751C131.583 82.7674 127.559 83.056 123.527 83.6266C121.511 83.9118 119.49 84.2679 117.741 84.7059C115.996 85.143 114.507 85.6649 113.564 86.2877L113.504 86.3274L113.502 86.3994C113.46 88.1992 113.625 90.0856 114.147 91.7521C114.668 93.4188 115.549 94.8752 116.943 95.7977C119.764 97.6641 123.635 97.4244 126.934 95.2219C130.235 93.0172 132.969 88.8454 133.545 82.8258Z" fill="#1C1F23"/>
<path d="M126.663 84.7305C126.663 90.1883 122.312 94.5988 116.961 94.5988C111.611 94.5988 107.26 90.1883 107.26 84.7305C107.26 79.2728 111.611 74.8623 116.961 74.8623C122.312 74.8623 126.663 79.2728 126.663 84.7305Z" fill="#C6CACD" stroke="#1C1F23"/>
<path fill-rule="evenodd" clip-rule="evenodd" d="M109.413 70.5964C110.065 70.8454 110.659 71.0722 111.305 70.8567C111.835 70.6801 112.139 70.1638 112.492 69.5619C113.242 68.2861 114.218 66.6256 118.055 67C121.911 67.3762 122.645 69.1734 123.158 70.4306C123.36 70.9261 123.528 71.3378 123.84 71.5454C124.32 71.8656 124.679 71.8805 125.101 71.898C125.649 71.9207 126.304 71.9479 127.47 72.6474C128.885 73.4963 129.957 78.2987 127.705 82.5826L127.957 83.0121C127.51 85.1643 124.911 87.3779 124.911 87.1541C124.911 84.1085 124.911 82.403 121.988 79.7229C117.727 81.3198 111.101 80.8493 108.053 79.8618C108.053 79.8621 108.052 79.8624 108.052 79.8627C104.045 78.5786 102.065 73.048 105.52 70.8567C107.24 69.7662 108.397 70.2084 109.413 70.5964Z" fill="#1C1F23"/>
<path fill-rule="evenodd" clip-rule="evenodd" d="M116.693 81.6081C116.587 81.406 116.337 81.3281 116.135 81.4341C115.933 81.5401 115.856 81.7899 115.962 81.992C116.168 82.3853 116.428 82.7391 116.855 82.9511C117.274 83.1591 117.79 83.198 118.44 83.1165C118.666 83.0881 118.827 82.8816 118.798 82.6551C118.77 82.4286 118.563 82.268 118.337 82.2964C117.757 82.369 117.431 82.3145 117.222 82.2107C117.021 82.1109 116.865 81.9345 116.693 81.6081ZM110.132 85.8176C110.714 85.7883 111.163 85.2847 111.134 84.6928C111.105 84.1009 110.61 83.6449 110.027 83.6742C109.445 83.7035 108.996 84.207 109.025 84.7989C109.054 85.3908 109.549 85.8469 110.132 85.8176ZM116.954 86.5486C117.536 86.5193 117.985 86.0157 117.956 85.4238C117.927 84.8319 117.432 84.3758 116.849 84.4051C116.267 84.4344 115.818 84.938 115.847 85.5299C115.876 86.1218 116.371 86.5779 116.954 86.5486Z" fill="#1C1F23"/>
<ellipse cx="127.421" cy="86.0086" rx="2.47934" ry="2.47934" fill="#C6CACD" stroke="#1C1F23"/>
<circle r="4.67102" transform="matrix(0.707106 0.707108 -0.707106 0.707108 75.0509 75.7799)" fill="var(--semi-color-primary)" stroke="var(--semi-color-primary)" stroke-width="3"/>
<path fill-rule="evenodd" clip-rule="evenodd" d="M77.9 72.9731C77.467 72.5402 76.7651 72.5402 76.3321 72.9731L75.0674 74.2378L73.7597 72.9302C73.3268 72.4972 72.6248 72.4972 72.1919 72.9302C71.759 73.3631 71.759 74.0651 72.1919 74.498L73.4996 75.8057L72.1919 77.1133C71.759 77.5463 71.759 78.2482 72.1919 78.6812C72.6249 79.1141 73.3268 79.1141 73.7598 78.6812L75.0674 77.3735L76.3321 78.6382C76.765 79.0712 77.467 79.0712 77.8999 78.6382C78.3329 78.2053 78.3329 77.5033 77.8999 77.0704L76.6352 75.8057L77.9 74.541C78.3329 74.108 78.3329 73.4061 77.9 72.9731Z" fill="#C6CACD"/>
<path fill-rule="evenodd" clip-rule="evenodd" d="M99.4114 49.113C94.527 43.9319 87.9256 40.3336 80.4098 39.2721C79.1473 39.0938 78.0613 40.0603 77.9895 41.2941C77.9199 42.4899 78.8104 43.4913 79.9573 43.6602C86.3211 44.5977 91.9166 47.6421 96.0889 52.015C96.9223 52.8884 98.3269 53.0069 99.2559 52.1722C100.138 51.3798 100.25 50.0023 99.4114 49.113ZM63.6137 40.5866C55.5676 43.1743 48.8112 48.8441 44.8656 56.3165C44.2843 57.4174 44.7885 58.7368 45.8821 59.2471C46.9947 59.7662 48.2832 59.2713 48.8437 58.2252C52.2365 51.8928 57.9751 47.0772 64.8022 44.8358C65.9265 44.4667 66.6375 43.2895 66.3254 42.1058C66.0169 40.9355 64.8024 40.2043 63.6137 40.5866ZM91.3633 56.3695C88.3381 53.2324 84.3541 50.9947 79.8267 50.151C78.5408 49.9114 77.4303 50.9013 77.3579 52.145C77.2889 53.3297 78.1588 54.3091 79.2632 54.5318C82.6739 55.2193 85.6859 56.9044 88.0143 59.2492C88.8592 60.1001 90.2703 60.2457 91.2125 59.3991C92.0815 58.6183 92.2123 57.25 91.3633 56.3695ZM66.7187 51.7191C61.78 53.4589 57.6195 56.958 55.0588 61.5253C54.443 62.6237 54.9621 63.9476 56.0501 64.4552C57.1678 64.9768 58.4437 64.4711 59.03 63.4606C61.0339 60.0071 64.1987 57.3454 67.9447 55.9632C69.0359 55.5606 69.752 54.399 69.4391 53.212C69.1317 52.0456 67.9122 51.2986 66.7187 51.7191ZM83.3492 63.6709C82.2339 62.5793 80.8765 61.7252 79.3537 61.2006C77.9988 60.7337 76.7948 61.8183 76.7203 63.0978C76.6541 64.2362 77.4494 65.1446 78.3706 65.5448C78.9251 65.7857 79.4365 66.1033 79.8924 66.4834C80.7787 67.2224 82.2197 67.4789 83.2086 66.5904C84.0313 65.8513 84.2173 64.5206 83.3492 63.6709ZM69.075 62.9115C67.2468 63.7389 65.6803 65.0673 64.5652 66.7369C63.841 67.8211 64.4091 69.1613 65.4771 69.6596C66.6103 70.1884 67.8476 69.6402 68.5238 68.782C69.0492 68.1151 69.7049 67.5591 70.4486 67.1498C71.3963 66.6281 72.1349 65.5163 71.8197 64.3204C71.516 63.1685 70.2771 62.3674 69.075 62.9115Z" fill="var(--semi-color-primary)"/>
</svg>
