<svg width="200" height="200" viewBox="0 0 200 200" fill="none" xmlns="http://www.w3.org/2000/svg">
<rect width="200" height="200" fill="transparent"/>
<path fill-rule="evenodd" clip-rule="evenodd" d="M64.09 64.8647V8.56348L5.75732 78.9388H50.0159V99.2314H64.09V78.9388H72.907V64.8647H64.09ZM174.268 64.8647V8.56348L124.111 69.0753C124.809 65.3379 125.18 61.3886 125.18 57.3165C125.18 46.3194 122.472 36.2184 117.934 28.7675C113.428 21.3699 106.796 16.1449 98.925 16.1449C91.0544 16.1449 84.4221 21.3699 79.9164 28.7675C75.3782 36.2184 72.6695 46.3194 72.6695 57.3165C72.6695 68.3135 75.3782 78.4145 79.9164 85.8654C84.4221 93.2631 91.0544 98.488 98.925 98.488C106.796 98.488 113.428 93.2631 117.934 85.8654C119.219 83.7557 120.357 81.4336 121.329 78.9388H160.194V99.2314H174.268V78.9388H183.085V64.8647H174.268ZM35.7033 64.8647L50.0159 47.5973V64.8647H35.7033ZM160.194 64.8647H145.881L160.194 47.5973V64.8647ZM111.106 57.3165C111.106 66.1634 108.9 73.6414 105.914 78.5443C102.825 83.6161 100.036 84.4139 98.925 84.4139C97.814 84.4139 95.0255 83.6161 91.9364 78.5443C88.9501 73.6414 86.7436 66.1634 86.7436 57.3165C86.7436 48.4696 88.9501 40.9916 91.9364 36.0886C95.0255 31.0169 97.814 30.219 98.925 30.219C100.036 30.219 102.825 31.0169 105.914 36.0886C108.9 40.9916 111.106 48.4696 111.106 57.3165Z" fill="var(--semi-color-primary-light-default)"/>
<path d="M178.339 186.569C176.486 188.763 171.675 187.59 170.206 186.806C170.085 186.741 169.973 186.668 169.869 186.588C167.935 186.812 154.934 186.09 154.752 186.133C148.629 187.557 140.69 187.163 139.55 187.124C138.191 187.077 135.016 185.8 133.798 182.053C132.604 178.378 133.796 174.929 135.957 168.678L136.088 168.302C135.613 169.244 135.135 170.186 134.656 171.126C127.293 185.556 123.61 190.829 117.23 191.274C110.85 191.718 82.8924 191.182 76.1416 190.49C69.3908 189.799 66.7234 188.811 66.7893 187.658C66.842 186.736 69.7733 185.463 71.2324 184.942C65.3453 183.369 51.0668 178.97 41.0494 173.962C28.5277 167.701 15.9125 158.169 19.1364 145.04C22.3602 131.911 34.8956 128.241 44.7274 127.663C47.4751 127.501 49.8709 127.559 51.8897 127.733C55.6498 128.058 58.1018 128.788 59.083 129.259C57.9747 122.886 55.7583 109.922 55.7583 109.049C55.7583 107.957 52.7372 98.3843 52.1202 94.6958C52.029 94.1505 51.0054 89.1026 55.7583 89.6774C60.5113 90.2522 68.1535 107.879 71.6437 118.383C77.3554 113.416 82.4174 108.972 82.7933 108.513C83.6268 107.494 92.1522 98.7577 97.6648 94.6651C103.177 90.5725 114.371 83.7314 130.66 82.9132C146.95 82.095 165.149 85.2745 171.551 94.8215C177.953 104.368 177.653 129.264 178.003 143.532C178.352 157.8 178.844 171.173 180.114 173.289C181.384 175.406 186.556 178.31 189.883 180.427C193.21 182.544 194.328 184.328 194.237 184.63C194.146 184.933 193.844 185.205 192.004 185.71C192.335 186.183 192.122 187.093 189.883 187.319C185.174 187.793 181.237 186.569 178.339 186.569Z" fill="white"/>
<path d="M192.004 185.71C190.392 183.403 182.301 180.369 176.96 179.958C171.619 179.547 170.515 180.49 169.556 181.811C168.56 183.182 168.514 185.535 169.869 186.588M192.004 185.71C192.335 186.183 192.122 187.093 189.883 187.319C185.174 187.793 181.237 186.569 178.339 186.569C176.486 188.763 171.675 187.59 170.206 186.806C170.085 186.741 169.973 186.668 169.869 186.588M192.004 185.71C193.844 185.205 194.146 184.933 194.237 184.63C194.328 184.328 193.21 182.544 189.883 180.427C186.556 178.31 181.384 175.406 180.114 173.289C178.844 171.173 178.352 157.8 178.003 143.532C177.653 129.264 177.953 104.368 171.551 94.8215C165.149 85.2745 146.95 82.095 130.66 82.9132C114.371 83.7314 103.177 90.5725 97.6648 94.6651C92.1522 98.7577 83.6268 107.494 82.7933 108.513C82.4174 108.972 77.3554 113.416 71.6437 118.383C68.1535 107.879 60.5113 90.2522 55.7583 89.6774C51.0054 89.1026 52.029 94.1505 52.1202 94.6958C52.7372 98.3843 55.7583 107.957 55.7583 109.049C55.7583 109.922 57.9747 122.886 59.083 129.259C58.1018 128.788 55.6498 128.058 51.8897 127.733M71.2324 184.942C65.3453 183.369 51.0668 178.97 41.0494 173.962C28.5277 167.701 15.9125 158.169 19.1364 145.04C22.3602 131.911 34.8956 128.241 44.7274 127.663C47.4751 127.501 49.8709 127.559 51.8897 127.733M71.2324 184.942C69.7733 185.463 66.842 186.736 66.7893 187.658C66.7234 188.811 69.3908 189.799 76.1416 190.49C82.8925 191.182 110.85 191.718 117.23 191.274C123.61 190.829 127.293 185.556 134.656 171.126C135.135 170.186 135.613 169.244 136.088 168.302M71.2324 184.942C77.1184 182.45 83.5843 178.618 87.7174 174.829C92.7871 170.18 97.2679 161.372 97.68 160.547C97.7628 160.382 98.0469 159.839 98.5026 158.989M141.932 163.141C141.457 160.133 140.718 155.805 142.301 148.469C143.771 141.658 148.898 133.163 148.951 137.438C149.001 141.435 142.898 154.789 136.088 168.302M136.088 168.302C133.845 174.792 132.58 178.305 133.798 182.053C135.016 185.8 138.191 187.077 139.55 187.124C140.69 187.163 148.629 187.557 154.752 186.133M154.752 186.133C155.927 185.86 157.035 185.52 158.016 185.098C164.106 182.474 168.936 176.546 171.551 160.837C174.166 145.128 173.044 118.479 161.263 110.064C149.481 101.648 139.944 103.986 127.227 115.861C121.893 120.842 115.37 130.384 109.809 139.381M154.752 186.133C154.934 186.09 167.935 186.812 169.869 186.588M109.809 139.381C109.009 135.734 108.367 132.229 107.873 128.963M109.809 139.381C108.571 141.383 107.381 143.358 106.263 145.25M106.584 114.356C106.584 118.097 106.994 123.151 107.873 128.963M107.873 128.963C105.557 131.421 100.099 136.112 94.2093 140.506M51.8897 127.733C51.8897 127.733 53.1272 134.855 55.7583 139.148C57.802 142.483 60.0262 145.062 62.3716 146.947M98.5026 158.989C91.6337 155.892 80.6315 152.186 75.989 150.719M98.5026 158.989C99.8489 156.477 102.693 151.288 106.263 145.25M75.989 150.719C76.378 150.655 76.7673 150.577 77.1566 150.486C81.1291 149.558 87.9156 145.202 94.2093 140.506M75.989 150.719C71.2868 151.504 66.6294 150.369 62.3716 146.947M62.3716 146.947C59.083 146.104 51.0857 144.564 49.5136 144.536M106.263 145.25C103.943 144.315 97.2606 141.698 94.2093 140.506" stroke="#515151"/>
<path d="M77.7417 73.3135L101.473 116.518L99.7779 119.01L77.0354 128.559L52.4565 84.0792L74.3515 73.3135H77.7417Z" fill="#E6E8EA"/>
<path d="M74.3515 73.3135H77.7417L101.473 116.518L99.7779 119.01M74.3515 73.3135L52.4565 84.0792L77.0354 128.559L99.7779 119.01M74.3515 73.3135L99.7779 119.01" stroke="#515151"/>
<path d="M83.8944 116.955C84.8636 118.915 78.9883 121.522 75.5754 123.13C74.2484 123.756 73.4789 124.108 72.8749 124.338C73.7833 127.625 74.124 132.467 68.3966 134.153C62.6692 135.84 53.3328 133.133 50.3907 124.542C47.4485 115.951 50.4116 104.576 59.4525 97.514C65.1169 93.0893 74.4646 91.7445 78.868 93.4641C81.0223 94.2788 80.2487 96.1707 78.3053 97.8955C76.9555 99.0934 75.3847 100.329 73.784 101.482C74.1786 101.468 74.5868 101.463 75.009 101.471C79.1361 101.544 82.272 102.592 82.4267 104.622C82.4981 105.558 81.625 106.746 80.479 108.066C79.8591 108.781 79.2009 109.405 78.5332 109.949C81.3287 109.726 84.4702 110.996 81.4369 114.145C81.0167 114.581 80.5819 114.98 80.1417 115.343C81.8694 115.374 83.3789 115.913 83.8944 116.955Z" fill="white"/>
<path d="M69.7304 125.092C71.3847 124.756 71.9254 124.699 72.8749 124.338M72.8749 124.338C73.4789 124.108 74.2484 123.756 75.5754 123.13C78.9883 121.522 84.8636 118.915 83.8944 116.955C83.0282 115.204 79.355 114.873 76.5562 115.991C73.7211 117.123 72.98 118.234 73.0977 118.548C73.2154 118.861 77.8532 117.865 81.4369 114.145C84.8368 110.615 80.479 109.446 77.546 110.095C75.2848 110.595 71.1384 112.155 71.3798 112.939C71.5367 113.449 76.714 112.404 80.479 108.066C81.625 106.746 82.4981 105.558 82.4267 104.622C82.272 102.592 79.1361 101.544 75.009 101.471C66.1826 101.314 63.4529 106.255 63.8482 106.579C64.9542 107.487 73.2067 102.421 78.3053 97.8955C80.2487 96.1707 81.0223 94.2788 78.868 93.4641C74.4646 91.7445 65.1169 93.0893 59.4525 97.514C50.4116 104.576 47.4485 115.951 50.3907 124.542C53.3328 133.133 62.6692 135.84 68.3966 134.153C74.124 132.467 73.7833 127.625 72.8749 124.338Z" stroke="#515151"/>
<path fill-rule="evenodd" clip-rule="evenodd" d="M106.482 120.146C106.283 121.712 105.955 124.134 105.276 126.663C104.596 129.193 103.568 131.819 101.974 133.799L102.172 133.989L107.847 129.02L106.755 120.147L106.482 120.146ZM137.569 165.474L137.319 165.361L126.022 186.64H137.943L137.511 186.384C134.004 184.305 133.439 180.591 134.052 176.61C134.575 173.21 135.952 169.657 137.042 166.845L137.042 166.845L137.042 166.845C137.228 166.365 137.406 165.907 137.569 165.474ZM51.758 127.579L51.5181 127.696C51.8161 129.16 52.564 132.497 53.1654 134.086L53.1841 134.135L53.231 134.16C54.8608 135 57.6377 136.007 60.6848 136.301C63.7317 136.595 67.0652 136.177 69.788 134.148L69.6566 133.908C66.5225 135.103 58.5196 135.537 51.758 127.579Z" fill="#515151"/>
<path fill-rule="evenodd" clip-rule="evenodd" d="M133.545 82.8258L133.56 82.667L133.401 82.6751C131.582 82.7674 127.559 83.056 123.526 83.6266C121.51 83.9118 119.49 84.2679 117.741 84.7059C115.996 85.143 114.506 85.6649 113.563 86.2877L113.503 86.3274L113.501 86.3994C113.459 88.1992 113.625 90.0856 114.146 91.7521C114.668 93.4188 115.548 94.8752 116.942 95.7977C119.763 97.6641 123.635 97.4244 126.933 95.2219C130.235 93.0172 132.968 88.8454 133.545 82.8258Z" fill="#515151"/>
<path d="M126.662 84.731C126.662 90.1888 122.311 94.5993 116.961 94.5993C111.61 94.5993 107.259 90.1888 107.259 84.731C107.259 79.2733 111.61 74.8628 116.961 74.8628C122.311 74.8628 126.662 79.2733 126.662 84.731Z" fill="white" stroke="#515151"/>
<path fill-rule="evenodd" clip-rule="evenodd" d="M109.413 70.5964C110.065 70.8454 110.659 71.0722 111.305 70.8567C111.835 70.6801 112.138 70.1638 112.492 69.5619C113.241 68.2861 114.217 66.6256 118.054 67C121.91 67.3762 122.644 69.1734 123.157 70.4306C123.36 70.9261 123.528 71.3378 123.839 71.5454C124.319 71.8656 124.678 71.8805 125.101 71.898C125.648 71.9207 126.303 71.9479 127.469 72.6474C128.884 73.4963 129.957 78.2987 127.705 82.5826L127.957 83.0121C127.51 85.1643 124.911 87.3779 124.911 87.1541C124.911 84.1085 124.911 82.403 121.987 79.7229C117.726 81.3198 111.101 80.8493 108.052 79.8618C108.052 79.8621 108.052 79.8624 108.051 79.8627C104.044 78.5786 102.065 73.048 105.52 70.8567C107.239 69.7662 108.397 70.2084 109.413 70.5964Z" fill="#515151"/>
<path fill-rule="evenodd" clip-rule="evenodd" d="M116.693 81.6081C116.587 81.406 116.337 81.3281 116.135 81.4341C115.933 81.5401 115.855 81.7899 115.962 81.992C116.168 82.3853 116.428 82.7391 116.855 82.9511C117.274 83.1591 117.789 83.1979 118.439 83.1165C118.666 83.0881 118.826 82.8816 118.798 82.6551C118.769 82.4286 118.563 82.268 118.336 82.2964C117.757 82.369 117.431 82.3145 117.222 82.2107C117.02 82.1109 116.865 81.9345 116.693 81.6081ZM110.132 85.8176C110.714 85.7883 111.163 85.2847 111.134 84.6928C111.105 84.1009 110.609 83.6449 110.027 83.6742C109.445 83.7035 108.996 84.207 109.025 84.7989C109.054 85.3908 109.549 85.8469 110.132 85.8176ZM116.953 86.5486C117.536 86.5193 117.985 86.0157 117.956 85.4238C117.927 84.8319 117.431 84.3758 116.849 84.4051C116.267 84.4344 115.818 84.938 115.847 85.5299C115.876 86.1217 116.371 86.5779 116.953 86.5486Z" fill="#515151"/>
<ellipse cx="127.42" cy="86.0081" rx="2.47934" ry="2.47934" fill="white" stroke="#515151"/>
<circle r="4.67102" transform="matrix(0.707106 0.707108 -0.707106 0.707108 75.0508 75.7794)" fill="var(--semi-color-primary)" stroke="var(--semi-color-primary)" stroke-width="3"/>
<path fill-rule="evenodd" clip-rule="evenodd" d="M77.9 72.9736C77.467 72.5407 76.7651 72.5407 76.3321 72.9736L75.0674 74.2383L73.7597 72.9307C73.3268 72.4977 72.6248 72.4977 72.1919 72.9307C71.759 73.3636 71.759 74.0656 72.1919 74.4985L73.4996 75.8062L72.1919 77.1138C71.759 77.5468 71.759 78.2487 72.1919 78.6817C72.6249 79.1146 73.3268 79.1146 73.7598 78.6817L75.0674 77.374L76.3321 78.6387C76.765 79.0717 77.467 79.0717 77.8999 78.6387C78.3329 78.2058 78.3329 77.5038 77.8999 77.0709L76.6352 75.8062L77.9 74.5415C78.3329 74.1085 78.3329 73.4066 77.9 72.9736Z" fill="white"/>
<path fill-rule="evenodd" clip-rule="evenodd" d="M99.4114 49.113C94.5269 43.9319 87.9255 40.3336 80.4098 39.2721C79.1472 39.0938 78.0613 40.0603 77.9895 41.2941C77.9199 42.4899 78.8103 43.4913 79.9572 43.6602C86.321 44.5977 91.9165 47.6421 96.0889 52.015C96.9222 52.8884 98.3269 53.0069 99.2559 52.1722C100.138 51.3798 100.25 50.0023 99.4114 49.113ZM63.6136 40.5866C55.5675 43.1743 48.8112 48.8441 44.8655 56.3165C44.2842 57.4174 44.7885 58.7368 45.882 59.2471C46.9947 59.7662 48.2831 59.2713 48.8436 58.2252C52.2365 51.8928 57.975 47.0772 64.8021 44.8358C65.9264 44.4667 66.6374 43.2895 66.3254 42.1058C66.0169 40.9355 64.8024 40.2043 63.6136 40.5866ZM91.3632 56.3695C88.3381 53.2324 84.3541 50.9947 79.8266 50.151C78.5408 49.9114 77.4302 50.9013 77.3578 52.145C77.2889 53.3297 78.1588 54.3091 79.2631 54.5318C82.6739 55.2193 85.6858 56.9044 88.0143 59.2492C88.8592 60.1001 90.2702 60.2457 91.2125 59.3991C92.0815 58.6183 92.2122 57.25 91.3632 56.3695ZM66.7186 51.7191C61.7799 53.4589 57.6194 56.958 55.0587 61.5253C54.4429 62.6237 54.962 63.9476 56.05 64.4552C57.1677 64.9768 58.4436 64.4711 59.03 63.4606C61.0339 60.0071 64.1987 57.3454 67.9446 55.9632C69.0358 55.5606 69.752 54.399 69.4391 53.212C69.1316 52.0456 67.9121 51.2986 66.7186 51.7191ZM83.3491 63.6709C82.2338 62.5793 80.8765 61.7252 79.3537 61.2006C77.9987 60.7337 76.7948 61.8183 76.7203 63.0978C76.654 64.2362 77.4494 65.1446 78.3705 65.5448C78.9251 65.7857 79.4364 66.1033 79.8923 66.4834C80.7787 67.2224 82.2197 67.4789 83.2085 66.5904C84.0312 65.8513 84.2173 64.5206 83.3491 63.6709ZM69.0749 62.9115C67.2467 63.7389 65.6802 65.0673 64.5651 66.7369C63.841 67.8211 64.4091 69.1613 65.477 69.6596C66.6102 70.1884 67.8476 69.6402 68.5237 68.782C69.0492 68.1151 69.7049 67.5591 70.4485 67.1498C71.3963 66.6281 72.1348 65.5163 71.8196 64.3204C71.516 63.1685 70.277 62.3674 69.0749 62.9115Z" fill="var(--semi-color-primary)"/>
</svg>
