<svg width="200" height="200" viewBox="0 0 200 200" fill="none" xmlns="http://www.w3.org/2000/svg">
<rect width="200" height="200" fill="transparent"/>
<path fill-rule="evenodd" clip-rule="evenodd" d="M170.456 42.4076C172.994 43.6113 175.989 43.8994 178.902 42.9933C184.998 41.0968 188.424 34.687 186.555 28.6766C184.685 22.6662 178.227 19.3313 172.131 21.2278C166.965 22.8349 163.716 27.6829 163.983 32.7825C161.957 32.0346 159.666 31.926 157.43 32.6215C152.107 34.2775 149.112 39.866 150.742 45.1036C152.371 50.3412 158.007 53.2447 163.331 51.5886C167.538 50.2797 170.291 46.5146 170.456 42.4076Z" fill="#515151"/>
<path d="M26.1662 40.7695C27.9569 42.8356 29.7475 46.6924 24.7888 51.7888M26.1662 50.6869C26.304 47.3811 26.304 40.7695 29.7475 40.7695C33.191 40.7695 32.7778 44.4885 30.8494 46.6924C29.3067 48.4555 27.0845 50.09 26.1662 50.6869ZM26.1662 51.7888C27.36 52.3398 30.2985 53.3866 32.5023 53.1662C35.2571 52.8907 37.0478 50.6869 35.6704 49.1717C34.293 47.6566 28.3701 49.4472 26.1662 51.7888Z" stroke="#515151"/>
<path d="M96.1119 9.96447C99.2797 10.7857 100.258 19.7558 97.489 26.9139C102.877 26.9139 107.898 26.943 110.516 28.5793C113.134 30.2155 112.961 34.4166 108.51 36.0528C106.737 36.7047 105.176 37.065 103.937 37.2509C105.21 37.3397 106.746 37.5266 108.267 37.8676C109.585 38.1633 110.873 38.8258 111.055 39.9148C111.237 41 110.321 42.511 108.101 43.2345C107.201 43.5278 106.306 43.7524 105.459 43.9197C106.386 44.0202 107.258 44.1811 107.898 44.4181C109.435 44.987 110.977 45.7238 111.033 47.8711C111.051 48.5648 110.859 49.2133 110.486 49.7774C118.696 54.3938 127.721 59.1347 130.81 67.3337C131.61 66.9809 132.442 66.6321 133.31 66.2881C150.89 59.3146 177.319 58.6114 186.226 62.0688C195.134 65.5263 196.306 77.1292 192.614 90.666C188.922 104.203 183.179 112.876 182.359 113.872C181.538 114.868 178.901 119.322 181.89 122.955C184.878 126.588 185.741 127.571 187.091 128.825C188.441 130.078 187.863 131.263 186.623 131.607C185.654 131.876 183.936 131.868 181.765 130.536C182.281 131.392 182.625 132.094 182.676 132.499C182.92 134.449 180.361 134.449 177.965 132.743C177.362 132.314 176.554 131.616 175.693 130.83C175.693 130.83 175.076 139.829 175.076 149.298C175.076 157.706 171.375 172.363 163.795 180.933C157.612 187.924 148.777 190.962 138.664 190.063C116.155 188.062 106.734 168.47 106.193 141.153C96.8477 139.35 88.6178 134.173 81.0236 128.818C72.6599 122.922 62.8465 115.282 58.9853 112.2C54.0656 110.423 17.0076 89.5157 13.7278 86.4408C9.7646 86.4408 4.30243 84.5207 3.3458 78.7809C2.38918 73.0412 6.91769 49.4726 15.5273 34.6449C17.8715 30.6077 20.6757 28.7949 21.1766 29.1073C21.3078 29.1892 21.3535 29.5354 21.3135 30.0316C21.9383 29.6153 22.831 29.6214 23.3298 33.1759C23.8286 36.7304 24.1029 45.1192 25.2365 48.73C25.7308 50.3044 26.0348 52.2761 30.9174 56.1064C43.2502 65.7812 68.8171 82.2611 70.3745 83.291C72.6445 84.7919 98.7633 98.7442 104.325 102.945C104.471 102.33 104.665 101.621 104.896 100.846C106.439 95.6702 109.63 87.5479 111.033 84.7473C109.874 84.0377 81.7562 66.1265 65.5842 55.8206C64.5137 55.3164 63.6176 54.7559 62.9405 54.1358C57.2404 48.9157 57.5674 41.4074 61.1017 35.5169C64.6359 29.6265 68.9556 27.532 72.359 26.943C75.7624 26.354 79.8857 27.4666 84.7944 26.354C89.7031 25.2413 90.8812 23.3433 91.0121 19.22C91.1613 14.5205 91.1409 8.6757 96.1119 9.96447Z" fill="white"/>
<path d="M104.277 52.1236C105.285 52.0544 106.378 51.9145 107.44 51.6778C108.833 51.3671 109.89 50.6802 110.486 49.7773C118.696 54.3938 127.721 59.1347 130.81 67.3336C131.61 66.9809 132.442 66.632 133.31 66.288C146.977 60.8667 165.992 59.235 177.965 60.4017C166.588 69.6114 163.241 82.3429 163.547 88.6785C160.542 89.4559 157.235 90.3449 154.637 91.1253C154.349 92.1229 152.267 98.149 149.519 104.854C147.906 108.79 146.601 111.535 144.759 115.059C137.511 108.523 123.14 103.792 104.896 100.846C106.439 95.6702 109.63 87.5479 111.033 84.7473C109.874 84.0377 81.7562 66.1265 65.5841 55.8205C64.5136 55.3163 63.6176 54.7558 62.9404 54.1357C63.778 54.6695 64.6616 55.2326 65.5841 55.8205C74.3431 59.946 94.7808 60.3036 102.545 58.7378C109.185 57.3988 108.576 54.743 107.44 53.4594C106.92 52.8717 105.634 52.4241 104.277 52.1236C101.933 52.2844 100.045 52.063 100.045 51.7884C100.045 51.5527 102.24 51.6723 104.277 52.1236Z" fill="#E6E8EA"/>
<path d="M62.9405 54.1357C69.1582 59.8299 93.8319 60.495 102.546 58.7378C109.185 57.3988 108.576 54.743 107.44 53.4594C106.138 51.9893 100.045 51.3957 100.045 51.7884C100.045 52.1811 103.908 52.465 107.44 51.6778C108.834 51.3672 109.891 50.6803 110.486 49.7774M62.9405 54.1357C57.2404 48.9157 57.5674 41.4074 61.1017 35.5169C64.6359 29.6265 68.9556 27.532 72.359 26.943C75.7624 26.354 79.8857 27.4666 84.7944 26.354C89.7031 25.2413 90.8812 23.3433 91.0121 19.22C91.1613 14.5205 91.1409 8.6757 96.1119 9.96447C99.2797 10.7857 100.258 19.7558 97.489 26.9138C102.877 26.9138 107.898 26.943 110.516 28.5793C113.134 30.2155 112.961 34.4166 108.51 36.0528C104.059 37.689 100.945 37.4884 100.908 37.3032C100.871 37.1181 104.615 37.0487 108.267 37.8676C109.585 38.1633 110.873 38.8258 111.055 39.9148C111.237 41 110.321 42.511 108.101 43.2345C104.121 44.5314 100.241 44.4835 100.241 44.0908C100.241 43.6981 105.584 43.5616 107.898 44.4181C109.435 44.987 110.977 45.7238 111.033 47.8711C111.051 48.5648 110.859 49.2133 110.486 49.7774M62.9405 54.1357C78.4607 64.0271 109.807 83.9972 111.033 84.7473M111.033 84.7473C109.63 87.5479 106.439 95.6702 104.896 100.846C104.665 101.621 104.471 102.33 104.325 102.945M111.033 84.7473C112.227 82.3631 115.395 74.1315 130.81 67.3337M174.311 129.537C172.17 127.501 170.083 125.104 169.558 122.427C168.705 118.081 173.253 126.941 174.311 129.537ZM174.311 129.537C175.307 131.982 175.537 133.323 174.96 133.571C174.382 133.82 168.028 132.131 164.502 124.88C163.539 122.645 163.203 119.948 163.547 119.862C163.89 119.776 166.346 125.857 167.417 132.02C168.403 137.687 157.963 127.055 158.405 119.732C158.589 116.675 159.703 112.288 161.393 107.476M174.311 129.537C174.771 129.976 175.24 130.415 175.693 130.83M171.199 86.7707C174.536 85.9879 175.531 85.5693 176.809 84.6489C179.821 82.4808 178.55 79.0114 175.122 81.7957C174.019 82.691 172.748 84.3015 171.199 86.7707ZM171.199 86.7707C169.131 87.2558 160.238 89.443 154.637 91.1253M171.199 86.7707C168.561 90.974 165.991 96.0713 163.853 101.131M150.486 92.5682C151.239 92.2005 152.752 91.6915 154.637 91.1253M154.637 91.1253C154.349 92.1229 152.267 98.149 149.519 104.854M13.7278 86.4408C17.0076 89.5157 54.0656 110.423 58.9853 112.2C62.8465 115.282 72.6599 122.921 81.0236 128.818C88.6178 134.173 96.8477 139.35 106.193 141.153M13.7278 86.4408C9.7646 86.4408 4.30243 84.5207 3.3458 78.7809C2.38918 73.0412 6.91769 49.4726 15.5273 34.6449C17.8715 30.6077 20.6757 28.7949 21.1766 29.1073C21.3078 29.1892 21.3535 29.5354 21.3135 30.0316M13.7278 86.4408C11.9673 84.7904 9.68927 81.2466 8.9491 78.8443C8.64972 77.6016 8.86606 77.1591 9.84858 76.3979C14.3319 72.9244 16.1494 70.8255 16.1494 65.7753C16.1494 61.3167 13.1129 59.7715 13.6452 54.2238C14.3735 46.6341 19.7392 34.6299 20.4259 33.1759C20.9523 32.0611 21.248 30.8449 21.3135 30.0316M21.3135 30.0316C21.9383 29.6153 22.831 29.6214 23.3298 33.1759C23.8286 36.7304 24.1029 45.1192 25.2365 48.73C25.7308 50.3044 26.0348 52.2761 30.9174 56.1064C43.2502 65.7811 68.8171 82.2611 70.3745 83.291C72.6445 84.7919 98.7633 98.7442 104.325 102.945M104.325 102.945C107.846 105.604 109.541 106.584 109.541 108.549C109.541 109.763 107.211 111.276 104.832 108.898C103.482 107.548 103.793 105.193 104.325 102.945ZM110.486 49.7774C118.696 54.3938 127.721 59.1347 130.81 67.3337M130.81 67.3337C131.61 66.9809 132.442 66.6321 133.31 66.2881C150.89 59.3146 177.319 58.6114 186.226 62.0688C195.134 65.5263 196.306 77.1292 192.614 90.666C188.922 104.203 183.179 112.876 182.359 113.872C181.538 114.868 178.901 119.322 181.89 122.955C184.878 126.588 185.741 127.571 187.091 128.825C188.441 130.078 187.863 131.263 186.623 131.607C185.383 131.952 182.917 131.841 179.845 129.086C176.773 126.331 175.031 121.881 175.209 121.814C175.387 121.748 182.432 130.55 182.676 132.499C182.92 134.449 180.361 134.449 177.965 132.743C177.362 132.314 176.554 131.616 175.693 130.83M106.193 141.153C109.713 141.833 113.391 142.034 117.253 141.586C131.369 139.948 138.114 127.518 143.366 118.075C143.651 117.562 143.937 117.03 144.223 116.483M106.193 141.153C106.734 168.47 116.155 188.062 138.664 190.063C148.777 190.962 157.612 187.924 163.795 180.933C171.375 172.363 175.076 157.706 175.076 149.298C175.076 139.829 175.693 130.83 175.693 130.83M144.223 116.483C144.173 116.719 144.124 116.958 144.076 117.2M144.223 116.483C146.065 112.959 147.906 108.79 149.519 104.854M142.461 132.02C142.429 141.03 143.171 151.275 145.794 154.301C148.548 157.48 149.375 149.699 146.27 140.394C143.923 133.358 142.763 131.806 142.461 132.02ZM142.461 132.02C142.647 126.717 143.234 121.447 144.076 117.2M144.076 117.2C147.723 118.075 149.83 117.652 151.937 116.059C154.044 114.466 156.511 111.337 158.002 109.943C159.492 108.549 160.776 107.682 161.393 107.476M161.393 107.476C162.117 105.415 162.946 103.276 163.853 101.131M163.853 101.131C162.01 101.361 150.39 104.288 149.519 104.854" stroke="#515151"/>
<path d="M107.709 141.578C119.279 143.782 131.393 140.812 142.144 136.619L143.659 118.053C141.391 122.065 133.952 132.875 129.472 136.619C123.687 141.454 113.769 141.7 107.709 141.578Z" fill="#515151"/>
<path fill-rule="evenodd" clip-rule="evenodd" d="M133.425 66.5071C135.292 65.5417 139.639 64.043 141.386 63.6466C144.949 62.8385 147.034 62.2346 151.53 61.6772C149.929 63.4535 147.281 66.3052 144.623 67.7668C137.814 71.512 134.184 69.8337 133.425 66.5071Z" fill="#515151"/>
<path d="M76.5793 62.681C81.2488 63.2281 86.6985 62.0462 89.6647 59.513C84.2928 60.4772 73.7123 58.6865 67.7639 57.1714L76.5793 62.681Z" fill="#515151"/>
<ellipse cx="44.8989" cy="153.728" rx="35.124" ry="35.1239" fill="var(--semi-color-primary-light-default)"/>
<path fill-rule="evenodd" clip-rule="evenodd" d="M63.1649 138.896C65.1634 140.286 65.6566 143.033 64.2666 145.031L48.2714 168.028C45.9908 171.307 41.3462 171.83 38.3928 169.142L26.2559 158.093C24.4558 156.454 24.325 153.667 25.9637 151.867C27.6024 150.066 30.3902 149.936 32.1903 151.574L42.4691 160.931L57.0296 139.997C58.4196 137.999 61.1665 137.506 63.1649 138.896Z" fill="var(--semi-color-primary)"/>
<path d="M75.3183 157.105C80.1921 153.94 88.7087 154.778 92.5957 158.654C96.4826 162.529 91.8312 165.808 89.5165 162.28C87.2019 158.753 87.6223 153.011 90.7736 149.506" stroke="#515151"/>
<path d="M142.159 63.946C137.054 63.946 132.916 59.8075 132.916 54.7023C132.916 49.5971 137.054 45.4585 142.159 45.4585C147.265 45.4585 151.403 49.5971 151.403 54.7023C151.403 59.8075 147.265 63.946 142.159 63.946Z" fill="white" stroke="#515151" stroke-miterlimit="10"/>
<path fill-rule="evenodd" clip-rule="evenodd" d="M150.328 50.4029C148.823 47.3933 145.814 45.4585 142.159 45.4585C140.224 45.4585 138.72 45.8885 137.215 46.7483L137.666 46.8741C137.262 47.1227 136.879 47.3998 136.497 47.7056L150.822 52.2021C150.61 51.5671 150.343 50.932 150.05 50.3253L150.328 50.4029Z" fill="#515151"/>
<path fill-rule="evenodd" clip-rule="evenodd" d="M137.893 51.1851C137.883 51.6884 138.282 52.1051 138.785 52.1157C139.289 52.1263 139.705 51.7269 139.716 51.2237C139.727 50.7204 139.327 50.3038 138.824 50.2932C138.321 50.2825 137.904 50.6819 137.893 51.1851ZM144.576 52.7028C144.566 53.2061 144.965 53.6228 145.468 53.6334C145.972 53.644 146.388 53.2446 146.399 52.7414C146.41 52.2381 146.01 51.8215 145.507 51.8109C145.004 51.8002 144.587 52.1996 144.576 52.7028Z" fill="#515151"/>
<path d="M151.51 58.2628C150.217 58.2628 149.169 57.2144 149.169 55.9211C149.169 54.6279 150.217 53.5796 151.51 53.5796C152.804 53.5796 153.852 54.6279 153.852 55.9211C153.852 57.2144 152.804 58.2628 151.51 58.2628Z" fill="white" stroke="#515151" stroke-miterlimit="10"/>
<path fill-rule="evenodd" clip-rule="evenodd" d="M109.48 88.9016C107.668 89.1499 107.295 89.8514 107.199 90.0926C107.088 90.3695 107.072 90.5812 107.086 90.7428C107.1 90.9143 107.154 91.0904 107.249 91.2664C107.347 91.4474 107.475 91.6029 107.597 91.7145C107.681 91.7919 107.731 91.8197 107.731 91.8201C107.731 91.8204 107.71 91.8092 107.664 91.7926L105.795 96.9757C104.446 96.4892 103.17 95.3103 102.4 93.8815C101.562 92.3281 101.199 90.2539 102.084 88.0443C103.068 85.587 105.395 83.9003 108.731 83.443C111.947 83.0022 116.241 83.6526 121.874 85.7405C128.403 88.1602 133.714 92.0613 138.582 96.1325C140.149 97.4431 141.649 98.751 143.127 100.039C146.346 102.845 149.457 105.557 152.913 107.996C157.838 111.471 163.208 114.182 169.87 115.254C176.544 116.329 184.723 115.793 195.292 112.448L196.955 117.701C185.761 121.243 176.699 121.934 168.994 120.694C161.277 119.451 155.13 116.304 149.736 112.498C146.043 109.892 142.579 106.873 139.255 103.977C137.829 102.734 136.428 101.514 135.047 100.359C130.333 96.4165 125.599 92.997 119.96 90.9067C114.716 88.9631 111.412 88.6367 109.48 88.9016Z" fill="#515151"/>
</svg>
