<svg width="24" height="24" viewBox="0 0 24 24" fill="none" xmlns="http://www.w3.org/2000/svg">
<path fill-rule="evenodd" clip-rule="evenodd" d="M12 1C18.0751 1 23 5.92487 23 12C23 12.9809 22.8716 13.9318 22.6307 14.8367L16.4319 4.60107H16.4246C15.8677 3.75338 14.9083 3.1937 13.8183 3.1937C12.7282 3.1937 11.7688 3.75338 11.2119 4.60107H11.2045L11.1273 4.7374C11.1124 4.76291 11.0977 4.78863 11.0835 4.81459L4.28926 16.8044C4.02032 17.2651 3.86623 17.8011 3.86623 18.3731C3.86623 18.8614 3.97854 19.3235 4.17872 19.7349C2.21346 17.7478 1 15.0156 1 12C1 5.92487 5.92487 1 12 1ZM6.31177 21.417C6.52781 21.4644 6.75226 21.4894 6.98253 21.4894C8.70361 21.4894 10.0989 20.0941 10.0989 18.3731C10.0989 17.821 9.95527 17.3026 9.70354 16.8529L9.70515 16.8523L8.18662 14.2244C7.36844 12.8072 7.85398 10.9951 9.27112 10.177C10.6883 9.35876 12.5003 9.84434 13.3185 11.2615L18.6751 20.3396L18.6772 20.3387C18.7329 20.4294 18.7933 20.517 18.8577 20.6012C16.9772 22.1026 14.5934 23 12 23C9.91821 23 7.97153 22.4217 6.31177 21.417Z" fill="#0040FF"/>
</svg>
