<svg width="24" height="24" viewBox="0 0 24 24" fill="none" xmlns="http://www.w3.org/2000/svg">
<path fill-rule="evenodd" clip-rule="evenodd" d="M5 2H19C20.6569 2 22 3.34315 22 5V19C22 20.6569 20.6569 22 19 22H5C3.34315 22 2 20.6569 2 19V5C2 3.34315 3.34315 2 5 2ZM6 4C5.44772 4 5 4.44772 5 5V19C5 19.5523 5.44772 20 6 20H9C9.55229 20 10 19.5523 10 19V5C10 4.44772 9.55229 4 9 4H6Z" fill="url(#paint0_linear_9801_3966)"/>
<path d="M16 5C16.5523 5 17 5.44772 17 6C17 6.55228 16.5523 7 16 7H13C12.4477 7 12 6.55228 12 6C12 5.44772 12.4477 5 13 5H16Z" fill="#324350"/>
<path d="M16 8.99585C16.5523 8.99585 17 9.44356 17 9.99585C17 10.5481 16.5523 10.9958 16 10.9958H13C12.4477 10.9958 12 10.5481 12 9.99585C12 9.44356 12.4477 8.99585 13 8.99585H16Z" fill="#324350"/>
<path d="M16 13C16.5523 13 17 13.4477 17 14C17 14.5523 16.5523 15 16 15H13C12.4477 15 12 14.5523 12 14C12 13.4477 12.4477 13 13 13H16Z" fill="#324350"/>
<circle cx="19" cy="6" r="1" fill="url(#paint1_linear_9801_3966)"/>
<circle cx="19" cy="10" r="1" fill="url(#paint2_linear_9801_3966)"/>
<circle cx="19" cy="14" r="1" fill="url(#paint3_linear_9801_3966)"/>
<path d="M16 17C16.5523 17 17 17.4477 17 18C17 18.5523 16.5523 19 16 19H13C12.4477 19 12 18.5523 12 18C12 17.4477 12.4477 17 13 17H16Z" fill="#324350"/>
<circle cx="19" cy="18" r="1" fill="url(#paint4_linear_9801_3966)"/>
<defs>
<linearGradient id="paint0_linear_9801_3966" x1="22" y1="22" x2="-0.370122" y2="18.8542" gradientUnits="userSpaceOnUse">
<stop stop-color="#FFDAFE"/>
<stop offset="0.3" stop-color="#F2DAFF"/>
<stop offset="0.6" stop-color="#DFE0FF"/>
<stop offset="1" stop-color="#D5EBFF"/>
</linearGradient>
<linearGradient id="paint1_linear_9801_3966" x1="20" y1="7" x2="17.763" y2="6.68542" gradientUnits="userSpaceOnUse">
<stop stop-color="#E945FF"/>
<stop offset="0.3" stop-color="#A647FF"/>
<stop offset="0.6" stop-color="#6B61FF"/>
<stop offset="1" stop-color="#2E8CFF"/>
</linearGradient>
<linearGradient id="paint2_linear_9801_3966" x1="20" y1="11" x2="17.763" y2="10.6854" gradientUnits="userSpaceOnUse">
<stop stop-color="#E945FF"/>
<stop offset="0.3" stop-color="#A647FF"/>
<stop offset="0.6" stop-color="#6B61FF"/>
<stop offset="1" stop-color="#2E8CFF"/>
</linearGradient>
<linearGradient id="paint3_linear_9801_3966" x1="20" y1="15" x2="17.763" y2="14.6854" gradientUnits="userSpaceOnUse">
<stop stop-color="#E945FF"/>
<stop offset="0.3" stop-color="#A647FF"/>
<stop offset="0.6" stop-color="#6B61FF"/>
<stop offset="1" stop-color="#2E8CFF"/>
</linearGradient>
<linearGradient id="paint4_linear_9801_3966" x1="20" y1="19" x2="17.763" y2="18.6854" gradientUnits="userSpaceOnUse">
<stop stop-color="#E945FF"/>
<stop offset="0.3" stop-color="#A647FF"/>
<stop offset="0.6" stop-color="#6B61FF"/>
<stop offset="1" stop-color="#2E8CFF"/>
</linearGradient>
</defs>
</svg>
