<svg width="24" height="24" viewBox="0 0 24 24" fill="none" xmlns="http://www.w3.org/2000/svg">
<path fill-rule="evenodd" clip-rule="evenodd" d="M1 6C1 4.89543 1.89543 4 3 4H14C15.1046 4 16 4.89543 16 6V18C16 19.1046 15.1046 20 14 20H3C1.89543 20 1 19.1046 1 18V6ZM4.9823 8H7.9823V11H4.9823V8ZM23.0001 7.6185C23.0001 6.875 22.2176 6.39151 21.5526 6.72418L17.5565 8.72354C17.2178 8.89298 17.0039 9.23918 17.0039 9.61786V14.3821C17.0039 14.7608 17.2178 15.107 17.5565 15.2765L21.5526 17.2758C22.2176 17.6085 23.0001 17.125 23.0001 16.3815V7.6185Z" fill="#AAB2BF"/>
</svg>
