<svg width="24" height="24" viewBox="0 0 24 24" fill="none" xmlns="http://www.w3.org/2000/svg">
    <path fill-rule="evenodd" clip-rule="evenodd" d="M12.0002 4C9.06662 4 7.23361 5.77789 6.49989 9.33368C7.60004 7.55579 8.88341 6.88921 10.35 7.33342C11.1867 7.5868 11.7851 8.32278 12.4468 9.1376C13.5254 10.4644 14.7739 12 17.5001 12C20.4333 12 22.2667 10.2221 23 6.66684C21.9003 8.44474 20.6169 9.11132 19.1503 8.66658C18.3132 8.41319 17.7148 7.67722 17.0531 6.86293C15.9745 5.53502 14.7265 4 12.0002 4ZM6.49989 12C3.56673 12 1.73329 13.7779 1 17.3337C2.10015 15.5558 3.38352 14.8892 4.84967 15.3334C5.68685 15.5868 6.28521 16.3228 6.94694 17.1376C8.02553 18.4644 9.27355 20 12.0002 20C14.9334 20 16.7668 18.2226 17.5001 14.6668C16.4 16.4447 15.1166 17.1113 13.65 16.6671C12.8133 16.4132 12.2149 15.6772 11.5532 14.8629C10.4746 13.5361 9.22613 12 6.49989 12Z" fill="#38BDF8"/>
</svg>
