<svg width="24" height="24" viewBox="0 0 24 24" fill="none" xmlns="http://www.w3.org/2000/svg">
<circle cx="12" cy="12" r="10" fill="#4CC3FA"/>
<path d="M18.5 13L21.5 15.5L21 16L17.5 20.5L11 21.5L11.5 20L15.5 18.5L16 14.5L18.5 13Z" fill="#6A6F7F"/>
<path d="M3 8L6 4L7.5 3L13 2L16.5 3.5V6.5L14 7L13.5 9.5L13 12.5H10.5L8 10L6.5 9L3 12H2L3 8Z" fill="#3BCE4A"/>
<path fill-rule="evenodd" clip-rule="evenodd" d="M1.25 12.0001C1.25 6.06304 6.06294 1.25012 12 1.25012C17.9371 1.25012 22.75 6.06304 22.75 12.0001C22.75 17.9372 17.9371 22.7501 12 22.7501C6.06294 22.7501 1.25 17.9372 1.25 12.0001ZM2.78851 11.1503C3.24012 10.9502 3.978 10.4308 4.87586 9.08396C5.15947 8.65854 5.49406 8.30034 5.91442 8.12017C6.38398 7.91892 6.83932 7.98899 7.2169 8.18808C7.55939 8.36866 7.84668 8.65727 8.08282 8.93365C8.32524 9.21738 8.5664 9.55268 8.79771 9.87652L8.82455 9.9141C9.29843 10.5776 9.75453 11.2163 10.2823 11.6773C10.799 12.1286 11.3068 12.3414 11.8938 12.2575C12.2254 12.2101 12.4029 12.1137 12.5034 12.028C12.602 11.9439 12.6791 11.8255 12.7334 11.6404C12.8573 11.2177 12.819 10.6391 12.7527 9.87745L12.7503 9.85008C12.7204 9.50561 12.6876 9.12874 12.6855 8.771C12.6833 8.406 12.7116 8.00648 12.8342 7.63319C12.9619 7.24417 13.1969 6.87157 13.6004 6.60881C13.9923 6.3536 14.4697 6.24998 14.9999 6.24998C15.7447 6.24998 15.952 6.04127 16.0147 5.95008C16.1035 5.82096 16.1557 5.56735 16.0753 5.13819C15.9987 4.73015 15.8263 4.2973 15.6595 3.94907C15.578 3.77899 15.5019 3.63745 15.4468 3.53955C15.4194 3.49074 15.3974 3.45319 15.3828 3.4288L15.3669 3.40244L15.3639 3.39748C15.3594 3.39027 15.355 3.38301 15.3508 3.3757C14.3118 2.97175 13.1818 2.75012 12 2.75012C7.17785 2.75012 3.21753 6.44 2.78851 11.1503ZM17.479 4.54661C17.5058 4.65032 17.5297 4.75564 17.5496 4.86176C17.6566 5.43261 17.6776 6.179 17.2507 6.79988C16.7978 7.45868 16.0051 7.74998 14.9999 7.74998C14.6551 7.74998 14.4919 7.81823 14.419 7.86575C14.3576 7.90573 14.3035 7.96672 14.2593 8.10114C14.21 8.25129 14.1837 8.46505 14.1854 8.76216C14.1872 9.05703 14.2152 9.38057 14.2471 9.74751L14.2525 9.80911C14.3108 10.4768 14.3859 11.336 14.1727 12.0626C14.0551 12.4636 13.8431 12.8568 13.4768 13.1692C13.1125 13.48 12.6494 13.6648 12.106 13.7424C10.943 13.9086 10.0133 13.4339 9.2956 12.807C8.63217 12.2276 8.08546 11.4611 7.64275 10.8404L7.57711 10.7484C7.33968 10.416 7.13553 10.1341 6.9424 9.90804C6.74299 9.67465 6.6045 9.56092 6.5173 9.51494C6.50795 9.51001 6.50042 9.50654 6.49463 9.50412C6.44993 9.52818 6.32105 9.62034 6.12395 9.916C5.0678 11.5002 4.08487 12.2488 3.27843 12.5714C3.09951 12.6429 2.93208 12.6923 2.77799 12.7251C3.1035 16.9236 6.23202 20.336 10.2944 21.0932C10.3962 20.1568 10.6821 19.4701 11.2448 19.0586C11.6041 18.7959 11.9997 18.7065 12.3431 18.6775C12.6397 18.6524 12.9519 18.6698 13.2068 18.684L13.2901 18.6886C13.9037 18.7215 14.2381 18.7003 14.4936 18.5127C14.7366 18.3342 15.0954 17.8501 15.2546 16.4172C15.43 14.8387 15.8972 13.7464 16.6825 13.1405C17.4951 12.5137 18.4448 12.5579 19.2091 12.7797C19.9323 12.9897 20.6031 13.3867 21.0897 13.7238C21.1949 13.1654 21.25 12.5892 21.25 12.0001C21.25 8.94206 19.7661 6.23063 17.479 4.54661ZM12 21.2501C11.9286 21.2501 11.8574 21.2493 11.7863 21.2477C11.8651 20.53 12.0507 20.3276 12.1302 20.2695C12.1875 20.2275 12.2815 20.188 12.4694 20.1721C12.6555 20.1564 12.8607 20.1675 13.1395 20.1826L13.2099 20.1864L13.2254 20.1873C13.7792 20.217 14.6438 20.2634 15.3814 19.7217C16.1384 19.1658 16.5713 18.1499 16.7454 16.5828C16.9034 15.1614 17.2903 14.5661 17.5987 14.3282C17.8799 14.1113 18.2635 14.0672 18.7909 14.2203C19.3199 14.3739 19.8655 14.6945 20.3011 15.0028C20.4356 15.098 20.5554 15.189 20.6559 15.2687C19.3353 18.7643 15.958 21.2501 12 21.2501Z" fill="white"/>
</svg>
