<svg width="24" height="24" viewBox="0 0 24 24" fill="none" xmlns="http://www.w3.org/2000/svg">
<path d="M9.33333 16L10.8889 14.4167L8.47222 12L10.8889 9.58333L9.33333 8L5.33333 12L9.33333 16ZM14.6667 16L18.6667 12L14.6667 8L13.1111 9.58333L15.5278 12L13.1111 14.4167L14.6667 16ZM4.22222 22C3.61111 22 3.08778 21.7826 2.65222 21.3478C2.21741 20.9122 2 20.3889 2 19.7778V4.22222C2 3.61111 2.21741 3.08778 2.65222 2.65222C3.08778 2.21741 3.61111 2 4.22222 2H19.7778C20.3889 2 20.9122 2.21741 21.3478 2.65222C21.7826 3.08778 22 3.61111 22 4.22222V19.7778C22 20.3889 21.7826 20.9122 21.3478 21.3478C20.9122 21.7826 20.3889 22 19.7778 22H4.22222Z" fill="#41B3FF"/>
</svg>
