<svg width="24" height="24" viewBox="0 0 24 24" fill="none" xmlns="http://www.w3.org/2000/svg">
<path d="M9.6 15.6L11 14.175L8.825 12L11 9.825L9.6 8.4L6 12L9.6 15.6ZM14.4 15.6L18 12L14.4 8.4L13 9.825L15.175 12L13 14.175L14.4 15.6ZM5 21C4.45 21 3.979 20.8043 3.587 20.413C3.19567 20.021 3 19.55 3 19V5C3 4.45 3.19567 3.979 3.587 3.587C3.979 3.19567 4.45 3 5 3H19C19.55 3 20.021 3.19567 20.413 3.587C20.8043 3.979 21 4.45 21 5V19C21 19.55 20.8043 20.021 20.413 20.413C20.021 20.8043 19.55 21 19 21H5Z" fill="#41B3FF"/>
</svg>
