<svg width="24" height="24" viewBox="0 0 24 24" fill="none" xmlns="http://www.w3.org/2000/svg">
<path d="M4 4H11V11H4V4Z" fill="#FBCD2C"/>
<path d="M3 11H20V20H3V11Z" fill="#3BCE4A"/>
<path fill-rule="evenodd" clip-rule="evenodd" d="M5 2C3.34315 2 2 3.34315 2 5V19C2 20.6569 3.34315 22 5 22H19C20.6569 22 22 20.6569 22 19V5C22 3.34315 20.6569 2 19 2H5ZM11 8.5C11 9.88071 9.88071 11 8.5 11C7.11929 11 6 9.88071 6 8.5C6 7.11929 7.11929 6 8.5 6C9.88071 6 11 7.11929 11 8.5ZM16.7071 11.7071C16.3166 11.3166 15.6834 11.3166 15.2929 11.7071L11 16L9.70711 14.7071C9.31658 14.3166 8.68342 14.3166 8.29289 14.7071L5 18V19H19V14L16.7071 11.7071Z" fill="#324350"/>
<path fill-rule="evenodd" clip-rule="evenodd" d="M2 5C2 3.34315 3.34315 2 5 2H19C20.6569 2 22 3.34315 22 5V19C22 20.6569 20.6569 22 19 22H5C3.34315 22 2 20.6569 2 19V5ZM6 5C5.44772 5 5 5.44772 5 6V18C5 18.5523 5.44772 19 6 19H18C18.5523 19 19 18.5523 19 18V6C19 5.44772 18.5523 5 18 5H6Z" fill="#AAB2BF"/>
<path fill-rule="evenodd" clip-rule="evenodd" d="M9 4.25C9 3.83579 8.66421 3.5 8.25 3.5H6C4.61929 3.5 3.5 4.61929 3.5 6V8.25C3.5 8.66421 3.83579 9 4.25 9V9C4.66421 9 5 8.66421 5 8.25V6C5 5.44772 5.44772 5 6 5H8.25C8.66421 5 9 4.66421 9 4.25V4.25ZM15.75 5C15.3358 5 15 4.66421 15 4.25V4.25C15 3.83579 15.3358 3.5 15.75 3.5H18C19.3807 3.5 20.5 4.61929 20.5 6V8.25C20.5 8.66421 20.1642 9 19.75 9V9C19.3358 9 19 8.66421 19 8.25V6C19 5.44772 18.5523 5 18 5H15.75ZM15 19.75C15 19.3358 15.3358 19 15.75 19H18C18.5523 19 19 18.5523 19 18V15.75C19 15.3358 19.3358 15 19.75 15V15C20.1642 15 20.5 15.3358 20.5 15.75V18C20.5 19.3807 19.3807 20.5 18 20.5H15.75C15.3358 20.5 15 20.1642 15 19.75V19.75ZM4.25 15C4.66421 15 5 15.3358 5 15.75V18C5 18.5523 5.44772 19 6 19H8.25C8.66421 19 9 19.3358 9 19.75V19.75C9 20.1642 8.66421 20.5 8.25 20.5H6C4.61929 20.5 3.5 19.3807 3.5 18V15.75C3.5 15.3358 3.83579 15 4.25 15V15Z" fill="white"/>
</svg>
