<svg width="24" height="24" viewBox="0 0 24 24" fill="none" xmlns="http://www.w3.org/2000/svg">
<path d="M2 8C2 6.34315 3.34315 5 5 5H17C18.6569 5 20 6.34315 20 8V18C20 19.6569 18.6569 21 17 21H5C3.34315 21 2 19.6569 2 18V8Z" fill="url(#paint0_linear_9668_12907)"/>
<rect x="4" y="8" width="6" height="2" rx="1" fill="url(#paint1_linear_9668_12907)"/>
<rect x="4" y="12" width="6" height="2" rx="1" fill="url(#paint2_linear_9668_12907)"/>
<rect x="4" y="16" width="14" height="2" rx="1" fill="url(#paint3_linear_9668_12907)"/>
<path d="M17.4583 4.62501L20.375 7.54167L21.5917 6.32497C22.0473 5.86935 22.0473 5.13066 21.5917 4.67505L20.325 3.4083C19.8693 2.95269 19.1307 2.95269 18.675 3.4083L17.4583 4.62501Z" fill="#324350"/>
<path d="M10.3109 14.3285L11.2918 10.8953C11.319 10.8 11.3701 10.7132 11.4402 10.6431L16.5833 5.50001L19.5 8.41667L14.3569 13.5598C14.2868 13.6299 14.2 13.681 14.1047 13.7082L10.6715 14.6891C10.4514 14.752 10.248 14.5486 10.3109 14.3285Z" fill="#324350"/>
<defs>
<linearGradient id="paint0_linear_9668_12907" x1="20" y1="21" x2="-0.0299362" y2="17.8312" gradientUnits="userSpaceOnUse">
<stop stop-color="#FFDAFE"/>
<stop offset="0.3" stop-color="#F2DAFF"/>
<stop offset="0.6" stop-color="#DFE0FF"/>
<stop offset="1" stop-color="#D5EBFF"/>
</linearGradient>
<linearGradient id="paint1_linear_9668_12907" x1="10" y1="10" x2="4.19026" y2="7.54902" gradientUnits="userSpaceOnUse">
<stop stop-color="#E945FF"/>
<stop offset="0.3" stop-color="#A647FF"/>
<stop offset="0.6" stop-color="#6B61FF"/>
<stop offset="1" stop-color="#2E8CFF"/>
</linearGradient>
<linearGradient id="paint2_linear_9668_12907" x1="10" y1="14" x2="4.19026" y2="11.549" gradientUnits="userSpaceOnUse">
<stop stop-color="#E945FF"/>
<stop offset="0.3" stop-color="#A647FF"/>
<stop offset="0.6" stop-color="#6B61FF"/>
<stop offset="1" stop-color="#2E8CFF"/>
</linearGradient>
<linearGradient id="paint3_linear_9668_12907" x1="18" y1="18" x2="9.88989" y2="10.0166" gradientUnits="userSpaceOnUse">
<stop stop-color="#E945FF"/>
<stop offset="0.3" stop-color="#A647FF"/>
<stop offset="0.6" stop-color="#6B61FF"/>
<stop offset="1" stop-color="#2E8CFF"/>
</linearGradient>
</defs>
</svg>
