<svg width="24" height="24" viewBox="0 0 24 24" fill="none" xmlns="http://www.w3.org/2000/svg">
<rect x="2" y="2" width="20" height="20" rx="3" fill="#4CC3FA"/>
<path d="M8.32528 8.27273H6.82102L4.65199 9.66619V11.1151L6.69318 9.81108H6.74432V17H8.32528V8.27273ZM11.0281 17.0938C11.5309 17.0938 11.9613 16.6761 11.9656 16.1562C11.9613 15.6449 11.5309 15.2273 11.0281 15.2273C10.5082 15.2273 10.0863 15.6449 10.0906 16.1562C10.0863 16.6761 10.5082 17.0938 11.0281 17.0938ZM16.4272 17.1662C18.5323 17.1705 19.7894 15.5085 19.7894 12.6449C19.7894 9.7983 18.5238 8.15341 16.4272 8.15341C14.3306 8.15341 13.0692 9.79403 13.065 12.6449C13.065 15.5043 14.3221 17.1662 16.4272 17.1662ZM16.4272 15.8324C15.3406 15.8324 14.6587 14.7415 14.663 12.6449C14.6673 10.5653 15.3448 9.47017 16.4272 9.47017C17.5138 9.47017 18.1914 10.5653 18.1957 12.6449C18.1957 14.7415 17.5181 15.8324 16.4272 15.8324Z" fill="white"/>
</svg>
