<svg width="113" height="42" viewBox="0 0 113 42" fill="none" xmlns="http://www.w3.org/2000/svg">
<path fill-rule="evenodd" clip-rule="evenodd" d="M0 15.6199C0 24.2465 6.99326 31.2398 15.6199 31.2398V0C6.99326 0 0 6.99326 0 15.6199ZM36.4464 26.0332C36.4464 17.4066 29.4531 10.4133 20.8265 10.4133V41.6531C29.4531 41.6531 36.4464 34.6598 36.4464 26.0332ZM90.2433 2.52952C90.2433 3.44721 89.4317 4.19115 88.4306 4.19115C87.4294 4.19115 86.6179 3.44721 86.6179 2.52952C86.6179 1.61182 87.4294 0.867879 88.4306 0.867879C89.4317 0.867879 90.2433 1.61182 90.2433 2.52952ZM52.703 9.03351C52.3442 6.47433 49.9764 5.20671 47.2019 5.20671C44.5232 5.20671 42.0836 6.52217 42.0836 9.15309C42.0836 10.9708 43.136 12.1667 44.8341 12.6451C45.482 12.8326 46.215 13.0323 47.0244 13.2528L47.0246 13.2529C47.3505 13.3417 47.6889 13.4339 48.039 13.53C48.9718 13.7931 49.498 14.1279 49.498 14.7976C49.498 15.6347 48.6848 16.0413 47.6564 16.0413C46.2692 16.0413 45.2407 15.3716 44.9776 14.104L41.6531 14.6063C42.1553 17.5481 44.3318 18.8397 47.5846 18.8397C50.5265 18.8397 52.8226 17.3329 52.8226 14.6541C52.8226 12.4537 51.5071 11.4492 48.7566 10.7556C47.8238 10.5164 47.2019 10.349 46.5562 10.1576C45.7669 9.91846 45.3125 9.63144 45.3125 8.98567C45.3125 8.3399 46.1974 7.95722 47.2976 8.00505C48.4696 8.05289 49.2588 8.72258 49.3784 9.63144L52.703 9.03351ZM57.1779 12.9321H66.2426C66.6014 8.43557 64.4249 5.20671 60.1915 5.20671C56.269 5.20671 53.662 8.00505 53.662 12.1906C53.662 16.0413 56.3408 18.8397 60.3829 18.8397C62.7985 18.8397 66.074 16.3661 66.1231 14.1758H62.8703C62.368 15.2521 61.3874 15.8022 60.1915 15.8022C58.4455 15.8022 57.4171 14.7259 57.1779 12.9321ZM60.1915 8.02897C62.0332 8.02897 62.7268 8.89 62.942 10.4207H57.2736C57.5845 8.98567 58.4455 8.02897 60.1915 8.02897ZM81.2242 5.31497C82.3005 5.31497 83.3396 5.58939 84.1528 6.45042C85.2769 7.62237 85.3965 8.96175 85.3965 10.6121V18.4809H82.0959V10.8512C82.0959 9.91845 81.9285 9.34443 81.474 8.84217C81.0675 8.38773 80.7698 8.20898 80.1479 8.20898C79.5261 8.20898 79.1843 8.41165 78.7777 8.86609C78.2754 9.44011 78.1797 10.0141 78.1797 10.6599V18.4809H74.8791V10.8512C74.8791 9.91845 74.7117 9.34443 74.2573 8.84217C73.8507 8.38773 73.519 8.20898 72.8971 8.20898C72.2753 8.20898 71.9675 8.41165 71.5609 8.86609C71.0586 9.44011 70.9629 10.0141 70.9629 10.6599V18.4809H67.6862V5.56547H70.5563V6.95268C71.4652 5.8764 72.5384 5.31497 73.9734 5.31497C75.0497 5.31497 76.1228 5.58939 76.936 6.45042C77.1752 6.71351 77.3904 6.9766 77.534 7.23969C78.4428 5.99598 79.6456 5.31497 81.2242 5.31497ZM86.6179 5.64059V18.4809H89.8707V5.64059H86.6179ZM51.9024 23.4728V19.0911H55.1791V35.9578H52.309V34.7493C51.9024 35.6557 50.252 36.3165 48.817 36.3165C45.2533 36.3165 42.8615 33.3747 42.8615 29.5C42.8615 25.5537 45.2772 22.6836 48.9844 22.6836C50.1325 22.6836 51.0892 22.9706 51.9024 23.4728ZM46.3057 29.5C46.3057 31.6765 47.2384 33.4225 49.3432 33.4225C51.5197 33.4225 52.309 31.844 52.309 29.5C52.309 27.1561 51.4958 25.5776 49.4628 25.5776C47.2863 25.5776 46.3057 27.3475 46.3057 29.5ZM59.6656 30.4089H68.7304C69.0891 25.9124 66.9127 22.6836 62.6793 22.6836C58.7568 22.6836 56.1498 25.4819 56.1498 29.6675C56.1498 33.5182 58.8285 36.3165 62.8706 36.3165C65.2863 36.3165 68.4909 34.4472 68.6108 31.6526H65.358C64.8557 32.7289 63.8751 33.279 62.6793 33.279C60.9333 33.279 59.9048 32.2027 59.6656 30.4089ZM62.6793 25.5058C64.5209 25.5058 65.2145 26.3669 65.4298 27.8976H59.7613C60.0722 26.4625 60.9333 25.5058 62.6793 25.5058ZM75.1875 22.6836C77.9619 22.6836 80.3298 23.9512 80.6885 26.5104L77.364 27.1083C77.2444 26.1994 76.4551 25.5297 75.2832 25.4819C74.183 25.4341 73.298 25.8167 73.298 26.4625C73.298 27.1083 73.7524 27.3953 74.5417 27.6345C75.1875 27.8258 75.8093 27.9932 76.7421 28.2324C79.4926 28.926 80.8081 29.9306 80.8081 32.131C80.8081 34.8097 78.512 36.3165 75.5702 36.3165C72.3174 36.3165 70.1409 35.025 69.6386 32.0831L72.9632 31.5809C73.2263 32.8485 74.2547 33.5182 75.6419 33.5182C76.6704 33.5182 77.4836 33.1116 77.4836 32.2745C77.4836 31.6048 76.9574 31.2699 76.0246 31.0068C75.6744 30.9107 75.3361 30.8185 75.0101 30.7297L75.01 30.7297C74.2006 30.5092 73.4676 30.3095 72.8197 30.1219C71.1215 29.6436 70.0691 28.4477 70.0691 26.6299C70.0691 23.999 72.5087 22.6836 75.1875 22.6836ZM82.0001 23.0423V35.9578H85.2529V23.0423H82.0001ZM96.0798 24.0708V23.0423H98.926V36.8427C98.926 37.4885 98.8782 38.0386 98.7347 38.5887C98.1128 40.9565 95.4341 42.0001 92.5879 42.0001C90.3875 42.0001 88.0436 40.9037 87.0629 39.2294L90.0765 37.7705C90.4831 38.5358 91.7029 38.9386 92.6118 38.9386C94.0708 38.9386 95.7211 38.2299 95.6732 36.7949V35.5033C94.8361 36.0295 93.8077 36.3165 92.5879 36.3165C89.0242 36.3165 86.6324 33.3747 86.6324 29.5C86.6324 25.5537 89.0481 22.6836 92.7553 22.6836C94.0947 22.6836 95.5504 23.2689 96.0798 24.0708ZM90.0765 29.5C90.0765 31.6765 91.0093 33.4225 93.1141 33.4225C95.2906 33.4225 96.0798 31.844 96.0798 29.5C96.0798 27.1561 95.2666 25.5776 93.2337 25.5776C91.0572 25.5776 90.0765 27.3475 90.0765 29.5ZM110.919 24.0708C109.675 22.851 108.12 22.5879 106.59 22.6836C105.418 22.7553 104.102 23.1858 103.265 24.1904C103.217 24.2621 103.146 24.3339 103.098 24.3817V23.0423H100.228V35.9578H103.504V30.3372C103.504 29.4522 103.528 28.4477 103.648 27.8737C103.791 27.1561 104.126 26.5821 104.605 26.2233C105.035 25.9124 105.537 25.745 106.135 25.7211C107.02 25.6972 107.714 25.9603 108.168 26.4625C108.838 27.18 109.029 28.5194 109.029 29.8588V35.9578H112.33V29.7153C112.33 27.7062 112.33 25.458 110.919 24.0708Z" fill="white"/>
</svg>
