<svg width="24" height="24" viewBox="0 0 24 24" fill="none" xmlns="http://www.w3.org/2000/svg">
<rect x="2" y="2" width="12" height="12" rx="2" fill="#DDE3E8"/>
<rect x="8" y="6" width="13" height="13" rx="2" fill="#4CC3FA"/>
<mask id="path-3-outside-1_7627_1716" maskUnits="userSpaceOnUse" x="9" y="9" width="14" height="14" fill="black">
<rect fill="white" x="9" y="9" width="14" height="14"/>
<path d="M12.75 19.8472L11.5 16.2222L11.0104 13.7742C11.0035 13.7396 11 13.7045 11 13.6693V13.629C11 13.2865 11.4456 13.1537 11.6331 13.4405C11.6469 13.4616 11.6592 13.4838 11.6698 13.5067L12.6527 15.6364C12.7075 15.7553 12.8448 15.8117 12.9674 15.7657L13 15.7535L12.5323 12.3333C12.5116 12.1821 12.5514 12.0288 12.643 11.9066C12.7711 11.7358 13.0135 11.7011 13.1844 11.8293L13.2177 11.8542C13.3202 11.9311 13.3974 12.037 13.4393 12.1581L14.4672 15.1277C14.4868 15.1843 14.5402 15.2222 14.6001 15.2222C14.6813 15.2222 14.7456 15.1537 14.7403 15.0726L14.5196 11.6516C14.5072 11.4581 14.5786 11.2687 14.7156 11.1316C14.8775 10.9697 15.1353 10.9554 15.314 11.0985L15.3991 11.1666C15.5445 11.2828 15.6414 11.449 15.6711 11.6328L16.2307 15.1028C16.2418 15.1716 16.3013 15.2222 16.371 15.2222C16.4442 15.2222 16.5054 15.1667 16.5124 15.0938L16.8445 11.6627C16.864 11.461 16.9643 11.2758 17.1225 11.1493L17.1741 11.108C17.3596 10.9595 17.6271 10.9743 17.7951 11.1424C17.9263 11.2735 18 11.4515 18 11.637V16.5143C18 16.7121 18.2188 16.8316 18.3852 16.7246L19.5029 16.0061C19.6642 15.9024 19.852 15.8472 20.0437 15.8472H20.5608C20.7546 15.8472 20.8747 16.0582 20.7758 16.2249L18.625 19.8472C18.625 19.8472 17.75 20.8472 15.75 20.8472C13.75 20.8472 12.9167 20.1806 12.75 19.8472Z"/>
</mask>
<path d="M12.75 19.8472L11.5 16.2222L11.0104 13.7742C11.0035 13.7396 11 13.7045 11 13.6693V13.629C11 13.2865 11.4456 13.1537 11.6331 13.4405C11.6469 13.4616 11.6592 13.4838 11.6698 13.5067L12.6527 15.6364C12.7075 15.7553 12.8448 15.8117 12.9674 15.7657L13 15.7535L12.5323 12.3333C12.5116 12.1821 12.5514 12.0288 12.643 11.9066C12.7711 11.7358 13.0135 11.7011 13.1844 11.8293L13.2177 11.8542C13.3202 11.9311 13.3974 12.037 13.4393 12.1581L14.4672 15.1277C14.4868 15.1843 14.5402 15.2222 14.6001 15.2222C14.6813 15.2222 14.7456 15.1537 14.7403 15.0726L14.5196 11.6516C14.5072 11.4581 14.5786 11.2687 14.7156 11.1316C14.8775 10.9697 15.1353 10.9554 15.314 11.0985L15.3991 11.1666C15.5445 11.2828 15.6414 11.449 15.6711 11.6328L16.2307 15.1028C16.2418 15.1716 16.3013 15.2222 16.371 15.2222C16.4442 15.2222 16.5054 15.1667 16.5124 15.0938L16.8445 11.6627C16.864 11.461 16.9643 11.2758 17.1225 11.1493L17.1741 11.108C17.3596 10.9595 17.6271 10.9743 17.7951 11.1424C17.9263 11.2735 18 11.4515 18 11.637V16.5143C18 16.7121 18.2188 16.8316 18.3852 16.7246L19.5029 16.0061C19.6642 15.9024 19.852 15.8472 20.0437 15.8472H20.5608C20.7546 15.8472 20.8747 16.0582 20.7758 16.2249L18.625 19.8472C18.625 19.8472 17.75 20.8472 15.75 20.8472C13.75 20.8472 12.9167 20.1806 12.75 19.8472Z" fill="white"/>
<path d="M12.75 19.8472L11.3319 20.3362C11.3534 20.3985 11.3789 20.4592 11.4084 20.5181L12.75 19.8472ZM11.5 16.2222L10.0291 16.5164C10.0423 16.5825 10.06 16.6475 10.0819 16.7112L11.5 16.2222ZM11.0104 13.7742L9.5395 14.0683L9.53952 14.0684L11.0104 13.7742ZM11.6331 13.4405L10.3776 14.2613L10.3778 14.2617L11.6331 13.4405ZM11.6698 13.5067L13.0317 12.8781L13.0316 12.878L11.6698 13.5067ZM12.6527 15.6364L11.2907 16.265L11.2908 16.2651L12.6527 15.6364ZM12.9674 15.7657L12.441 14.3611L12.4408 14.3612L12.9674 15.7657ZM13 15.7535L13.5264 17.1581C14.1827 16.9121 14.5811 16.2446 14.4862 15.5502L13 15.7535ZM12.5323 12.3333L11.0461 12.5365L11.0461 12.5365L12.5323 12.3333ZM12.643 11.9066L11.4429 11.0067L11.4429 11.0067L12.643 11.9066ZM13.1844 11.8293L14.0845 10.6293L14.0844 10.6293L13.1844 11.8293ZM13.2177 11.8542L12.3176 13.0542L12.3176 13.0542L13.2177 11.8542ZM13.4393 12.1581L12.0218 12.6487L12.0218 12.6487L13.4393 12.1581ZM14.4672 15.1277L13.0498 15.6183L13.0498 15.6185L14.4672 15.1277ZM14.7403 15.0726L16.2372 14.9761L16.2372 14.9761L14.7403 15.0726ZM14.5196 11.6516L13.0227 11.7481L13.0227 11.7481L14.5196 11.6516ZM14.7156 11.1316L13.655 10.0709L13.6549 10.071L14.7156 11.1316ZM15.314 11.0985L14.377 12.2698L14.377 12.2698L15.314 11.0985ZM15.3991 11.1666L16.3362 9.99525L16.3362 9.99522L15.3991 11.1666ZM15.6711 11.6328L14.1902 11.8715L14.1902 11.8716L15.6711 11.6328ZM16.2307 15.1028L17.7116 14.864L17.7116 14.8639L16.2307 15.1028ZM16.5124 15.0938L18.0054 15.2384L18.0054 15.2383L16.5124 15.0938ZM16.8445 11.6627L15.3515 11.5181L15.3514 11.5182L16.8445 11.6627ZM17.1225 11.1493L18.0595 12.3206L18.0597 12.3204L17.1225 11.1493ZM17.1741 11.108L16.2371 9.93665L16.2368 9.93683L17.1741 11.108ZM17.7951 11.1424L18.8558 10.0817L18.8558 10.0817L17.7951 11.1424ZM18.3852 16.7246L19.1962 17.9865L19.1963 17.9864L18.3852 16.7246ZM19.5029 16.0061L20.3141 17.2678L20.3141 17.2678L19.5029 16.0061ZM20.7758 16.2249L19.486 15.459L19.486 15.4591L20.7758 16.2249ZM18.625 19.8472L19.7539 20.835C19.8142 20.7661 19.868 20.6918 19.9148 20.613L18.625 19.8472ZM14.1681 19.3583L12.9181 15.7333L10.0819 16.7112L11.3319 20.3362L14.1681 19.3583ZM12.9709 15.9281L12.4813 13.48L9.53952 14.0684L10.0291 16.5164L12.9709 15.9281ZM12.4813 13.4801C12.4937 13.5424 12.5 13.6057 12.5 13.6693H9.5C9.5 13.8033 9.51324 13.9369 9.5395 14.0683L12.4813 13.4801ZM12.5 13.6693V13.629H9.5V13.6693H12.5ZM12.5 13.629C12.5 14.7776 11.0061 15.2225 10.3776 14.2613L12.8885 12.6196C11.8851 11.0849 9.5 11.7954 9.5 13.629H12.5ZM10.3778 14.2617C10.3513 14.2212 10.328 14.179 10.3079 14.1354L13.0316 12.878C12.9904 12.7886 12.9425 12.7021 12.8883 12.6192L10.3778 14.2617ZM10.3078 14.1353L11.2907 16.265L14.0146 15.0078L13.0317 12.8781L10.3078 14.1353ZM11.2908 16.2651C11.6749 17.0972 12.636 17.492 13.4941 17.1702L12.4408 14.3612C13.0537 14.1314 13.7402 14.4133 14.0146 15.0077L11.2908 16.2651ZM13.4939 17.1703L13.5264 17.1581L12.4736 14.3489L12.441 14.3611L13.4939 17.1703ZM14.4862 15.5502L14.0184 12.1301L11.0461 12.5365L11.5138 15.9567L14.4862 15.5502ZM14.0185 12.1301C14.0512 12.37 13.9882 12.613 13.843 12.8065L11.4429 11.0067C11.1146 11.4445 10.972 11.9941 11.0461 12.5365L14.0185 12.1301ZM13.843 12.8066C13.474 13.2985 12.7762 13.3982 12.2844 13.0293L14.0844 10.6293C13.2508 10.0041 12.0682 10.173 11.4429 11.0067L13.843 12.8066ZM12.2843 13.0292L12.3176 13.0542L14.1178 10.6543L14.0845 10.6293L12.2843 13.0292ZM12.3176 13.0542C12.1808 12.9516 12.0778 12.8104 12.0218 12.6487L14.8568 11.6674C14.717 11.2635 14.4596 10.9107 14.1177 10.6543L12.3176 13.0542ZM12.0218 12.6487L13.0498 15.6183L15.8847 14.637L14.8568 11.6674L12.0218 12.6487ZM13.0498 15.6185C13.2786 16.279 13.9008 16.7222 14.6001 16.7222V13.7222C15.1796 13.7222 15.6951 14.0895 15.8847 14.6368L13.0498 15.6185ZM14.6001 16.7222C15.5476 16.7222 16.2982 15.9219 16.2372 14.9761L13.2435 15.1692C13.1929 14.3855 13.815 13.7222 14.6001 13.7222V16.7222ZM16.2372 14.9761L16.0165 11.555L13.0227 11.7481L13.2435 15.1692L16.2372 14.9761ZM16.0165 11.555C16.0318 11.7921 15.9443 12.0243 15.7764 12.1922L13.6549 10.071C13.2129 10.5131 12.9825 11.1241 13.0227 11.7481L16.0165 11.555ZM15.7763 12.1923C15.3977 12.5708 14.7951 12.6042 14.377 12.2698L16.2511 9.92716C15.4754 9.30666 14.3573 9.36862 13.655 10.0709L15.7763 12.1923ZM14.377 12.2698L14.4621 12.3379L16.3362 9.99522L16.251 9.92712L14.377 12.2698ZM14.4621 12.3379C14.3168 12.2216 14.2198 12.0554 14.1902 11.8715L17.1519 11.3941C17.063 10.8426 16.7722 10.3441 16.3362 9.99525L14.4621 12.3379ZM14.1902 11.8716L14.7499 15.3416L17.7116 14.8639L17.1519 11.3939L14.1902 11.8716ZM14.7498 15.3415C14.8782 16.1377 15.5654 16.7222 16.371 16.7222V13.7222C17.0371 13.7222 17.6054 14.2056 17.7116 14.864L14.7498 15.3415ZM16.371 16.7222C17.2167 16.7222 17.924 16.0799 18.0054 15.2384L15.0194 14.9493C15.0868 14.2534 15.6716 13.7222 16.371 13.7222V16.7222ZM18.0054 15.2383L18.3375 11.8072L15.3514 11.5182L15.0194 14.9494L18.0054 15.2383ZM18.3375 11.8072C18.318 12.0088 18.2178 12.194 18.0595 12.3206L16.1855 9.97791C15.7107 10.3577 15.41 10.9133 15.3515 11.5181L18.3375 11.8072ZM18.0597 12.3204L18.1113 12.2791L16.2368 9.93683L16.1852 9.97813L18.0597 12.3204ZM18.1111 12.2793C17.6998 12.6083 17.1069 12.5755 16.7345 12.203L18.8558 10.0817C18.1473 9.37323 17.0194 9.31077 16.2371 9.93665L18.1111 12.2793ZM16.7345 12.203C16.5844 12.0529 16.5 11.8493 16.5 11.637H19.5C19.5 11.0536 19.2682 10.4942 18.8558 10.0817L16.7345 12.203ZM16.5 11.637V16.5143H19.5V11.637H16.5ZM16.5 16.5143C16.5 17.899 18.0317 18.7349 19.1962 17.9865L17.5742 15.4628C18.4059 14.9282 19.5 15.5252 19.5 16.5143H16.5ZM19.1963 17.9864L20.3141 17.2678L18.6918 14.7443L17.5741 15.4628L19.1963 17.9864ZM20.3141 17.2678C20.2334 17.3197 20.1396 17.3472 20.0437 17.3472V14.3472C19.5643 14.3472 19.0951 14.4851 18.6918 14.7443L20.3141 17.2678ZM20.0437 17.3472H20.5608V14.3472H20.0437V17.3472ZM20.5608 17.3472C19.5918 17.3472 18.9913 16.2923 19.486 15.459L22.0656 16.9907C22.7582 15.8241 21.9175 14.3472 20.5608 14.3472V17.3472ZM19.486 15.4591L17.3352 19.0814L19.9148 20.613L22.0656 16.9907L19.486 15.4591ZM18.625 19.8472C17.4961 18.8595 17.4967 18.8589 17.4972 18.8582C17.4974 18.858 17.4979 18.8574 17.4983 18.857C17.499 18.8562 17.4997 18.8554 17.5004 18.8547C17.5017 18.8531 17.5031 18.8516 17.5043 18.8502C17.5069 18.8473 17.5093 18.8446 17.5115 18.8422C17.5159 18.8373 17.5196 18.8333 17.5227 18.8301C17.5287 18.8237 17.5319 18.8206 17.5323 18.8202C17.533 18.8195 17.5226 18.8298 17.5007 18.8479C17.4569 18.8841 17.3682 18.9509 17.2316 19.0237C16.9661 19.1653 16.4884 19.3472 15.75 19.3472V22.3472C17.0116 22.3472 17.9714 22.0292 18.6434 21.6708C18.9756 21.4936 19.2306 21.3103 19.4134 21.1591C19.5048 21.0834 19.5783 21.0156 19.6347 20.9602C19.6629 20.9325 19.6869 20.9078 19.7067 20.8868C19.7166 20.8763 19.7255 20.8667 19.7334 20.858C19.7373 20.8537 19.7409 20.8496 19.7444 20.8457C19.7461 20.8438 19.7477 20.842 19.7493 20.8402C19.7501 20.8393 19.7509 20.8384 19.7516 20.8375C19.752 20.8371 19.7526 20.8365 19.7528 20.8363C19.7533 20.8356 19.7539 20.835 18.625 19.8472ZM15.75 19.3472C14.9126 19.3472 14.4151 19.2073 14.1606 19.0966C14.0327 19.041 13.9734 18.9961 13.9614 18.9862C13.9361 18.9654 14.0123 19.0177 14.0916 19.1764L11.4084 20.5181C11.7091 21.1195 12.3113 21.5639 12.9644 21.8478C13.6682 22.1538 14.5874 22.3472 15.75 22.3472V19.3472Z" fill="#6A6F7F" mask="url(#path-3-outside-1_7627_1716)"/>
</svg>
