<svg width="19" height="21" viewBox="0 0 19 21" fill="none" xmlns="http://www.w3.org/2000/svg">
<path d="M18.1214 4.69261C18.684 5.25522 19.0001 6.01828 19.0001 6.81393V18.5C19.0001 19.6046 18.1046 20.5 17.0001 20.5H5.00006C3.89549 20.5 3.00006 19.6046 3.00006 18.5V2.5C3.00006 1.39543 3.89549 0.5 5.00006 0.5H12.6861C13.4818 0.5 14.2448 0.816071 14.8075 1.37868L18.1214 4.69261Z" fill="url(#paint0_linear_9694_703)"/>
<path d="M3.8382 2.22412C3.95113 1.67279 4.73901 1.67275 4.85187 2.22412C5.20429 3.94831 6.55146 5.29647 8.2757 5.64893C8.82735 5.76167 8.82735 6.54985 8.2757 6.6626C6.55155 7.01511 5.20428 8.3623 4.85187 10.0864C4.73902 10.6378 3.95111 10.6378 3.8382 10.0864C3.48577 8.3622 2.13768 7.01502 0.413391 6.6626C-0.137891 6.5497 -0.137751 5.76198 0.413391 5.64893C2.13768 5.29651 3.48577 3.94834 3.8382 2.22412ZM8.07843 0.30127C8.16093 -0.100364 8.73518 -0.100346 8.81769 0.30127C8.95982 0.996286 9.5035 1.53905 10.1985 1.68115C10.6005 1.76346 10.6004 2.33795 10.1985 2.42041C9.50353 2.56246 8.95991 3.10634 8.81769 3.80127C8.73533 4.20322 8.16073 4.20326 8.07843 3.80127C7.93623 3.10645 7.39341 2.56256 6.69855 2.42041C6.29644 2.33812 6.29637 1.76335 6.69855 1.68115C7.39339 1.53893 7.93631 0.996127 8.07843 0.30127Z" fill="url(#paint1_linear_9694_703)"/>
<path d="M14.0001 9.5C14.5523 9.5 15.0001 9.94772 15.0001 10.5C15.0001 11.0523 14.5523 11.5 14.0001 11.5H8.00006C7.44778 11.5 7.00006 11.0523 7.00006 10.5C7.00006 9.94772 7.44778 9.5 8.00006 9.5H14.0001Z" fill="#324350"/>
<path d="M14.0001 13.4958C14.5523 13.4958 15.0001 13.9436 15.0001 14.4958C15.0001 15.0481 14.5523 15.4958 14.0001 15.4958H8.00006C7.44778 15.4958 7.00006 15.0481 7.00006 14.4958C7.00006 13.9436 7.44778 13.4958 8.00006 13.4958H14.0001Z" fill="#324350"/>
<defs>
<linearGradient id="paint0_linear_9694_703" x1="19.0001" y1="20.5" x2="0.978151" y2="18.4725" gradientUnits="userSpaceOnUse">
<stop stop-color="#FFDAFE"/>
<stop offset="0.3" stop-color="#F2DAFF"/>
<stop offset="0.6" stop-color="#DFE0FF"/>
<stop offset="1" stop-color="#D5EBFF"/>
</linearGradient>
<linearGradient id="paint1_linear_9694_703" x1="10.4997" y1="10.5" x2="-1.24394" y2="8.84853" gradientUnits="userSpaceOnUse">
<stop stop-color="#E945FF"/>
<stop offset="0.3" stop-color="#A647FF"/>
<stop offset="0.6" stop-color="#6B61FF"/>
<stop offset="1" stop-color="#2E8CFF"/>
</linearGradient>
</defs>
</svg>
