<svg width="40" height="40" viewBox="0 0 40 40" fill="none" xmlns="http://www.w3.org/2000/svg">
<path d="M34.582 20C34.582 11.7157 27.8663 5 19.582 5C17.5483 5 15.609 5.40475 13.8405 6.1381C12.9273 6.51674 12.0597 6.98297 11.2481 7.52632C10.4301 8.07393 9.66896 8.69986 8.97543 9.3934C8.2819 10.0869 7.65596 10.8481 7.10835 11.6661M4.58203 20C4.58203 28.2843 11.2978 35 19.582 35C21.6158 35 23.5551 34.5952 25.3236 33.8619C26.2367 33.4833 27.1043 33.017 27.916 32.4737C28.734 31.9261 29.4951 31.3001 30.1886 30.6066C30.8822 29.9131 31.5081 29.1519 32.0557 28.3339" stroke="#333333" stroke-width="3.25" stroke-linejoin="round"/>
<path d="M34.582 6.66675V20.0001" stroke="#333333" stroke-width="3.25" stroke-linejoin="round"/>
<path d="M4.58203 20V33.3333" stroke="#333333" stroke-width="3.25" stroke-linejoin="round"/>
</svg>
