<svg width="24" height="24" viewBox="0 0 24 24" fill="none" xmlns="http://www.w3.org/2000/svg">
<g clip-path="url(#clip0)">
<path d="M7.92633 5.5027C8.1449 4.9421 8.8675 4.79103 9.29235 5.21712L12.9092 8.84445L18.04 9.10899C18.6461 9.14024 19.0164 9.78823 18.7357 10.3263L16.3729 14.8549L17.6749 19.73C17.8341 20.3259 17.313 20.8821 16.708 20.7621L11.6182 19.7524L7.35916 22.7165C6.85292 23.0688 6.15267 22.768 6.05977 22.1583L5.29971 17.1699L1.32061 13.967C0.847879 13.5865 0.927602 12.8444 1.47037 12.573L6.06555 10.2752L7.92633 5.5027Z" fill="#FBCD2C"/>
<path d="M19.9373 1.13615C20.1413 0.975202 20.4435 1.077 20.5085 1.3286L21.0619 3.47048L22.9147 4.69129C23.1335 4.83548 23.1297 5.15779 22.9075 5.29674L21.0371 6.46632L20.4556 8.56652C20.3845 8.82324 20.0688 8.91637 19.8697 8.73935L18.1952 7.25005L15.9609 7.42225C15.6953 7.44272 15.5003 7.17752 15.5991 6.93014L16.4072 4.90629L15.626 2.84325C15.5332 2.59815 15.7252 2.33925 15.9867 2.3569L18.2005 2.50633L19.9373 1.13615Z" fill="#DDE3E8"/>
</g>
<defs>
<clipPath id="clip0">
<rect width="24" height="24" fill="white"/>
</clipPath>
</defs>
</svg>