<svg width="24" height="24" viewBox="0 0 24 24" fill="none" xmlns="http://www.w3.org/2000/svg">
<path d="M15.8333 18.771C15.9941 20.3014 14.8839 21.6724 13.3535 21.8333C11.8231 21.9941 10.4521 20.8839 10.2912 19.3535C10.1304 17.8231 11.2406 16.4521 12.771 16.2912C14.3014 16.1304 15.6724 17.2406 15.8333 18.771Z" fill="#324350"/>
<path d="M11.1644 0.963138C10.1698 1.06767 9.22759 1.66946 9.33212 2.66398L9.40414 3.34923C6.9001 4.28215 5.74125 6.76604 6.03349 9.54648L6.34707 12.5301C6.62563 15.1804 5.19577 16.3089 3.9817 17.8707C3.40154 18.617 4.00122 19.8152 4.94132 19.7164L21.1505 18.0127C22.0906 17.9139 22.428 16.6172 21.7054 16.0078C20.1931 14.7327 18.5599 13.926 18.2813 11.2757L17.9677 8.29214C17.6755 5.5117 16.0255 3.32303 13.3822 2.93112L13.3102 2.24587C13.2057 1.25134 12.1589 0.858607 11.1644 0.963138Z" fill="#FBCD2C"/>
<path fill-rule="evenodd" clip-rule="evenodd" d="M18.4225 4.90867C18.1054 4.37722 17.5799 3.92466 16.5455 3.39688C16.0536 3.14588 15.8582 2.5436 16.1092 2.05165C16.3602 1.55969 16.9625 1.36436 17.4545 1.61536C18.6397 2.22009 19.5461 2.88829 20.1401 3.88409C20.7233 4.86179 20.9282 6.02902 20.9988 7.45678C21.026 8.00839 20.6009 8.47766 20.0493 8.5049C19.4977 8.53215 19.0285 8.10707 19.0012 7.55546C18.9355 6.22474 18.7503 5.45822 18.4225 4.90867Z" fill="#DDE3E8"/>
<path fill-rule="evenodd" clip-rule="evenodd" d="M3.35463 12.6789C3.4963 12.0049 3.46083 11.2839 3.21462 10.2268C3.08934 9.68892 3.42383 9.15131 3.96172 9.02603C4.4996 8.90075 5.03721 9.23523 5.16249 9.77312C5.44464 10.9845 5.536 12.024 5.31186 13.0903C5.09075 14.1422 4.58174 15.1262 3.83486 16.2589C3.53085 16.72 2.91063 16.8474 2.44954 16.5434C1.98846 16.2394 1.86112 15.6191 2.16512 15.158C2.86048 14.1034 3.20993 13.3673 3.35463 12.6789Z" fill="#DDE3E8"/>
</svg>
