<svg width="24" height="24" viewBox="0 0 24 24" fill="none" xmlns="http://www.w3.org/2000/svg">
<mask id="mask0_8560_16849" style="mask-type:luminance" maskUnits="userSpaceOnUse" x="0" y="0" width="24" height="24">
<path d="M24 0H0V24H24V0Z" fill="white"/>
</mask>
<g mask="url(#mask0_8560_16849)">
<path d="M5.22369 13.8C5.22369 13.2478 5.67141 12.8 6.22369 12.8C6.77598 12.8 7.22369 13.2478 7.22369 13.8V15L11.5 12.5L16.2764 14.5V13.8C16.2764 13.2478 16.7241 12.8 17.2764 12.8C17.8287 12.8001 18.2764 13.2478 18.2764 13.8V17.8499C18.2764 18.2091 18.0836 18.5411 17.7715 18.719L12.2452 21.8684C11.9382 22.0434 11.5619 22.0434 11.2549 21.8684L5.72858 18.719C5.41648 18.5411 5.22369 18.2091 5.22369 17.8499V13.8Z" fill="#6A6F7F"/>
<path d="M13.9454 2.17664C14.2682 1.95379 14.6989 1.9377 15.0411 2.15027L20.1075 5.30066C20.3436 5.44757 20.5076 5.68687 20.5606 5.95984C20.6134 6.23274 20.5507 6.51565 20.3868 6.74011L18.7501 8.97742L20.9874 10.2264C21.2845 10.3923 21.477 10.6984 21.4981 11.038C21.5191 11.3777 21.3653 11.7049 21.0909 11.9061L15.5645 15.9559C15.2195 16.2087 14.7522 16.2144 14.4014 15.9696L11.7501 14.119L9.09869 15.9696C8.74794 16.2144 8.28063 16.2087 7.93561 15.9559L2.40924 11.9061C2.13473 11.7049 1.98106 11.3777 2.00201 11.038C2.02314 10.6984 2.21567 10.3923 2.51276 10.2264L4.74908 8.97742L3.11334 6.74011C2.94933 6.51563 2.88666 6.23278 2.93951 5.95984C2.99251 5.68682 3.1565 5.44757 3.39264 5.30066L8.45905 2.15027L8.61041 2.07312C8.97374 1.92539 9.39751 2.00359 9.68561 2.28503L11.7501 4.30066L13.8145 2.28503L13.9454 2.17664ZM8.05573 9.29871L11.7491 11.705L15.4434 9.29871L11.7501 6.89343L8.05573 9.29871Z" fill="#AAB2BF"/>
<path d="M12.2958 6.05552C11.964 5.83938 11.536 5.83938 11.2042 6.05552L7.50994 8.46205C6.90438 8.85653 6.90438 9.74337 7.50994 10.1378L11.2042 12.5444C11.536 12.7605 11.964 12.7605 12.2958 12.5444L15.9901 10.1378C16.5956 9.74337 16.5956 8.85653 15.9901 8.46205L12.2958 6.05552Z" fill="#FBCD2C"/>
</g>
</svg>
