<svg viewBox="0 0 24 24" fill="none" xmlns="http://www.w3.org/2000/svg"><path fill-rule="evenodd" clip-rule="evenodd" d="M23 12C23 15.5421 20.1314 15.9676 17.4879 16.3597C16.0268 16.5765 14.6344 16.783 13.8333 17.5C12.9873 18.2572 13.31 19.3955 13.6062 20.4405C13.9913 21.7992 14.3317 23 12 23C5.92487 23 1 18.0751 1 12C1 5.92487 5.92487 1 12 1C18.0751 1 23 5.92487 23 12ZM20.7083 11.3125C20.7083 12.4516 19.7849 13.375 18.6458 13.375C17.5067 13.375 16.5833 12.4516 16.5833 11.3125C16.5833 10.1734 17.5067 9.25 18.6458 9.25C19.7849 9.25 20.7083 10.1734 20.7083 11.3125ZM14.9792 7.875C16.1183 7.875 17.0417 6.95159 17.0417 5.8125C17.0417 4.67341 16.1183 3.75 14.9792 3.75C13.8401 3.75 12.9167 4.67341 12.9167 5.8125C12.9167 6.95159 13.8401 7.875 14.9792 7.875ZM10.625 5.8125C10.625 6.95159 9.70159 7.875 8.5625 7.875C7.42341 7.875 6.5 6.95159 6.5 5.8125C6.5 4.67341 7.42341 3.75 8.5625 3.75C9.70159 3.75 10.625 4.67341 10.625 5.8125ZM4.89583 13.375C6.03492 13.375 6.95833 12.4516 6.95833 11.3125C6.95833 10.1734 6.03492 9.25 4.89583 9.25C3.75675 9.25 2.83333 10.1734 2.83333 11.3125C2.83333 12.4516 3.75675 13.375 4.89583 13.375Z" fill="#0077FA"/></svg>