<svg width="24" height="24" viewBox="0 0 24 24" fill="none" xmlns="http://www.w3.org/2000/svg">
<path d="M15.5348 21.7079C15.7675 22.0983 16.333 22.0983 16.5657 21.7079L18.1794 19.0001H20C21.1046 19.0001 22 18.1046 22 17.0001V9.00006C22 7.89549 21.1046 7.00006 20 7.00006H7C5.89543 7.00006 5 7.89549 5 9.00006V17.0001C5 18.1046 5.89543 19.0001 7 19.0001H13.9211L15.5348 21.7079Z" fill="#324350"/>
<path d="M8.46515 16.7079C8.23247 17.0983 7.66701 17.0983 7.43432 16.7079L6.6932 15.4643C6.1521 14.5563 5.17311 14.0001 4.11612 14.0001H4C2.89543 14.0001 2 13.1046 2 12.0001V4.00006C2 2.89549 2.89543 2.00006 4 2.00006H17C18.1046 2.00006 19 2.89549 19 4.00006V12.0001C19 13.1046 18.1046 14.0001 17 14.0001H11.7834C10.7264 14.0001 9.74737 14.5563 9.20627 15.4643L8.46515 16.7079Z" fill="url(#paint0_linear_9669_13028)"/>
<path d="M5 6C5 5.44772 5.44772 5 6 5H15C15.5523 5 16 5.44772 16 6C16 6.55228 15.5523 7 15 7H6C5.44771 7 5 6.55228 5 6Z" fill="url(#paint1_linear_9669_13028)"/>
<path d="M5 10C5 9.44772 5.44772 9 6 9H10C10.5523 9 11 9.44772 11 10C11 10.5523 10.5523 11 10 11H6C5.44772 11 5 10.5523 5 10Z" fill="url(#paint2_linear_9669_13028)"/>
<defs>
<linearGradient id="paint0_linear_9669_13028" x1="19" y1="2.00006" x2="0.089662" y2="5.01376" gradientUnits="userSpaceOnUse">
<stop stop-color="#FFDAFE"/>
<stop offset="0.3" stop-color="#F2DAFF"/>
<stop offset="0.6" stop-color="#DFE0FF"/>
<stop offset="1" stop-color="#D5EBFF"/>
</linearGradient>
<linearGradient id="paint1_linear_9669_13028" x1="16" y1="7" x2="8.1494" y2="0.92805" gradientUnits="userSpaceOnUse">
<stop stop-color="#E945FF"/>
<stop offset="0.3" stop-color="#A647FF"/>
<stop offset="0.6" stop-color="#6B61FF"/>
<stop offset="1" stop-color="#2E8CFF"/>
</linearGradient>
<linearGradient id="paint2_linear_9669_13028" x1="11" y1="11" x2="5.19026" y2="8.54902" gradientUnits="userSpaceOnUse">
<stop stop-color="#E945FF"/>
<stop offset="0.3" stop-color="#A647FF"/>
<stop offset="0.6" stop-color="#6B61FF"/>
<stop offset="1" stop-color="#2E8CFF"/>
</linearGradient>
</defs>
</svg>
