<svg width="24" height="24" viewBox="0 0 24 24" fill="none" xmlns="http://www.w3.org/2000/svg">
<rect x="3" y="8" width="18" height="8" rx="1" fill="#FAC800"/>
<path d="M4.44342 4.44352C4.26265 4.62429 4.1611 4.86946 4.1611 5.12509V8.18065C4.1611 8.43629 4.26265 8.68146 4.44342 8.86222C4.62418 9.04299 4.86935 9.14454 5.12499 9.14454C5.38063 9.14454 5.6258 9.04299 5.80656 8.86222C5.98732 8.68146 6.08888 8.43629 6.08888 8.18065V6.08898H11.0361V17.9112H8.94443C8.68879 17.9112 8.44362 18.0128 8.26286 18.1935C8.0821 18.3743 7.98054 18.6195 7.98054 18.8751C7.98054 19.1307 8.0821 19.3759 8.26286 19.5567L8.40428 19.4152L8.26286 19.5567C8.44362 19.7374 8.68879 19.839 8.94443 19.839H15.0555C15.3112 19.839 15.5564 19.7374 15.7371 19.5567C15.9179 19.3759 16.0194 19.1307 16.0194 18.8751C16.0194 18.6195 15.9179 18.3743 15.7371 18.1935C15.5564 18.0128 15.3112 17.9112 15.0555 17.9112H12.9639V6.08898H17.9111V8.18065C17.9111 8.43629 18.0127 8.68146 18.1934 8.86222C18.3742 9.04299 18.6193 9.14454 18.875 9.14454C19.1306 9.14454 19.3758 9.04299 19.5566 8.86222C19.7373 8.68146 19.8389 8.43629 19.8389 8.18065V5.12509C19.8389 4.86946 19.7373 4.62429 19.5566 4.44352C19.3758 4.26276 19.1306 4.16121 18.875 4.16121H5.12499C4.86935 4.16121 4.62418 4.26276 4.44342 4.44352Z" fill="#6A6F7F" stroke="#6A6F7F" stroke-width="0.4"/>
</svg>
