<svg width="24" height="24" viewBox="0 0 24 24" fill="none" xmlns="http://www.w3.org/2000/svg">
<rect x="2" y="2" width="20" height="20" rx="3" fill="#4CC3FA"/>
<path fill-rule="evenodd" clip-rule="evenodd" d="M6.75 7.625C6.75 7.14175 7.14175 6.75 7.625 6.75H16.375C16.8582 6.75 17.25 7.14175 17.25 7.625V9.375C17.25 9.85825 16.8582 10.25 16.375 10.25C15.8918 10.25 15.5 9.85825 15.5 9.375V8.5H12.875V16.0833H14.0417C14.5249 16.0833 14.9167 16.4751 14.9167 16.9583C14.9167 17.4416 14.5249 17.8333 14.0417 17.8333H9.95833C9.47508 17.8333 9.08333 17.4416 9.08333 16.9583C9.08333 16.4751 9.47508 16.0833 9.95833 16.0833H11.125V8.5H8.5V9.375C8.5 9.85825 8.10825 10.25 7.625 10.25C7.14175 10.25 6.75 9.85825 6.75 9.375V7.625Z" fill="white"/>
</svg>