<svg width="24" height="24" fill="currentColor" xmlns="http://www.w3.org/2000/svg"><path d="M10.5 1.5a1.5 1.5 0 0 1 3 0v1a1.5 1.5 0 0 1-3 0v-1zM10.5 21.5a1.5 1.5 0 0 1 3 0v1a1.5 1.5 0 0 1-3 0v-1zM24 12a1.5 1.5 0 0 0-1.5-1.5h-1a1.5 1.5 0 0 0 0 3h1A1.5 1.5 0 0 0 24 12zM2.5 10.5a1.5 1.5 0 0 1 0 3h-1a1.5 1.5 0 0 1 0-3h1zM20.485 3.515a1.5 1.5 0 0 0-2.121 0l-.707.707a1.5 1.5 0 1 0 2.121 2.121l.707-.707a1.5 1.5 0 0 0 0-2.121zM4.222 17.657a1.5 1.5 0 1 1 2.121 2.121l-.707.707a1.5 1.5 0 1 1-2.121-2.121l.707-.707zM3.515 3.515a1.5 1.5 0 0 0 0 2.121l.707.707a1.5 1.5 0 0 0 2.121-2.121l-.707-.707a1.5 1.5 0 0 0-2.121 0zM17.657 19.778a1.5 1.5 0 1 1 2.121-2.121l.707.707a1.5 1.5 0 1 1-2.121 2.121l-.707-.707zM12 19a7 7 0 1 0 0-14 7 7 0 0 0 0 14z"/></svg>