<svg width="88" height="60" viewBox="0 0 88 60" fill="none" xmlns="http://www.w3.org/2000/svg">
    <rect width="88" height="60" rx="8" fill="#2E3238" fill-opacity="0.05" />
    <path fill-rule="evenodd" clip-rule="evenodd"
        d="M54.6776 32.5213L44.0469 21.8906L44.9773 20.9602C47.9129 18.0246 52.6724 18.0246 55.608 20.9602C58.5436 23.8958 58.5436 28.6553 55.608 31.5909L54.6776 32.5213Z"
        fill="#F82C2C" />
    <path
        d="M43.0824 20.9602C40.1468 18.0246 35.3873 18.0246 32.4517 20.9602C29.5161 23.8958 29.5161 28.6553 32.4517 31.5909L44.0313 43.1705C44.0313 43.1705 50.5253 36.6949 54.6805 32.5398C56.3092 30.9701 56.9857 30.0341 57.3866 28.7812C54.0541 32.5398 52.1748 30.0341 44.0497 21.8906C43.4147 21.2542 43.0824 20.9602 43.0824 20.9602Z"
        fill="#FF7D95" />
</svg>