<svg width="88" height="60" viewBox="0 0 88 60" fill="none" xmlns="http://www.w3.org/2000/svg">
    <rect width="88" height="60" rx="8" fill="#0062D6" />
    <path
        d="M41.3281 29.9999C41.3281 30.709 41.6098 31.3891 42.1112 31.8906C42.6127 32.392 43.2928 32.6737 44.0019 32.6737C44.711 32.6737 45.3911 32.392 45.8925 31.8906C46.3939 31.3891 46.6756 30.709 46.6756 29.9999C46.6756 29.2908 46.3939 28.6107 45.8925 28.1093C45.3911 27.6079 44.711 27.3262 44.0019 27.3262C43.2928 27.3262 42.6127 27.6079 42.1112 28.1093C41.6098 28.6107 41.3281 29.2908 41.3281 29.9999Z"
        fill="white" />
    <path
        d="M36.51 35.3188L35.92 35.1688C31.5225 34.0575 29 32.1713 29 29.995C29 27.8188 31.5225 25.9325 35.92 24.8213L36.51 24.6725L36.6762 25.2575C37.1217 26.7922 37.6915 28.2879 38.38 29.73L38.5063 29.9963L38.38 30.2625C37.6904 31.7041 37.1205 33.2 36.6762 34.735L36.51 35.3188ZM35.6463 26.1875C32.3038 27.1263 30.2525 28.5625 30.2525 29.995C30.2525 31.4263 32.3038 32.8625 35.6463 33.8025C36.055 32.5024 36.5486 31.2305 37.1238 29.995C36.5479 28.7598 36.0544 27.4878 35.6463 26.1875ZM51.49 35.3188L51.3237 34.7325C50.8787 33.198 50.3085 31.7025 49.6187 30.2613L49.4925 29.995L49.6187 29.7288C50.3082 28.287 50.8785 26.7911 51.3237 25.2563L51.49 24.6713L52.0813 24.82C56.4775 25.9313 59 27.8175 59 29.995C59 32.1725 56.4775 34.0575 52.0813 35.1688L51.49 35.3188ZM50.8763 29.995C51.4762 31.2938 51.9725 32.57 52.3538 33.8025C55.6975 32.8625 57.7475 31.4263 57.7475 29.995C57.7475 28.5625 55.6963 27.1275 52.3538 26.1875C51.9455 27.4878 51.452 28.7597 50.8763 29.995Z"
        fill="white" />
    <path
        d="M35.6371 26.1811L35.4708 25.5974C34.2346 21.2399 34.6096 18.1174 36.4996 17.0274C38.3533 15.9574 41.3296 17.2211 44.4483 20.4224L44.8733 20.8586L44.4483 21.2949C43.3402 22.4469 42.3276 23.6873 41.4208 25.0036L41.2521 25.2449L40.9583 25.2699C39.3632 25.3956 37.7809 25.6506 36.2271 26.0324L35.6371 26.1811ZM38.0071 17.8936C37.6721 17.8936 37.3758 17.9661 37.1258 18.1099C35.8833 18.8261 35.6633 21.3161 36.5196 24.6761C37.8516 24.3798 39.2016 24.1706 40.5608 24.0499C41.3451 22.9348 42.202 21.8725 43.1258 20.8699C41.1758 18.9711 39.3296 17.8936 38.0071 17.8936ZM49.9933 43.3461C49.9921 43.3461 49.9921 43.3461 49.9933 43.3461C48.2121 43.3461 45.9246 42.0049 43.5508 39.5674L43.1258 39.1311L43.5508 38.6949C44.6587 37.5425 45.6708 36.3017 46.5771 34.9849L46.7458 34.7436L47.0383 34.7186C48.6343 34.5936 50.2174 34.339 51.7721 33.9574L52.3621 33.8086L52.5296 34.3936C53.7633 38.7486 53.3896 41.8724 51.4996 42.9611C51.0405 43.2207 50.5207 43.3536 49.9933 43.3461ZM44.8733 39.1199C46.8233 41.0186 48.6696 42.0961 49.9921 42.0961H49.9933C50.3271 42.0961 50.6246 42.0236 50.8733 41.8799C52.1158 41.1636 52.3371 38.6724 51.4796 35.3124C50.1472 35.6091 48.7968 35.8183 47.4371 35.9386C46.6538 37.0546 45.7973 38.1173 44.8733 39.1199Z"
        fill="white" />
    <path
        d="M52.3621 26.1813L51.7721 26.0326C50.2176 25.6497 48.6344 25.3947 47.0383 25.2701L46.7458 25.2451L46.5771 25.0038C45.6713 23.687 44.6591 22.4466 43.5508 21.2951L43.1258 20.8588L43.5508 20.4226C46.6683 17.2226 49.6433 15.9588 51.4996 17.0276C53.3896 18.1176 53.7646 21.2401 52.5296 25.5963L52.3621 26.1813ZM47.4371 24.0501C48.8646 24.1801 50.2208 24.3913 51.4796 24.6763C52.3371 21.3163 52.1158 18.8263 50.8733 18.1101C49.6383 17.3963 47.3171 18.4901 44.8733 20.8701C45.7968 21.8727 46.6532 22.935 47.4371 24.0501ZM38.0071 43.3463C37.4793 43.354 36.959 43.2211 36.4996 42.9613C34.6096 41.8726 34.2346 38.7501 35.4708 34.3938L35.6358 33.8088L36.2258 33.9576C37.6696 34.3213 39.2621 34.5776 40.9571 34.7188L41.2508 34.7438L41.4183 34.9851C42.3253 36.3018 43.3378 37.5425 44.4458 38.6951L44.8708 39.1313L44.4458 39.5676C42.0733 42.0051 39.7858 43.3463 38.0071 43.3463ZM36.5196 35.3126C35.6621 38.6726 35.8833 41.1638 37.1258 41.8801C38.3596 42.5838 40.6796 41.4988 43.1258 39.1201C42.2023 38.1168 41.3455 37.0541 40.5608 35.9388C39.2015 35.8186 37.8515 35.6094 36.5196 35.3126Z"
        fill="white" />
    <path
        d="M43.9986 36.0975C42.9698 36.0975 41.9123 36.0525 40.8536 35.965L40.5598 35.94L40.3911 35.6988C39.7922 34.8383 39.2292 33.9534 38.7036 33.0463C38.1795 32.1385 37.6932 31.2093 37.2461 30.2613L37.1211 29.995L37.2461 29.7288C37.6932 28.7807 38.1794 27.8515 38.7036 26.9438C39.2211 26.0488 39.7898 25.1563 40.3911 24.2913L40.5598 24.05L40.8536 24.025C42.9469 23.8475 45.0515 23.8475 47.1448 24.025L47.4373 24.05L47.6048 24.2913C48.8038 26.0126 49.8562 27.8315 50.7511 29.7288L50.8773 29.995L50.7511 30.2613C49.8584 32.1597 48.8058 33.9788 47.6048 35.6988L47.4373 35.94L47.1448 35.965C46.0861 36.0525 45.0273 36.0975 43.9986 36.0975ZM41.2523 34.7425C43.1023 34.8813 44.8948 34.8813 46.7461 34.7425C47.7796 33.2316 48.6972 31.6446 49.4911 29.995C48.6987 28.3445 47.7805 26.7573 46.7448 25.2475C44.9166 25.1088 43.0805 25.1088 41.2523 25.2475C40.2162 26.757 39.2981 28.3443 38.5061 29.995C39.3008 31.6444 40.2188 33.2314 41.2523 34.7425Z"
        fill="white" />
</svg>