<svg width="88" height="60" viewBox="0 0 88 60" fill="none" xmlns="http://www.w3.org/2000/svg">
    <rect width="88" height="60" rx="8" fill="#5A6AFF" />
    <g clip-path="url(#clip0)">
        <path
            d="M43.7633 45.037H43.7885L43.8107 45.0251L56.825 38.0185C56.8254 38.0183 56.8257 38.0181 56.8261 38.0179C56.9232 37.9683 57.0006 37.8986 57.0528 37.8073C57.1049 37.7162 57.1286 37.6097 57.1286 37.4914V22.4771V22.4141V22.39L57.1177 22.3685L57.0657 22.267V22.2281V22.1867L57.0364 22.1574L56.9104 22.0314L56.8474 21.9684L56.837 21.9581L56.8241 21.9511L43.8107 14.9435L43.7997 14.9375L43.7876 14.9345C43.6037 14.8885 43.422 14.8885 43.2381 14.9345L43.2259 14.9375L43.2149 14.9435L30.2046 21.9511L30.1917 21.9581L30.1813 21.9684L30.1183 22.0314L30.1886 22.1018L30.1183 22.0314L29.9923 22.1574L29.963 22.1867V22.2281V22.2502C29.9251 22.298 29.9 22.3544 29.9 22.4141V22.4771V37.4914C29.9 37.6096 29.9237 37.7168 29.9757 37.8082C30.0279 37.8998 30.1052 37.9698 30.2032 38.0183L43.2149 45.025L43.2371 45.037H43.2623H43.289C43.3521 45.0825 43.4309 45.1 43.5143 45.1C43.5958 45.1 43.6756 45.0832 43.7379 45.037H43.7633ZM31.1019 23.458L42.9133 29.8563V43.5182L31.1019 37.1198V23.458ZM37.2566 19.5249L48.9972 25.8549L43.5144 28.8072L31.7737 22.4772L37.2566 19.5249ZM50.2698 25.1773L38.5319 18.8471L43.5144 16.1471L55.2525 22.4744L50.2698 25.1773ZM44.1153 43.5182V29.8563L55.9267 23.458V37.1198L44.1153 43.5182Z"
            fill="white" stroke="white" stroke-width="0.2" />
    </g>
    <defs>
        <clipPath id="clip0">
            <rect width="30" height="30" fill="white" transform="translate(29 15)" />
        </clipPath>
    </defs>
</svg>