<svg width="97" height="36" viewBox="0 0 97 36" fill="none" xmlns="http://www.w3.org/2000/svg">
<path d="M0 13.3885C0 20.7827 5.99423 26.777 13.3885 26.777V0C5.99423 0 0 5.99423 0 13.3885Z" fill="#404346"/>
<path d="M31.2398 22.3141C31.2398 14.9199 25.2455 8.92566 17.8513 8.92566V35.7026C25.2455 35.7026 31.2398 29.7084 31.2398 22.3141Z" fill="#404346"/>
<path d="M77.3513 2.16807C77.3513 2.95467 76.6557 3.59233 75.7976 3.59233C74.9395 3.59233 74.2438 2.95467 74.2438 2.16807C74.2438 1.38147 74.9395 0.743809 75.7976 0.743809C76.6557 0.743809 77.3513 1.38147 77.3513 2.16807Z" fill="#404346"/>
<path d="M45.174 7.74293C44.8665 5.54936 42.8369 4.46282 40.4589 4.46282C38.1628 4.46282 36.0717 5.59036 36.0717 7.84544C36.0717 9.40349 36.9737 10.4285 38.4293 10.8385C38.9845 10.9993 39.6126 11.1704 40.3062 11.3594C40.5855 11.4355 40.8763 11.5147 41.1764 11.5971C41.9759 11.8226 42.4269 12.1096 42.4269 12.6836C42.4269 13.4011 41.7299 13.7496 40.8484 13.7496C39.6593 13.7496 38.7778 13.1756 38.5523 12.0891L35.7027 12.5196C36.1332 15.0412 37.9988 16.1482 40.7869 16.1482C43.3085 16.1482 45.2765 14.8567 45.2765 12.5606C45.2765 10.6745 44.149 9.81351 41.7914 9.21899C40.9919 9.01398 40.4589 8.87047 39.9053 8.70647C39.2288 8.50146 38.8393 8.25545 38.8393 7.70193C38.8393 7.14841 39.5978 6.8204 40.5409 6.8614C41.5454 6.9024 42.2219 7.47643 42.3244 8.25545L45.174 7.74293Z" fill="#404346"/>
<path fill-rule="evenodd" clip-rule="evenodd" d="M49.0097 11.0846H56.7795C57.087 7.23042 55.2214 4.46282 51.5928 4.46282C48.2307 4.46282 45.9961 6.8614 45.9961 10.449C45.9961 13.7496 48.2922 16.1482 51.7568 16.1482C53.8274 16.1482 56.6349 14.028 56.677 12.1506H53.8889C53.4583 13.0731 52.6178 13.5446 51.5928 13.5446C50.0962 13.5446 49.2147 12.6221 49.0097 11.0846ZM51.5928 6.8819C53.1713 6.8819 53.7659 7.61993 53.9504 8.93198H49.0917C49.3582 7.70193 50.0962 6.8819 51.5928 6.8819Z" fill="#404346"/>
<path d="M69.6208 4.55561C70.5433 4.55561 71.434 4.79083 72.131 5.52886C73.0946 6.53339 73.1971 7.68143 73.1971 9.09598V15.8407H70.368V9.30099C70.368 8.50146 70.2245 8.00944 69.835 7.57893C69.4864 7.18941 69.2313 7.0362 68.6983 7.0362C68.1653 7.0362 67.8723 7.20992 67.5238 7.59943C67.0932 8.09145 67.0112 8.58346 67.0112 9.13698V15.8407H64.1822V9.30099C64.1822 8.50146 64.0387 8.00944 63.6491 7.57893C63.3006 7.18941 63.0163 7.0362 62.4833 7.0362C61.9503 7.0362 61.6865 7.20992 61.3379 7.59943C60.9074 8.09145 60.8254 8.58346 60.8254 9.13698V15.8407H58.0168V4.77033H60.4769V5.95937C61.2559 5.03684 62.1758 4.55561 63.4058 4.55561C64.3284 4.55561 65.2482 4.79083 65.9452 5.52886C66.1502 5.75436 66.3347 5.97987 66.4577 6.20538C67.2368 5.13934 68.2678 4.55561 69.6208 4.55561Z" fill="#404346"/>
<path d="M74.244 4.83472V15.8407H77.0321V4.83472H74.244Z" fill="#404346"/>
<path fill-rule="evenodd" clip-rule="evenodd" d="M44.4878 20.1195V16.3637H47.2964V30.8209H44.8363V29.785C44.4878 30.5619 43.0732 31.1284 41.8432 31.1284C38.7886 31.1284 36.7385 28.6068 36.7385 25.2857C36.7385 21.9031 38.8091 19.443 41.9867 19.443C42.9707 19.443 43.7908 19.689 44.4878 20.1195ZM39.6906 25.2857C39.6906 27.1512 40.4901 28.6478 42.2942 28.6478C44.1598 28.6478 44.8363 27.2948 44.8363 25.2857C44.8363 23.2766 44.1393 21.9236 42.3967 21.9236C40.5312 21.9236 39.6906 23.4406 39.6906 25.2857Z" fill="#404346"/>
<path fill-rule="evenodd" clip-rule="evenodd" d="M51.142 26.0647H58.9118C59.2193 22.2106 57.3538 19.443 53.7251 19.443C50.363 19.443 48.1284 21.8416 48.1284 25.4292C48.1284 28.7298 50.4245 31.1284 53.8891 31.1284C55.9597 31.1284 58.7066 29.5261 58.8093 27.1307H56.0212C55.5907 28.0533 54.7502 28.5248 53.7251 28.5248C52.2286 28.5248 51.347 27.6023 51.142 26.0647ZM53.7251 21.8621C55.3037 21.8621 55.8982 22.6001 56.0827 23.9121H51.224C51.4906 22.6821 52.2286 21.8621 53.7251 21.8621Z" fill="#404346"/>
<path d="M64.4465 19.443C66.8246 19.443 68.8541 20.5295 69.1616 22.7231L66.312 23.2356C66.2095 22.4566 65.533 21.8826 64.5285 21.8416C63.5854 21.8006 62.8269 22.1286 62.8269 22.6821C62.8269 23.2356 63.2164 23.4816 63.893 23.6866C64.4465 23.8506 64.9795 23.9941 65.779 24.1991C68.1366 24.7937 69.2641 25.6547 69.2641 27.5408C69.2641 29.8368 67.2961 31.1284 64.7745 31.1284C61.9864 31.1284 60.1208 30.0213 59.6903 27.4998L62.5399 27.0692C62.7654 28.1558 63.6469 28.7298 64.836 28.7298C65.7175 28.7298 66.4145 28.3813 66.4145 27.6638C66.4145 27.0897 65.9635 26.8027 65.164 26.5772C64.8639 26.4949 64.574 26.4159 64.2946 26.3397C63.601 26.1508 62.9721 25.9794 62.4169 25.8187C60.9614 25.4087 60.0593 24.3836 60.0593 22.8256C60.0593 20.5705 62.1504 19.443 64.4465 19.443Z" fill="#404346"/>
<path d="M70.2858 19.7505V30.8209H73.0739V19.7505H70.2858Z" fill="#404346"/>
<path fill-rule="evenodd" clip-rule="evenodd" d="M82.3542 20.632V19.7505H84.7938V31.5794C84.7938 32.1329 84.7528 32.6045 84.6298 33.076C84.0968 35.1055 81.8007 36 79.3611 36C77.475 36 75.466 35.0602 74.6254 33.6252L77.2085 32.3746C77.557 33.0306 78.6026 33.3759 79.3816 33.3759C80.6321 33.3759 82.0467 32.7685 82.0057 31.5384V30.4314C81.2882 30.8824 80.4066 31.1284 79.3611 31.1284C76.3065 31.1284 74.2564 28.6068 74.2564 25.2857C74.2564 21.9031 76.327 19.443 79.5046 19.443C80.6526 19.443 81.9004 19.9447 82.3542 20.632ZM77.2085 25.2857C77.2085 27.1512 78.008 28.6478 79.8121 28.6478C81.6777 28.6478 82.3542 27.2948 82.3542 25.2857C82.3542 23.2766 81.6572 21.9236 79.9146 21.9236C78.049 21.9236 77.2085 23.4406 77.2085 25.2857Z" fill="#404346"/>
<path d="M95.0733 20.632C94.0073 19.5865 92.6747 19.361 91.3627 19.443C90.3581 19.5045 89.2306 19.8735 88.5131 20.7345C88.4721 20.796 88.4106 20.8575 88.3696 20.8985V19.7505H85.9095V30.8209H88.7181V26.0032C88.7181 25.2447 88.7386 24.3836 88.8411 23.8916C88.9641 23.2766 89.2511 22.7846 89.6611 22.4771C90.0301 22.2106 90.4607 22.0671 90.9732 22.0466C91.7317 22.0261 92.3262 22.2516 92.7157 22.6821C93.2897 23.2971 93.4538 24.4452 93.4538 25.5932V30.8209H96.2829V25.4702C96.2829 23.7481 96.2829 21.8211 95.0733 20.632Z" fill="#404346"/>
</svg>
