<svg width="57" height="60" viewBox="0 0 57 60" fill="none" xmlns="http://www.w3.org/2000/svg">
<g filter="url(#filter0_d)">
<g clip-path="url(#clip0)">
<path d="M24.4905 7.30435C23.0229 6.45331 21.3569 6.00422 19.6604 6.00233C17.964 6.00044 16.297 6.44582 14.8275 7.29359C13.3581 8.14135 12.1381 9.36153 11.2905 10.8311C10.443 12.3007 9.99787 13.9678 10 15.6642C9.99468 19.2749 10.8982 22.8289 12.6274 25.9986C14.4855 22.5867 17.2291 19.7388 20.5694 17.7547C23.9098 15.7707 27.7232 14.724 31.6083 14.7247H32.1497C35.3869 14.8224 38.5603 15.6498 41.4331 17.1451L24.4905 7.30435Z" fill="#325AB4"/>
<path opacity="0.15" d="M24.4905 7.30435C23.0229 6.45331 21.3569 6.00422 19.6604 6.00233C17.964 6.00044 16.297 6.44582 14.8275 7.29359C13.3581 8.14135 12.1381 9.36153 11.2905 10.8311C10.443 12.3007 9.99787 13.9678 10 15.6642C9.99468 19.2749 10.8982 22.8289 12.6274 25.9986C14.4855 22.5867 17.2291 19.7388 20.5694 17.7547C23.9098 15.7707 27.7232 14.724 31.6083 14.7247H32.1497C35.3869 14.8224 38.5603 15.6498 41.4331 17.1451L24.4905 7.30435Z" fill="url(#paint0_linear)"/>
<path opacity="0.6" d="M24.3312 44.8217L24.6019 44.6624L24.3312 44.8217Z" fill="#3C8CFF"/>
<path d="M31.6083 37.2739C25.8774 37.2739 20.3813 34.9973 16.3289 30.945C12.2766 26.8927 10 21.3965 10 15.6656V36.2548C9.99959 37.9636 10.4493 39.6424 11.3037 41.1223C12.1582 42.6021 13.3874 43.8308 14.8676 44.6847C16.3478 45.5386 18.0268 45.9876 19.7356 45.9865C21.4444 45.9854 23.1228 45.5342 24.6019 44.6784C27.6952 42.8717 30.2936 40.328 32.1656 37.2739H31.6083Z" fill="#00C8D2"/>
<path d="M31.6083 37.2739C25.8774 37.2739 20.3813 34.9973 16.3289 30.945C12.2766 26.8927 10 21.3965 10 15.6656L10 36.2548C9.99959 37.9636 10.4493 39.6424 11.3037 41.1223C12.1582 42.6021 13.3874 43.8308 14.8676 44.6847C16.3478 45.5386 18.0268 45.9876 19.7356 45.9865C21.4444 45.9854 23.1228 45.5342 24.6019 44.6784C27.6952 42.8717 30.2936 40.3281 32.1656 37.2739H31.6083Z" fill="#A9FFFA"/>
<path d="M41.4332 17.1465C38.5551 15.6733 35.382 14.8678 32.1498 14.7898C34.2207 18.1827 35.3163 22.0808 35.3163 26.0557C35.3163 30.0307 34.2207 33.9288 32.1498 37.3217C30.2777 40.3758 27.6793 42.9195 24.5861 44.7261L41.4173 35.0128C42.9853 34.1081 44.2878 32.8069 45.1938 31.2397C46.0999 29.6725 46.5778 27.8945 46.5794 26.0842C46.581 24.274 46.1063 22.4951 45.203 20.9263C44.2997 19.3575 42.9996 18.0539 41.4332 17.1465Z" fill="#3C8CFF"/>
<path opacity="0.15" d="M41.4332 17.1465C38.5551 15.6733 35.382 14.8678 32.1498 14.7898C34.2207 18.1827 35.3163 22.0808 35.3163 26.0557C35.3163 30.0307 34.2207 33.9288 32.1498 37.3217C30.2777 40.3758 27.6793 42.9195 24.5861 44.7261L41.4173 35.0128C42.9853 34.1081 44.2878 32.8069 45.1938 31.2397C46.0999 29.6725 46.5778 27.8945 46.5794 26.0842C46.581 24.274 46.1063 22.4951 45.203 20.9263C44.2997 19.3575 42.9996 18.0539 41.4332 17.1465Z" fill="url(#paint1_linear)"/>
<path d="M32.1497 14.7421H31.6083C27.7248 14.7398 23.9125 15.7841 20.5723 17.7652C17.2322 19.7464 14.4876 22.591 12.6274 26C14.4855 29.412 17.2292 32.2599 20.5695 34.2439C23.9098 36.2279 27.7232 37.2747 31.6083 37.2739H32.1497C34.2206 33.881 35.3163 29.983 35.3163 26.008C35.3163 22.033 34.2206 18.135 32.1497 14.7421Z" fill="white"/>
<path d="M31.5128 24.7899C31.6979 24.8979 31.8513 25.0525 31.958 25.2383C32.0647 25.4241 32.1208 25.6346 32.1208 25.8488C32.1208 26.063 32.0647 26.2735 31.958 26.4593C31.8513 26.6451 31.6979 26.7997 31.5128 26.9077L27.516 29.1848L23.6625 31.4778C23.4771 31.583 23.2675 31.6381 23.0544 31.6375C22.8412 31.637 22.6319 31.581 22.447 31.4749C22.2621 31.3688 22.1081 31.2163 22.0001 31.0325C21.8922 30.8487 21.834 30.64 21.8313 30.4268V21.3185C21.8445 21.1109 21.9103 20.91 22.0226 20.7347C22.1349 20.5595 22.2899 20.4158 22.4731 20.317C22.6563 20.2183 22.8616 20.1678 23.0696 20.1703C23.2777 20.1727 23.4818 20.2282 23.6625 20.3313L27.516 22.5287L31.5128 24.7899Z" fill="#325AB4"/>
</g>
</g>
<defs>
<filter id="filter0_d" x="0" y="0" width="56.5924" height="60" filterUnits="userSpaceOnUse" color-interpolation-filters="sRGB">
<feFlood flood-opacity="0" result="BackgroundImageFix"/>
<feColorMatrix in="SourceAlpha" type="matrix" values="0 0 0 0 0 0 0 0 0 0 0 0 0 0 0 0 0 0 127 0"/>
<feOffset dy="4"/>
<feGaussianBlur stdDeviation="5"/>
<feColorMatrix type="matrix" values="0 0 0 0 0 0 0 0 0 0 0 0 0 0 0 0 0 0 0.05 0"/>
<feBlend mode="normal" in2="BackgroundImageFix" result="effect1_dropShadow"/>
<feBlend mode="normal" in="SourceGraphic" in2="effect1_dropShadow" result="shape"/>
</filter>
<linearGradient id="paint0_linear" x1="24.4745" y1="22.9254" x2="25.4777" y2="17.2566" gradientUnits="userSpaceOnUse">
<stop/>
<stop offset="1" stop-opacity="0"/>
</linearGradient>
<linearGradient id="paint1_linear" x1="305.661" y1="250.987" x2="371.864" y2="398.835" gradientUnits="userSpaceOnUse">
<stop/>
<stop offset="1" stop-opacity="0"/>
</linearGradient>
<clipPath id="clip0">
<rect width="36.5924" height="40" fill="white" transform="translate(10 6)"/>
</clipPath>
</defs>
</svg>
